<?xml version="1.0" encoding="UTF-8"?>
<svg version="1.1" xmlns="http://www.w3.org/2000/svg" width="512" height="512">
<path d="M0 0 C1.1484101 -0.00467997 2.29682019 -0.00935994 3.4800306 -0.01418173 C7.30126521 -0.02608072 11.1221378 -0.01669415 14.94337463 -0.00723267 C17.6939721 -0.00965136 20.44455454 -0.01653594 23.19514465 -0.02316284 C29.87464019 -0.03646147 36.55403426 -0.03363966 43.23353367 -0.02492492 C48.6655757 -0.01813291 54.09758941 -0.0172382 59.52963448 -0.02049637 C60.30455592 -0.02095607 61.07947736 -0.02141577 61.87788128 -0.0218894 C63.45243264 -0.02284863 65.02698399 -0.02382127 66.60153533 -0.02480717 C81.3460703 -0.03334987 96.0905492 -0.02354484 110.83507497 -0.00740607 C123.46771986 0.00599344 136.10028202 0.00366988 148.73292542 -0.01016235 C163.42534895 -0.02624258 178.11772339 -0.03252321 192.8101545 -0.02332556 C194.37902168 -0.02236998 195.94788886 -0.02142687 197.51675606 -0.02049637 C198.28853763 -0.02003354 199.06031921 -0.01957072 199.8554881 -0.01909386 C205.2761728 -0.01651109 210.69682618 -0.02085959 216.11750603 -0.02793503 C222.73052468 -0.03637754 229.34343659 -0.03401249 235.95644312 -0.0180928 C239.32612544 -0.01024637 242.69548428 -0.00868989 246.06518745 -0.01704025 C249.72804104 -0.0252781 253.39040028 -0.01490639 257.05322266 0 C258.62957124 -0.01003825 258.62957124 -0.01003825 260.23776525 -0.02027929 C275.81549136 0.10208546 288.51923975 5.24344215 299.8049469 15.97470093 C310.13378777 26.85088208 315.26531134 39.92033861 315.21035767 54.84074402 C315.2116393 56.11509521 315.2116393 56.11509521 315.21294683 57.41519088 C315.21459321 60.26032574 315.20909402 63.10540158 315.20362854 65.95053101 C315.20334646 67.99065143 315.20350481 70.03077196 315.20407104 72.07089233 C315.20435821 77.60968468 315.1984745 83.14845542 315.19149709 88.68724275 C315.18525013 94.47549979 315.18465869 100.26375732 315.18347168 106.05201721 C315.18036233 117.01309736 315.17215426 127.97416755 315.16212219 138.93524331 C315.15094877 151.41395968 315.1454475 163.89267653 315.14042675 176.37139666 C315.12997134 202.04125361 315.11237954 227.71110171 315.09010315 253.38095093 C315.71127014 253.36984787 316.33243713 253.35874481 316.97242737 253.3473053 C323.46153831 253.23633504 329.95037791 253.16112765 336.44020081 253.10629272 C338.85925757 253.0812122 341.27823904 253.04713943 343.69703674 253.00375366 C347.18241499 252.94282048 350.66678779 252.9146753 354.15260315 252.89266968 C355.22687561 252.86686325 356.30114807 252.84105682 357.40797424 252.81446838 C365.15840429 252.81160006 369.92609002 254.52260601 375.60939026 259.78871155 C380.22850319 264.7878116 381.54762299 270.57906117 381.34010315 277.27157593 C380.53787606 284.04036698 378.16576613 289.73725927 373.09010315 294.38095093 C365.86413996 298.59497058 358.3049366 299.12343264 350.09010315 299.38095093 C350.59799377 299.95200562 351.1058844 300.5230603 351.62916565 301.11141968 C360.48110307 311.53813998 366.14935268 323.23424997 366.10426331 337.04403687 C366.10119675 338.26168732 366.10119675 338.26168732 366.09806824 339.50393677 C366.09543976 340.12335144 366.09281128 340.74276611 366.09010315 341.38095093 C367.25469055 341.36524048 368.41927795 341.34953003 369.61915588 341.33334351 C373.9745532 341.27869893 378.32992071 341.24447617 382.68556213 341.21615601 C384.56419485 341.2011476 386.44279299 341.1807344 388.32130432 341.15463257 C391.03468908 341.11789707 393.74760725 341.10114486 396.4611969 341.08798218 C397.7039463 341.06475639 397.7039463 341.06475639 398.97180176 341.0410614 C407.25579126 341.03871547 414.53560196 342.96804009 420.65260315 348.71688843 C424.66743374 353.36449123 426.09010315 359.33896505 426.09010315 365.38095093 C425.2779508 372.84260068 422.68178953 377.78926455 417.34010315 383.13095093 C409.90562307 388.27789867 401.47877755 387.66370908 392.77139664 387.65534592 C390.52470214 387.6543702 388.27847256 387.66744471 386.03184509 387.68432617 C379.64960777 387.73028379 373.26742248 387.75518637 366.88502502 387.7618103 C362.96577261 387.76685589 359.04701124 387.79125318 355.12792587 387.82713699 C353.64578082 387.83685958 352.16356761 387.83930864 350.6814003 387.8339653 C341.83687949 387.80356938 335.23366993 388.80546179 327.09010315 392.38095093 C323.13010315 393.04095093 319.17010315 393.70095093 315.09010315 394.38095093 C315.09010315 402.63095093 315.09010315 410.88095093 315.09010315 419.38095093 C304.20010315 419.87595093 304.20010315 419.87595093 293.09010315 420.38095093 C298.28477595 426.61455829 300.85519659 428.94020519 308.78712463 429.76571655 C310.08206848 429.7728064 311.37701233 429.77989624 312.7111969 429.78720093 C313.76658409 429.8034552 313.76658409 429.8034552 314.84329224 429.82003784 C317.07149063 429.85400828 319.29918111 429.86982695 321.52760315 429.88095093 C342.08609452 429.98382166 342.08609452 429.98382166 348.33229065 435.28329468 C348.87111877 435.95489624 349.4099469 436.6264978 349.96510315 437.31845093 C350.51940002 437.98747437 351.0736969 438.6564978 351.64479065 439.34579468 C355.48442438 444.75241406 356.52613383 450.17290881 355.8440094 456.75595093 C354.45221872 464.04745608 351.29390524 469.14420804 345.09010315 473.38095093 C341.27011992 475.21200314 338.23593881 475.63324562 334.01551342 475.64101315 C332.78781992 475.64807874 331.56012642 475.65514433 330.29523009 475.66242403 C328.93593513 475.66017276 327.57664049 475.65772627 326.21734619 475.65510559 C324.77092471 475.65955843 323.32450567 475.66487262 321.8780902 475.67097431 C317.90286065 475.68515916 313.92770926 475.68681752 309.95245802 475.68637741 C305.66535615 475.68802517 301.37828651 475.70109086 297.09120178 475.71257019 C287.71729319 475.73542164 278.34340723 475.74334082 268.96947455 475.74839664 C263.11675984 475.7516532 257.26405171 475.75817539 251.41134071 475.76539803 C235.20749339 475.7849634 219.00365219 475.80136822 202.79979229 475.80427456 C201.76284884 475.80446213 200.72590539 475.8046497 199.65753942 475.80484295 C197.55540009 475.8052092 195.45326077 475.8055729 193.35112145 475.80593406 C191.78586148 475.80620828 191.78586148 475.80620828 190.1889801 475.80648804 C188.62181041 475.80675886 188.62181041 475.80675886 187.02298073 475.80703516 C170.08958001 475.81057765 153.15630639 475.83760501 136.22294977 475.87498593 C118.83863525 475.91305537 101.45438383 475.93243193 84.0700267 475.93273407 C74.30891631 475.93331891 64.54795759 475.94182839 54.78688622 475.97073174 C46.47618108 475.99522727 38.16568293 476.00254082 29.85495146 475.98748421 C25.61489123 475.98030804 21.37523986 475.98120297 17.1352253 476.00389481 C13.25195835 476.02447829 9.36941478 476.02189101 5.48615573 476.00101996 C4.08307116 475.99752382 2.67993447 476.00244056 1.27691825 476.0167244 C-8.4411911 476.10926857 -14.22793977 474.93636863 -21.22239685 468.13095093 C-25.80504165 460.66293718 -26.64468564 453.96148316 -24.90989685 445.38095093 C-22.49377247 438.85741509 -18.06144897 434.53559304 -11.90989685 431.38095093 C-8.00994177 430.04314885 -3.99881138 430.22803872 0.07447815 430.20516968 C1.6656371 430.18196381 3.25678297 430.15784617 4.84791565 430.13290405 C7.34051697 430.0978901 9.83263807 430.06849126 12.32545471 430.05502319 C14.74237952 430.03943168 17.15792396 429.99915223 19.57447815 429.95516968 C20.3080957 429.95707809 21.04171326 429.95898651 21.79756165 429.96095276 C27.83746493 429.82011686 33.23425198 428.14523278 37.65815735 423.86317444 C41.88273527 418.90508048 42.32280567 415.46155118 42.40260315 409.13095093 C42.43160706 408.37942749 42.46061096 407.62790405 42.49049377 406.85360718 C42.5638537 400.38664754 40.33588781 397.07589252 36.21510315 392.13095093 C31.55328407 388.2918058 26.22216263 388.08826135 20.40748596 388.10971069 C19.66189423 388.10448395 18.91630249 388.0992572 18.14811707 388.09387207 C16.53746379 388.08367334 14.92677793 388.0778589 13.31609344 388.07599068 C10.75873675 388.0723075 8.20176114 388.05552632 5.64448547 388.03523254 C-1.62356953 387.98001783 -8.89168046 387.9492189 -16.15989685 387.9246521 C-20.61492126 387.90869098 -25.06967543 387.87838183 -29.52455902 387.83988762 C-31.21324524 387.82831118 -32.90197997 387.82230792 -34.59070587 387.8222065 C-55.41977118 387.82050232 -55.41977118 387.82050232 -62.34739685 382.51376343 C-67.5191738 375.86803005 -70.59045197 369.75440361 -69.6638031 361.07626343 C-68.16827342 353.21480653 -64.5396309 347.97076681 -57.90989685 343.38095093 C-52.55059482 341.75741529 -47.66597825 341.09151672 -42.06028748 341.12557983 C-41.32094467 341.12195938 -40.58160187 341.11833893 -39.81985474 341.11460876 C-38.22941309 341.10776494 -36.63894822 341.10519982 -35.04849243 341.10655594 C-32.52512495 341.10752925 -30.00217409 341.09448573 -27.47886658 341.07757568 C-20.30991266 341.03153858 -13.14100549 341.00669872 -5.97190857 341.00009155 C-1.57288262 340.99506186 2.82570253 340.97074563 7.22457886 340.93476486 C8.89259183 340.92500761 10.56066572 340.92261254 12.22869873 340.92793655 C24.272809 341.14352866 24.272809 341.14352866 35.09010315 336.38095093 C37.54968055 333.81285265 37.54968055 333.81285265 39.09010315 331.38095093 C37.5277594 331.08704468 37.5277594 331.08704468 35.93385315 330.78720093 C14.73381009 326.48834487 -5.15834231 315.59184655 -17.48509216 297.31625366 C-30.30261486 277.56522898 -35.33177471 255.12575705 -30.72239685 231.81845093 C-25.54663509 211.42835691 -13.62704733 193.03058412 4.09010315 181.38095093 C18.05434305 173.19633356 30.63021922 169.55665692 47.09010315 168.38095093 C47.09010315 158.48095093 47.09010315 148.58095093 47.09010315 138.38095093 C45.77010315 138.38095093 44.45010315 138.38095093 43.09010315 138.38095093 C43.09010315 127.49095093 43.09010315 116.60095093 43.09010315 105.38095093 C9.43010315 105.38095093 -24.22989685 105.38095093 -58.90989685 105.38095093 C-58.95114685 96.71845093 -58.99239685 88.05595093 -59.03489685 79.13095093 C-59.05310486 76.42101929 -59.07131287 73.71108765 -59.09007263 70.91903687 C-59.09592218 68.73446856 -59.10101664 66.54989804 -59.10520935 64.36532593 C-59.11544128 63.2607605 -59.12567322 62.15619507 -59.13621521 61.01815796 C-59.13997187 44.00049264 -55.32104298 29.39366143 -43.90989685 16.38095093 C-31.83369817 4.62571434 -16.56954905 -0.10529202 0 0 Z " fill="#E4F8FD" transform="translate(77.90989685058594,36.619049072265625)"/>
<path d="M0 0 C1.1484101 -0.00467997 2.29682019 -0.00935994 3.4800306 -0.01418173 C7.30126521 -0.02608072 11.1221378 -0.01669415 14.94337463 -0.00723267 C17.6939721 -0.00965136 20.44455454 -0.01653594 23.19514465 -0.02316284 C29.87464019 -0.03646147 36.55403426 -0.03363966 43.23353367 -0.02492492 C48.6655757 -0.01813291 54.09758941 -0.0172382 59.52963448 -0.02049637 C60.30455592 -0.02095607 61.07947736 -0.02141577 61.87788128 -0.0218894 C63.45243264 -0.02284863 65.02698399 -0.02382127 66.60153533 -0.02480717 C81.3460703 -0.03334987 96.0905492 -0.02354484 110.83507497 -0.00740607 C123.46771986 0.00599344 136.10028202 0.00366988 148.73292542 -0.01016235 C163.42534895 -0.02624258 178.11772339 -0.03252321 192.8101545 -0.02332556 C194.37902168 -0.02236998 195.94788886 -0.02142687 197.51675606 -0.02049637 C198.28853763 -0.02003354 199.06031921 -0.01957072 199.8554881 -0.01909386 C205.2761728 -0.01651109 210.69682618 -0.02085959 216.11750603 -0.02793503 C222.73052468 -0.03637754 229.34343659 -0.03401249 235.95644312 -0.0180928 C239.32612544 -0.01024637 242.69548428 -0.00868989 246.06518745 -0.01704025 C249.72804104 -0.0252781 253.39040028 -0.01490639 257.05322266 0 C258.62957124 -0.01003825 258.62957124 -0.01003825 260.23776525 -0.02027929 C275.81549136 0.10208546 288.51923975 5.24344215 299.8049469 15.97470093 C310.13378777 26.85088208 315.26531134 39.92033861 315.21035767 54.84074402 C315.2116393 56.11509521 315.2116393 56.11509521 315.21294683 57.41519088 C315.21459321 60.26032574 315.20909402 63.10540158 315.20362854 65.95053101 C315.20334646 67.99065143 315.20350481 70.03077196 315.20407104 72.07089233 C315.20435821 77.60968468 315.1984745 83.14845542 315.19149709 88.68724275 C315.18525013 94.47549979 315.18465869 100.26375732 315.18347168 106.05201721 C315.18036233 117.01309736 315.17215426 127.97416755 315.16212219 138.93524331 C315.15094877 151.41395968 315.1454475 163.89267653 315.14042675 176.37139666 C315.12997134 202.04125361 315.11237954 227.71110171 315.09010315 253.38095093 C315.71127014 253.36984787 316.33243713 253.35874481 316.97242737 253.3473053 C323.46153831 253.23633504 329.95037791 253.16112765 336.44020081 253.10629272 C338.85925757 253.0812122 341.27823904 253.04713943 343.69703674 253.00375366 C347.18241499 252.94282048 350.66678779 252.9146753 354.15260315 252.89266968 C355.22687561 252.86686325 356.30114807 252.84105682 357.40797424 252.81446838 C365.15840429 252.81160006 369.92609002 254.52260601 375.60939026 259.78871155 C380.22850319 264.7878116 381.54762299 270.57906117 381.34010315 277.27157593 C380.53787606 284.04036698 378.16576613 289.73725927 373.09010315 294.38095093 C365.86413996 298.59497058 358.3049366 299.12343264 350.09010315 299.38095093 C350.59799377 299.95200562 351.1058844 300.5230603 351.62916565 301.11141968 C360.48110307 311.53813998 366.14935268 323.23424997 366.10426331 337.04403687 C366.10119675 338.26168732 366.10119675 338.26168732 366.09806824 339.50393677 C366.09543976 340.12335144 366.09281128 340.74276611 366.09010315 341.38095093 C367.25469055 341.36524048 368.41927795 341.34953003 369.61915588 341.33334351 C373.9745532 341.27869893 378.32992071 341.24447617 382.68556213 341.21615601 C384.56419485 341.2011476 386.44279299 341.1807344 388.32130432 341.15463257 C391.03468908 341.11789707 393.74760725 341.10114486 396.4611969 341.08798218 C397.7039463 341.06475639 397.7039463 341.06475639 398.97180176 341.0410614 C407.25579126 341.03871547 414.53560196 342.96804009 420.65260315 348.71688843 C424.66743374 353.36449123 426.09010315 359.33896505 426.09010315 365.38095093 C425.2779508 372.84260068 422.68178953 377.78926455 417.34010315 383.13095093 C409.90562307 388.27789867 401.47877755 387.66370908 392.77139664 387.65534592 C390.52470214 387.6543702 388.27847256 387.66744471 386.03184509 387.68432617 C379.64960777 387.73028379 373.26742248 387.75518637 366.88502502 387.7618103 C362.96577261 387.76685589 359.04701124 387.79125318 355.12792587 387.82713699 C353.64578082 387.83685958 352.16356761 387.83930864 350.6814003 387.8339653 C341.83687949 387.80356938 335.23366993 388.80546179 327.09010315 392.38095093 C323.13010315 393.04095093 319.17010315 393.70095093 315.09010315 394.38095093 C315.09010315 402.63095093 315.09010315 410.88095093 315.09010315 419.38095093 C304.20010315 419.87595093 304.20010315 419.87595093 293.09010315 420.38095093 C298.28477595 426.61455829 300.85519659 428.94020519 308.78712463 429.76571655 C310.08206848 429.7728064 311.37701233 429.77989624 312.7111969 429.78720093 C313.76658409 429.8034552 313.76658409 429.8034552 314.84329224 429.82003784 C317.07149063 429.85400828 319.29918111 429.86982695 321.52760315 429.88095093 C342.08609452 429.98382166 342.08609452 429.98382166 348.33229065 435.28329468 C348.87111877 435.95489624 349.4099469 436.6264978 349.96510315 437.31845093 C350.51940002 437.98747437 351.0736969 438.6564978 351.64479065 439.34579468 C355.48442438 444.75241406 356.52613383 450.17290881 355.8440094 456.75595093 C354.45221872 464.04745608 351.29390524 469.14420804 345.09010315 473.38095093 C341.27011992 475.21200314 338.23593881 475.63324562 334.01551342 475.64101315 C332.78781992 475.64807874 331.56012642 475.65514433 330.29523009 475.66242403 C328.93593513 475.66017276 327.57664049 475.65772627 326.21734619 475.65510559 C324.77092471 475.65955843 323.32450567 475.66487262 321.8780902 475.67097431 C317.90286065 475.68515916 313.92770926 475.68681752 309.95245802 475.68637741 C305.66535615 475.68802517 301.37828651 475.70109086 297.09120178 475.71257019 C287.71729319 475.73542164 278.34340723 475.74334082 268.96947455 475.74839664 C263.11675984 475.7516532 257.26405171 475.75817539 251.41134071 475.76539803 C235.20749339 475.7849634 219.00365219 475.80136822 202.79979229 475.80427456 C201.76284884 475.80446213 200.72590539 475.8046497 199.65753942 475.80484295 C197.55540009 475.8052092 195.45326077 475.8055729 193.35112145 475.80593406 C191.78586148 475.80620828 191.78586148 475.80620828 190.1889801 475.80648804 C188.62181041 475.80675886 188.62181041 475.80675886 187.02298073 475.80703516 C170.08958001 475.81057765 153.15630639 475.83760501 136.22294977 475.87498593 C118.83863525 475.91305537 101.45438383 475.93243193 84.0700267 475.93273407 C74.30891631 475.93331891 64.54795759 475.94182839 54.78688622 475.97073174 C46.47618108 475.99522727 38.16568293 476.00254082 29.85495146 475.98748421 C25.61489123 475.98030804 21.37523986 475.98120297 17.1352253 476.00389481 C13.25195835 476.02447829 9.36941478 476.02189101 5.48615573 476.00101996 C4.08307116 475.99752382 2.67993447 476.00244056 1.27691825 476.0167244 C-8.4411911 476.10926857 -14.22793977 474.93636863 -21.22239685 468.13095093 C-25.80504165 460.66293718 -26.64468564 453.96148316 -24.90989685 445.38095093 C-22.49377247 438.85741509 -18.06144897 434.53559304 -11.90989685 431.38095093 C-8.00994177 430.04314885 -3.99881138 430.22803872 0.07447815 430.20516968 C1.6656371 430.18196381 3.25678297 430.15784617 4.84791565 430.13290405 C7.34051697 430.0978901 9.83263807 430.06849126 12.32545471 430.05502319 C14.74237952 430.03943168 17.15792396 429.99915223 19.57447815 429.95516968 C20.3080957 429.95707809 21.04171326 429.95898651 21.79756165 429.96095276 C27.83746493 429.82011686 33.23425198 428.14523278 37.65815735 423.86317444 C41.88273527 418.90508048 42.32280567 415.46155118 42.40260315 409.13095093 C42.43160706 408.37942749 42.46061096 407.62790405 42.49049377 406.85360718 C42.5638537 400.38664754 40.33588781 397.07589252 36.21510315 392.13095093 C31.55328407 388.2918058 26.22216263 388.08826135 20.40748596 388.10971069 C19.66189423 388.10448395 18.91630249 388.0992572 18.14811707 388.09387207 C16.53746379 388.08367334 14.92677793 388.0778589 13.31609344 388.07599068 C10.75873675 388.0723075 8.20176114 388.05552632 5.64448547 388.03523254 C-1.62356953 387.98001783 -8.89168046 387.9492189 -16.15989685 387.9246521 C-20.61492126 387.90869098 -25.06967543 387.87838183 -29.52455902 387.83988762 C-31.21324524 387.82831118 -32.90197997 387.82230792 -34.59070587 387.8222065 C-55.41977118 387.82050232 -55.41977118 387.82050232 -62.34739685 382.51376343 C-67.5191738 375.86803005 -70.59045197 369.75440361 -69.6638031 361.07626343 C-68.16827342 353.21480653 -64.5396309 347.97076681 -57.90989685 343.38095093 C-52.55059482 341.75741529 -47.66597825 341.09151672 -42.06028748 341.12557983 C-41.32094467 341.12195938 -40.58160187 341.11833893 -39.81985474 341.11460876 C-38.22941309 341.10776494 -36.63894822 341.10519982 -35.04849243 341.10655594 C-32.52512495 341.10752925 -30.00217409 341.09448573 -27.47886658 341.07757568 C-20.30991266 341.03153858 -13.14100549 341.00669872 -5.97190857 341.00009155 C-1.57288262 340.99506186 2.82570253 340.97074563 7.22457886 340.93476486 C8.89259183 340.92500761 10.56066572 340.92261254 12.22869873 340.92793655 C24.272809 341.14352866 24.272809 341.14352866 35.09010315 336.38095093 C37.54968055 333.81285265 37.54968055 333.81285265 39.09010315 331.38095093 C37.5277594 331.08704468 37.5277594 331.08704468 35.93385315 330.78720093 C14.73381009 326.48834487 -5.15834231 315.59184655 -17.48509216 297.31625366 C-30.30261486 277.56522898 -35.33177471 255.12575705 -30.72239685 231.81845093 C-25.54663509 211.42835691 -13.62704733 193.03058412 4.09010315 181.38095093 C24.0684575 169.67138512 45.68978521 165.29578531 68.52760315 170.56845093 C70.39481037 171.13102412 72.24911508 171.73774464 74.09010315 172.38095093 C75.26443909 172.7702478 76.43877502 173.15954468 77.6486969 173.56063843 C97.45859876 180.53793582 111.52520031 194.53751377 122.09010315 212.38095093 C122.09010315 213.04095093 122.09010315 213.70095093 122.09010315 214.38095093 C175.55010315 214.38095093 229.01010315 214.38095093 284.09010315 214.38095093 C284.09010315 217.02095093 284.09010315 219.66095093 284.09010315 222.38095093 C231.95010315 222.38095093 179.81010315 222.38095093 126.09010315 222.38095093 C127.08010315 225.35095093 128.07010315 228.32095093 129.09010315 231.38095093 C129.09010315 233.03095093 129.09010315 234.68095093 129.09010315 236.38095093 C180.24010315 236.38095093 231.39010315 236.38095093 284.09010315 236.38095093 C284.09010315 239.02095093 284.09010315 241.66095093 284.09010315 244.38095093 C233.27010315 244.38095093 182.45010315 244.38095093 130.09010315 244.38095093 C130.09010315 249.00095093 130.09010315 253.62095093 130.09010315 258.38095093 C180.91010315 258.38095093 231.73010315 258.38095093 284.09010315 258.38095093 C284.09010315 261.02095093 284.09010315 263.66095093 284.09010315 266.38095093 C232.94010315 266.71095093 181.79010315 267.04095093 129.09010315 267.38095093 C127.77010315 271.67095093 126.45010315 275.96095093 125.09010315 280.38095093 C146.21010315 280.38095093 167.33010315 280.38095093 189.09010315 280.38095093 C189.09010315 283.02095093 189.09010315 285.66095093 189.09010315 288.38095093 C166.32010315 288.38095093 143.55010315 288.38095093 120.09010315 288.38095093 C119.43010315 290.03095093 118.77010315 291.68095093 118.09010315 293.38095093 C105.98503891 312.3910166 88.76513173 323.7076213 67.09010315 329.38095093 C66.34631409 329.58075562 65.60252502 329.7805603 64.8361969 329.98641968 C60.6286663 330.59091554 56.34083591 330.38095093 52.09010315 330.38095093 C52.09010315 357.11095093 52.09010315 383.84095093 52.09010315 411.38095093 C136.24010315 411.38095093 220.39010315 411.38095093 307.09010315 411.38095093 C307.09010315 405.44095093 307.09010315 399.50095093 307.09010315 393.38095093 C305.52260315 393.31907593 303.95510315 393.25720093 302.34010315 393.19345093 C288.20188727 391.85213301 275.86556795 383.58422042 266.87135315 372.85751343 C257.44341653 359.74937348 254.5029136 345.21619077 256.09010315 329.38095093 C259.14083488 314.21347114 267.66164453 301.9884267 280.1565094 293.24032593 C288.43047142 287.99611032 297.21476579 284.38095093 307.09010315 284.38095093 C307.05376021 254.53716554 306.99705916 224.69347102 306.9121822 194.84978442 C306.90216548 191.32151807 306.89232123 187.79325126 306.88258362 184.26498413 C306.88064225 183.56260908 306.87870087 182.86023403 306.87670067 182.13657489 C306.84573179 170.78367494 306.82871433 159.43079519 306.81690893 148.07786099 C306.8044708 136.41714122 306.7766146 124.75653285 306.73549008 113.09587878 C306.712892 106.55110974 306.6971915 100.00649097 306.6982193 93.46167946 C306.69896686 87.29501082 306.6809766 81.12867416 306.64893532 74.96209145 C306.64045273 72.70514949 306.63867516 70.44817022 306.64430046 68.19121933 C306.68189866 50.78020535 305.55625312 35.86978083 293.2111969 22.31845093 C288.43785839 17.84404877 283.05754788 14.9801479 277.09010315 12.38095093 C276.28959534 12.02645874 275.48908752 11.67196655 274.6643219 11.30673218 C268.6536272 9.14507111 262.63377356 9.2404969 256.33317566 9.26069641 C255.35616365 9.25984199 254.37915164 9.25898756 253.3725332 9.25810724 C250.10210161 9.25646147 246.83172142 9.26195907 243.56129456 9.26742554 C241.21561179 9.26770763 238.86992893 9.26754924 236.52424622 9.26698303 C230.15702826 9.26669592 223.78982911 9.27257881 217.42261553 9.27955699 C211.44237472 9.2851718 205.4621339 9.28618011 199.48189096 9.28720886 C187.63888913 9.28939608 175.7958942 9.29604723 163.95289612 9.30551147 C152.4502923 9.31469412 140.94769036 9.32177079 129.44508362 9.32601929 C128.38109071 9.32641337 128.38109071 9.32641337 127.29560299 9.32681542 C123.73701785 9.32812048 120.1784327 9.32938418 116.61984754 9.33062732 C87.10992829 9.34098966 57.60001584 9.35867349 28.09010315 9.38095093 C28.76774719 9.97988159 29.44539124 10.57881226 30.14356995 11.19589233 C31.03729309 11.99172729 31.93101624 12.78756226 32.8518219 13.60751343 C34.17766296 14.78434692 34.17766296 14.78434692 35.5302887 15.98495483 C44.60057689 24.47477918 51.23772178 36.00306849 52.27051163 48.57745361 C52.33406608 50.96543919 52.33781088 53.34572476 52.31715393 55.73446655 C52.31744598 56.63296326 52.31773804 57.53145996 52.31803894 58.45718384 C52.31665554 61.40062419 52.30114125 64.34380529 52.28541565 67.28720093 C52.281682 69.33842836 52.27883669 71.38965759 52.27684021 73.44088745 C52.26923149 78.81996652 52.24960684 84.1989363 52.22743225 89.57797241 C52.20691418 95.07478355 52.19782577 100.57161247 52.1877594 106.06845093 C52.16635825 116.83933208 52.13225582 127.61013239 52.09010315 138.38095093 C49.12010315 138.38095093 46.15010315 138.38095093 43.09010315 138.38095093 C43.09010315 127.49095093 43.09010315 116.60095093 43.09010315 105.38095093 C9.43010315 105.38095093 -24.22989685 105.38095093 -58.90989685 105.38095093 C-58.95114685 96.71845093 -58.99239685 88.05595093 -59.03489685 79.13095093 C-59.05310486 76.42101929 -59.07131287 73.71108765 -59.09007263 70.91903687 C-59.09592218 68.73446856 -59.10101664 66.54989804 -59.10520935 64.36532593 C-59.11544128 63.2607605 -59.12567322 62.15619507 -59.13621521 61.01815796 C-59.13997187 44.00049264 -55.32104298 29.39366143 -43.90989685 16.38095093 C-31.83369817 4.62571434 -16.56954905 -0.10529202 0 0 Z " fill="#031B52" transform="translate(77.90989685058594,36.619049072265625)"/>
<path d="M0 0 C0.33 0 0.66 0 1 0 C1 1.65 1 3.3 1 5 C2.27259485 4.99354745 3.5451897 4.9870949 4.85634804 4.98044682 C35.06244024 4.82885511 65.26842981 4.71342335 95.47481105 4.64254269 C99.19235517 4.6337877 102.90989849 4.62472745 106.62744141 4.61547852 C107.36754001 4.61364234 108.10763861 4.61180617 108.87016444 4.60991435 C120.85517587 4.57945168 132.83995237 4.52425796 144.82482441 4.45993043 C157.12163366 4.39447888 169.41831985 4.35559054 181.71529615 4.34138054 C189.30387708 4.33177356 196.891794 4.30142819 204.48017053 4.24458473 C210.29810891 4.20322235 216.11570614 4.1988113 221.93379593 4.20824623 C224.32112723 4.20631762 226.70848326 4.19235555 229.09566498 4.16556168 C232.35251782 4.13079417 235.60651669 4.13908041 238.86343384 4.15821838 C240.28465103 4.12763355 240.28465103 4.12763355 241.73457968 4.09643084 C248.04629045 4.19687112 248.04629045 4.19687112 250.83759093 6.54745471 C252.42111778 8.43310452 252.42111778 8.43310452 253.71196115 10.31161445 C255.92027962 13.20631983 258.6018976 13.9734971 262 15 C265.72804083 15.44907523 265.72804083 15.44907523 269.62109375 15.40625 C270.67648094 15.42250427 270.67648094 15.42250427 271.75318909 15.43908691 C273.98138748 15.47305735 276.20907796 15.48887603 278.4375 15.5 C298.99599137 15.60287073 298.99599137 15.60287073 305.2421875 20.90234375 C306.05042969 21.90974609 306.05042969 21.90974609 306.875 22.9375 C307.42929687 23.60652344 307.98359375 24.27554687 308.5546875 24.96484375 C312.39432123 30.37146313 313.43603068 35.79195789 312.75390625 42.375 C311.36211557 49.66650516 308.20380209 54.76325711 302 59 C298.18001677 60.83105222 295.14583566 61.2522947 290.92541027 61.26006222 C289.69771677 61.26712781 288.47002327 61.2741934 287.20512694 61.2814731 C285.84583198 61.27922183 284.48653734 61.27677534 283.12724304 61.27415466 C281.68082156 61.2786075 280.23440252 61.2839217 278.78798705 61.29002339 C274.8127575 61.30420823 270.83760611 61.30586659 266.86235487 61.30542648 C262.575253 61.30707424 258.28818337 61.32013993 254.00109863 61.33161926 C244.62719004 61.35447071 235.25330408 61.36238989 225.8793714 61.36744571 C220.02665669 61.37070227 214.17394856 61.37722446 208.32123756 61.3844471 C192.11739024 61.40401247 175.91354904 61.42041729 159.70968914 61.42332363 C158.67274569 61.4235112 157.63580224 61.42369877 156.56743627 61.42389202 C154.46529694 61.42425828 152.36315762 61.42462197 150.2610183 61.42498314 C148.69575833 61.42525735 148.69575833 61.42525735 147.09887695 61.42553711 C145.53170726 61.42580793 145.53170726 61.42580793 143.93287758 61.42608423 C126.99947686 61.42962672 110.06620324 61.45665409 93.13284662 61.494035 C75.7485321 61.53210444 58.36428068 61.551481 40.97992355 61.55178314 C31.21881317 61.55236799 21.45785444 61.56087746 11.69678307 61.58978081 C3.38607793 61.61427635 -4.92442022 61.62158989 -13.23515169 61.60653328 C-17.47521192 61.59935711 -21.71486329 61.60025204 -25.95487785 61.62294388 C-29.8381448 61.64352736 -33.72068837 61.64094008 -37.60394742 61.62006903 C-39.00703199 61.61657289 -40.41016868 61.62148963 -41.81318489 61.63577347 C-51.53129425 61.72831764 -57.31804292 60.5554177 -64.3125 53.75 C-68.8951448 46.28198625 -69.73478879 39.58053223 -68 31 C-65.58387562 24.47646417 -61.15155212 20.15464211 -55 17 C-51.10004492 15.66219792 -47.08891453 15.8470878 -43.015625 15.82421875 C-41.42446605 15.80101288 -39.83332018 15.77689524 -38.2421875 15.75195312 C-35.74958618 15.71693918 -33.25746508 15.68754033 -30.76464844 15.67407227 C-28.34772363 15.65848075 -25.93217919 15.6182013 -23.515625 15.57421875 C-22.78200745 15.57612717 -22.04838989 15.57803558 -21.2925415 15.58000183 C-15.26612034 15.43948031 -9.97250667 13.7376809 -5.46734619 9.58842468 C-2.88742657 6.65567674 -1.19846652 3.70435106 0 0 Z " fill="#CBEEFF" transform="translate(121,451)"/>
<path d="M0 0 C16.26922066 11.29972998 28.16991177 28.45759074 32 48 C32.38911034 52.15731915 32.42128027 56.26456262 32.375 60.4375 C32.38660156 61.47970703 32.39820313 62.52191406 32.41015625 63.59570312 C32.34768867 80.38907053 26.47520008 95.02791796 16 108 C15.35933594 108.80566406 14.71867187 109.61132812 14.05859375 110.44140625 C3.89474555 122.57642501 -12.2133649 131.8895586 -28 134 C-32.21013168 134.31008454 -36.40424714 134.40824757 -40.625 134.4375 C-41.66164795 134.44765137 -42.6982959 134.45780273 -43.76635742 134.46826172 C-54.22084198 134.3507863 -63.84615799 132.15999637 -73.125 127.3125 C-73.80312744 126.96364746 -74.48125488 126.61479492 -75.17993164 126.25537109 C-92.90271879 116.85695534 -104.69929483 101.29930477 -111.30859375 82.59765625 C-115.54394592 66.68517493 -115.082908 46.91335246 -108 32 C-107.54238281 31.01257813 -107.08476563 30.02515625 -106.61328125 29.0078125 C-98.1683812 12.3031061 -83.92402489 -0.83632089 -66.35546875 -7.3515625 C-63.25103403 -8.32017401 -60.15283408 -9.20505466 -57 -10 C-56.38890381 -10.1743457 -55.77780762 -10.34869141 -55.14819336 -10.52832031 C-36.65337389 -14.58923533 -15.73190698 -10.04432129 0 0 Z " fill="#01A3DF" transform="translate(168,225)"/>
<path d="M0 0 C9.9 0 19.8 0 30 0 C30 8.58 30 17.16 30 26 C31.98 26 33.96 26 36 26 C36 30.62 36 35.24 36 40 C38.31 40 40.62 40 43 40 C46.89398134 42.09675918 49.77445528 44.16743759 52 48 C52.27451945 50.56153135 52.38019022 52.87339434 52.34057617 55.43066406 C52.34123329 56.54344727 52.34123329 56.54344727 52.34190369 57.67871094 C52.33981787 60.12461903 52.31649727 62.56983702 52.29296875 65.015625 C52.28737204 66.71384303 52.2831023 68.41206592 52.28010559 70.11029053 C52.26866266 74.57545392 52.2392003 79.04032359 52.20599365 83.50537109 C52.17528084 88.06343615 52.16159767 92.62154875 52.14648438 97.1796875 C52.11433001 106.11992057 52.06314036 115.05993584 52 124 C49.03 124 46.06 124 43 124 C42.67 99.91 42.34 75.82 42 51 C40.02 50.34 38.04 49.68 36 49 C36.00921793 49.71335258 36.01843586 50.42670517 36.02793312 51.1616745 C36.25188458 68.77829185 36.41572678 86.39453379 36.51812172 104.0122757 C36.56899598 112.53329312 36.63818073 121.05333369 36.75439453 129.57373047 C37.28054811 168.90571249 36.86522837 205.80318103 26 244 C24.02 244 22.04 244 20 244 C20 249.94 20 255.88 20 262 C17.03 262 14.06 262 11 262 C11 256.06 11 250.12 11 244 C9.02 244 7.04 244 5 244 C3.82747804 238.96230609 2.67578031 233.92137746 1.55630493 228.87162781 C0.57966671 224.49127632 -0.46489383 220.13774353 -1.57266235 215.78889465 C-6.42164637 195.88529789 -6.80718383 176.73161103 -6.60836363 156.33741736 C-6.57014188 151.7345091 -6.5672763 147.13156117 -6.56021118 142.52851868 C-6.54176755 133.8629728 -6.49281674 125.19789622 -6.43211424 116.53255445 C-6.36440019 106.64580081 -6.33189916 96.75902143 -6.30194163 86.8720926 C-6.23969235 66.58113592 -6.13456869 46.29059784 -6 26 C-4.02 26 -2.04 26 0 26 C0 17.42 0 8.84 0 0 Z " fill="#031A52" transform="translate(422,6)"/>
<path d="M0 0 C9.46814992 6.94219473 15.16373549 16.35302302 18.2109375 27.62109375 C18.38479477 28.22036682 18.55865204 28.81963989 18.73777771 29.43707275 C19.26668912 31.87843325 19.3309008 34.07533327 19.32446289 36.57324219 C19.32434204 37.56759277 19.32422119 38.56194336 19.32409668 39.58642578 C19.31898071 40.62395996 19.31386475 41.66149414 19.30859375 42.73046875 C19.30758667 43.68969238 19.30657959 44.64891602 19.30554199 45.63720703 C19.30031599 49.21518146 19.28635472 52.79313882 19.2734375 56.37109375 C19.2528125 64.37359375 19.2321875 72.37609375 19.2109375 80.62109375 C-11.8090625 80.62109375 -42.8290625 80.62109375 -74.7890625 80.62109375 C-74.8715625 72.26796875 -74.9540625 63.91484375 -75.0390625 55.30859375 C-75.07547852 52.69397217 -75.11189453 50.07935059 -75.14941406 47.38549805 C-75.16111188 45.28044451 -75.1713011 43.17538183 -75.1796875 41.0703125 C-75.20015137 40.0038147 -75.22061523 38.93731689 -75.24169922 37.83850098 C-75.24765076 24.85669277 -70.31679684 14.37223985 -61.5390625 4.93359375 C-44.32146415 -11.30658635 -19.62366778 -12.7331566 0 0 Z " fill="#67E0FF" transform="translate(102.7890625,53.37890625)"/>
<path d="M0 0 C1.34323148 0.98666457 2.67813109 1.98489392 4 3 C4.86625 3.5775 5.7325 4.155 6.625 4.75 C15.49592425 13.1540335 21.06333792 24.12689344 21.59155273 36.31762695 C21.77265578 50.50315115 17.76381451 62.6284505 8.00390625 73.15234375 C2.62900908 78.2972988 -3.06781174 81.38904442 -10 84 C-11.35158203 84.54720703 -11.35158203 84.54720703 -12.73046875 85.10546875 C-22.99131287 87.91279647 -35.8334651 87.39773553 -45.33203125 82.6015625 C-46.21246094 82.07304687 -47.09289062 81.54453125 -48 81 C-49.42892578 80.14535156 -49.42892578 80.14535156 -50.88671875 79.2734375 C-61.29114004 72.3750081 -67.80373382 63.04468669 -71 51 C-73.59549045 37.7770284 -72.31815845 24.98505683 -64.6875 13.625 C-49.18234607 -6.67623969 -22.73255414 -14.77991144 0 0 Z " fill="#02CBFD" transform="translate(414,336)"/>
<path d="M0 0 C0.33 0 0.66 0 1 0 C1 1.65 1 3.3 1 5 C35.65 5 70.3 5 106 5 C103.7342398 10.66440049 103.7342398 10.66440049 100.75 12.6875 C100.18796875 13.08324219 99.6259375 13.47898437 99.046875 13.88671875 C91.69682016 17.88436308 84.09311109 17.3277396 75.94140625 17.30273438 C69.0764207 17.43590994 64.23851058 18.36975062 59 23 C54.05673041 28.67899114 52.63818724 34.51898903 53 42 C54.0668858 48.05504486 56.14655828 52.07102337 61 56 C64.30353279 58.31247295 67.00882053 59.4298315 71 60 C71 60.33 71 60.66 71 61 C54.84025075 61.11695161 38.6806394 61.20504574 22.52056885 61.25906086 C15.01666085 61.28481093 7.51301625 61.31989966 0.00927734 61.37719727 C-6.53320784 61.42713092 -13.0755022 61.45931426 -19.61817265 61.47044247 C-23.08057855 61.47694459 -26.54243871 61.49215793 -30.00466919 61.52865028 C-33.8756104 61.5691172 -37.74602425 61.56994304 -41.6171875 61.56762695 C-43.32730766 61.59459152 -43.32730766 61.59459152 -45.07197571 61.62210083 C-53.44395928 61.56795598 -58.33979132 59.56128412 -64.3125 53.75 C-68.8951448 46.28198625 -69.73478879 39.58053223 -68 31 C-65.58387562 24.47646417 -61.15155212 20.15464211 -55 17 C-51.10004492 15.66219792 -47.08891453 15.8470878 -43.015625 15.82421875 C-41.42446605 15.80101288 -39.83332018 15.77689524 -38.2421875 15.75195312 C-35.74958618 15.71693918 -33.25746508 15.68754033 -30.76464844 15.67407227 C-28.34772363 15.65848075 -25.93217919 15.6182013 -23.515625 15.57421875 C-22.78200745 15.57612717 -22.04838989 15.57803558 -21.2925415 15.58000183 C-15.26612034 15.43948031 -9.97250667 13.7376809 -5.46734619 9.58842468 C-2.88742657 6.65567674 -1.19846652 3.70435106 0 0 Z " fill="#E3FEFE" transform="translate(121,451)"/>
<path d="M0 0 C1.32 0 2.64 0 4 0 C4 23.76 4 47.52 4 72 C2.515 70.02 2.515 70.02 1 68 C-0.08393426 66.60899477 -1.18864755 65.23395721 -2.3125 63.875 C-2.86550781 63.19179688 -3.41851562 62.50859375 -3.98828125 61.8046875 C-8.4608419 57.79240979 -13.93764508 57.70756755 -19.68261719 57.72875977 C-20.42820892 57.72353302 -21.17380066 57.71830627 -21.94198608 57.71292114 C-23.55263936 57.70272242 -25.16332522 57.69690798 -26.7740097 57.69503975 C-29.3313664 57.69135657 -31.88834201 57.6745754 -34.44561768 57.65428162 C-41.71367268 57.5990669 -48.98178361 57.56826797 -56.25 57.54370117 C-60.70502441 57.52774005 -65.15977858 57.49743091 -69.61466217 57.45893669 C-71.30334839 57.44736025 -72.99208312 57.44135699 -74.68080902 57.44125557 C-95.50987433 57.43955139 -95.50987433 57.43955139 -102.4375 52.1328125 C-107.60927695 45.48707912 -110.68055512 39.37345269 -109.75390625 30.6953125 C-108.25837657 22.8338556 -104.62973405 17.58981588 -98 13 C-92.64069797 11.37646436 -87.7560814 10.71056579 -82.15039062 10.74462891 C-81.41104782 10.74100845 -80.67170502 10.737388 -79.90995789 10.73365784 C-78.31951624 10.72681401 -76.72905137 10.72424889 -75.13859558 10.72560501 C-72.6152281 10.72657832 -70.09227724 10.7135348 -67.56896973 10.69662476 C-60.40001581 10.65058765 -53.23110864 10.62574779 -46.06201172 10.61914062 C-41.66298577 10.61411093 -37.26440062 10.5897947 -32.86552429 10.55381393 C-31.19751132 10.54405668 -29.52943743 10.54166161 -27.86140442 10.54698563 C-15.80912439 10.77555928 -15.80912439 10.77555928 -5 6 C-4.05157069 4.94436241 -3.13390545 3.86022522 -2.25 2.75 C-1.5075 1.8425 -0.765 0.935 0 0 Z " fill="#E3FEFE" transform="translate(118,367)"/>
<path d="M0 0 C16.26922066 11.29972998 28.16991177 28.45759074 32 48 C32.38911034 52.15731915 32.42128027 56.26456262 32.375 60.4375 C32.38660156 61.47970703 32.39820313 62.52191406 32.41015625 63.59570312 C32.34768867 80.38907053 26.47520008 95.02791796 16 108 C15.35933594 108.80566406 14.71867187 109.61132812 14.05859375 110.44140625 C3.89474555 122.57642501 -12.2133649 131.8895586 -28 134 C-32.21013168 134.31008454 -36.40424714 134.40824757 -40.625 134.4375 C-41.66164795 134.44765137 -42.6982959 134.45780273 -43.76635742 134.46826172 C-54.22084198 134.3507863 -63.84615799 132.15999637 -73.125 127.3125 C-73.80312744 126.96364746 -74.48125488 126.61479492 -75.17993164 126.25537109 C-92.90271879 116.85695534 -104.69929483 101.29930477 -111.30859375 82.59765625 C-115.54394592 66.68517493 -115.082908 46.91335246 -108 32 C-107.54238281 31.01257813 -107.08476563 30.02515625 -106.61328125 29.0078125 C-98.1683812 12.3031061 -83.92402489 -0.83632089 -66.35546875 -7.3515625 C-63.25103403 -8.32017401 -60.15283408 -9.20505466 -57 -10 C-56.38890381 -10.1743457 -55.77780762 -10.34869141 -55.14819336 -10.52832031 C-36.65337389 -14.58923533 -15.73190698 -10.04432129 0 0 Z M-87 21 C-98.01622032 34.27540613 -103.05765658 49.85375972 -102 67 C-100.04486556 83.63819412 -92.40266463 97.88857169 -80 109 C-64.36403783 121.14139183 -48.17198658 123.22323493 -29 122 C-15.3485055 120.19550993 -1.10667201 111.21992028 7.23974609 100.39160156 C18.7819493 84.32063936 21.63246704 68.55372611 20 49 C18.39294397 39.71889226 13.52473196 31.48624394 8 24 C7.42765625 23.22011719 6.8553125 22.44023437 6.265625 21.63671875 C-2.26574341 11.08188475 -15.67250955 3.35662375 -29 1 C-52.00092557 -0.64649201 -70.60942108 3.67037749 -87 21 Z " fill="#F9FBFC" transform="translate(168,225)"/>
<path d="M0 0 C30.31100567 -0.04564066 60.62200778 -0.08102735 90.93303996 -0.10213066 C94.51281446 -0.10463203 98.09258889 -0.10722067 101.67236328 -0.10986328 C102.74135095 -0.11065021 102.74135095 -0.11065021 103.83193433 -0.11145304 C115.36605687 -0.12015191 126.90015944 -0.13591904 138.43427014 -0.15430559 C150.27231744 -0.17301904 162.11035428 -0.18411978 173.94841576 -0.18817699 C180.59640548 -0.19067321 187.24435807 -0.19691799 193.89233398 -0.21146011 C200.1499707 -0.22503746 206.40754351 -0.2292223 212.66519356 -0.22621536 C214.96134348 -0.22676545 217.25749555 -0.23074194 219.55363274 -0.23841095 C222.69070003 -0.24837445 225.82752664 -0.24596361 228.96459961 -0.24050903 C230.32455048 -0.24924756 230.32455048 -0.24924756 231.7119751 -0.25816262 C245.25488472 -0.19460136 257.27704646 4.51535414 267 14 C276.39982234 24.84220887 280.16578389 35.43540471 280.12025452 49.56074524 C280.12153615 51.01273096 280.12153615 51.01273096 280.12284368 52.49404973 C280.12449175 55.73994842 280.11898809 58.98579552 280.11352539 62.23168945 C280.11324335 64.55752054 280.11340159 66.88335171 280.1139679 69.20918274 C280.1142552 75.52687477 280.10836919 81.84454787 280.10139394 88.1622355 C280.09578188 94.09464439 280.09477106 100.02705255 280.09374207 105.95946374 C280.09155415 117.70873786 280.08490112 129.45800504 280.07543945 141.20727539 C280.0662586 152.61970993 280.05918106 164.03214259 280.05493164 175.44458008 C280.05453756 176.50000609 280.05453756 176.50000609 280.05413551 177.57675383 C280.05283046 181.10664146 280.05156675 184.63652911 280.05032361 188.16641676 C280.03995911 217.44428236 280.02227346 246.72214109 280 276 C277.69 276 275.38 276 273 276 C272.99761165 274.80508816 272.99522329 273.61017632 272.99276257 272.37905502 C272.93533619 243.98002855 272.86255851 215.58106955 272.77101372 187.18213271 C272.75974628 183.68262008 272.74860771 180.18310705 272.73754883 176.68359375 C272.7342433 175.63860955 272.7342433 175.63860955 272.730871 174.57251456 C272.69555036 163.3094773 272.67065674 152.0464401 272.64965298 140.78336808 C272.62784914 129.21645811 272.5945349 117.64962327 272.55129844 106.08277345 C272.52739058 99.59003918 272.50864576 93.09738389 272.50238609 86.60460663 C272.49632434 80.48805545 272.47628463 74.37170626 272.44572449 68.25522995 C272.43696182 66.01560495 272.43321799 63.77595354 272.43499184 61.5363121 C272.51779526 38.29652783 272.51779526 38.29652783 260.92578125 18.80859375 C251.29310588 9.68024693 241.74092062 7.85692198 228.8061676 7.84178162 C227.90180511 7.83684364 226.99744262 7.83190566 226.0656752 7.82681805 C223.04712183 7.81150759 220.02858962 7.80309997 217.01000977 7.79467773 C214.84151525 7.78509414 212.67302259 7.77508377 210.50453186 7.76467896 C204.62498045 7.73767605 198.74542106 7.71664151 192.8658421 7.69667697 C186.71856565 7.67478894 180.57131369 7.64741404 174.42405701 7.62062073 C162.78661668 7.57073193 151.14916274 7.52577895 139.5116958 7.48259836 C126.26146707 7.4331934 113.01126292 7.37828735 99.76105797 7.32291877 C72.50739493 7.20915726 45.25370829 7.10230553 18 7 C18.72826241 8.13222488 18.72826241 8.13222488 19.47123718 9.287323 C20.4226635 10.77294235 20.4226635 10.77294235 21.39331055 12.28857422 C22.02319382 13.27026581 22.65307709 14.2519574 23.30204773 15.26339722 C25.08552684 18.13784427 26.54770735 20.98759915 27.8125 24.125 C28.19019531 25.03507812 28.56789062 25.94515625 28.95703125 26.8828125 C31.68081647 35.02356384 32.2830635 42.56755852 32.22705078 51.12915039 C32.22734283 52.31064667 32.22763489 53.49214294 32.22793579 54.70944214 C32.22654983 58.58892328 32.21102302 62.46820893 32.1953125 66.34765625 C32.19046358 69.04764193 32.18863555 71.74762742 32.18673706 74.44761658 C32.18054204 80.81159946 32.16415826 87.17551293 32.14403808 93.53946537 C32.12161719 100.78982862 32.11067015 108.04019534 32.10064721 115.29058468 C32.07979007 130.19376267 32.04424601 145.09687176 32 160 C28.04 160 24.08 160 20 160 C20 150.1 20 140.2 20 130 C21.65 130 23.3 130 25 130 C24.96181182 118.22902141 24.90226013 106.45835764 24.81609726 94.68762684 C24.77673708 89.22085758 24.7444926 83.75424666 24.72900391 78.28735352 C24.71376161 73.00274176 24.67918274 67.71856561 24.63169098 62.43414879 C24.61695491 60.42697645 24.6089635 58.41974189 24.60811615 56.41251564 C24.59075427 35.89070409 20.87457072 20.95285793 6 6 C4.0465492 4.25784082 2.04971188 2.62925816 0 1 C0 0.67 0 0.34 0 0 Z " fill="#F6F7F9" transform="translate(105,45)"/>
<path d="M0 0 C8.25 0 16.5 0 25 0 C25.16345529 19.86566846 25.28767303 39.73114115 25.3626852 59.59734821 C25.39847176 68.82579542 25.44707469 78.05381207 25.52807617 87.28198242 C25.59880868 95.3442347 25.6432299 103.40617469 25.65861946 111.46872872 C25.66758686 115.72077645 25.68797508 119.97193245 25.7401104 124.22368813 C26.04993536 150.52147825 22.54072416 174.52752955 16 200 C13.69 200 11.38 200 9 200 C8.03759818 195.91113853 7.07741143 191.82176467 6.11914062 187.73193359 C5.79388023 186.34507729 5.46804903 184.95835471 5.14160156 183.57177734 C4.66836199 181.561235 4.19728243 179.55019606 3.7265625 177.5390625 C3.30238037 175.73236084 3.30238037 175.73236084 2.86962891 173.88916016 C2.58265137 172.6057373 2.29567383 171.32231445 2 170 C1.83023399 169.33635941 1.66046799 168.67271881 1.48555756 167.9889679 C-0.36537223 160.09148482 -0.26772507 152.23548052 -0.22705078 144.17724609 C-0.22648568 142.59943652 -0.22680516 141.02162641 -0.22793579 139.44381714 C-0.22850644 135.18829984 -0.21679903 130.93289674 -0.20278788 126.67740583 C-0.19023226 122.21980853 -0.18910622 117.76220821 -0.18673706 113.30459595 C-0.18053643 104.87590369 -0.1641449 96.44726369 -0.14403808 88.01859438 C-0.12163483 78.41758516 -0.11067454 68.81657335 -0.10064721 59.21554446 C-0.07977734 39.47699975 -0.04422324 19.73850502 0 0 Z " fill="#052D87" transform="translate(425,41)"/>
<path d="M0 0 C1.29762268 -0.00855011 1.29762268 -0.00855011 2.62145996 -0.01727295 C4.46084362 -0.02674408 6.30024441 -0.03326527 8.13964844 -0.03710938 C10.92934857 -0.04673899 13.71828791 -0.07770959 16.5078125 -0.109375 C18.29687064 -0.11591261 20.08593404 -0.12116009 21.875 -0.125 C23.11304382 -0.1435202 23.11304382 -0.1435202 24.37609863 -0.16241455 C32.64356485 -0.13128043 39.92623117 1.80147536 46.03125 7.5390625 C50.04608059 12.1866653 51.46875 18.16113913 51.46875 24.203125 C50.65659765 31.66477475 48.06043638 36.61143862 42.71875 41.953125 C34.69333412 47.50918215 25.16861056 46.46658046 15.8125 46.3984375 C14.29935901 46.3947016 12.78621558 46.39185735 11.27307129 46.38986206 C7.3143837 46.38227101 3.35584576 46.36266212 -0.6027832 46.3404541 C-4.65183489 46.31989744 -8.70091104 46.31083946 -12.75 46.30078125 C-20.67715157 46.27941138 -28.6041821 46.24533098 -36.53125 46.203125 C-33.6409308 43.29080357 -30.75970918 40.49978972 -27.59375 37.890625 C-17.10342654 28.7214513 -12.62918764 17.48393028 -10.109375 3.9765625 C-8.95752878 -1.54918625 -4.79731296 0.02422653 0 0 Z " fill="#CAEDFE" transform="translate(452.53125,377.796875)"/>
<path d="M0 0 C7.11771913 -0.11504934 14.2321881 -0.21451634 21.35009766 -0.2746582 C23.76915442 -0.29973872 26.18813589 -0.33381149 28.60693359 -0.37719727 C32.09231184 -0.43813045 35.57668464 -0.46627563 39.0625 -0.48828125 C40.13677246 -0.51408768 41.21104492 -0.5398941 42.31787109 -0.56648254 C50.06830114 -0.56935086 54.83598687 1.14165508 60.51928711 6.40776062 C65.13840004 11.40686068 66.45751984 17.19811024 66.25 23.890625 C65.44777291 30.65941605 63.07566298 36.35630834 58 41 C50.20642776 45.92467852 40.89602078 46.36442037 32 45 C29.16350301 43.561663 26.99928995 41.91621493 24.5625 39.8828125 C17.6203937 34.78205757 8.19365706 33.04841426 0 31 C0 20.77 0 10.54 0 0 Z " fill="#CAEDFE" transform="translate(393,290)"/>
<path d="M0 0 C2.31 0 4.62 0 7 0 C7 24.09 7 48.18 7 73 C86.53 73 166.06 73 248 73 C248 69.37 248 65.74 248 62 C250.31 62 252.62 62 255 62 C255 67.94 255 73.88 255 80 C170.85 80 86.7 80 0 80 C0 53.6 0 27.2 0 0 Z " fill="#F9FAFC" transform="translate(130,368)"/>
<path d="M0 0 C9.46814992 6.94219473 15.16373549 16.35302302 18.2109375 27.62109375 C18.38479477 28.22036682 18.55865204 28.81963989 18.73777771 29.43707275 C19.26668912 31.87843325 19.3309008 34.07533327 19.32446289 36.57324219 C19.32434204 37.56759277 19.32422119 38.56194336 19.32409668 39.58642578 C19.31898071 40.62395996 19.31386475 41.66149414 19.30859375 42.73046875 C19.30758667 43.68969238 19.30657959 44.64891602 19.30554199 45.63720703 C19.30031599 49.21518146 19.28635472 52.79313882 19.2734375 56.37109375 C19.2528125 64.37359375 19.2321875 72.37609375 19.2109375 80.62109375 C-11.8090625 80.62109375 -42.8290625 80.62109375 -74.7890625 80.62109375 C-74.8715625 72.26796875 -74.9540625 63.91484375 -75.0390625 55.30859375 C-75.07547852 52.69397217 -75.11189453 50.07935059 -75.14941406 47.38549805 C-75.16111188 45.28044451 -75.1713011 43.17538183 -75.1796875 41.0703125 C-75.20015137 40.0038147 -75.22061523 38.93731689 -75.24169922 37.83850098 C-75.24765076 24.85669277 -70.31679684 14.37223985 -61.5390625 4.93359375 C-44.32146415 -11.30658635 -19.62366778 -12.7331566 0 0 Z M-59.15625 11.57421875 C-66.67868733 21.0042598 -69.12368261 30.80025142 -68.984375 42.58984375 C-68.98236084 43.40743164 -68.98034668 44.22501953 -68.97827148 45.06738281 C-68.9679053 48.08534455 -68.93998368 51.10322553 -68.9140625 54.12109375 C-68.8728125 60.88609375 -68.8315625 67.65109375 -68.7890625 74.62109375 C-42.0590625 74.62109375 -15.3290625 74.62109375 12.2109375 74.62109375 C12.3140625 67.27859375 12.4171875 59.93609375 12.5234375 52.37109375 C12.59171753 48.93268066 12.59171753 48.93268066 12.66137695 45.42480469 C12.84147079 30.05512182 11.2569136 19.61051866 0.171875 8.109375 C-18.21226213 -7.34009117 -42.74836177 -5.67314283 -59.15625 11.57421875 Z " fill="#F6F8FA" transform="translate(102.7890625,53.37890625)"/>
<path d="M0 0 C8.25 0 16.5 0 25 0 C25.16345529 19.86566846 25.28767303 39.73114115 25.3626852 59.59734821 C25.39847176 68.82579542 25.44707469 78.05381207 25.52807617 87.28198242 C25.59880868 95.3442347 25.6432299 103.40617469 25.65861946 111.46872872 C25.66758686 115.72077645 25.68797508 119.97193245 25.7401104 124.22368813 C26.04993536 150.52147825 22.54072416 174.52752955 16 200 C13.69 200 11.38 200 9 200 C8.03759818 195.91113853 7.07741143 191.82176467 6.11914062 187.73193359 C5.79388023 186.34507729 5.46804903 184.95835471 5.14160156 183.57177734 C4.66836199 181.561235 4.19728243 179.55019606 3.7265625 177.5390625 C3.30238037 175.73236084 3.30238037 175.73236084 2.86962891 173.88916016 C2.58265137 172.6057373 2.29567383 171.32231445 2 170 C1.83023399 169.33635941 1.66046799 168.67271881 1.48555756 167.9889679 C-0.36537223 160.09148482 -0.26772507 152.23548052 -0.22705078 144.17724609 C-0.22648568 142.59943652 -0.22680516 141.02162641 -0.22793579 139.44381714 C-0.22850644 135.18829984 -0.21679903 130.93289674 -0.20278788 126.67740583 C-0.19023226 122.21980853 -0.18910622 117.76220821 -0.18673706 113.30459595 C-0.18053643 104.87590369 -0.1641449 96.44726369 -0.14403808 88.01859438 C-0.12163483 78.41758516 -0.11067454 68.81657335 -0.10064721 59.21554446 C-0.07977734 39.47699975 -0.04422324 19.73850502 0 0 Z M4 3 C3.83629216 22.27504652 3.7122025 41.54988961 3.6373148 60.82549381 C3.60158211 69.78031089 3.55290273 78.73467769 3.47192383 87.68920898 C3.38014904 98.03365672 3.32198425 108.3777827 3.31640625 118.72265625 C3.31595574 119.55816655 3.31550523 120.39367684 3.31504107 121.25450563 C3.32304299 146.33944299 4.34749112 170.64153618 11 195 C11.99 195 12.98 195 14 195 C20.88192526 169.80151767 21.69757868 144.65888221 21.68359375 118.72265625 C21.68314324 117.88714595 21.68269273 117.05163566 21.68222857 116.19080687 C21.67066824 105.80929635 21.59806571 95.42855161 21.50418627 85.04749811 C21.4245552 76.07959124 21.38710752 67.11163814 21.35226524 58.14346325 C21.27995335 39.76189654 21.15611476 21.38103358 21 3 C15.39 3 9.78 3 4 3 Z " fill="#F9FAFB" transform="translate(425,41)"/>
<path d="M0 0 C5.10029487 4.1359534 7.90839517 9.5658292 9 16 C9.23595323 22.41989403 8.10913543 27.96815451 4 33 C-1.51944432 38.55795207 -5.75518591 41.28772037 -13.75 41.375 C-19.71006616 41.26371246 -24.33063163 40.88752064 -29 37 C-34.11544102 31.60928862 -36.96095745 26.16614363 -37.375 18.6875 C-37.1891116 12.54285579 -35.27660473 7.54301592 -31.1640625 2.94921875 C-21.84831569 -5.67052399 -10.94212824 -6.28986283 0 0 Z " fill="#CBEEFF" transform="translate(479,471)"/>
<path d="M0 0 C1.34323148 0.98666457 2.67813109 1.98489392 4 3 C4.86625 3.5775 5.7325 4.155 6.625 4.75 C15.49592425 13.1540335 21.06333792 24.12689344 21.59155273 36.31762695 C21.77265578 50.50315115 17.76381451 62.6284505 8.00390625 73.15234375 C2.62900908 78.2972988 -3.06781174 81.38904442 -10 84 C-11.35158203 84.54720703 -11.35158203 84.54720703 -12.73046875 85.10546875 C-22.99131287 87.91279647 -35.8334651 87.39773553 -45.33203125 82.6015625 C-46.21246094 82.07304687 -47.09289062 81.54453125 -48 81 C-49.42892578 80.14535156 -49.42892578 80.14535156 -50.88671875 79.2734375 C-61.29114004 72.3750081 -67.80373382 63.04468669 -71 51 C-73.59549045 37.7770284 -72.31815845 24.98505683 -64.6875 13.625 C-49.18234607 -6.67623969 -22.73255414 -14.77991144 0 0 Z M-59.42578125 15.73828125 C-66.32042914 25.64399125 -67.58618973 36.26059913 -66 48 C-63.1555707 59.60671785 -57.24911425 68.77669564 -47 75 C-41.58112203 77.85204104 -36.18724842 80.61329697 -30 81 C-29.236875 81.07347656 -28.47375 81.14695312 -27.6875 81.22265625 C-16.79839633 81.83991649 -6.19775257 78.06570121 2.04296875 70.92578125 C10.50099346 62.60281482 16.10092337 52.44095938 16.5 40.3125 C15.89824115 29.23688435 11.82087917 18.03225428 4 10 C-7.44868999 0.58806197 -18.41484082 -2.24182638 -32.9765625 -1.22314453 C-43.67501182 -0.04332037 -52.81020002 7.64229024 -59.42578125 15.73828125 Z " fill="#F3F8FA" transform="translate(414,336)"/>
<path d="M0 0 C58.41 0 116.82 0 177 0 C177 2.64 177 5.28 177 8 C118.59 8 60.18 8 0 8 C0 5.36 0 2.72 0 0 Z " fill="#092157" transform="translate(185,184)"/>
<path d="M0 0 C58.41 0 116.82 0 177 0 C177 2.64 177 5.28 177 8 C118.59 8 60.18 8 0 8 C0 5.36 0 2.72 0 0 Z " fill="#092157" transform="translate(185,162)"/>
<path d="M0 0 C58.41 0 116.82 0 177 0 C177 2.64 177 5.28 177 8 C118.59 8 60.18 8 0 8 C0 5.36 0 2.72 0 0 Z " fill="#082056" transform="translate(185,140)"/>
<path d="M0 0 C2.64 0 5.28 0 8 0 C8 1.98 8 3.96 8 6 C8.721875 6.226875 9.44375 6.45375 10.1875 6.6875 C13.60756468 8.28353018 15.58991929 10.10790315 18 13 C18 14.32 18 15.64 18 17 C16.02 17.66 14.04 18.32 12 19 C11.67 18.01 11.34 17.02 11 16 C7.23048408 14.74349469 3.94130449 14.57302535 0 15 C-2.16666667 15.83333333 -2.16666667 15.83333333 -3 18 C-3.73168332 23.01669082 -3.73168332 23.01669082 -1.90625 27.54296875 C1.30717023 29.99912806 5.04666104 31.50610629 8.73046875 33.13085938 C13.52591406 35.38482136 15.97731855 37.77828439 19 42 C20.70108067 47.10324201 20.56521247 51.31873434 18.3125 56.1875 C16.42112672 59.64160369 14.40069888 61.90726223 11 64 C10.01 64 9.02 64 8 64 C8 66.64 8 69.28 8 72 C5.03 72 2.06 72 -1 72 C-1 69.69 -1 67.38 -1 65 C-1.721875 64.773125 -2.44375 64.54625 -3.1875 64.3125 C-6.60756468 62.71646982 -8.58991929 60.89209685 -11 58 C-11 56.68 -11 55.36 -11 54 C-9.02 53.34 -7.04 52.68 -5 52 C-4.505 52.66 -4.01 53.32 -3.5 54 C-0.84941377 56.12046898 -0.17371169 56.33618214 3.0625 56.4375 C6.7870831 56.27681799 6.7870831 56.27681799 8.9375 54.9375 C10.60093625 51.90417507 10.93957505 49.44422213 11 46 C7.65717934 41.69370973 2.97518437 39.88514996 -1.8671875 37.73242188 C-6.72962791 35.45250078 -9.59922613 32.80154775 -12 28 C-12.68731988 22.9232054 -13.12803253 18.06223412 -10.61328125 13.46484375 C-7.33571409 9.54740448 -5.17007565 7.66969892 0 7 C0 4.69 0 2.38 0 0 Z " fill="#001F57" transform="translate(385,340)"/>
<path d="M0 0 C36.63 0 73.26 0 111 0 C111 2.31 111 4.62 111 7 C74.37 7 37.74 7 0 7 C0 4.69 0 2.38 0 0 Z " fill="#001850" transform="translate(186,89)"/>
<path d="M0 0 C2.64477539 0.32617188 2.64477539 0.32617188 4.38525391 2.07421875 C4.90531006 2.88955078 5.42536621 3.70488281 5.96118164 4.54492188 C6.55560059 5.45886719 7.15001953 6.3728125 7.76245117 7.31445312 C8.38361816 8.30832031 9.00478516 9.3021875 9.64477539 10.32617188 C10.2930127 11.33035156 10.94125 12.33453125 11.60913086 13.36914062 C13.62507062 16.50646841 15.60721554 19.66297494 17.58227539 22.82617188 C18.26612305 23.90898437 18.9499707 24.99179687 19.65454102 26.10742188 C20.2997168 27.13867188 20.94489258 28.16992188 21.60961914 29.23242188 C22.19348389 30.16376953 22.77734863 31.09511719 23.37890625 32.0546875 C24.64477539 34.32617188 24.64477539 34.32617188 24.64477539 36.32617188 C25.4062085 35.95741943 26.1676416 35.58866699 26.95214844 35.20874023 C29.78914619 33.84287442 32.63168282 32.48951878 35.47851562 31.14428711 C36.70775562 30.5603455 37.93468905 29.97152178 39.15917969 29.37768555 C40.92292204 28.52338404 42.69588808 27.68820901 44.46899414 26.85351562 C45.53206787 26.34554443 46.5951416 25.83757324 47.69042969 25.31420898 C50.88504323 24.24581786 52.47063179 24.33826138 55.64477539 25.32617188 C56.13977539 27.80117188 56.13977539 27.80117188 56.64477539 30.32617188 C27.29183754 46.00937945 27.29183754 46.00937945 21.64477539 45.32617188 C19.89770508 43.5715332 19.89770508 43.5715332 18.31665039 41.09570312 C17.72174805 40.18127441 17.1268457 39.2668457 16.51391602 38.32470703 C15.89709961 37.33519043 15.2802832 36.34567383 14.64477539 35.32617188 C13.69634766 33.84383057 13.69634766 33.84383057 12.72875977 32.33154297 C10.7621237 29.2387854 8.82489723 26.12932947 6.89477539 23.01367188 C6.23606445 21.95599609 5.57735352 20.89832031 4.89868164 19.80859375 C3.14183421 16.9844526 1.38715572 14.15926111 -0.35522461 11.32617188 C-1.1929541 10.00709839 -1.1929541 10.00709839 -2.04760742 8.66137695 C-3.55264996 5.97360028 -3.69236061 4.36039585 -3.35522461 1.32617188 C-2.35522461 0.32617188 -2.35522461 0.32617188 0 0 Z " fill="#001C54" transform="translate(103.355224609375,244.673828125)"/>
<path d="M0 0 C27.06 0 54.12 0 82 0 C82 2.64 82 5.28 82 8 C54.94 8 27.88 8 0 8 C0 5.36 0 2.72 0 0 Z " fill="#0A2258" transform="translate(185,206)"/>
<path d="M0 0 C21.45 0 42.9 0 65 0 C65 2.64 65 5.28 65 8 C43.55 8 22.1 8 0 8 C0 5.36 0 2.72 0 0 Z " fill="#0D245A" transform="translate(176,407)"/>
<path d="M0 0 C3.32296525 1.75237336 5.48947753 4.15652809 7.4375 7.375 C8.32156678 11.50064496 8.19095514 15.07813376 5.91796875 18.74609375 C3.76533997 21.4580158 2.31808911 22.8939703 -1 24 C-6.70624783 24.53832527 -9.5555466 23.61757835 -14 20 C-16.83054764 15.75417853 -16.77409187 11.98515163 -16 7 C-12.63671819 0.53215037 -6.97419916 -1.17335298 0 0 Z M-9 9 C-8.67 11.31 -8.34 13.62 -8 16 C-5.70705512 16.85974801 -5.70705512 16.85974801 -3 17 C-0.66545339 15.16641665 -0.66545339 15.16641665 1 13 C0.37466625 10.47636012 0.37466625 10.47636012 -1 8 C-4.77584916 6.54775032 -5.54762086 6.69841391 -9 9 Z " fill="#00174E" transform="translate(498,279)"/>
<path d="M0 0 C3.12291165 1.68012647 5.39164837 3.78329674 7 7 C7.42794952 11.18896746 7.40377171 14.90744125 5.9375 18.875 C3.32725113 21.7378536 0.77705102 23.29678705 -3 24 C-7.62539456 23.82060021 -10.95680013 22.88671989 -14.5 19.875 C-16.41391366 16.20666549 -17.34616062 13.15392742 -17 9 C-13.89949251 0.55606471 -8.38545721 -1.31511053 0 0 Z M-8.9375 8.6875 C-10.27795051 11.00067549 -10.27795051 11.00067549 -9.4375 13.6875 C-8.21344651 16.08722952 -8.21344651 16.08722952 -6.125 17 C-3.89751355 17.15838815 -3.89751355 17.15838815 -1.75 15.875 C0.23261411 14.10741219 0.23261411 14.10741219 0.375 11.4375 C0.21896136 8.82471891 0.21896136 8.82471891 -2 7 C-5.2129351 6.50570229 -6.45193577 6.52265374 -8.9375 8.6875 Z " fill="#00174F" transform="translate(27,331)"/>
<path d="M0 0 C3.70390021 2.02666238 5.65363011 3.48044516 8 7 C8.69920885 11.79689791 8.71482085 15.77459282 6.25 20 C2.86332689 23.0103761 1.13189161 23.89710076 -3.4375 24.3125 C-8.10652451 23.90293645 -10.4769208 22.5230792 -13.75 19.25 C-15.50473579 16.09147558 -15.8756402 13.60643419 -16 10 C-14.60566933 6.37474025 -13.07230872 3.4322444 -10 1 C-6.38069302 -0.20643566 -3.80768995 -0.32268559 0 0 Z M-6 7 C-7.73647948 8.67488528 -7.73647948 8.67488528 -9 11 C-8.66390749 13.75691443 -8.66390749 13.75691443 -7 16 C-4.59889783 17.08024658 -4.59889783 17.08024658 -2 17 C-1.01 16.34 -0.02 15.68 1 15 C0.67 12.69 0.34 10.38 0 8 C-2.97 7.505 -2.97 7.505 -6 7 Z " fill="#00174F" transform="translate(274,1)"/>
<path d="M0 0 C17.82 0 35.64 0 54 0 C54 2.31 54 4.62 54 7 C36.18 7 18.36 7 0 7 C0 4.69 0 2.38 0 0 Z " fill="#001850" transform="translate(186,71)"/>
<path d="M0 0 C4.29 0 8.58 0 13 0 C13 5.94 13 11.88 13 18 C8.71 18 4.42 18 0 18 C0 12.06 0 6.12 0 0 Z " fill="#DDE8F0" transform="translate(431,15)"/>
<path d="M0 0 C1.98 1.65 3.96 3.3 6 5 C5.52797514 9.24822374 3.03344482 11.19989709 0 14 C-2.88437779 12.70700306 -4.87219421 11.34058637 -7 9 C-5.44499019 5.18315774 -2.96404505 2.80804268 0 0 Z " fill="#001451" transform="translate(82,165)"/>
<path d="M0 0 C1.17825358 0.90172468 2.34231577 1.82201502 3.5 2.75 C4.1496875 3.26046875 4.799375 3.7709375 5.46875 4.296875 C7 6 7 6 7 10 C5 12.25 5 12.25 3 14 C-0.35915158 12.56036361 -2.71624938 10.87583411 -5 8 C-5 4.96177684 -3.99700998 3.99673816 -1.9375 1.75 C-1.298125 1.1725 -0.65875 0.595 0 0 Z " fill="#001550" transform="translate(62,165)"/>
<path d="M0 0 C2.22128936 1.07481743 3.51098575 1.91034817 4.9375 3.9375 C4.9375 7.22767692 3.6449789 8.25142508 1.375 10.6875 C0.1684375 11.80125 0.1684375 11.80125 -1.0625 12.9375 C-3.94687779 11.64450306 -5.93469421 10.27808637 -8.0625 7.9375 C-6.50188978 4.29607614 -4.42234381 -0.13401042 0 0 Z " fill="#001553" transform="translate(479.0625,430.0625)"/>
<path d="M0 0 C3.36591866 1.44253657 5.51047079 3.33264727 8 6 C6.70700306 8.88437779 5.34058637 10.87219421 3 13 C-0.36591866 11.55746343 -2.51047079 9.66735273 -5 7 C-3.70700306 4.11562221 -2.34058637 2.12780579 0 0 Z " fill="#00174F" transform="translate(476,448)"/>
<path d="M0 0 C2.88437779 1.29299694 4.87219421 2.65941363 7 5 C5.55746343 8.36591866 3.66735273 10.51047079 1 13 C-1.88437779 11.70700306 -3.87219421 10.34058637 -6 8 C-4.55746343 4.63408134 -2.66735273 2.48952921 0 0 Z " fill="#001750" transform="translate(459,448)"/>
<path d="M0 0 C3.36591866 1.44253657 5.51047079 3.33264727 8 6 C6.70700306 8.88437779 5.34058637 10.87219421 3 13 C-0.36591866 11.55746343 -2.51047079 9.66735273 -5 7 C-3.70700306 4.11562221 -2.34058637 2.12780579 0 0 Z " fill="#00174F" transform="translate(458,430)"/>
<path d="M0 0 C2.88437779 1.29299694 4.87219421 2.65941363 7 5 C5.55746343 8.36591866 3.66735273 10.51047079 1 13 C-1.88437779 11.70700306 -3.87219421 10.34058637 -6 8 C-4.55746343 4.63408134 -2.66735273 2.48952921 0 0 Z " fill="#001750" transform="translate(472,242)"/>
<path d="M0 0 C3.36591866 1.44253657 5.51047079 3.33264727 8 6 C6.70700306 8.88437779 5.34058637 10.87219421 3 13 C-0.36591866 11.55746343 -2.51047079 9.66735273 -5 7 C-3.70700306 4.11562221 -2.34058637 2.12780579 0 0 Z " fill="#001850" transform="translate(489,242)"/>
<path d="M0 0 C2.88437779 1.29299694 4.87219421 2.65941363 7 5 C5.55746343 8.36591866 3.66735273 10.51047079 1 13 C-1.88437779 11.70700306 -3.87219421 10.34058637 -6 8 C-4.55746343 4.63408134 -2.66735273 2.48952921 0 0 Z " fill="#001750" transform="translate(490,224)"/>
<path d="M0 0 C3.36591866 1.44253657 5.51047079 3.33264727 8 6 C6.70700306 8.88437779 5.34058637 10.87219421 3 13 C-0.36591866 11.55746343 -2.51047079 9.66735273 -5 7 C-3.70700306 4.11562221 -2.34058637 2.12780579 0 0 Z " fill="#00174F" transform="translate(471,224)"/>
<path d="M0 0 C3.36591866 1.44253657 5.51047079 3.33264727 8 6 C6.70700306 8.88437779 5.34058637 10.87219421 3 13 C-0.36591866 11.55746343 -2.51047079 9.66735273 -5 7 C-3.70700306 4.11562221 -2.34058637 2.12780579 0 0 Z " fill="#00174F" transform="translate(80,184)"/>
<path d="M0 0 C2.88437779 1.29299694 4.87219421 2.65941363 7 5 C5.55746343 8.36591866 3.66735273 10.51047079 1 13 C-1.88437779 11.70700306 -3.87219421 10.34058637 -6 8 C-4.55746343 4.63408134 -2.66735273 2.48952921 0 0 Z " fill="#00174F" transform="translate(63,184)"/>
<path d="M0 0 C2.31 0 4.62 0 7 0 C7 3.96 7 7.92 7 12 C4.69 12 2.38 12 0 12 C0 8.04 0 4.08 0 0 Z " fill="#00A3E0" transform="translate(434,18)"/>
<path d="M0 0 C2.46800047 1.15173355 4.04783565 2.04783565 6 4 C5.9375 5.875 5.9375 5.875 5 8 C2.4375 10.25 2.4375 10.25 0 12 C-1.65 10.35 -3.3 8.7 -5 7 C-3.70700306 4.11562221 -2.34058637 2.12780579 0 0 Z " fill="#001851" transform="translate(486,7)"/>
<path d="M0 0 C2.46800047 1.15173355 4.04783565 2.04783565 6 4 C5.76208141 6.45849212 5.136119 7.81202615 3.6875 9.8125 C2 11 2 11 0 10.875 C-2.20700414 9.90943569 -3.42932829 8.80627247 -5 7 C-3.70700306 4.11562221 -2.34058637 2.12780579 0 0 Z " fill="#00184F" transform="translate(499,20)"/>
<path d="M0 0 C2.84383123 1.2748209 5.13754018 2.45137078 7 5 C6.9375 7 6.9375 7 6 9 C3.9375 10.75 3.9375 10.75 2 12 C0.02 10.02 -1.96 8.04 -4 6 C-2.84826645 3.53199953 -1.95216435 1.95216435 0 0 Z " fill="#001450" transform="translate(498,7)"/>
<path d="M0 0 C2.84383123 1.2748209 5.13754018 2.45137078 7 5 C6.72963853 7.97397616 6.14553974 8.85446026 4 11 C0.21096292 10.74739753 -1.54186593 8.72150557 -4 6 C-2.84826645 3.53199953 -1.95216435 1.95216435 0 0 Z " fill="#00154F" transform="translate(485,20)"/>
<path d="M0 0 C2.31 1.98 4.62 3.96 7 6 C5.35 7.98 3.7 9.96 2 12 C-0.31 10.02 -2.62 8.04 -5 6 C-3.35 4.02 -1.7 2.04 0 0 Z " fill="#001750" transform="translate(29,7)"/>
<path d="M0 0 C1.98 1.65 3.96 3.3 6 5 C4.02 7.31 2.04 9.62 0 12 C-1.98 10.35 -3.96 8.7 -6 7 C-4.02 4.69 -2.04 2.38 0 0 Z " fill="#00174F" transform="translate(17,7)"/>
<path d="M0 0 C2.62187494 1.04874998 3.79371361 1.64931313 5.25 4.125 C5.4975 4.74375 5.745 5.3625 6 6 C4.35 7.65 2.7 9.3 1 11 C-1.62187494 9.95125002 -2.79371361 9.35068687 -4.25 6.875 C-4.4975 6.25625 -4.745 5.6375 -5 5 C-3.35 3.35 -1.7 1.7 0 0 Z " fill="#00174F" transform="translate(32,475)"/>
<path d="M0 0 C2.88437779 1.29299694 4.87219421 2.65941363 7 5 C5.95125002 7.62187494 5.35068687 8.79371361 2.875 10.25 C2.25625 10.4975 1.6375 10.745 1 11 C-0.65 9.35 -2.3 7.7 -4 6 C-2.84826645 3.53199953 -1.95216435 1.95216435 0 0 Z " fill="#00184F" transform="translate(18,475)"/>
<path d="M0 0 C2.88437779 1.29299694 4.87219421 2.65941363 7 5 C5.95125002 7.62187494 5.35068687 8.79371361 2.875 10.25 C2.25625 10.4975 1.6375 10.745 1 11 C-0.65 9.35 -2.3 7.7 -4 6 C-2.84826645 3.53199953 -1.95216435 1.95216435 0 0 Z " fill="#001850" transform="translate(31,462)"/>
<path d="M0 0 C2.62187494 1.04874998 3.79371361 1.64931313 5.25 4.125 C5.4975 4.74375 5.745 5.3625 6 6 C4.35 7.65 2.7 9.3 1 11 C-1.62187494 9.95125002 -2.79371361 9.35068687 -4.25 6.875 C-4.4975 6.25625 -4.745 5.6375 -5 5 C-3.35 3.35 -1.7 1.7 0 0 Z " fill="#00174F" transform="translate(19,462)"/>
<path d="M0 0 C1.98 1.65 3.96 3.3 6 5 C4.35 6.98 2.7 8.96 1 11 C-1.88575819 10.60196439 -2.82189513 10.20990931 -4.75 7.9375 C-5.1625 7.298125 -5.575 6.65875 -6 6 C-4.02 4.02 -2.04 2.04 0 0 Z " fill="#00174F" transform="translate(30,20)"/>
<path d="M0 0 C2.31 1.98 4.62 3.96 7 6 C5.68 7.65 4.36 9.3 3 11 C-0.25543229 10.65120368 -1.01873107 9.97866739 -3.25 7.4375 C-3.8275 6.633125 -4.405 5.82875 -5 5 C-3.35 3.35 -1.7 1.7 0 0 Z " fill="#00174E" transform="translate(16,20)"/>
</svg>
