<svg xmlns="http://www.w3.org/2000/svg" enable-background="new 0 0 66 66" viewBox="0 0 66 66" id="blog"><path fill="#e1d9e1" d="M26.27,34.52h27.92V11.14H2v39.05c0,2.21,1.79,4,4,4h20.27V34.52z"></path><path fill="#1c8fc7" d="M54.19,6c0-2.21-1.79-4-4-4H6C3.79,2,2,3.79,2,6v5.14h52.19V6z"></path><rect width="44.19" height="15.66" x="6" y="15.14" fill="#658c99"></rect><rect width="15.66" height="15.66" x="6" y="34.52" fill="#ff7146"></rect><circle cx="7.5" cy="6.57" r="1.5" fill="#fff"></circle><circle cx="13.07" cy="6.57" r="1.5" fill="#fff"></circle><circle cx="18.64" cy="6.57" r="1.5" fill="#fff"></circle><path fill="#fff" d="M17.15,41.61l-5.64-3.74c-0.59-0.39-1.39,0.03-1.39,0.74v7.48c0,0.71,0.79,1.14,1.39,0.74l5.64-3.74
			C17.68,42.75,17.68,41.96,17.15,41.61z"></path><rect width="37.73" height="29.48" x="26.27" y="34.52" fill="#fff"></rect><rect width="21.48" height="29.73" x="34.39" y="34.39" fill="#1c8fc7" transform="rotate(90 45.133 49.261)"></rect><polygon fill="#ffc040" points="40.9 43.6 30.27 60 51.54 60"></polygon><polygon fill="#e5ac39" points="51.54 46.96 47.31 53.48 51.54 60 60 60"></polygon><polygon points="24.27 32.52 24.27 54.19 26.27 54.19 26.27 34.52 54.19 34.52 54.19 32.52" opacity=".08"></polygon><g><path fill="#2b2a3a" d="M50.94 30.8V15.14c0-.41-.34-.75-.75-.75H6c-.41 0-.75.34-.75.75V30.8c0 .41.34.75.75.75h44.19C50.6 31.55 50.94 31.21 50.94 30.8zM49.44 30.05H6.75V15.89h42.69V30.05zM6 33.77c-.41 0-.75.34-.75.75v15.67c0 .41.34.75.75.75h15.67c.41 0 .75-.34.75-.75V34.52c0-.41-.34-.75-.75-.75H6zM20.92 49.44H6.75V35.27h14.17V49.44zM7.5 8.82c1.24 0 2.25-1.01 2.25-2.25S8.74 4.32 7.5 4.32 5.25 5.33 5.25 6.57 6.26 8.82 7.5 8.82zM7.5 5.82c.41 0 .75.34.75.75S7.91 7.32 7.5 7.32 6.75 6.98 6.75 6.57 7.09 5.82 7.5 5.82zM13.07 8.82c1.24 0 2.25-1.01 2.25-2.25s-1.01-2.25-2.25-2.25-2.25 1.01-2.25 2.25S11.83 8.82 13.07 8.82zM13.07 5.82c.41 0 .75.34.75.75s-.34.75-.75.75-.75-.34-.75-.75S12.66 5.82 13.07 5.82zM18.64 8.82c1.24 0 2.25-1.01 2.25-2.25s-1.01-2.25-2.25-2.25-2.25 1.01-2.25 2.25S17.4 8.82 18.64 8.82zM18.64 5.82c.41 0 .75.34.75.75s-.34.75-.75.75-.75-.34-.75-.75S18.23 5.82 18.64 5.82z"></path><path fill="#2b2a3a" d="M10.23 47.54c.24.13.51.2.78.2.32 0 .63-.09.91-.27l5.64-3.74c.46-.31.74-.82.74-1.37 0-.55-.27-1.06-.74-1.37l-5.64-3.74c-.51-.33-1.15-.36-1.68-.08-.53.29-.87.84-.87 1.45v7.48C9.37 46.7 9.7 47.25 10.23 47.54zM10.87 38.62c0-.06.03-.1.08-.13.02-.01.05-.02.07-.02.03 0 .05.01.08.02l5.64 3.74c0 0 0 0 0 0 .05.03.06.08.06.12 0 .04-.01.08-.06.12l-5.64 3.74c-.05.03-.1.03-.15.01-.05-.03-.08-.07-.08-.13V38.62zM64 33.77H26.27c-.41 0-.75.34-.75.75V64c0 .41.34.75.75.75H64c.41 0 .75-.34.75-.75V34.52C64.75 34.11 64.41 33.77 64 33.77zM63.25 63.25H27.02V35.27h36.23V63.25z"></path><path fill="#2b2a3a" d="M29.61 60.36c.01.02.03.03.04.04.05.08.11.14.19.2.03.02.05.04.08.05.1.06.22.09.35.09h21.27 0H60c.13 0 .24-.04.35-.09.03-.02.05-.03.08-.05.08-.05.14-.12.19-.2.01-.02.03-.03.04-.04 0-.01 0-.02.01-.03.05-.1.08-.21.08-.33V38.52c0-.41-.34-.75-.75-.75H30.27c-.41 0-.75.34-.75.75V60c0 .12.03.23.08.33C29.61 60.34 29.6 60.35 29.61 60.36zM31.65 59.25l9.26-14.27 5.78 8.91c0 0 0 0 0 0l.69 1.06 2.79 4.3H31.65zM51.95 59.25l-3.74-5.77 3.34-5.14 7.08 10.91H51.95zM59.25 39.27v18.19l-7.08-10.92c-.28-.43-.98-.43-1.26 0l-3.6 5.55-5.78-8.91c-.28-.43-.98-.43-1.26 0l-9.26 14.27V39.27H59.25zM12.38 27.55h3.49c1.47 0 2.67-1.2 2.67-2.67 0-1.04-.6-1.93-1.47-2.37.28-.42.44-.92.44-1.46 0-1.47-1.2-2.67-2.67-2.67h-2.47c-.41 0-.75.34-.75.75v3.83 3.83C11.63 27.21 11.97 27.55 12.38 27.55zM15.88 26.05h-2.74v-2.33h1.72 1.02c.64 0 1.17.52 1.17 1.17S16.52 26.05 15.88 26.05zM13.13 19.89h1.72c.64 0 1.17.52 1.17 1.17s-.52 1.17-1.17 1.17h-1.72V19.89zM20.99 27.55h4.29c.41 0 .75-.34.75-.75s-.34-.75-.75-.75h-3.54v-6.92c0-.41-.34-.75-.75-.75s-.75.34-.75.75v7.67C20.24 27.21 20.58 27.55 20.99 27.55zM30.18 27.55c2.53 0 4.58-2.06 4.58-4.58s-2.06-4.58-4.58-4.58c-2.53 0-4.58 2.06-4.58 4.58S27.65 27.55 30.18 27.55zM30.18 19.89c1.7 0 3.08 1.38 3.08 3.08s-1.38 3.08-3.08 3.08c-1.7 0-3.08-1.38-3.08-3.08S28.48 19.89 30.18 19.89zM40.23 27.55c2.39 0 4.33-1.94 4.33-4.33 0-.41-.34-.75-.75-.75h-2.58c-.41 0-.75.34-.75.75s.34.75.75.75h1.73c-.33 1.2-1.43 2.08-2.73 2.08-1.56 0-2.83-1.27-2.83-2.83v-.51c0-1.56 1.27-2.83 2.83-2.83h.58c.41 0 .75-.34.75-.75s-.34-.75-.75-.75h-.58c-2.39 0-4.33 1.94-4.33 4.33v.51C35.9 25.61 37.84 27.55 40.23 27.55z"></path><path fill="#2b2a3a" d="M23.27,53.44H6c-1.79,0-3.25-1.46-3.25-3.25v-38.3h50.69v19.64c0,0.41,0.34,0.75,0.75,0.75
			s0.75-0.34,0.75-0.75V6c0-2.62-2.13-4.75-4.75-4.75H6C3.38,1.25,1.25,3.38,1.25,6l0,44.19c0,2.62,2.13,4.75,4.75,4.75h17.27
			c0.41,0,0.75-0.34,0.75-0.75S23.68,53.44,23.27,53.44z M6,2.75h44.19c1.79,0,3.25,1.46,3.25,3.25v4.39H2.75V6
			C2.75,4.21,4.21,2.75,6,2.75z"></path></g></svg>