<svg width="24" height="24" viewBox="0 0 24 24" fill="none" xmlns="http://www.w3.org/2000/svg">
<g clip-path="url(#clip0_2_5778)">
<path d="M12 23C18.0751 23 23 18.0751 23 12C23 5.92487 18.0751 1 12 1C5.92487 1 1 5.92487 1 12C1 18.0751 5.92487 23 12 23Z" stroke="black" stroke-width="2" stroke-linecap="round"/>
<path d="M15.7134 8.63281C15.7134 9.34635 15.4972 9.95312 15.0649 10.4531C14.6326 10.9531 14.0259 11.2969 13.2446 11.4844V11.5312C14.1665 11.6458 14.8644 11.9271 15.3384 12.375C15.8123 12.8177 16.0493 13.4167 16.0493 14.1719C16.0493 15.2708 15.6509 16.1276 14.854 16.7422C14.0571 17.3516 12.9191 17.6562 11.4399 17.6562C10.2004 17.6562 9.1014 17.4505 8.14307 17.0391V14.9844C8.58577 15.2083 9.07275 15.3906 9.604 15.5312C10.1353 15.6719 10.6613 15.7422 11.1821 15.7422C11.979 15.7422 12.5675 15.6068 12.9478 15.3359C13.328 15.0651 13.5181 14.6302 13.5181 14.0312C13.5181 13.4948 13.2993 13.1146 12.8618 12.8906C12.4243 12.6667 11.7264 12.5547 10.7681 12.5547H9.90088V10.7031H10.7837C11.6691 10.7031 12.3149 10.5885 12.7212 10.3594C13.1326 10.125 13.3384 9.72656 13.3384 9.16406C13.3384 8.29948 12.7967 7.86719 11.7134 7.86719C11.3384 7.86719 10.9556 7.92969 10.5649 8.05469C10.1795 8.17969 9.74984 8.39583 9.27588 8.70312L8.15869 7.03906C9.20036 6.28906 10.4425 5.91406 11.8853 5.91406C13.0675 5.91406 13.9998 6.15365 14.6821 6.63281C15.3696 7.11198 15.7134 7.77865 15.7134 8.63281Z" fill="black"/>
</g>
<defs>
<clipPath id="clip0_2_5778">
<rect width="24" height="24" fill="white"/>
</clipPath>
</defs>
</svg>
