<svg width="24" height="24" viewBox="0 0 24 24" fill="none" xmlns="http://www.w3.org/2000/svg">
<g clip-path="url(#clip0_2_5777)">
<path d="M12 23C18.0751 23 23 18.0751 23 12C23 5.92487 18.0751 1 12 1C5.92487 1 1 5.92487 1 12C1 18.0751 5.92487 23 12 23Z" stroke="black" stroke-width="2" stroke-linecap="round"/>
<path d="M16.1587 17.5H8.17432V15.8203L11.0415 12.9219C11.8905 12.0521 12.4451 11.4505 12.7056 11.1172C12.966 10.7786 13.1535 10.4661 13.2681 10.1797C13.3826 9.89323 13.4399 9.59635 13.4399 9.28906C13.4399 8.83073 13.3123 8.48958 13.0571 8.26562C12.8071 8.04167 12.4712 7.92969 12.0493 7.92969C11.6066 7.92969 11.1769 8.03125 10.7603 8.23438C10.3436 8.4375 9.90869 8.72656 9.45557 9.10156L8.14307 7.54688C8.70557 7.06771 9.17171 6.72917 9.5415 6.53125C9.9113 6.33333 10.3149 6.18229 10.7524 6.07812C11.1899 5.96875 11.6795 5.91406 12.2212 5.91406C12.9347 5.91406 13.5649 6.04427 14.1118 6.30469C14.6587 6.5651 15.0832 6.92969 15.3853 7.39844C15.6873 7.86719 15.8384 8.40365 15.8384 9.00781C15.8384 9.53385 15.7446 10.0286 15.5571 10.4922C15.3748 10.9505 15.0884 11.4219 14.6978 11.9062C14.3123 12.3906 13.63 13.0807 12.6509 13.9766L11.1821 15.3594V15.4688H16.1587V17.5Z" fill="black"/>
</g>
<defs>
<clipPath id="clip0_2_5777">
<rect width="24" height="24" fill="white"/>
</clipPath>
</defs>
</svg>
