<svg width="24" height="24" viewBox="0 0 24 24" fill="none" xmlns="http://www.w3.org/2000/svg">
<g clip-path="url(#clip0_677_2884)">
<path d="M12 23C18.0751 23 23 18.0751 23 12C23 5.92487 18.0751 1 12 1C5.92487 1 1 5.92487 1 12C1 18.0751 5.92487 23 12 23Z" stroke="black" stroke-width="2" stroke-linecap="round"/>
</g>
<path d="M12.2088 10.2753C13.3661 10.2753 14.2859 10.5965 14.9683 11.2389C15.6561 11.8812 16 12.7611 16 13.8785C16 15.2011 15.5879 16.2186 14.7636 16.9312C13.9393 17.6437 12.7601 18 11.2262 18C9.89423 18 8.81883 17.7868 8 17.3603V15.1984C8.43125 15.4251 8.93347 15.6113 9.50665 15.7571C10.0798 15.8974 10.623 15.9676 11.1361 15.9676C12.681 15.9676 13.4534 15.3414 13.4534 14.0891C13.4534 12.8961 12.6537 12.2996 11.0542 12.2996C10.7649 12.2996 10.4456 12.3293 10.0962 12.3887C9.74684 12.4426 9.46298 12.502 9.24463 12.5668L8.23746 12.0324L8.68782 6H15.1812V8.12146H10.9069L10.6858 10.4453L10.9724 10.3887C11.3054 10.3131 11.7175 10.2753 12.2088 10.2753Z" fill="black"/>
<defs>
<clipPath id="clip0_677_2884">
<rect width="24" height="24" fill="white"/>
</clipPath>
</defs>
</svg>
