<svg width="49" height="49" viewBox="0 0 49 49" fill="none" xmlns="http://www.w3.org/2000/svg">
<path fill-rule="evenodd" clip-rule="evenodd" d="M18.0569 2.25753C18.4732 2.22352 18.9648 2.22358 19.4696 2.22364L29.1972 2.22364C29.702 2.22358 30.1935 2.22352 30.6098 2.25753C31.067 2.29489 31.6065 2.38302 32.1493 2.65962C32.902 3.04311 33.5139 3.65503 33.8974 4.40768C34.174 4.95053 34.2621 5.49 34.2995 5.94718C34.3072 6.04111 34.3131 6.13887 34.3177 6.23974C35.1081 6.26525 35.785 6.33054 36.4041 6.49642C39.1649 7.23616 41.3212 9.39254 42.061 12.1533C42.3352 13.1766 42.3345 14.3579 42.3337 15.9487L42.3336 34.7065C42.3336 36.3164 42.3336 37.6451 42.2452 38.7275C42.1533 39.8517 41.9562 40.8851 41.4616 41.8558C40.6946 43.361 39.4708 44.5849 37.9655 45.3519C36.9948 45.8465 35.9614 46.0436 34.8372 46.1354C33.7548 46.2239 32.4261 46.2239 30.8162 46.2238H17.8509C16.241 46.2239 14.9123 46.2239 13.8299 46.1354C12.7057 46.0436 11.6723 45.8465 10.7016 45.3519C9.19635 44.5849 7.9725 43.361 7.20551 41.8558C6.71093 40.8851 6.5138 39.8517 6.42195 38.7275C6.33352 37.6451 6.33354 36.3164 6.33357 34.7064L6.33347 15.9487C6.33261 14.3579 6.33197 13.1766 6.60616 12.1533C7.3459 9.39254 9.50228 7.23616 12.263 6.49642C12.882 6.33056 13.5588 6.26526 14.3491 6.23975C14.3537 6.13887 14.3596 6.04111 14.3673 5.94718C14.4046 5.49 14.4928 4.95053 14.7694 4.40768C15.1529 3.65503 15.7648 3.04311 16.5174 2.65962C17.0603 2.38302 17.5997 2.29489 18.0569 2.25753ZM18.5514 7.31565C18.3334 7.74348 18.3334 8.30353 18.3334 9.42363V10.2236H30.3334V9.42363C30.3334 8.30353 30.3334 7.74348 30.1154 7.31565C29.9236 6.93933 29.6177 6.63337 29.2414 6.44162C28.8135 6.22363 28.2535 6.22363 27.1334 6.22363H21.5334C20.4133 6.22363 19.8532 6.22363 19.4254 6.44162C19.0491 6.63337 18.7431 6.93933 18.5514 7.31565ZM32.7476 26.6378C33.5286 25.8568 33.5286 24.5905 32.7476 23.8094C31.9665 23.0284 30.7002 23.0284 29.9192 23.8094L22.3334 31.3952L19.7476 28.8094C18.9665 28.0284 17.7002 28.0284 16.9192 28.8094C16.1381 29.5905 16.1381 30.8568 16.9192 31.6378L20.9192 35.6378C21.7002 36.4189 22.9665 36.4189 23.7476 35.6378L32.7476 26.6378Z" fill="#252424"/>
</svg>
