<svg width="49" height="49" viewBox="0 0 49 49" fill="none" xmlns="http://www.w3.org/2000/svg">
<path fill-rule="evenodd" clip-rule="evenodd" d="M10.6667 2.22363C7.35298 2.22363 4.66669 4.90992 4.66669 8.22363V34.2236C4.66669 37.5373 7.35298 40.2236 10.6667 40.2236H10.8627L16.9396 46.0523C17.725 46.8057 18.9687 46.7927 19.7382 46.0231L24.6881 41.0732L29.6381 46.0232C30.4094 46.7946 31.6566 46.8055 32.4414 46.0479L38.4745 40.2236H38.6667C41.9804 40.2236 44.6667 37.5373 44.6667 34.2236V8.22363C44.6667 4.90992 41.9804 2.22363 38.6667 2.22363H10.6667ZM32.4167 35.8021C31.5188 37.3188 30.1883 38.5492 28.5951 39.3233L31.077 41.8053L34.8131 38.1985L32.4167 35.8021ZM24.6808 36.2235L24.6956 36.2234L24.716 36.2234C27.4547 36.197 29.6667 33.9686 29.6667 31.2236C29.6667 28.4622 27.4281 26.2236 24.6667 26.2236C21.9053 26.2236 19.6667 28.4622 19.6667 31.2236C19.6667 33.9775 21.8931 36.2114 24.6441 36.2236L24.6786 36.2235L24.6808 36.2235ZM18.2948 41.8097L20.7672 39.3373C19.1612 38.564 17.82 37.328 16.9166 35.8021L14.5249 38.1938L18.2948 41.8097ZM16.6667 12.2236C16.6667 11.1191 17.5621 10.2236 18.6667 10.2236H30.6667C31.7713 10.2236 32.6667 11.1191 32.6667 12.2236C32.6667 13.3282 31.7713 14.2236 30.6667 14.2236H18.6667C17.5621 14.2236 16.6667 13.3282 16.6667 12.2236ZM14.6667 17.2236C13.5621 17.2236 12.6667 18.1191 12.6667 19.2236C12.6667 20.3282 13.5621 21.2236 14.6667 21.2236H34.6667C35.7713 21.2236 36.6667 20.3282 36.6667 19.2236C36.6667 18.1191 35.7713 17.2236 34.6667 17.2236H14.6667Z" fill="#252424"/>
</svg>
