<svg width="48" height="49" viewBox="0 0 48 49" fill="none" xmlns="http://www.w3.org/2000/svg">
<path d="M12.3229 4.22363H35.6771C36.7313 4.2236 37.641 4.22357 38.3901 4.28478C39.1807 4.34938 39.9672 4.49201 40.7239 4.8776C41.8529 5.45284 42.7708 6.37072 43.346 7.4997C43.7316 8.25646 43.8743 9.04289 43.9389 9.83358C44.0001 10.5827 44 11.4922 44 12.5465L44 14.2236C44 16.0762 42.0062 18.2236 38.6667 18.2236C35.3272 18.2236 33.3333 16.0762 33.3333 14.2236C33.3333 13.1191 32.4379 12.2236 31.3333 12.2236C30.2288 12.2236 29.3333 13.1191 29.3333 14.2236C29.3333 16.0762 27.3395 18.2236 24 18.2236C20.6605 18.2236 18.6667 16.0762 18.6667 14.2236C18.6667 13.1191 17.7712 12.2236 16.6667 12.2236C15.5621 12.2236 14.6667 13.1191 14.6667 14.2236C14.6667 16.0762 12.6728 18.2236 9.33334 18.2236C5.99385 18.2236 4 16.0762 4 14.2236V12.5465C3.99997 11.4922 3.99994 10.5827 4.06115 9.83358C4.12575 9.04289 4.26838 8.25646 4.65397 7.4997C5.22921 6.37072 6.14709 5.45284 7.27606 4.8776C8.03282 4.49201 8.81926 4.34938 9.60995 4.28478C10.3591 4.22357 11.2687 4.2236 12.3229 4.22363Z" fill="#252424"/>
<path fill-rule="evenodd" clip-rule="evenodd" d="M38.6667 22.2236C40.5674 22.2236 42.4383 21.7095 44 20.7879V35.9008C44 36.9551 44.0001 37.8646 43.9389 38.6137C43.8743 39.4044 43.7316 40.1908 43.346 40.9476C42.7708 42.0766 41.8529 42.9944 40.7239 43.5697C39.9672 43.9553 39.1807 44.0979 38.3901 44.1625C37.6409 44.2237 36.7314 44.2237 35.6771 44.2236H12.3229C11.2686 44.2237 10.3591 44.2237 9.60995 44.1625C8.81926 44.0979 8.03282 43.9553 7.27606 43.5697C6.14709 42.9944 5.22921 42.0766 4.65397 40.9476C4.26838 40.1908 4.12575 39.4044 4.06115 38.6137C3.99994 37.8646 3.99997 36.955 4 35.9008V20.7879C5.56176 21.7095 7.43256 22.2236 9.33334 22.2236C12.1441 22.2236 14.8894 21.0993 16.6667 19.1956C18.4439 21.0993 21.1892 22.2236 24 22.2236C26.8108 22.2236 29.5561 21.0993 31.3333 19.1956C33.1106 21.0993 35.8559 22.2236 38.6667 22.2236ZM21.2 28.2236H26.8C27.9201 28.2236 28.4802 28.2236 28.908 28.4416C29.2843 28.6334 29.5903 28.9393 29.782 29.3157C30 29.7435 30 30.3035 30 31.4236V40.2236H18V31.4236C18 30.3035 18 29.7435 18.218 29.3157C18.4097 28.9393 18.7157 28.6334 19.092 28.4416C19.5198 28.2236 20.0799 28.2236 21.2 28.2236Z" fill="#252424"/>
</svg>
