<svg xmlns="http://www.w3.org/2000/svg" data-name="Layer 1" viewBox="0 0 512 512"><path d="M397.303 464.763H114.697a77.588 77.588 0 0 1-77.5-77.5V129.676a77.588 77.588 0 0 1 77.5-77.5h282.606a77.588 77.588 0 0 1 77.5 77.5v257.587a77.588 77.588 0 0 1-77.5 77.5ZM114.697 87.176a42.548 42.548 0 0 0-42.5 42.5v257.587a42.548 42.548 0 0 0 42.5 42.5h282.606a42.548 42.548 0 0 0 42.5-42.5V129.676a42.548 42.548 0 0 0-42.5-42.5Z" style="fill:#838da7"/><path d="M326.943 201.216H190.57a17.5 17.5 0 0 1 0-35h136.374a17.5 17.5 0 0 1 0 35ZM166.65 87.176a17.5 17.5 0 0 1-17.5-17.5V39.717a17.5 17.5 0 0 1 35 0v29.96a17.5 17.5 0 0 1-17.5 17.5ZM345.352 87.176a17.5 17.5 0 0 1-17.5-17.5V39.717a17.5 17.5 0 0 1 35 0v29.96a17.5 17.5 0 0 1-17.5 17.5Z" style="fill:#838da7"/></svg>