<svg xmlns="http://www.w3.org/2000/svg" data-name="Layer 1" viewBox="0 0 512 512" id="career"><g data-name=" Group 2"><polygon fill="#fedb41" points="487.65 269.19 487.65 294.05 443.01 294.05 437.73 318.91 373.93 318.91 368.65 294.05 323.25 294.05 323.25 269.19 350.54 224.7 350.79 224.85 460.87 224.85 461.42 224.53 487.65 269.19"></polygon><path fill="#00acea" d="M461.22,224.19l.2.34-.55.32H350.79l-.25-.15.15-.25c0-27.95,0-102.61-.26-106.5,0-28.47,13.72-75.84,55.4-99.4,41.67,23.56,55.39,70.93,55.39,99.4Zm-37.21-69.96a25.71,25.71,0,1,0-36.36,0A25.73,25.73,0,0,0,424.01,154.23Z"></path><path fill="#00efd1" d="M424.01,117.87a25.71,25.71,0,1,1-36.36,0A25.73,25.73,0,0,1,424.01,117.87Z"></path><rect width="37.44" height="231" x="223.28" y="219.45" fill="#00efd1"></rect><rect width="37.44" height="181" x="144.93" y="269.45" fill="#00efd1"></rect><rect width="37.43" height="121" x="66.58" y="329.45" fill="#00efd1"></rect><path fill="#083863" d="M190 269a8 8 0 0 0-8-8H145a8 8 0 0 0-8 8V450a8 8 0 0 0 8 8h37a8 8 0 0 0 8-8zm-37 8h21V442H153zM112 329a8 8 0 0 0-8-8H67a8 8 0 0 0-8 8V450a8 8 0 0 0 8 8h37a8 8 0 0 0 8-8zm-37 8H96V442H75zM268 219a8 8 0 0 0-8-8H223a8 8 0 0 0-8 8V450a8 8 0 0 0 8 8h37a8 8 0 0 0 8-8zm-37 8h22V442H231z"></path><path fill="#083863" d="M302.94 485H32V179.45a8 8 0 0 0-16 0v314c0 4.419 3.932 7.55 8.35 7.55H302.94a8 8 0 1 0 0-16zM469 222.014V117.95c0-27.02-12.411-79.829-59.343-106.364a7.9 7.9 0 0 0-7.818 0C354.9 38.118 342.4 90.929 342.4 117.95c0 .147.022.364.03.511.236 4.3.25 76.6.25 103.737L316.3 265.007a8.128 8.128 0 0 0-1.3 4.183v24.86a8.175 8.175 0 0 0 8.25 7.95h38.92l3.935 18.592A8.061 8.061 0 0 0 373.93 327h63.8a8.062 8.062 0 0 0 7.826-6.408L449.489 302H487.65a8.264 8.264 0 0 0 8.35-7.95V269.19a8.336 8.336 0 0 0-1.387-4.051zM405.719 27.869C443 51.449 453 95.178 453 117.95V217H358.689c0-65-.139-94.714-.314-99.147C358.426 95.033 368.522 51.389 405.719 27.869zM480 286H443.01a8.062 8.062 0 0 0-7.826 6.408L431.25 311H380.41l-3.935-18.592A8.061 8.061 0 0 0 368.65 286H331V271.448L354.926 233h102.1L480 271.366zM406 347.14a8 8 0 0 0-8 8v52.98a8 8 0 0 0 16 0V355.14A8 8 0 0 0 406 347.14zM459 347.14a8 8 0 0 0-8 8v23.47a8 8 0 0 0 16 0V355.14A8 8 0 0 0 459 347.14zM352 347.14a8 8 0 0 0-8 8v23.47a8 8 0 0 0 16 0V355.14A8 8 0 0 0 352 347.14z"></path><path fill="#083863" d="M381.993,159.887a33.71,33.71,0,1,0,0-47.674A33.493,33.493,0,0,0,381.993,159.887Zm11.314-36.36a17.71,17.71,0,1,1,0,25.046A17.592,17.592,0,0,1,393.307,123.527Z"></path></g></svg>