<svg xmlns="http://www.w3.org/2000/svg" enable-background="new 0 0 48 48" viewBox="0 0 48 48" id="company"><path d="M47.5,10.61H37.45V0.5h-26.9v10.11H0.5V47.5h10.05h1h4.72h15.46h4.72h1H47.5V10.61z M2.5,45.5V12.61h8.05V45.5H2.5z
		 M18.27,45.5v-9.08h11.46v9.08H18.27z M35.45,45.5h-3.72V34.42H16.27V45.5h-3.72v-43h22.9V45.5z M45.5,45.5h-8.05V12.61h8.05V45.5z
		"></path><rect width="2" height="3.85" x="15.31" y="5.58"></rect><rect width="2" height="3.85" x="15.31" y="12.81"></rect><rect width="2" height="3.85" x="15.31" y="20.04"></rect><rect width="2" height="3.85" x="15.31" y="27.28"></rect><rect width="2" height="3.85" x="20.44" y="5.58"></rect><rect width="2" height="3.85" x="20.44" y="12.81"></rect><rect width="2" height="3.85" x="20.44" y="20.04"></rect><rect width="2" height="3.85" x="20.44" y="27.28"></rect><rect width="2" height="3.85" x="25.56" y="5.58"></rect><rect width="2" height="3.85" x="25.56" y="12.81"></rect><rect width="2" height="3.85" x="25.56" y="20.04"></rect><rect width="2" height="3.85" x="25.56" y="27.28"></rect><rect width="2" height="3.85" x="30.69" y="5.58"></rect><rect width="2" height="3.85" x="30.69" y="12.81"></rect><rect width="2" height="3.85" x="30.69" y="20.04"></rect><rect width="2" height="3.85" x="30.69" y="27.28"></rect><rect width="2" height="3.85" x="5.52" y="16.28"></rect><rect width="2" height="3.85" x="5.52" y="23.51"></rect><rect width="2" height="3.85" x="5.52" y="30.75"></rect><rect width="2" height="3.85" x="5.52" y="37.98"></rect><rect width="2" height="3.85" x="40.48" y="16.28"></rect><rect width="2" height="3.85" x="40.48" y="23.51"></rect><rect width="2" height="3.85" x="40.48" y="30.75"></rect><rect width="2" height="3.85" x="40.48" y="37.98"></rect></svg>