<svg xmlns="http://www.w3.org/2000/svg" width="49" height="48" fill="none"><circle cx="24.52" cy="24" r="24" fill="#F5F5F5"/><path fill="#FFBED3" d="m29.958 31.736-11.764 3.032c-.998.257-1.994-.363-2.264-1.41l-3.806-14.765c-.27-1.047.303-2.072 1.301-2.329l11.764-3.032c.998-.257 1.994.363 2.264 1.41l3.806 14.765c.27 1.047-.303 2.071-1.3 2.329Z"/><path fill="#F579A0" d="M30.831 34.831H18.092c-1.08 0-1.93-.85-1.93-1.93V17.653c0-1.081.85-1.93 1.93-1.93h12.74c1.08 0 1.93.849 1.93 1.93V32.9c0 1.08-.85 1.93-1.93 1.93Z"/><path fill="#FFBED3" d="M29.597 21.552H19.212a.692.692 0 0 1-.694-.695c0-.386.308-.695.694-.695h10.346c.386 0 .695.309.695.695.038.386-.27.695-.656.695ZM21.876 25.991h-2.664a.692.692 0 0 1-.694-.695c0-.386.308-.695.694-.695h2.625c.386 0 .695.31.695.695.039.386-.27.695-.656.695ZM32.182 33.094a5.211 5.211 0 1 0 0-10.423 5.211 5.211 0 0 0 0 10.423Z"/><path stroke="#fff" stroke-miterlimit="10" stroke-width="1.011" d="m29.516 27.852 1.808 1.809 3.584-3.546"/></svg>