<svg xmlns="http://www.w3.org/2000/svg" width="49" height="48" fill="none"><circle cx="24.52" cy="24" r="24" fill="#F5F5F5"/><path fill="#9F7EDC" d="M31.339 34.806H16.93a2.162 2.162 0 0 1-2.183-2.183V15.377c0-1.222.96-2.183 2.183-2.183H31.34c1.222 0 2.183.96 2.183 2.183v17.246c0 1.222-.96 2.183-2.183 2.183Z"/><path fill="#CCB0FF" d="M22.213 27.235h-.81a1.026 1.026 0 0 0-.285-.491h1.095c.238 0 .381-.197.381-.394 0-.196-.19-.393-.38-.393h-3.382c-.238 0-.38.197-.38.393 0 .197.19.394.38.394h.381c.572 0 1.048.196 1.334.491H18.88c-.238 0-.381.197-.381.393 0 .197.19.394.38.394h1.858a.8.8 0 0 1-.19.344c-.239.246-.667.344-1.191.344-.143 0-.286 0-.429-.05h-.142c-.048 0-.096.05-.143.1 0 0-.048 0-.048.048 0 .05-.048.05-.048.099s0 .049-.047.098v.197c0 .049.047.098.095.147l2.286 2.556c.095.099.19.148.286.148.095 0 .19-.05.285-.098a.41.41 0 0 0 0-.59l-1.666-1.868c.571-.05 1-.246 1.333-.59.238-.246.381-.541.429-.934h.714c.238 0 .381-.197.381-.394 0-.196-.238-.344-.429-.344Z"/><path stroke="#CCB0FF" stroke-linecap="round" stroke-linejoin="round" stroke-width=".915" d="M18.451 18.623h7.108M18.451 22.29h4.012"/><circle cx="32.718" cy="28.555" r="6.251" fill="#CCB0FF"/><path fill="#fff" d="m35.924 27.093-3.69 3.765-2.068-2.093.842-.842 1.226 1.234 2.848-2.905.842.841Z"/></svg>