<svg xmlns="http://www.w3.org/2000/svg" width="49" height="48" fill="none"><circle cx="24.52" cy="24" r="24" fill="#F5F5F5"/><path fill="#5FBF24" fill-rule="evenodd" d="M14.834 18.661v14.075a2.19 2.19 0 0 0 2.212 2.211h14.596a2.19 2.19 0 0 0 2.211-2.211V15.264a2.19 2.19 0 0 0-2.211-2.211h-11.2l-5.608 5.608Z" clip-rule="evenodd"/><path fill="#C5F5A6" d="M28.442 22.987H18.275a.793.793 0 0 1-.796-.796c0-.443.353-.796.796-.796h10.123c.442 0 .796.353.796.796.044.442-.31.796-.752.796ZM21.327 27.34h-3.052a.793.793 0 0 1-.796-.796c0-.443.353-.797.796-.797h3.007c.443 0 .797.354.797.797.044.442-.31.796-.752.796Z"/><path fill="#9CD578" d="m30.918 30.498-3.267.795a.617.617 0 0 1-.7-.7l.788-3.266 8.042-8.043a2.243 2.243 0 0 1 3.172 3.172l-8.035 8.042ZM20.416 15.441a3.193 3.193 0 0 1-3.193 3.193h-2.389l5.582-5.581v2.388Z"/></svg>