<svg xmlns="http://www.w3.org/2000/svg" width="49" height="48" fill="none"><circle cx="24.107" cy="24" r="24" fill="#F5F5F5"/><path fill="#2B77F3" d="M30.675 34.65H16.4a2.142 2.142 0 0 1-2.163-2.163V15.4c0-1.212.952-2.163 2.163-2.163h14.276c1.212 0 2.163.951 2.163 2.163v17.087a2.142 2.142 0 0 1-2.163 2.163Z"/><path stroke="#89D6FF" stroke-linecap="round" stroke-linejoin="round" stroke-width="1.088" d="M17.906 18.058h7.043M17.906 21.878h3.975"/><path fill="#89D6FF" d="M31.152 21.852a.544.544 0 0 1 .695 0l.829.69c.133.11.312.15.48.109l1.046-.262a.544.544 0 0 1 .627.302l.447.98a.544.544 0 0 0 .385.308l1.056.218c.256.053.439.281.433.544l-.022 1.077a.544.544 0 0 0 .214.444l.856.654c.209.16.274.445.155.679l-.488.96a.544.544 0 0 0 0 .493l.488.961a.544.544 0 0 1-.155.679l-.856.654a.544.544 0 0 0-.214.444l.022 1.078a.544.544 0 0 1-.433.543l-1.056.218a.544.544 0 0 0-.385.307l-.447.981a.544.544 0 0 1-.627.302l-1.046-.262a.544.544 0 0 0-.48.11l-.829.69a.544.544 0 0 1-.695 0l-.829-.69a.544.544 0 0 0-.48-.11l-1.046.262a.544.544 0 0 1-.627-.302l-.447-.98a.544.544 0 0 0-.385-.308l-1.056-.218a.544.544 0 0 1-.433-.543l.022-1.078a.544.544 0 0 0-.213-.444l-.857-.654a.544.544 0 0 1-.155-.679l.488-.96a.543.543 0 0 0 0-.493l-.488-.961a.544.544 0 0 1 .155-.679l.857-.654a.544.544 0 0 0 .213-.444l-.022-1.077a.544.544 0 0 1 .433-.544l1.056-.218a.544.544 0 0 0 .385-.307l.448-.981a.544.544 0 0 1 .626-.302l1.046.262a.544.544 0 0 0 .48-.11l.829-.69Z"/><path stroke="#fff" stroke-linecap="round" stroke-linejoin="round" stroke-width="1.088" d="m29.736 28.97 1.365 1.364 3.047-3.048"/></svg>