<svg width="48" height="49" viewBox="0 0 48 49" fill="none" xmlns="http://www.w3.org/2000/svg">
<g id="icon-desktop-inc-professional">
<path id="Icon" d="M28 18.333H23C21.3431 18.333 20 19.6762 20 21.333C20 22.9899 21.3431 24.333 23 24.333H25C26.6569 24.333 28 25.6762 28 27.333C28 28.9899 26.6569 30.333 25 30.333H20M24 16.333V18.333M24 30.333V32.333M36 24.333H36.02M12 24.333H12.02M4 16.733L4 31.933C4 34.1732 4 35.2933 4.43597 36.149C4.81947 36.9016 5.43139 37.5135 6.18404 37.897C7.03968 38.333 8.15979 38.333 10.4 38.333L37.6 38.333C39.8402 38.333 40.9603 38.333 41.816 37.897C42.5686 37.5135 43.1805 36.9016 43.564 36.149C44 35.2933 44 34.1732 44 31.933V16.733C44 14.4928 44 13.3727 43.564 12.517C43.1805 11.7644 42.5686 11.1525 41.816 10.769C40.9603 10.333 39.8402 10.333 37.6 10.333L10.4 10.333C8.15979 10.333 7.03969 10.333 6.18404 10.769C5.43139 11.1525 4.81947 11.7644 4.43597 12.517C4 13.3727 4 14.4928 4 16.733ZM37 24.333C37 24.8853 36.5523 25.333 36 25.333C35.4477 25.333 35 24.8853 35 24.333C35 23.7807 35.4477 23.333 36 23.333C36.5523 23.333 37 23.7807 37 24.333ZM13 24.333C13 24.8853 12.5523 25.333 12 25.333C11.4477 25.333 11 24.8853 11 24.333C11 23.7807 11.4477 23.333 12 23.333C12.5523 23.333 13 23.7807 13 24.333Z" stroke="#6E6D6B" stroke-width="4" stroke-linecap="round" stroke-linejoin="round"/>
</g>
</svg>
