<?xml version="1.0" encoding="utf-8"?>
<!-- Generator: Adobe Illustrator 16.0.0, SVG Export Plug-In . SVG Version: 6.00 Build 0)  -->
<!DOCTYPE svg PUBLIC "-//W3C//DTD SVG 1.0//EN" "http://www.w3.org/TR/2001/REC-SVG-20010904/DTD/svg10.dtd">
<svg version="1.0" id="Layer_1" xmlns="http://www.w3.org/2000/svg" xmlns:xlink="http://www.w3.org/1999/xlink" x="0px" y="0px"
	 width="45px" height="45px" viewBox="0 0 62.203 62.204" enable-background="new 0 0 62.203 62.204" xml:space="preserve">
<g>
	<rect x="18.297" y="23.888" fill="#FFD712" width="13.191" height="9.144"/>
	<g>
		<g>
			<path fill="#004CD2" d="M38.906,16.726H26.118c-3.366,0-6.106,2.74-6.106,6.107v0.542h-1.566c-0.261,0-0.479,0.219-0.479,0.48
				v9.208c0,0.26,0.218,0.479,0.479,0.479h1.566v5.148c0,3.368,2.74,6.106,6.106,6.106c3.368,0,6.106-2.738,6.106-6.106v-5.148
				h1.089v15.379c0,0.265,0.214,0.48,0.479,0.48c0.264,0,0.477-0.215,0.477-0.48V33.543h2.113v2.111
				c0,0.265,0.213,0.479,0.479,0.479c0.265,0,0.48-0.215,0.48-0.479v-2.111h2.109v15.379c0,0.265,0.213,0.48,0.479,0.48
				c0.267,0,0.48-0.215,0.48-0.48V33.543h4.124c0.267,0,0.481-0.215,0.481-0.479V22.833C45.016,19.465,42.273,16.726,38.906,16.726z
				 M30.21,24.336l-5.115,3.54l-5.114-3.54H30.21L30.21,24.336z M18.924,24.771l3.997,2.767l-3.997,4.304V24.771z M19.545,32.584
				l4.172-4.495l1.105,0.765c0.162,0.112,0.383,0.112,0.547,0l1.104-0.765l4.174,4.495H19.545L19.545,32.584z M31.266,38.691
				c0,2.838-2.31,5.147-5.147,5.147c-2.839,0-5.148-2.309-5.148-5.147v-5.148h10.296V38.691L31.266,38.691z M31.266,31.842
				l-3.997-4.304l3.997-2.767V31.842z M31.266,23.375H20.97v-0.542c0-2.838,2.31-5.148,5.148-5.148c2.838,0,5.149,2.31,5.149,5.148
				v0.542H31.266z M44.056,32.584H32.225v-9.751c0-2.16-1.127-4.062-2.825-5.148h9.507c2.838,0,5.149,2.31,5.149,5.148V32.584
				L44.056,32.584z"/>
		</g>
	</g>
	<g>
		<g>
			<path fill="#004CD2" d="M36.861,37.476c-0.266,0-0.48,0.216-0.48,0.48v10.966c0,0.265,0.215,0.48,0.48,0.48
				c0.265,0,0.48-0.215,0.48-0.48V37.956C37.342,37.691,37.126,37.476,36.861,37.476z"/>
		</g>
	</g>
	<g>
		<g>
			<path fill="#004CD2" d="M40.953,19.283h-3.068c-0.83,0-1.504,0.674-1.504,1.503v8.696c0,0.829,0.674,1.502,1.504,1.502h1.021
				c0.831,0,1.504-0.673,1.504-1.502v-7.194h0.543c0.828,0,1.504-0.674,1.504-1.502C42.457,19.957,41.781,19.283,40.953,19.283z
				 M40.953,21.33H39.93c-0.266,0-0.479,0.214-0.479,0.479v7.674c0,0.299-0.244,0.543-0.545,0.543h-1.021
				c-0.302,0-0.543-0.244-0.543-0.543v-8.696c0-0.3,0.241-0.543,0.543-0.543h3.068c0.301,0,0.544,0.243,0.544,0.543
				C41.497,21.086,41.254,21.33,40.953,21.33z"/>
		</g>
	</g>
	<g>
		<g>
			<path fill="#004CD2" d="M38.461,27.979h-0.066c-0.264,0-0.479,0.215-0.479,0.48c0,0.265,0.215,0.479,0.479,0.479h0.066
				c0.264,0,0.479-0.215,0.479-0.479C38.939,28.194,38.725,27.979,38.461,27.979z"/>
		</g>
	</g>
	<g>
		<g>
			<path fill="#004CD2" d="M16.398,23.888h-3.581c-0.265,0-0.479,0.214-0.479,0.479c0,0.264,0.215,0.479,0.479,0.479h3.581
				c0.266,0,0.48-0.215,0.48-0.479C16.879,24.103,16.664,23.888,16.398,23.888z"/>
		</g>
	</g>
	<g>
		<g>
			<path fill="#004CD2" d="M16.398,27.979h-2.558c-0.265,0-0.479,0.215-0.479,0.48c0,0.265,0.215,0.479,0.479,0.479h2.558
				c0.266,0,0.48-0.215,0.48-0.479C16.879,28.194,16.664,27.979,16.398,27.979z"/>
		</g>
	</g>
	<g>
		<g>
			<path fill="#004CD2" d="M16.398,32.073h-1.533c-0.266,0-0.48,0.213-0.48,0.479c0,0.265,0.215,0.48,0.48,0.48h1.533
				c0.266,0,0.48-0.216,0.48-0.48C16.879,32.286,16.664,32.073,16.398,32.073z"/>
		</g>
	</g>
</g>
</svg>
