<?xml version="1.0" encoding="UTF-8"?>
<svg version="1.1" xmlns="http://www.w3.org/2000/svg" width="512" height="512">
<path d="M0 0 C106.26 0 212.52 0 322 0 C322 38.61 322 77.22 322 117 C326.29 117.66 330.58 118.32 335 119 C344.50950106 122.36892039 352.02125545 127.81447783 359 135 C359.57234375 135.55171875 360.1446875 136.1034375 360.734375 136.671875 C370.51313545 146.85388331 373.39494686 160.8215322 373.37109375 174.41333008 C372.9715593 189.6006334 366.71250009 201.74404353 356.484375 212.67578125 C346.39635763 222.11347045 335.63958848 225.76003741 322 227 C322 242.84 322 258.68 322 275 C330.52621641 274.80321188 330.52621641 274.80321188 339.05078125 274.54956055 C347.44084124 274.45222078 352.38220071 275.69627074 358.51123047 281.40844727 C363.14575294 286.39225974 364.45735225 292.20351495 364.25 298.890625 C363.44777291 305.65941605 361.07566298 311.35630834 356 316 C350.56264314 318.91871497 346.16331454 320.0901457 340 320 C340.02094727 321.00377686 340.04189453 322.00755371 340.06347656 323.04174805 C340.13606694 326.77825566 340.18186811 330.51470137 340.21972656 334.25170898 C340.23979892 335.86672458 340.2670633 337.48166789 340.30175781 339.09643555 C340.35047215 341.42254501 340.37301154 343.74769093 340.390625 346.07421875 C340.41127014 346.79212082 340.43191528 347.51002289 340.45318604 348.24967957 C340.45481097 351.90872556 340.07931027 353.87492831 338.10058594 356.99536133 C336 359 336 359 334 359 C334 360.32 334 361.64 334 363 C334.66905869 362.99333817 335.33811737 362.98667633 336.02745056 362.97981262 C343.01963473 362.91320768 350.01172809 362.86809512 357.00415039 362.83520508 C359.61030745 362.82016116 362.21643937 362.79972105 364.82250977 362.77368164 C368.57835105 362.73710576 372.33385624 362.72022905 376.08984375 362.70703125 C377.24645004 362.69154739 378.40305634 362.67606354 379.5947113 362.66011047 C388.8316678 362.65820852 396.66011889 363.84897747 403.5625 370.3359375 C407.57733059 374.9835403 409 380.95801413 409 387 C408.18784765 394.46164975 405.59168638 399.40831362 400.25 404.75 C392.9190718 409.82525798 384.77982518 409.27165728 376.1875 409.1953125 C374.97803711 409.1924826 373.76857422 409.18965271 372.52246094 409.18673706 C368.68153752 409.17559396 364.84085225 409.15049983 361 409.125 C358.38672213 409.11496263 355.77344059 409.1058381 353.16015625 409.09765625 C346.77335704 409.07567383 340.38669554 409.04225475 334 409 C334 409.99 334 410.98 334 412 C334.75917725 411.91621094 335.51835449 411.83242188 336.30053711 411.74609375 C359.58334157 409.51945648 359.58334157 409.51945648 367.5390625 415.45703125 C371.20707549 418.74577754 374.48607104 422.32944617 377.54321289 426.19067383 C378.92753654 428.03486315 378.92753654 428.03486315 380.67089844 429.37695312 C382.64488872 431.7875129 382.33976472 433.68878348 382.29296875 436.76171875 C382.28330078 437.87998047 382.27363281 438.99824219 382.26367188 440.15039062 C382.23853516 441.31763672 382.21339844 442.48488281 382.1875 443.6875 C382.17396484 444.86634766 382.16042969 446.04519531 382.14648438 447.25976562 C382.11109326 450.17363411 382.06171809 453.08658945 382 456 C382.93839722 456.43892578 382.93839722 456.43892578 383.89575195 456.88671875 C387.94941352 459.03136392 390.0070116 462.98956936 392 467 C393.89640813 473.66868792 393.22591991 479.87845914 390 486 C386.40439163 491.18057428 382.9126758 494.59594501 377 497 C370.1197906 497.88596664 362.77211683 498.08527241 356.6796875 494.3984375 C351.79710469 490.33340344 348.41254594 485.21520212 347 479 C347 477.68 347 476.36 347 475 C344.36 475.33 341.72 475.66 339 476 C338.85304688 476.87011719 338.85304688 476.87011719 338.703125 477.7578125 C337.24455772 485.37756913 334.56458212 490.51687074 328 495 C324.18001677 496.83105222 321.14583566 497.2522947 316.92541027 497.26006222 C315.69771677 497.26712781 314.47002327 497.2741934 313.20512694 497.2814731 C311.84583198 497.27922183 310.48653734 497.27677534 309.12724304 497.27415466 C307.68082156 497.2786075 306.23440252 497.2839217 304.78798705 497.29002339 C300.8127575 497.30420823 296.83760611 497.30586659 292.86235487 497.30542648 C288.575253 497.30707424 284.28818337 497.32013993 280.00109863 497.33161926 C270.62719004 497.35447071 261.25330408 497.36238989 251.8793714 497.36744571 C246.02665669 497.37070227 240.17394856 497.37722446 234.32123756 497.3844471 C218.11739024 497.40401247 201.91354904 497.42041729 185.70968914 497.42332363 C184.67274569 497.4235112 183.63580224 497.42369877 182.56743627 497.42389202 C180.46529694 497.42425828 178.36315762 497.42462197 176.2610183 497.42498314 C174.69575833 497.42525735 174.69575833 497.42525735 173.09887695 497.42553711 C171.53170726 497.42580793 171.53170726 497.42580793 169.93287758 497.42608423 C152.99947686 497.42962672 136.06620324 497.45665409 119.13284662 497.494035 C101.7485321 497.53210444 84.36428068 497.551481 66.97992355 497.55178314 C57.21881317 497.55236799 47.45785444 497.56087746 37.69678307 497.58978081 C29.38607793 497.61427635 21.07557978 497.62158989 12.76484831 497.60653328 C8.52478808 497.59935711 4.28513671 497.60025204 0.04512215 497.62294388 C-3.8381448 497.64352736 -7.72068837 497.64094008 -11.60394742 497.62006903 C-13.00703199 497.61657289 -14.41016868 497.62148963 -15.81318489 497.63577347 C-25.53129425 497.72831764 -31.31804292 496.5554177 -38.3125 489.75 C-42.8951448 482.28198625 -43.73478879 475.58053223 -42 467 C-39.58387562 460.47646417 -35.15155212 456.15464211 -29 453 C-25.10004492 451.66219792 -21.08891453 451.8470878 -17.015625 451.82421875 C-15.42446605 451.80101288 -13.83332018 451.77689524 -12.2421875 451.75195312 C-9.74958618 451.71693918 -7.25746508 451.68754033 -4.76464844 451.67407227 C-2.34772363 451.65848075 0.06782081 451.6182013 2.484375 451.57421875 C3.21799255 451.57612717 3.95161011 451.57803558 4.7074585 451.58000183 C10.74295373 451.43926872 15.97728475 449.71410603 20.53265381 445.62382507 C25.19257658 440.4206896 26.44006184 435.08966423 26.24609375 428.30078125 C25.57660192 422.04156401 23.20091295 417.64685388 18.79296875 413.2265625 C14.05102918 409.98262127 8.88752602 409.70821246 3.31738281 409.72875977 C2.57179108 409.72353302 1.82619934 409.71830627 1.05801392 409.71292114 C-0.55263936 409.70272242 -2.16332522 409.69690798 -3.7740097 409.69503975 C-6.3313664 409.69135657 -8.88834201 409.6745754 -11.44561768 409.65428162 C-18.71367268 409.5990669 -25.98178361 409.56826797 -33.25 409.54370117 C-37.70502441 409.52774005 -42.15977858 409.49743091 -46.61466217 409.45893669 C-48.30334839 409.44736025 -49.99208312 409.44135699 -51.68080902 409.44125557 C-72.50987433 409.43955139 -72.50987433 409.43955139 -79.4375 404.1328125 C-84.60927695 397.48707912 -87.68055512 391.37345269 -86.75390625 382.6953125 C-85.25837657 374.8338556 -81.62973405 369.58981588 -75 365 C-67.36106308 362.33812074 -59.54843763 362.74563007 -51.5625 362.8046875 C-50.07177928 362.80842353 -48.58105609 362.81126771 -47.09033203 362.81326294 C-43.19082712 362.82085297 -39.29147419 362.84046096 -35.39202881 362.8626709 C-30.70044596 362.88685246 -26.00881194 362.89593239 -21.31718445 362.90757751 C-14.21135101 362.92688865 -7.10585021 362.96524312 0 363 C0 348.81 0 334.62 0 320 C-7.77769074 320.15701477 -7.77769074 320.15701477 -15.55419922 320.36035156 C-23.30514038 320.43855471 -31.04425749 319.77750117 -36.90722656 314.17871094 C-40.94520029 309.41921032 -42.59904876 303.99705445 -44 298 C-48.23715885 310.13368216 -51.89290015 322.38032199 -55.28320312 334.77832031 C-55.60740234 335.94459961 -55.93160156 337.11087891 -56.265625 338.3125 C-56.55211914 339.36050781 -56.83861328 340.40851563 -57.13378906 341.48828125 C-58 344 -58 344 -60 346 C-60.85810051 343.33454493 -61.71226793 340.66796958 -62.5625 338 C-62.83280029 337.15203857 -63.10310059 336.30407715 -63.3815918 335.43041992 C-64.87015294 330.71756631 -66.30128492 325.99582919 -67.640625 321.23828125 C-67.91962646 320.25279297 -68.19862793 319.26730469 -68.48608398 318.25195312 C-69.0074186 316.39763445 -69.52102462 314.54110922 -70.02368164 312.68164062 C-71.4145085 307.74929581 -72.83117994 303.2369816 -75.14767456 298.66241455 C-84.57678367 278.94068529 -83.24305371 258.37345465 -83.04427171 237.01703525 C-83.00236088 231.58187195 -83.00934256 226.14673556 -83.00968933 220.71144104 C-83.00322917 211.60948666 -82.96255463 202.5082178 -82.89868164 193.40649414 C-82.82515123 182.8961652 -82.79736291 172.38650579 -82.795533 161.87593502 C-82.79328427 150.63834407 -82.76057327 139.4010003 -82.71751952 128.16349912 C-82.70704894 124.93904166 -82.70197854 121.71461234 -82.69800758 118.49014091 C-82.69009128 113.43112368 -82.66154236 108.37262083 -82.61707115 103.313797 C-82.60381298 101.46069994 -82.59725559 99.60754079 -82.59794617 97.75439644 C-82.59766894 95.22211744 -82.57274897 92.69122525 -82.5415802 90.15916443 C-82.54984863 89.06453035 -82.54984863 89.06453035 -82.5582841 87.94778246 C-82.45040042 82.47663341 -81.00321918 79.41766034 -78 75 C-72.53897701 70.58594103 -66.2571096 71.52355727 -59.5625 71.5625 C-58.34755859 71.54251953 -57.13261719 71.52253906 -55.88085938 71.50195312 C-50.85528593 71.50470686 -46.98297938 71.57302817 -42.33984375 73.58984375 C-37.32857761 78.75169886 -36.5566695 84.26754585 -36.63923645 91.22454834 C-36.63667318 92.02470533 -36.6341099 92.82486231 -36.63146895 93.64926648 C-36.62654952 96.31553996 -36.64299348 98.98124011 -36.65942383 101.64746094 C-36.66027052 103.5647836 -36.65979414 105.48210723 -36.65809631 107.39942932 C-36.6572364 112.59541703 -36.67486321 117.79119651 -36.69581819 122.98713589 C-36.71459328 128.42429481 -36.71633636 133.86145869 -36.71989441 139.29864502 C-36.72921535 149.59384719 -36.75382721 159.88895369 -36.78394288 170.18411374 C-36.81745679 181.89416997 -36.83397005 193.6042307 -36.84902918 205.31432295 C-36.87819245 227.72347171 -36.92447895 250.13255074 -36.98601371 272.54163337 C-36.99367438 275.36110162 -37 278.18051953 -37 281 C-35.6078125 279.7934375 -35.6078125 279.7934375 -34.1875 278.5625 C-24.70510606 270.34442525 -13.22473282 275 0 275 C0 184.25 0 93.5 0 0 Z M318 126 C318 126.99 318 127.98 318 129 C319.16402344 129.09474609 319.16402344 129.09474609 320.3515625 129.19140625 C331.26561196 130.42867916 342.95931652 134.29531768 350.4765625 142.8046875 C359.04539189 155.15259037 362.27331353 167.34528585 359.89453125 182.30859375 C357.15341485 193.62018761 351.2463316 202.43124186 341.44921875 208.6171875 C333.97542551 212.8368411 326.45408139 214.77849775 318 216 C318 216.66 318 217.32 318 218 C329.21073585 218.73513022 339.03986686 214.66419221 348 208 C357.23678784 199.71817418 363.26722652 188.21691638 364.25 175.85546875 C364.71480306 162.6812071 361.42529084 152.14987063 353 142 C352.48824219 141.36449219 351.97648437 140.72898438 351.44921875 140.07421875 C344.63714471 132.45078105 334.18342171 127.04288054 324 126 C320.62430204 125.83030819 320.62430204 125.83030819 318 126 Z M283 411 C283 411.33 283 411.66 283 412 C286.3 412 289.6 412 293 412 C293 411.01 293 410.02 293 409 C289.14354879 408.77963136 286.50776784 409.39644899 283 411 Z " fill="#98E9FE" transform="translate(95,15)"/>
<path d="M0 0 C106.26 0 212.52 0 322 0 C322 38.61 322 77.22 322 117 C326.29 117.66 330.58 118.32 335 119 C344.50950106 122.36892039 352.02125545 127.81447783 359 135 C359.57234375 135.55171875 360.1446875 136.1034375 360.734375 136.671875 C370.51313545 146.85388331 373.39494686 160.8215322 373.37109375 174.41333008 C372.9715593 189.6006334 366.71250009 201.74404353 356.484375 212.67578125 C346.39635763 222.11347045 335.63958848 225.76003741 322 227 C322 242.84 322 258.68 322 275 C330.52621641 274.80321188 330.52621641 274.80321188 339.05078125 274.54956055 C347.44084124 274.45222078 352.38220071 275.69627074 358.51123047 281.40844727 C363.14575294 286.39225974 364.45735225 292.20351495 364.25 298.890625 C363.44777291 305.65941605 361.07566298 311.35630834 356 316 C350.56264314 318.91871497 346.16331454 320.0901457 340 320 C340.02094727 321.00377686 340.04189453 322.00755371 340.06347656 323.04174805 C340.13606694 326.77825566 340.18186811 330.51470137 340.21972656 334.25170898 C340.23979892 335.86672458 340.2670633 337.48166789 340.30175781 339.09643555 C340.35047215 341.42254501 340.37301154 343.74769093 340.390625 346.07421875 C340.41127014 346.79212082 340.43191528 347.51002289 340.45318604 348.24967957 C340.45481097 351.90872556 340.07931027 353.87492831 338.10058594 356.99536133 C336 359 336 359 334 359 C334 360.32 334 361.64 334 363 C334.66905869 362.99333817 335.33811737 362.98667633 336.02745056 362.97981262 C343.01963473 362.91320768 350.01172809 362.86809512 357.00415039 362.83520508 C359.61030745 362.82016116 362.21643937 362.79972105 364.82250977 362.77368164 C368.57835105 362.73710576 372.33385624 362.72022905 376.08984375 362.70703125 C377.24645004 362.69154739 378.40305634 362.67606354 379.5947113 362.66011047 C388.8316678 362.65820852 396.66011889 363.84897747 403.5625 370.3359375 C407.57733059 374.9835403 409 380.95801413 409 387 C408.18784765 394.46164975 405.59168638 399.40831362 400.25 404.75 C392.9190718 409.82525798 384.77982518 409.27165728 376.1875 409.1953125 C374.97803711 409.1924826 373.76857422 409.18965271 372.52246094 409.18673706 C368.68153752 409.17559396 364.84085225 409.15049983 361 409.125 C358.38672213 409.11496263 355.77344059 409.1058381 353.16015625 409.09765625 C346.77335704 409.07567383 340.38669554 409.04225475 334 409 C334 409.99 334 410.98 334 412 C334.75917725 411.91621094 335.51835449 411.83242188 336.30053711 411.74609375 C359.58334157 409.51945648 359.58334157 409.51945648 367.5390625 415.45703125 C371.20707549 418.74577754 374.48607104 422.32944617 377.54321289 426.19067383 C378.92753654 428.03486315 378.92753654 428.03486315 380.67089844 429.37695312 C382.64488872 431.7875129 382.33976472 433.68878348 382.29296875 436.76171875 C382.28330078 437.87998047 382.27363281 438.99824219 382.26367188 440.15039062 C382.23853516 441.31763672 382.21339844 442.48488281 382.1875 443.6875 C382.17396484 444.86634766 382.16042969 446.04519531 382.14648438 447.25976562 C382.11109326 450.17363411 382.06171809 453.08658945 382 456 C382.93839722 456.43892578 382.93839722 456.43892578 383.89575195 456.88671875 C387.94941352 459.03136392 390.0070116 462.98956936 392 467 C393.89640813 473.66868792 393.22591991 479.87845914 390 486 C386.40439163 491.18057428 382.9126758 494.59594501 377 497 C370.1197906 497.88596664 362.77211683 498.08527241 356.6796875 494.3984375 C351.79710469 490.33340344 348.41254594 485.21520212 347 479 C347 477.68 347 476.36 347 475 C344.36 475.33 341.72 475.66 339 476 C338.85304688 476.87011719 338.85304688 476.87011719 338.703125 477.7578125 C337.24455772 485.37756913 334.56458212 490.51687074 328 495 C324.18001677 496.83105222 321.14583566 497.2522947 316.92541027 497.26006222 C315.69771677 497.26712781 314.47002327 497.2741934 313.20512694 497.2814731 C311.84583198 497.27922183 310.48653734 497.27677534 309.12724304 497.27415466 C307.68082156 497.2786075 306.23440252 497.2839217 304.78798705 497.29002339 C300.8127575 497.30420823 296.83760611 497.30586659 292.86235487 497.30542648 C288.575253 497.30707424 284.28818337 497.32013993 280.00109863 497.33161926 C270.62719004 497.35447071 261.25330408 497.36238989 251.8793714 497.36744571 C246.02665669 497.37070227 240.17394856 497.37722446 234.32123756 497.3844471 C218.11739024 497.40401247 201.91354904 497.42041729 185.70968914 497.42332363 C184.67274569 497.4235112 183.63580224 497.42369877 182.56743627 497.42389202 C180.46529694 497.42425828 178.36315762 497.42462197 176.2610183 497.42498314 C174.69575833 497.42525735 174.69575833 497.42525735 173.09887695 497.42553711 C171.53170726 497.42580793 171.53170726 497.42580793 169.93287758 497.42608423 C152.99947686 497.42962672 136.06620324 497.45665409 119.13284662 497.494035 C101.7485321 497.53210444 84.36428068 497.551481 66.97992355 497.55178314 C57.21881317 497.55236799 47.45785444 497.56087746 37.69678307 497.58978081 C29.38607793 497.61427635 21.07557978 497.62158989 12.76484831 497.60653328 C8.52478808 497.59935711 4.28513671 497.60025204 0.04512215 497.62294388 C-3.8381448 497.64352736 -7.72068837 497.64094008 -11.60394742 497.62006903 C-13.00703199 497.61657289 -14.41016868 497.62148963 -15.81318489 497.63577347 C-25.53129425 497.72831764 -31.31804292 496.5554177 -38.3125 489.75 C-42.8951448 482.28198625 -43.73478879 475.58053223 -42 467 C-39.58387562 460.47646417 -35.15155212 456.15464211 -29 453 C-25.10004492 451.66219792 -21.08891453 451.8470878 -17.015625 451.82421875 C-15.42446605 451.80101288 -13.83332018 451.77689524 -12.2421875 451.75195312 C-9.74958618 451.71693918 -7.25746508 451.68754033 -4.76464844 451.67407227 C-2.34772363 451.65848075 0.06782081 451.6182013 2.484375 451.57421875 C3.21799255 451.57612717 3.95161011 451.57803558 4.7074585 451.58000183 C10.74295373 451.43926872 15.97728475 449.71410603 20.53265381 445.62382507 C25.19257658 440.4206896 26.44006184 435.08966423 26.24609375 428.30078125 C25.57660192 422.04156401 23.20091295 417.64685388 18.79296875 413.2265625 C14.05102918 409.98262127 8.88752602 409.70821246 3.31738281 409.72875977 C2.57179108 409.72353302 1.82619934 409.71830627 1.05801392 409.71292114 C-0.55263936 409.70272242 -2.16332522 409.69690798 -3.7740097 409.69503975 C-6.3313664 409.69135657 -8.88834201 409.6745754 -11.44561768 409.65428162 C-18.71367268 409.5990669 -25.98178361 409.56826797 -33.25 409.54370117 C-37.70502441 409.52774005 -42.15977858 409.49743091 -46.61466217 409.45893669 C-48.30334839 409.44736025 -49.99208312 409.44135699 -51.68080902 409.44125557 C-72.50987433 409.43955139 -72.50987433 409.43955139 -79.4375 404.1328125 C-84.60927695 397.48707912 -87.68055512 391.37345269 -86.75390625 382.6953125 C-85.25837657 374.8338556 -81.62973405 369.58981588 -75 365 C-67.36106308 362.33812074 -59.54843763 362.74563007 -51.5625 362.8046875 C-50.07177928 362.80842353 -48.58105609 362.81126771 -47.09033203 362.81326294 C-43.19082712 362.82085297 -39.29147419 362.84046096 -35.39202881 362.8626709 C-30.70044596 362.88685246 -26.00881194 362.89593239 -21.31718445 362.90757751 C-14.21135101 362.92688865 -7.10585021 362.96524312 0 363 C0 348.81 0 334.62 0 320 C-7.77769074 320.15701477 -7.77769074 320.15701477 -15.55419922 320.36035156 C-23.30514038 320.43855471 -31.04425749 319.77750117 -36.90722656 314.17871094 C-40.94520029 309.41921032 -42.59904876 303.99705445 -44 298 C-48.23715885 310.13368216 -51.89290015 322.38032199 -55.28320312 334.77832031 C-55.60740234 335.94459961 -55.93160156 337.11087891 -56.265625 338.3125 C-56.55211914 339.36050781 -56.83861328 340.40851563 -57.13378906 341.48828125 C-58 344 -58 344 -60 346 C-60.85810051 343.33454493 -61.71226793 340.66796958 -62.5625 338 C-62.83280029 337.15203857 -63.10310059 336.30407715 -63.3815918 335.43041992 C-64.87015294 330.71756631 -66.30128492 325.99582919 -67.640625 321.23828125 C-67.91962646 320.25279297 -68.19862793 319.26730469 -68.48608398 318.25195312 C-69.0074186 316.39763445 -69.52102462 314.54110922 -70.02368164 312.68164062 C-71.4145085 307.74929581 -72.83117994 303.2369816 -75.14767456 298.66241455 C-84.57678367 278.94068529 -83.24305371 258.37345465 -83.04427171 237.01703525 C-83.00236088 231.58187195 -83.00934256 226.14673556 -83.00968933 220.71144104 C-83.00322917 211.60948666 -82.96255463 202.5082178 -82.89868164 193.40649414 C-82.82515123 182.8961652 -82.79736291 172.38650579 -82.795533 161.87593502 C-82.79328427 150.63834407 -82.76057327 139.4010003 -82.71751952 128.16349912 C-82.70704894 124.93904166 -82.70197854 121.71461234 -82.69800758 118.49014091 C-82.69009128 113.43112368 -82.66154236 108.37262083 -82.61707115 103.313797 C-82.60381298 101.46069994 -82.59725559 99.60754079 -82.59794617 97.75439644 C-82.59766894 95.22211744 -82.57274897 92.69122525 -82.5415802 90.15916443 C-82.54984863 89.06453035 -82.54984863 89.06453035 -82.5582841 87.94778246 C-82.45040042 82.47663341 -81.00321918 79.41766034 -78 75 C-72.53897701 70.58594103 -66.2571096 71.52355727 -59.5625 71.5625 C-58.34755859 71.54251953 -57.13261719 71.52253906 -55.88085938 71.50195312 C-50.85528593 71.50470686 -46.98297938 71.57302817 -42.33984375 73.58984375 C-37.32857761 78.75169886 -36.5566695 84.26754585 -36.63923645 91.22454834 C-36.63667318 92.02470533 -36.6341099 92.82486231 -36.63146895 93.64926648 C-36.62654952 96.31553996 -36.64299348 98.98124011 -36.65942383 101.64746094 C-36.66027052 103.5647836 -36.65979414 105.48210723 -36.65809631 107.39942932 C-36.6572364 112.59541703 -36.67486321 117.79119651 -36.69581819 122.98713589 C-36.71459328 128.42429481 -36.71633636 133.86145869 -36.71989441 139.29864502 C-36.72921535 149.59384719 -36.75382721 159.88895369 -36.78394288 170.18411374 C-36.81745679 181.89416997 -36.83397005 193.6042307 -36.84902918 205.31432295 C-36.87819245 227.72347171 -36.92447895 250.13255074 -36.98601371 272.54163337 C-36.99367438 275.36110162 -37 278.18051953 -37 281 C-35.6078125 279.7934375 -35.6078125 279.7934375 -34.1875 278.5625 C-24.70510606 270.34442525 -13.22473282 275 0 275 C0 184.25 0 93.5 0 0 Z M8 9 C8 138.03 8 267.06 8 400 C102.05 400 196.1 400 293 400 C293 386.47 293 372.94 293 359 C291.68 357.68 290.36 356.36 289 355 C287.9158294 351.7474882 287.86659134 349.36222582 287.85473633 345.93969727 C287.84516655 344.06744225 287.84516655 344.06744225 287.83540344 342.15736389 C287.83387478 340.79371174 287.83276081 339.43005907 287.83203125 338.06640625 C287.82881767 336.66780055 287.82545352 335.2691952 287.82194519 333.87059021 C287.81595834 330.93935364 287.81410485 328.00814655 287.81469727 325.0769043 C287.81479891 321.32306791 287.80114275 317.56942058 287.78392506 313.81562901 C287.77280074 310.92713047 287.77077818 308.0386776 287.77130699 305.15015984 C287.77012768 303.76628912 287.76570861 302.38241719 287.75797462 300.99856758 C287.74816587 299.0623023 287.75231933 297.12598154 287.75708008 295.18969727 C287.75565506 294.08844009 287.75423004 292.98718292 287.75276184 291.85255432 C288.00193905 288.97762788 288.3971296 287.37650588 290 285 C296.70820393 280.52786405 305.94686762 282.38348249 314 282 C314 263.85 314 245.7 314 227 C306.08 225.02 306.08 225.02 298 223 C283.52469968 216.37832006 273.04649642 206.09591696 267.125 191.25 C261.70987244 176.69012059 262.97511358 162.01999586 269.35546875 148.02734375 C276.19115432 134.70417107 285.94596014 126.82134342 299.65234375 121.04296875 C304.31998951 119.58875473 309.18992698 118.87455873 314 118 C314 82.03 314 46.06 314 9 C213.02 9 112.04 9 8 9 Z M318 126 C318 126.99 318 127.98 318 129 C319.16402344 129.09474609 319.16402344 129.09474609 320.3515625 129.19140625 C331.26561196 130.42867916 342.95931652 134.29531768 350.4765625 142.8046875 C359.04539189 155.15259037 362.27331353 167.34528585 359.89453125 182.30859375 C357.15341485 193.62018761 351.2463316 202.43124186 341.44921875 208.6171875 C333.97542551 212.8368411 326.45408139 214.77849775 318 216 C318 216.66 318 217.32 318 218 C329.21073585 218.73513022 339.03986686 214.66419221 348 208 C357.23678784 199.71817418 363.26722652 188.21691638 364.25 175.85546875 C364.71480306 162.6812071 361.42529084 152.14987063 353 142 C352.48824219 141.36449219 351.97648437 140.72898438 351.44921875 140.07421875 C344.63714471 132.45078105 334.18342171 127.04288054 324 126 C320.62430204 125.83030819 320.62430204 125.83030819 318 126 Z M283 411 C283 411.33 283 411.66 283 412 C286.3 412 289.6 412 293 412 C293 411.01 293 410.02 293 409 C289.14354879 408.77963136 286.50776784 409.39644899 283 411 Z " fill="#041C53" transform="translate(95,15)"/>
<path d="M0 0 C93.72 0 187.44 0 284 0 C284 0.33 284 0.66 284 1 C276.7932334 3.65317606 271.01648752 5.08090297 263.3125 4.625 C254.45668324 4.68715756 248.76694214 9.71682037 242.69702148 15.7109375 C234.33009045 25.37249478 234.93589567 36.6331835 235.80615234 48.80712891 C235.87012207 49.53077637 235.9340918 50.25442383 236 51 C238.64 51 241.28 51 244 51 C244 55.95 244 60.9 244 66 C272.05 66 300.1 66 329 66 C330.77562808 69.55125616 329.14422109 73.3520263 328 77 C324.67683501 83.07337051 320.56978356 86.80916134 314 89 C311.13759059 89.25415033 311.13759059 89.25415033 307.92541027 89.26006222 C306.69771677 89.26712781 305.47002327 89.2741934 304.20512694 89.2814731 C302.84583198 89.27922183 301.48653734 89.27677534 300.12724304 89.27415466 C298.68082156 89.2786075 297.23440252 89.2839217 295.78798705 89.29002339 C291.8127575 89.30420823 287.83760611 89.30586659 283.86235487 89.30542648 C279.575253 89.30707424 275.28818337 89.32013993 271.00109863 89.33161926 C261.62719004 89.35447071 252.25330408 89.36238989 242.8793714 89.36744571 C237.02665669 89.37070227 231.17394856 89.37722446 225.32123756 89.3844471 C209.11739024 89.40401247 192.91354904 89.42041729 176.70968914 89.42332363 C175.67274569 89.4235112 174.63580224 89.42369877 173.56743627 89.42389202 C171.46529694 89.42425828 169.36315762 89.42462197 167.2610183 89.42498314 C165.69575833 89.42525735 165.69575833 89.42525735 164.09887695 89.42553711 C162.53170726 89.42580793 162.53170726 89.42580793 160.93287758 89.42608423 C143.99947686 89.42962672 127.06620324 89.45665409 110.13284662 89.494035 C92.7485321 89.53210444 75.36428068 89.551481 57.97992355 89.55178314 C48.21881317 89.55236799 38.45785444 89.56087746 28.69678307 89.58978081 C20.38607793 89.61427635 12.07557978 89.62158989 3.76484831 89.60653328 C-0.47521192 89.59935711 -4.71486329 89.60025204 -8.95487785 89.62294388 C-12.8381448 89.64352736 -16.72068837 89.64094008 -20.60394742 89.62006903 C-22.00703199 89.61657289 -23.41016868 89.62148963 -24.81318489 89.63577347 C-34.53129425 89.72831764 -40.31804292 88.5554177 -47.3125 81.75 C-51.8951448 74.28198625 -52.73478879 67.58053223 -51 59 C-48.58387562 52.47646417 -44.15155212 48.15464211 -38 45 C-34.10004492 43.66219792 -30.08891453 43.8470878 -26.015625 43.82421875 C-24.42446605 43.80101288 -22.83332018 43.77689524 -21.2421875 43.75195312 C-18.74958618 43.71693918 -16.25746508 43.68754033 -13.76464844 43.67407227 C-11.34772363 43.65848075 -8.93217919 43.6182013 -6.515625 43.57421875 C-5.78200745 43.57612717 -5.04838989 43.57803558 -4.2925415 43.58000183 C1.74295373 43.43926872 6.97728475 41.71410603 11.53265381 37.62382507 C16.19257658 32.4206896 17.44006184 27.08966423 17.24609375 20.30078125 C16.58860523 14.1537854 14.30417433 9.45310322 9.76171875 5.25390625 C6.72538699 3.09279207 3.54629727 2.10057502 0 1 C0 0.67 0 0.34 0 0 Z " fill="#C8EBFD" transform="translate(104,423)"/>
<path d="M0 0 C1.21494141 -0.01998047 2.42988281 -0.03996094 3.68164062 -0.06054688 C8.70721407 -0.05779314 12.57952062 0.01052817 17.22265625 2.02734375 C22.15936995 7.11240611 23.00910096 12.61230606 22.99728394 19.47363281 C23.00760843 20.25403396 23.01793293 21.0344351 23.02857029 21.83848476 C23.05913071 24.43927231 23.06849714 27.03968056 23.07763672 29.640625 C23.09481174 31.51252786 23.11313176 33.38442051 23.13250732 35.25630188 C23.18034502 40.33835873 23.20798246 45.42031944 23.22892904 50.50255203 C23.2422051 53.69172901 23.25846279 56.88087866 23.27545547 60.07003784 C23.3272491 70.087236 23.36534756 80.10436528 23.3858813 90.12167645 C23.40977677 101.60865496 23.47955597 113.09411757 23.58988369 124.58058357 C23.67255489 133.50174638 23.71158516 142.42248414 23.71948445 151.34402275 C23.72516857 156.65021436 23.74800821 161.95484479 23.81722641 167.26062012 C24.11897597 191.67049294 22.76596349 211.87937952 12.83328056 234.40499687 C10.96977884 238.85192892 9.63177454 243.40302022 8.37109375 248.05078125 C8.15222346 248.84028514 7.93335318 249.62978903 7.70785046 250.44321728 C7.1284596 252.54286757 6.56309599 254.64592614 6 256.75 C5.38613851 259.01908216 4.76880979 261.28704988 4.14356995 263.55302429 C3.59884895 265.52970349 3.0654485 267.50949272 2.53295898 269.48950195 C1.5625 272.4375 1.5625 272.4375 -0.4375 274.4375 C-1.29560051 271.77204493 -2.14976793 269.10546958 -3 266.4375 C-3.27030029 265.58953857 -3.54060059 264.74157715 -3.8190918 263.86791992 C-5.30765294 259.15506631 -6.73878492 254.43332919 -8.078125 249.67578125 C-8.35712646 248.69029297 -8.63612793 247.70480469 -8.92358398 246.68945312 C-9.4449186 244.83513445 -9.95852462 242.97860922 -10.46118164 241.11914062 C-11.8520085 236.18679581 -13.26867994 231.6744816 -15.58517456 227.09991455 C-25.01428367 207.37818529 -23.68055371 186.81095465 -23.48177171 165.45453525 C-23.43986088 160.01937195 -23.44684256 154.58423556 -23.44718933 149.14894104 C-23.44072917 140.04698666 -23.40005463 130.9457178 -23.33618164 121.84399414 C-23.26265123 111.3336652 -23.23486291 100.82400579 -23.233033 90.31343502 C-23.23078427 79.07584407 -23.19807327 67.8385003 -23.15501952 56.60099912 C-23.14454894 53.37654166 -23.13947854 50.15211234 -23.13550758 46.92764091 C-23.12759128 41.86862368 -23.09904236 36.81012083 -23.05457115 31.751297 C-23.04131298 29.89819994 -23.03475559 28.04504079 -23.03544617 26.19189644 C-23.03516894 23.65961744 -23.01024897 21.12872525 -22.9790802 18.59666443 C-22.98459249 17.86690838 -22.99010478 17.13715233 -22.9957841 16.38528246 C-22.88790042 10.91413341 -21.44071918 7.85516034 -18.4375 3.4375 C-12.97647701 -0.97655897 -6.6946096 -0.03894273 0 0 Z " fill="#011951" transform="translate(35.4375,86.5625)"/>
<path d="M0 0 C100.98 0 201.96 0 306 0 C306 35.97 306 71.94 306 109 C301.05 109.495 301.05 109.495 296 110 C296 76.67 296 43.34 296 9 C201.62 9 107.24 9 10 9 C10 132.09 10 255.18 10 382 C100.75 382 191.5 382 285 382 C285 384.97 285 387.94 285 391 C190.95 391 96.9 391 0 391 C0 261.97 0 132.94 0 0 Z " fill="#FBFDFE" transform="translate(103,24)"/>
<path d="M0 0 C14.22125831 -0.0935596 28.4424687 -0.1637698 42.6639719 -0.20724869 C49.26770774 -0.22811711 55.87123672 -0.25642196 62.47485352 -0.30175781 C68.84853586 -0.34524092 75.22201931 -0.36914271 81.59583855 -0.37950897 C84.02670357 -0.38689581 86.4575578 -0.40132054 88.88833809 -0.42292023 C92.29501944 -0.45198589 95.70088048 -0.45595453 99.10766602 -0.45410156 C100.61278748 -0.47567322 100.61278748 -0.47567322 102.14831543 -0.49768066 C109.09124801 -0.4568577 113.46606179 0.76527395 118.70703125 5.5625 C124.36198648 12.91594002 125.13933885 18.72538203 124 28 C121.61557334 34.31461957 118.11480831 38.94259584 112 42 C106.37578798 44.39403078 100.95523594 44.43644635 94.9375 44.5 C93.46700195 44.561875 93.46700195 44.561875 91.96679688 44.625 C84.90660491 44.70168912 84.90660491 44.70168912 82.27392578 42.6640625 C80.94140625 41.03125 80.94140625 41.03125 79 38 C75.52736727 36.26368364 71.78806987 36.39809598 68 37 C65.24430553 39.18159145 63.56411253 40.87177494 62 44 C61.40031249 49.27725011 62.72835275 51.88707202 66 56 C67.485 56.99 67.485 56.99 69 58 C69.1875 61.01171875 69.1875 61.01171875 69 64.6875 C68.85563336 72.11858303 69.54354017 75.82105199 74.125 81.75 C77.81938653 84.64125902 81.51125299 85.79713315 86 87 C86 87.33 86 87.66 86 88 C69.84025075 88.11695161 53.6806394 88.20504574 37.52056885 88.25906086 C30.01666085 88.28481093 22.51301625 88.31989966 15.00927734 88.37719727 C8.46679216 88.42713092 1.9244978 88.45931426 -4.61817265 88.47044247 C-8.08057855 88.47694459 -11.54243871 88.49215793 -15.00466919 88.52865028 C-18.8756104 88.5691172 -22.74602425 88.56994304 -26.6171875 88.56762695 C-27.75726761 88.58560333 -28.89734772 88.60357971 -30.07197571 88.62210083 C-38.44395928 88.56795598 -43.33979132 86.56128412 -49.3125 80.75 C-53.8951448 73.28198625 -54.73478879 66.58053223 -53 58 C-50.58387562 51.47646417 -46.15155212 47.15464211 -40 44 C-36.10004492 42.66219792 -32.08891453 42.8470878 -28.015625 42.82421875 C-26.42446605 42.80101288 -24.83332018 42.77689524 -23.2421875 42.75195312 C-20.74958618 42.71693918 -18.25746508 42.68754033 -15.76464844 42.67407227 C-13.34772363 42.65848075 -10.93217919 42.6182013 -8.515625 42.57421875 C-7.78200745 42.57612717 -7.04838989 42.57803558 -6.2925415 42.58000183 C-0.25704627 42.43926872 4.97728475 40.71410603 9.53265381 36.62382507 C14.19257658 31.4206896 15.44006184 26.08966423 15.24609375 19.30078125 C14.5779872 13.05451521 12.24037411 8.44068339 7.62890625 4.1875 C5.25989313 2.46044967 2.82960757 1.67371609 0 1 C0 0.67 0 0.34 0 0 Z " fill="#E3FEFE" transform="translate(106,424)"/>
<path d="M0 0 C0.99386719 0.00902344 1.98773438 0.01804688 3.01171875 0.02734375 C4.15060547 0.04474609 4.15060547 0.04474609 5.3125 0.0625 C5.3125 1.0525 5.3125 2.0425 5.3125 3.0625 C7.1996875 2.93875 7.1996875 2.93875 9.125 2.8125 C19.55971718 2.84526206 28.97032409 8.11639862 36.47265625 15.0625 C44.4723618 23.43602356 48.73931995 33.48705908 49.3125 45.0625 C48.9100935 57.26450341 45.47668042 68.48966714 36.99609375 77.54296875 C27.79844391 85.84432789 17.58007245 89.59605238 5.3125 90.0625 C5.3125 91.0525 5.3125 92.0425 5.3125 93.0625 C-5.99044359 94.11393661 -16.99217434 88.92651682 -25.6875 82.0625 C-31.66571473 76.56458628 -35.51243451 70.49559906 -38.6875 63.0625 C-39.04070312 62.26328125 -39.39390625 61.4640625 -39.7578125 60.640625 C-43.41771364 50.49131932 -42.62038863 38.96311963 -38.6875 29.0625 C-38.43226563 28.38832031 -38.17703125 27.71414062 -37.9140625 27.01953125 C-33.47186819 16.81063516 -24.40911914 8.67491835 -14.5625 3.875 C-13.52867187 3.36582031 -12.49484375 2.85664063 -11.4296875 2.33203125 C-7.36695129 0.45113486 -4.44043086 -0.05224036 0 0 Z " fill="#012A85" transform="translate(407.6875,140.9375)"/>
<path d="M0 0 C9.57 0 19.14 0 29 0 C29 53.79 29 107.58 29 163 C19.43 163 9.86 163 0 163 C0 109.21 0 55.42 0 0 Z " fill="#05A4E0" transform="translate(21,122)"/>
<path d="M0 0 C1.49072072 0.00373603 2.98144391 0.00658021 4.47216797 0.00857544 C8.37167288 0.01616547 12.27102581 0.03577346 16.17047119 0.0579834 C20.86205404 0.08216496 25.55368806 0.09124489 30.24531555 0.10289001 C37.35114899 0.12220115 44.45664979 0.16055562 51.5625 0.1953125 C51.5625 15.3753125 51.5625 30.5553125 51.5625 46.1953125 C35.24267114 46.31563893 35.24267114 46.31563893 28.234375 46.34179688 C23.4702744 46.35966342 18.70634835 46.38069677 13.94238281 46.42163086 C10.0973915 46.45445833 6.25258764 46.47221426 2.40746689 46.47994423 C0.94759042 46.48544611 -0.51227692 46.49618885 -1.9720726 46.51250267 C-20.84299589 46.71482046 -20.84299589 46.71482046 -27.875 41.328125 C-33.04677695 34.68239162 -36.11805512 28.56876519 -35.19140625 19.890625 C-33.69587657 12.0291681 -30.06723405 6.78512838 -23.4375 2.1953125 C-15.79856308 -0.46656676 -7.98593763 -0.05905743 0 0 Z " fill="#E4FFFF" transform="translate(43.4375,377.8046875)"/>
<path d="M0 0 C0.64324219 0.350625 1.28648437 0.70125 1.94921875 1.0625 C7.10248088 4.28189153 10.00649563 8.81125909 13 14 C13.928125 15.546875 13.928125 15.546875 14.875 17.125 C17.69777199 24.37631248 17.06204142 34.06612305 14.5625 41.3125 C10.02749652 50.85987575 2.75011012 57.2161125 -7 61 C-15.11483122 63.70494374 -24.03640925 62.99244786 -31.625 59.25 C-37.15489196 56.1830011 -41.72577917 52.91749443 -45.1875 47.5625 C-45.67605469 46.82128906 -46.16460937 46.08007812 -46.66796875 45.31640625 C-51.18251296 37.46560062 -51.10334463 28.84427043 -50 20 C-47.19987051 10.2793984 -41.14729116 4.19350095 -32.984375 -1.375 C-23.18627568 -6.76021489 -9.45231854 -5.3311778 0 0 Z " fill="#03A4E0" transform="translate(338,332)"/>
<path d="M0 0 C1.99007075 -0.00436445 3.98013615 -0.01318936 5.97016907 -0.0262146 C10.11595649 -0.0377523 14.25747069 -0.00036923 18.40258789 0.07373047 C23.68694696 0.16489637 28.96307218 0.13942177 34.24760723 0.07811546 C38.34832775 0.04234114 42.44715281 0.06511549 46.54776955 0.10539627 C48.49436512 0.11832227 50.44115616 0.11437107 52.38767052 0.09238815 C69.05515328 -0.03782894 69.05515328 -0.03782894 75.5868578 6.10048866 C77.88697427 8.5578867 79.95642703 11.15446407 82.05078125 13.7890625 C83.04078125 14.4490625 84.03078125 15.1090625 85.05078125 15.7890625 C85.05078125 21.0690625 85.05078125 26.3490625 85.05078125 31.7890625 C45.12078125 31.7890625 5.19078125 31.7890625 -35.94921875 31.7890625 C-35.94921875 13.7898174 -35.94921875 13.7898174 -31.68339252 9.49364281 C-31.04819282 8.96803072 -30.41299311 8.44241863 -29.75854492 7.90087891 C-29.09006373 7.32021479 -28.42158255 6.73955067 -27.73284435 6.14129066 C-19.29078877 -0.45009048 -10.28290197 -0.20707686 0 0 Z " fill="#03CCFF" transform="translate(383.94921875,434.2109375)"/>
<path d="M0 0 C1.6080249 -0.01441132 1.6080249 -0.01441132 3.24853516 -0.02911377 C5.00302979 -0.03548859 5.00302979 -0.03548859 6.79296875 -0.04199219 C8.59000244 -0.0505423 8.59000244 -0.0505423 10.42333984 -0.05926514 C12.96890373 -0.06873696 15.51447999 -0.07525773 18.06005859 -0.07910156 C21.93609481 -0.08875665 25.81158954 -0.1197392 29.6875 -0.15136719 C32.1601531 -0.15790202 34.63281 -0.1631506 37.10546875 -0.16699219 C38.83567261 -0.18551239 38.83567261 -0.18551239 40.60083008 -0.20440674 C49.82006069 -0.17919076 57.65420641 1.02290941 64.54296875 7.49707031 C68.55779934 12.14467311 69.98046875 18.11914694 69.98046875 24.16113281 C69.1683164 31.62278256 66.57215513 36.56944643 61.23046875 41.91113281 C53.92044126 46.97192107 45.77435333 46.44475803 37.203125 46.39160156 C35.99603378 46.39114334 34.78894257 46.39068512 33.54527283 46.39021301 C31.00795502 46.38720393 28.47063883 46.37935813 25.93334961 46.36694336 C22.03167254 46.34857965 18.13023158 46.34643459 14.22851562 46.34667969 C11.76171668 46.34176812 9.29491935 46.33594138 6.828125 46.32910156 C5.06892479 46.32743233 5.06892479 46.32743233 3.27418518 46.32572937 C2.19894089 46.31934952 1.12369659 46.31296967 0.01586914 46.30639648 C-0.9348497 46.30258469 -1.88556854 46.29877289 -2.86509705 46.29484558 C-5.01953125 46.16113281 -5.01953125 46.16113281 -6.01953125 45.16113281 C-6.11748436 43.78503399 -6.14751213 42.40399399 -6.14892578 41.02441406 C-6.15207794 40.1468042 -6.1552301 39.26919434 -6.15847778 38.36499023 C-6.15645355 37.41084229 -6.15442932 36.45669434 -6.15234375 35.47363281 C-6.15330048 34.50079346 -6.1542572 33.5279541 -6.15524292 32.52563477 C-6.15592483 30.46435481 -6.15406978 28.40307273 -6.14990234 26.34179688 C-6.14455425 23.17475593 -6.14984697 20.00785681 -6.15625 16.84082031 C-6.15558922 14.84342416 -6.15430806 12.8460281 -6.15234375 10.84863281 C-6.15436798 9.89448486 -6.15639221 8.94033691 -6.15847778 7.95727539 C-6.15532562 7.07966553 -6.15217346 6.20205566 -6.14892578 5.29785156 C-6.14813019 4.52143311 -6.14733459 3.74501465 -6.14651489 2.94506836 C-5.8771487 -0.83913506 -3.1872179 0.02296325 0 0 Z " fill="#C9ECFD" transform="translate(434.01953125,377.8388671875)"/>
<path d="M0 0 C0.75728394 0.00202423 1.51456787 0.00404846 2.2947998 0.00613403 C3.06787476 0.00517731 3.84094971 0.00422058 4.63745117 0.00323486 C6.27502524 0.00255313 7.91260199 0.00440697 9.5501709 0.00857544 C12.06536901 0.01392382 14.58038854 0.00863027 17.09558105 0.00222778 C18.68282103 0.00288857 20.2700609 0.00416973 21.8572998 0.00613403 C22.99322571 0.00309769 22.99322571 0.00309769 24.15209961 0 C29.46109849 0.02399522 29.46109849 0.02399522 30.5760498 1.13894653 C30.67515541 3.00530441 30.70404242 4.87542848 30.70544434 6.74441528 C30.7085965 7.94235718 30.71174866 9.14029907 30.71499634 10.37454224 C30.71297211 11.67867065 30.71094788 12.98279907 30.7088623 14.32644653 C30.70953541 15.66783669 30.71050548 17.00922672 30.71176147 18.35061646 C30.71323816 21.16516275 30.71108484 23.97967735 30.7064209 26.79421997 C30.70072361 30.40935284 30.70400277 34.02441148 30.70999336 37.63954163 C30.71359977 40.41039595 30.71246002 43.18123256 30.70986557 45.9520874 C30.70887013 47.93584237 30.71191721 49.91959801 30.71499634 51.90335083 C30.7102681 53.70026367 30.7102681 53.70026367 30.70544434 55.53347778 C30.70464874 56.59413452 30.70385315 57.65479126 30.70303345 58.74758911 C30.5760498 61.13894653 30.5760498 61.13894653 29.5760498 62.13894653 C26.99415534 62.23986129 24.4395848 62.27866152 21.8572998 62.27175903 C20.69768738 62.27319412 20.69768738 62.27319412 19.51464844 62.2746582 C17.87707437 62.27533994 16.23949762 62.2734861 14.60192871 62.26931763 C12.0867306 62.26396925 9.57171107 62.2692628 7.05651855 62.27566528 C5.46927857 62.2750045 3.88203871 62.27372334 2.2947998 62.27175903 C1.53751587 62.27378326 0.78023193 62.2758075 0 62.27789307 C-5.30899888 62.25389785 -5.30899888 62.25389785 -6.4239502 61.13894653 C-6.5230558 59.27258866 -6.55194281 57.40246459 -6.55334473 55.53347778 C-6.55649689 54.33553589 -6.55964905 53.13759399 -6.56289673 51.90335083 C-6.5608725 50.59922241 -6.55884827 49.29509399 -6.5567627 47.95144653 C-6.5574358 46.61005638 -6.55840587 45.26866635 -6.55966187 43.92727661 C-6.56113855 41.11273032 -6.55898523 38.29821571 -6.55432129 35.4836731 C-6.548624 31.86854022 -6.55190316 28.25348159 -6.55789375 24.63835144 C-6.56150016 21.86749712 -6.56036041 19.09666051 -6.55776596 16.32580566 C-6.55677053 14.3420507 -6.5598176 12.35829506 -6.56289673 10.37454224 C-6.55974457 9.17660034 -6.55659241 7.97865845 -6.55334473 6.74441528 C-6.55254913 5.68375854 -6.55175354 4.62310181 -6.55093384 3.53030396 C-6.31204346 -0.96848245 -3.93517181 0.01778589 0 0 Z " fill="#002985" transform="translate(396.4239501953125,304.8610534667969)"/>
<path d="M0 0 C9.57 0 19.14 0 29 0 C29 53.79 29 107.58 29 163 C19.43 163 9.86 163 0 163 C0 109.21 0 55.42 0 0 Z M5 6 C5 55.83 5 105.66 5 157 C11.27 157 17.54 157 24 157 C24 107.17 24 57.34 24 6 C17.73 6 11.46 6 5 6 Z " fill="#EAECF1" transform="translate(21,122)"/>
<path d="M0 0 C1.69419067 0.00374634 1.69419067 0.00374634 3.42260742 0.00756836 C5.57433472 0.02122437 5.57433472 0.02122437 7.76953125 0.03515625 C12.32765625 0.05578125 16.88578125 0.07640625 21.58203125 0.09765625 C21.58203125 14.94765625 21.58203125 29.79765625 21.58203125 45.09765625 C17.66328125 45.18015625 13.74453125 45.26265625 9.70703125 45.34765625 C7.88582764 45.40228027 7.88582764 45.40228027 6.02783203 45.45800781 C-1.0799969 45.52972228 -7.2291718 44.82262518 -13.41796875 41.09765625 C-18.64743702 35.85303965 -21.40894149 30.21886655 -21.73046875 22.78515625 C-21.5231135 16.60596985 -20.57192303 11.46820928 -16.3203125 6.7890625 C-10.81049705 1.76303573 -7.54051121 -0.03411996 0 0 Z " fill="#E4FEFE" transform="translate(73.41796875,289.90234375)"/>
<path d="M0 0 C69.3 0 138.6 0 210 0 C210 2.64 210 5.28 210 8 C140.7 8 71.4 8 0 8 C0 5.36 0 2.72 0 0 Z " fill="#062157" transform="translate(151,269)"/>
<path d="M0 0 C69.3 0 138.6 0 210 0 C210 2.64 210 5.28 210 8 C140.7 8 71.4 8 0 8 C0 5.36 0 2.72 0 0 Z " fill="#041D54" transform="translate(151,244)"/>
<path d="M0 0 C69.3 0 138.6 0 210 0 C210 2.64 210 5.28 210 8 C140.7 8 71.4 8 0 8 C0 5.36 0 2.72 0 0 Z " fill="#062157" transform="translate(151,220)"/>
<path d="M0 0 C69.3 0 138.6 0 210 0 C210 2.64 210 5.28 210 8 C140.7 8 71.4 8 0 8 C0 5.36 0 2.72 0 0 Z " fill="#041E55" transform="translate(151,146)"/>
<path d="M0 0 C69.3 0 138.6 0 210 0 C210 2.64 210 5.28 210 8 C140.7 8 71.4 8 0 8 C0 5.36 0 2.72 0 0 Z " fill="#062057" transform="translate(151,122)"/>
<path d="M0 0 C69.3 0 138.6 0 210 0 C210 2.64 210 5.28 210 8 C140.7 8 71.4 8 0 8 C0 5.36 0 2.72 0 0 Z " fill="#041E55" transform="translate(151,97)"/>
<path d="M0 0 C0.64324219 0.350625 1.28648437 0.70125 1.94921875 1.0625 C7.10248088 4.28189153 10.00649563 8.81125909 13 14 C13.928125 15.546875 13.928125 15.546875 14.875 17.125 C17.69777199 24.37631248 17.06204142 34.06612305 14.5625 41.3125 C10.02749652 50.85987575 2.75011012 57.2161125 -7 61 C-15.11483122 63.70494374 -24.03640925 62.99244786 -31.625 59.25 C-37.15489196 56.1830011 -41.72577917 52.91749443 -45.1875 47.5625 C-45.67605469 46.82128906 -46.16460937 46.08007812 -46.66796875 45.31640625 C-51.18251296 37.46560062 -51.10334463 28.84427043 -50 20 C-47.19987051 10.2793984 -41.14729116 4.19350095 -32.984375 -1.375 C-23.18627568 -6.76021489 -9.45231854 -5.3311778 0 0 Z M-36.91015625 12.33203125 C-42.34345839 20.28289183 -43.09451201 27.51995543 -42 37 C-39.93866072 43.38629881 -34.38327953 48.22762609 -29 52 C-22.90579937 54.98735325 -15.93121531 55.1052809 -9.4296875 53.27734375 C-2.04818355 50.18712091 2.85230468 46.21061349 6.23828125 38.8671875 C8.70952964 32.80946069 9.11326573 26.59470383 7.1640625 20.30078125 C3.99245763 13.35092225 -0.65465725 7.77409856 -7.83203125 4.84375 C-18.85432472 1.90809601 -29.44634923 3.21977605 -36.91015625 12.33203125 Z " fill="#061F55" transform="translate(338,332)"/>
<path d="M0 0 C8.25 0 16.5 0 25 0 C25 17.49 25 34.98 25 53 C16.75 53 8.5 53 0 53 C0 35.51 0 18.02 0 0 Z " fill="#00CCFF" transform="translate(396,375)"/>
<path d="M0 0 C1.99007075 -0.00436445 3.98013615 -0.01318936 5.97016907 -0.0262146 C10.11595649 -0.0377523 14.25747069 -0.00036923 18.40258789 0.07373047 C23.68694696 0.16489637 28.96307218 0.13942177 34.24760723 0.07811546 C38.34832775 0.04234114 42.44715281 0.06511549 46.54776955 0.10539627 C48.49436512 0.11832227 50.44115616 0.11437107 52.38767052 0.09238815 C69.05515328 -0.03782894 69.05515328 -0.03782894 75.5868578 6.10048866 C77.88697427 8.5578867 79.95642703 11.15446407 82.05078125 13.7890625 C83.04078125 14.4490625 84.03078125 15.1090625 85.05078125 15.7890625 C85.05078125 21.0690625 85.05078125 26.3490625 85.05078125 31.7890625 C45.12078125 31.7890625 5.19078125 31.7890625 -35.94921875 31.7890625 C-35.94921875 13.7898174 -35.94921875 13.7898174 -31.68339252 9.49364281 C-31.04819282 8.96803072 -30.41299311 8.44241863 -29.75854492 7.90087891 C-29.09006373 7.32021479 -28.42158255 6.73955067 -27.73284435 6.14129066 C-19.29078877 -0.45009048 -10.28290197 -0.20707686 0 0 Z M-28.23620605 13.45761108 C-30.71135806 17.64692038 -30.71135806 17.64692038 -29.94921875 26.7890625 C6.02078125 26.7890625 41.99078125 26.7890625 79.05078125 26.7890625 C79.59104623 17.16478642 79.59104623 17.16478642 74.78320312 10.75537109 C67.25897388 3.47026287 58.2207497 4.1918439 48.33203125 4.328125 C46.42352813 4.32069939 44.51503522 4.31001062 42.60656738 4.29623413 C38.6216247 4.28008752 34.63940862 4.3033419 30.65478516 4.35498047 C25.57247168 4.41767105 20.49654638 4.38154437 15.41446686 4.31568336 C11.47781111 4.27573454 7.54264495 4.28867156 3.60594177 4.31708908 C1.73383304 4.32437309 -0.13841557 4.31561216 -2.01036072 4.289814 C-13.32019 4.16811443 -20.29057353 5.05265668 -28.23620605 13.45761108 Z " fill="#EAF1F5" transform="translate(383.94921875,434.2109375)"/>
<path d="M0 0 C46.2 0 92.4 0 140 0 C140 2.64 140 5.28 140 8 C93.8 8 47.6 8 0 8 C0 5.36 0 2.72 0 0 Z " fill="#041E55" transform="translate(151,293)"/>
<path d="M0 0 C5.1900872 2.16159814 7.55701271 6.08405011 10 11 C11.89640813 17.66868792 11.22591991 23.87845914 8 30 C4.40439163 35.18057428 0.9126758 38.59594501 -5 41 C-11.8802094 41.88596664 -19.22788317 42.08527241 -25.3203125 38.3984375 C-30.18973703 34.34435847 -33.62040637 29.20817134 -35 23 C-35 21.35 -35 19.7 -35 18 C-26.09 18 -17.18 18 -8 18 C-8 13.05 -8 8.1 -8 3 C-5.36 3 -2.72 3 0 3 C0 2.01 0 1.02 0 0 Z " fill="#CAEDFE" transform="translate(477,471)"/>
<path d="M0 0 C42.9 0 85.8 0 130 0 C130 2.64 130 5.28 130 8 C87.1 8 44.2 8 0 8 C0 5.36 0 2.72 0 0 Z " fill="#062157" transform="translate(151,171)"/>
<path d="M0 0 C4.3329738 -0.14620188 8.66530638 -0.2343773 13 -0.3125 C14.22074219 -0.35439453 15.44148438 -0.39628906 16.69921875 -0.43945312 C25.2327812 -0.55477154 30.26652464 0.58846214 36.51123047 6.40844727 C41.14575294 11.39225974 42.45735225 17.20351495 42.25 23.890625 C41.44777291 30.65941605 39.07566298 36.35630834 34 41 C28.56264314 43.91871497 24.16331454 45.0901457 18 45 C17.9906543 44.08710205 17.98130859 43.1742041 17.97167969 42.23364258 C17.92754819 38.83183952 17.865886 35.43127833 17.79248047 32.0300293 C17.76433389 30.5607455 17.74308791 29.09131205 17.72900391 27.62182617 C17.7074847 25.50361886 17.66079666 23.38719847 17.609375 21.26953125 C17.58842773 19.99698486 17.56748047 18.72443848 17.54589844 17.41333008 C16.91574243 13.47316412 15.77918781 11.80747388 13 9 C10.43106162 7.71553081 8.23423663 7.67022856 5.375 7.4375 C3.87066406 7.31181641 3.87066406 7.31181641 2.3359375 7.18359375 C1.56507813 7.12300781 0.79421875 7.06242187 0 7 C0 4.69 0 2.38 0 0 Z " fill="#CAEDFE" transform="translate(417,290)"/>
<path d="M0 0 C0.75728394 0.00202423 1.51456787 0.00404846 2.2947998 0.00613403 C3.06787476 0.00517731 3.84094971 0.00422058 4.63745117 0.00323486 C6.27502524 0.00255313 7.91260199 0.00440697 9.5501709 0.00857544 C12.06536901 0.01392382 14.58038854 0.00863027 17.09558105 0.00222778 C18.68282103 0.00288857 20.2700609 0.00416973 21.8572998 0.00613403 C22.99322571 0.00309769 22.99322571 0.00309769 24.15209961 0 C29.46109849 0.02399522 29.46109849 0.02399522 30.5760498 1.13894653 C30.67515541 3.00530441 30.70404242 4.87542848 30.70544434 6.74441528 C30.7085965 7.94235718 30.71174866 9.14029907 30.71499634 10.37454224 C30.71297211 11.67867065 30.71094788 12.98279907 30.7088623 14.32644653 C30.70953541 15.66783669 30.71050548 17.00922672 30.71176147 18.35061646 C30.71323816 21.16516275 30.71108484 23.97967735 30.7064209 26.79421997 C30.70072361 30.40935284 30.70400277 34.02441148 30.70999336 37.63954163 C30.71359977 40.41039595 30.71246002 43.18123256 30.70986557 45.9520874 C30.70887013 47.93584237 30.71191721 49.91959801 30.71499634 51.90335083 C30.7102681 53.70026367 30.7102681 53.70026367 30.70544434 55.53347778 C30.70464874 56.59413452 30.70385315 57.65479126 30.70303345 58.74758911 C30.5760498 61.13894653 30.5760498 61.13894653 29.5760498 62.13894653 C26.99415534 62.23986129 24.4395848 62.27866152 21.8572998 62.27175903 C20.69768738 62.27319412 20.69768738 62.27319412 19.51464844 62.2746582 C17.87707437 62.27533994 16.23949762 62.2734861 14.60192871 62.26931763 C12.0867306 62.26396925 9.57171107 62.2692628 7.05651855 62.27566528 C5.46927857 62.2750045 3.88203871 62.27372334 2.2947998 62.27175903 C1.53751587 62.27378326 0.78023193 62.2758075 0 62.27789307 C-5.30899888 62.25389785 -5.30899888 62.25389785 -6.4239502 61.13894653 C-6.5230558 59.27258866 -6.55194281 57.40246459 -6.55334473 55.53347778 C-6.55649689 54.33553589 -6.55964905 53.13759399 -6.56289673 51.90335083 C-6.5608725 50.59922241 -6.55884827 49.29509399 -6.5567627 47.95144653 C-6.5574358 46.61005638 -6.55840587 45.26866635 -6.55966187 43.92727661 C-6.56113855 41.11273032 -6.55898523 38.29821571 -6.55432129 35.4836731 C-6.548624 31.86854022 -6.55190316 28.25348159 -6.55789375 24.63835144 C-6.56150016 21.86749712 -6.56036041 19.09666051 -6.55776596 16.32580566 C-6.55677053 14.3420507 -6.5598176 12.35829506 -6.56289673 10.37454224 C-6.55974457 9.17660034 -6.55659241 7.97865845 -6.55334473 6.74441528 C-6.55254913 5.68375854 -6.55175354 4.62310181 -6.55093384 3.53030396 C-6.31204346 -0.96848245 -3.93517181 0.01778589 0 0 Z M-1.4239502 5.13894653 C-1.4239502 22.29894653 -1.4239502 39.45894653 -1.4239502 57.13894653 C7.4860498 57.13894653 16.3960498 57.13894653 25.5760498 57.13894653 C25.5760498 39.97894653 25.5760498 22.81894653 25.5760498 5.13894653 C16.6660498 5.13894653 7.7560498 5.13894653 -1.4239502 5.13894653 Z " fill="#F5F6F9" transform="translate(396.4239501953125,304.8610534667969)"/>
<path d="M0 0 C7.19043146 2.82392377 11.4420706 8.17553098 15.2578125 14.69921875 C17.46396465 22.35586443 17.16432048 29.25969099 13.51171875 36.38671875 C9.25800295 43.52738264 4.09916279 46.79376865 -3.6796875 49.38671875 C-12.4642753 50.1805852 -18.77887944 49.46743192 -25.6171875 43.7734375 C-30.85997973 38.8473973 -33.99946678 34.10870701 -34.25024414 26.67724609 C-34.21837041 18.60449894 -33.45605844 12.5614601 -27.6796875 6.38671875 C-19.13652182 -0.5823293 -10.9914093 -2.51552662 0 0 Z M-25.0546875 11.94921875 C-28.77357453 17.52754929 -29.34779073 21.72624349 -28.6796875 28.38671875 C-27.28606777 33.67637027 -24.49070802 38.43178175 -19.9609375 41.58203125 C-14.93790781 44.43240127 -10.39428867 45.35750038 -4.6796875 44.38671875 C2.51398956 42.16417501 7.12547664 37.3773294 10.6953125 30.88671875 C12.30051431 24.46591152 11.17785842 19.18729274 8.3203125 13.38671875 C4.9784243 8.37388644 1.21224843 5.61241345 -4.6796875 4.38671875 C-13.51144743 3.33531876 -19.02730123 5.4459862 -25.0546875 11.94921875 Z " fill="#F4F7FA" transform="translate(329.6796875,336.61328125)"/>
<path d="M0 0 C34.65 0 69.3 0 105 0 C105 2.31 105 4.62 105 7 C70.35 7 35.7 7 0 7 C0 4.69 0 2.38 0 0 Z " fill="#00A2DF" transform="translate(356,474)"/>
<path d="M0 0 C8.25 0 16.5 0 25 0 C25 17.49 25 34.98 25 53 C16.75 53 8.5 53 0 53 C0 35.51 0 18.02 0 0 Z M5 4 C5 18.85 5 33.7 5 49 C9.95 49 14.9 49 20 49 C20 34.15 20 19.3 20 4 C15.05 4 10.1 4 5 4 Z " fill="#D3E4ED" transform="translate(396,375)"/>
<path d="M0 0 C4.875 2.625 4.875 2.625 6 6 C4.40234375 8.50390625 4.40234375 8.50390625 1.9375 11.5625 C1.01411489 12.72379296 0.09095067 13.88526157 -0.83203125 15.046875 C-1.33814941 15.67658203 -1.84426758 16.30628906 -2.36572266 16.95507812 C-5.36660538 20.70999203 -8.30243835 24.51570089 -11.25 28.3125 C-11.82758057 29.05250244 -12.40516113 29.79250488 -13.00024414 30.55493164 C-16.72338628 35.32856033 -20.38543405 40.14364515 -24 45 C-27.38062314 44.37928294 -29.50742947 43.12870126 -32.2578125 41.09375 C-33.04800781 40.51496094 -33.83820313 39.93617188 -34.65234375 39.33984375 C-35.46832031 38.73269531 -36.28429687 38.12554687 -37.125 37.5 C-38.75175788 36.30093433 -40.37932319 35.10296309 -42.0078125 33.90625 C-42.72598145 33.37322266 -43.44415039 32.84019531 -44.18408203 32.29101562 C-45.9715994 30.95012825 -45.9715994 30.95012825 -48 30 C-46.51153846 25.28653846 -46.51153846 25.28653846 -43.921875 23.8359375 C-42.97054688 23.42214844 -42.97054688 23.42214844 -42 23 C-41.02417969 23.73347656 -40.04835938 24.46695313 -39.04296875 25.22265625 C-37.75821187 26.16981279 -36.4730336 27.11639793 -35.1875 28.0625 C-34.54490234 28.54783203 -33.90230469 29.03316406 -33.24023438 29.53320312 C-31.54907099 30.76871627 -29.77779254 31.89276018 -28 33 C-24.72620294 31.90873431 -24.25278805 31.36971004 -22.28515625 28.7109375 C-21.76912842 28.02314209 -21.25310059 27.33534668 -20.72143555 26.62670898 C-20.17398682 25.88364502 -19.62653809 25.14058105 -19.0625 24.375 C-17.90513528 22.83091372 -16.74624535 21.28796963 -15.5859375 19.74609375 C-14.99522461 18.95960449 -14.40451172 18.17311523 -13.79589844 17.36279297 C-10.98939309 13.67038422 -8.09508799 10.05053124 -5.1875 6.4375 C-4.66615479 5.78894043 -4.14480957 5.14038086 -3.60766602 4.47216797 C-2.40669447 2.98016906 -1.20360866 1.48987234 0 0 Z " fill="#F6F7FA" transform="translate(431,165)"/>
<path d="M0 0 C3.3 0.33 6.6 0.66 10 1 C10 18.82 10 36.64 10 55 C6.7 55 3.4 55 0 55 C0 36.85 0 18.7 0 0 Z " fill="#FBFCFD" transform="translate(399,241)"/>
<path d="M0 0 C0.95841797 -0.00708984 1.91683594 -0.01417969 2.90429688 -0.02148438 C9.89254921 0.04217875 9.89254921 0.04217875 12.21582031 1.72753906 C14.31751303 4.66923686 13.7423142 8.15436843 13.625 11.625 C13.5321875 15.4921875 13.5321875 15.4921875 13.4375 19.4375 C4.1975 19.4375 -5.0425 19.4375 -14.5625 19.4375 C-14.645 17.045 -14.7275 14.6525 -14.8125 12.1875 C-14.84891602 11.44081055 -14.88533203 10.69412109 -14.92285156 9.92480469 C-14.9744131 6.8327755 -14.70463088 4.69513782 -13.20703125 1.98046875 C-8.97761105 -0.48721364 -4.80164512 -0.10050709 0 0 Z " fill="#ECEEF4" transform="translate(35.5625,94.5625)"/>
<path d="M0 0 C0.99386719 0.00902344 1.98773438 0.01804688 3.01171875 0.02734375 C4.15060547 0.04474609 4.15060547 0.04474609 5.3125 0.0625 C5.3125 1.0525 5.3125 2.0425 5.3125 3.0625 C4.35730469 3.20945313 3.40210938 3.35640625 2.41796875 3.5078125 C-10.14236554 5.68677378 -20.55684196 9.6901288 -28.6875 20.0625 C-36.25937291 31.91779322 -38.27382796 43.18894292 -36.2578125 57.0078125 C-33.40837778 67.94823468 -26.56247916 76.86056134 -17.03515625 82.68359375 C-9.74986947 86.67566286 -2.92551823 88.29184668 5.3125 89.0625 C5.3125 90.3825 5.3125 91.7025 5.3125 93.0625 C-5.99044359 94.11393661 -16.99217434 88.92651682 -25.6875 82.0625 C-31.66571473 76.56458628 -35.51243451 70.49559906 -38.6875 63.0625 C-39.04070312 62.26328125 -39.39390625 61.4640625 -39.7578125 60.640625 C-43.41771364 50.49131932 -42.62038863 38.96311963 -38.6875 29.0625 C-38.43226563 28.38832031 -38.17703125 27.71414062 -37.9140625 27.01953125 C-33.47186819 16.81063516 -24.40911914 8.67491835 -14.5625 3.875 C-13.52867187 3.36582031 -12.49484375 2.85664063 -11.4296875 2.33203125 C-7.36695129 0.45113486 -4.44043086 -0.05224036 0 0 Z " fill="#8FDBF3" transform="translate(407.6875,140.9375)"/>
<path d="M0 0 C19.8 0 39.6 0 60 0 C60 2.64 60 5.28 60 8 C40.2 8 20.4 8 0 8 C0 5.36 0 2.72 0 0 Z " fill="#0A265C" transform="translate(151,365)"/>
<path d="M0 0 C3.0717718 1.71077974 5.40485654 3.80971307 7 7 C7.37766377 12.00404498 7.11200434 14.99885156 4 19 C2.09180914 21.12836673 0.7416826 21.88589498 -2.08203125 22.3203125 C-6.11881639 22.52114758 -8.4092612 22.3519295 -11.9375 20.25 C-14.78206465 17.14683856 -15.82909642 15.31026074 -16.375 11.125 C-15.89861498 7.15512486 -14.46959574 5.10463464 -12 2 C-7.97818385 -0.68121076 -4.72763609 -0.81344335 0 0 Z " fill="#071F55" transform="translate(183,460)"/>
<path d="M0 0 C8.25 0 16.5 0 25 0 C21.625 12.375 21.625 12.375 19.3125 17.6875 C18.87550781 18.70199219 18.43851563 19.71648437 17.98828125 20.76171875 C17.66214844 21.50035156 17.33601563 22.23898437 17 23 C14.03 23 11.06 23 8 23 C0 4.02766798 0 4.02766798 0 0 Z " fill="#F5F9FB" transform="translate(23,293)"/>
<path d="M0 0 C3.92631458 3.3654125 4.45153804 4.92735253 5.125 10.0625 C4.98888408 14.33814113 3.47850984 16.85060119 0.5390625 19.89453125 C-2.86967129 22.3084713 -6.28033676 22.65870946 -10.375 22.25 C-13.64168379 20.8297027 -16.0934863 18.98781644 -18.375 16.25 C-19.58143566 12.63069302 -19.69768559 10.05768995 -19.375 6.25 C-17.76179279 3.19642921 -16.34439098 1.01166434 -13.625 -1.125 C-8.40862133 -2.57399408 -4.72603481 -2.45053657 0 0 Z M-11.3125 6.375 C-12.60330829 8.26325414 -12.60330829 8.26325414 -12.25 10.8125 C-11.53110832 13.5761611 -11.53110832 13.5761611 -8.375 15.25 C-5.41423709 14.89111965 -4.52841979 14.40341979 -2.375 12.25 C-2.69698966 9.15073181 -2.69698966 9.15073181 -3.375 6.25 C-7.47042781 5.10796048 -7.47042781 5.10796048 -11.3125 6.375 Z " fill="#001750" transform="translate(72.375,49.75)"/>
<path d="M0 0 C3.06765423 1.72196807 5.40321354 3.80642707 7 7 C7.63412483 10.94120622 7.75685376 14.4890853 5.94140625 18.11328125 C3.40569434 21.43238384 1.16713247 23.37171067 -3 24.125 C-6.99043472 24.28522778 -9.66586308 23.24860397 -13 21 C-16.04042695 18.16925767 -16.6953892 15.13439588 -17.0625 11.02734375 C-16.96046355 7.71753629 -15.8719919 5.68318839 -14 3 C-9.92337184 -0.59702485 -5.20590029 -1.00641306 0 0 Z M-8.875 8.1875 C-10.22522789 10.00732448 -10.22522789 10.00732448 -10 12.5625 C-9.19402835 15.1860608 -9.19402835 15.1860608 -6.6875 16.5 C-3.99699948 17.26779486 -3.99699948 17.26779486 -1.6875 15.9375 C0.22148113 14.09822611 0.22148113 14.09822611 0.375 11.4375 C0.21896136 8.82471891 0.21896136 8.82471891 -2 7 C-4.87012296 6.63203552 -6.40774618 6.62490591 -8.875 8.1875 Z " fill="#001750" transform="translate(496,323)"/>
<path d="M0 0 C3.76591285 3.2279253 4.48938813 4.75826939 4.9375 9.6875 C4.49557405 14.72545578 2.4469151 18.00987526 -1.375 21.25 C-5.56699287 22.49032748 -9.22612902 22.74950912 -13.25 21 C-18.13175676 16.97972973 -18.13175676 16.97972973 -19.375 13.25 C-19.77609454 8.99839783 -19.63878256 6.7493027 -17.625 2.9375 C-12.77689032 -2.85329768 -6.59811499 -3.42124481 0 0 Z M-11.3125 6.375 C-12.6123322 8.26433678 -12.6123322 8.26433678 -12.1875 10.8125 C-11.52872967 13.39441272 -11.52872967 13.39441272 -9.375 15.25 C-6.07785207 14.92028521 -4.7523161 14.6273161 -2.375 12.25 C-2.69698966 9.15073181 -2.69698966 9.15073181 -3.375 6.25 C-7.47042781 5.10796048 -7.47042781 5.10796048 -11.3125 6.375 Z " fill="#00184F" transform="translate(467.375,109.75)"/>
<path d="M0 0 C1.03447266 0.01160156 1.03447266 0.01160156 2.08984375 0.0234375 C2.77949219 0.01570313 3.46914063 0.00796875 4.1796875 0 C9.33651082 0.02010457 9.33651082 0.02010457 11.58984375 2.2734375 C11.58984375 5.2434375 11.58984375 8.2134375 11.58984375 11.2734375 C5.31984375 11.2734375 -0.95015625 11.2734375 -7.41015625 11.2734375 C-7.41015625 0.0288895 -7.41015625 0.0288895 0 0 Z " fill="#032B86" transform="translate(33.41015625,98.7265625)"/>
<path d="M0 0 C4.29 0 8.58 0 13 0 C12.40984815 5.50808397 11.43336231 10.64878069 10 16 C7.69 16 5.38 16 3 16 C2.49595192 13.89679937 1.99689492 11.79240209 1.5 9.6875 C1.08234375 7.92986328 1.08234375 7.92986328 0.65625 6.13671875 C0 3 0 3 0 0 Z " fill="#3BD7FF" transform="translate(29,297)"/>
<path d="M0 0 C2 2 2 2 2.3125 4.9375 C2 8 2 8 0.875 9.9375 C-1 11 -1 11 -4.0625 10.875 C-7 10 -7 10 -9 7 C-8.75 3.875 -8.75 3.875 -8 1 C-5.23749964 -0.38125018 -3.05268901 -0.19079306 0 0 Z " fill="#D1EDF4" transform="translate(182,466)"/>
<path d="M0 0 C2.46800047 1.15173355 4.04783565 2.04783565 6 4 C5.74739753 7.78903708 3.72150557 9.54186593 1 12 C-1.46800047 10.84826645 -3.04783565 9.95216435 -5 8 C-4.74739753 4.21096292 -2.72150557 2.45813407 0 0 Z " fill="#00154F" transform="translate(34,473)"/>
<path d="M0 0 C2.84383123 1.2748209 5.13754018 2.45137078 7 5 C6.83394098 7.65694438 6.21086001 8.76383679 4.4375 10.75 C3.7259375 11.36875 3.7259375 11.36875 3 12 C0.15616877 10.7251791 -2.13754018 9.54862922 -4 7 C-3.83394098 4.34305562 -3.21086001 3.23616321 -1.4375 1.25 C-0.963125 0.8375 -0.48875 0.425 0 0 Z " fill="#001350" transform="translate(20,473)"/>
<path d="M0 0 C2.84383123 1.2748209 5.13754018 2.45137078 7 5 C6.83394098 7.65694438 6.21086001 8.76383679 4.4375 10.75 C3.7259375 11.36875 3.7259375 11.36875 3 12 C0.15616877 10.7251791 -2.13754018 9.54862922 -4 7 C-3.83394098 4.34305562 -3.21086001 3.23616321 -1.4375 1.25 C-0.963125 0.8375 -0.48875 0.425 0 0 Z " fill="#001650" transform="translate(33,460)"/>
<path d="M0 0 C2.46800047 1.15173355 4.04783565 2.04783565 6 4 C5.74739753 7.78903708 3.72150557 9.54186593 1 12 C-1.46800047 10.84826645 -3.04783565 9.95216435 -5 8 C-4.74739753 4.21096292 -2.72150557 2.45813407 0 0 Z " fill="#001650" transform="translate(21,460)"/>
<path d="M0 0 C2.03356975 1.08457053 3.36736293 2.26621737 4.875 4 C3.58200306 6.88437779 2.21558637 8.87219421 -0.125 11 C-3.49220387 9.60667426 -5.1109524 8.0210714 -7.125 5 C-2.7347561 0 -2.7347561 0 0 0 Z " fill="#001550" transform="translate(18.125,6)"/>
<path d="M0 0 C2.46800047 1.15173355 4.04783565 2.04783565 6 4 C5.76208141 6.45849212 5.136119 7.81202615 3.6875 9.8125 C2 11 2 11 0 10.875 C-2.20700414 9.90943569 -3.42932829 8.80627247 -5 7 C-3.70700306 4.11562221 -2.34058637 2.12780579 0 0 Z " fill="#001652" transform="translate(496,238)"/>
<path d="M0 0 C2.46800047 1.15173355 4.04783565 2.04783565 6 4 C5.76208141 6.45849212 5.136119 7.81202615 3.6875 9.8125 C2 11 2 11 0 10.875 C-2.20700414 9.90943569 -3.42932829 8.80627247 -5 7 C-3.70700306 4.11562221 -2.34058637 2.12780579 0 0 Z " fill="#001650" transform="translate(483,225)"/>
<path d="M0 0 C2.45849212 0.23791859 3.81202615 0.863881 5.8125 2.3125 C7 4 7 4 6.875 6 C5.90943569 8.20700414 4.80627247 9.42932829 3 11 C0.11562221 9.70700306 -1.87219421 8.34058637 -4 6 C-2.84826645 3.53199953 -1.95216435 1.95216435 0 0 Z " fill="#001652" transform="translate(476,19)"/>
<path d="M0 0 C2.88437779 1.29299694 4.87219421 2.65941363 7 5 C5.95125002 7.62187494 5.35068687 8.79371361 2.875 10.25 C2.25625 10.4975 1.6375 10.745 1 11 C-0.65 9.35 -2.3 7.7 -4 6 C-2.84826645 3.53199953 -1.95216435 1.95216435 0 0 Z " fill="#00184F" transform="translate(482,238)"/>
<path d="M0 0 C2.88437779 1.29299694 4.87219421 2.65941363 7 5 C5.95125002 7.62187494 5.35068687 8.79371361 2.875 10.25 C2.25625 10.4975 1.6375 10.745 1 11 C-0.65 9.35 -2.3 7.7 -4 6 C-2.84826645 3.53199953 -1.95216435 1.95216435 0 0 Z " fill="#001850" transform="translate(495,225)"/>
<path d="M0 0 C2.62187494 1.04874998 3.79371361 1.64931313 5.25 4.125 C5.4975 4.74375 5.745 5.3625 6 6 C4.35 7.65 2.7 9.3 1 11 C-1.62187494 9.95125002 -2.79371361 9.35068687 -4.25 6.875 C-4.4975 6.25625 -4.745 5.6375 -5 5 C-3.35 3.35 -1.7 1.7 0 0 Z " fill="#00174F" transform="translate(490,19)"/>
<path d="M0 0 C2.32070777 1.31506774 3.44012796 2.83844834 4.875 5.0625 C2.565 7.0425 0.255 9.0225 -2.125 11.0625 C-3.775 9.0825 -5.425 7.1025 -7.125 5.0625 C-2.75092047 0.08090943 -2.75092047 0.08090943 0 0 Z " fill="#001750" transform="translate(31.125,18.9375)"/>
<path d="M0 0 C2.7697841 1.4714478 4.19083529 3.54259201 6 6.0625 C4.02 7.7125 2.04 9.3625 0 11.0625 C-1.98 8.7525 -3.96 6.4425 -6 4.0625 C-2.62256809 0.08195525 -2.62256809 0.08195525 0 0 Z " fill="#001750" transform="translate(17,18.9375)"/>
<path d="M0 0 C2.88437779 1.29299694 4.87219421 2.65941363 7 5 C5.95125002 7.62187494 5.35068687 8.79371361 2.875 10.25 C2.25625 10.4975 1.6375 10.745 1 11 C-0.65 9.35 -2.3 7.7 -4 6 C-2.84826645 3.53199953 -1.95216435 1.95216435 0 0 Z " fill="#00184F" transform="translate(489,6)"/>
<path d="M0 0 C2.62187494 1.04874998 3.79371361 1.64931313 5.25 4.125 C5.4975 4.74375 5.745 5.3625 6 6 C4.35 7.65 2.7 9.3 1 11 C-1.62187494 9.95125002 -2.79371361 9.35068687 -4.25 6.875 C-4.4975 6.25625 -4.745 5.6375 -5 5 C-3.35 3.35 -1.7 1.7 0 0 Z " fill="#00174F" transform="translate(477,6)"/>
<path d="M0 0 C2.7697841 1.4714478 4.19083529 3.54259201 6 6.0625 C4.02 7.7125 2.04 9.3625 0 11.0625 C-1.98 8.7525 -3.96 6.4425 -6 4.0625 C-2.62256809 0.08195525 -2.62256809 0.08195525 0 0 Z " fill="#00174F" transform="translate(30,5.9375)"/>
<path d="M0 0 C6.93 0.495 6.93 0.495 14 1 C14 2.32 14 3.64 14 5 C8.80790596 5.21192221 4.873261 4.5912689 0 3 C0 2.01 0 1.02 0 0 Z " fill="#EDF0F5" transform="translate(399,229)"/>
<path d="M0 0 C3.63 0 7.26 0 11 0 C11 0.99 11 1.98 11 3 C4.565 3.495 4.565 3.495 -2 4 C-1.34 2.68 -0.68 1.36 0 0 Z " fill="#F1F2F6" transform="translate(402,141)"/>
<path d="M0 0 C0.99 0 1.98 0 3 0 C2.67 2.31 2.34 4.62 2 7 C0 5 0 5 -0.125 2.375 C-0.08375 1.59125 -0.0425 0.8075 0 0 Z " fill="#D5D9E2" transform="translate(34,324)"/>
</svg>
