<svg xmlns="http://www.w3.org/2000/svg" viewBox="0 0 427.97 64.69"><title>Asset 38</title><g id="Layer_2" data-name="Layer 2"><g id="Layer_1-2" data-name="Layer 1"><polygon points="55.11 64.53 34.08 53.57 13.13 64.69 17.05 41.3 0 24.81 23.46 21.31 33.87 0 44.45 21.23 67.93 24.55 51.01 41.17 55.11 64.53" fill="#fcb41a"/><polygon points="145.12 64.53 124.09 53.57 103.14 64.69 107.06 41.3 90.01 24.81 113.47 21.31 123.88 0 134.46 21.23 157.94 24.55 141.02 41.17 145.12 64.53" fill="#fcb41a"/><polygon points="235.13 64.53 214.1 53.57 193.15 64.69 197.07 41.3 180.02 24.81 203.48 21.31 213.9 0 224.47 21.23 247.95 24.55 231.03 41.17 235.13 64.53" fill="#fcb41a"/><polygon points="325.14 64.53 304.11 53.57 283.16 64.69 287.08 41.3 270.04 24.81 293.49 21.31 303.91 0 314.48 21.23 337.97 24.55 321.05 41.17 325.14 64.53" fill="#fcb41a"/><polygon points="394.1 0.34 394.1 53.58 373.18 64.69 377.09 41.3 360.05 24.81 383.5 21.31 393.93 0 394.1 0.34" fill="#fcb41a"/><polygon points="411.06 41.17 415.16 64.52 394.12 53.57 394.1 53.58 394.1 0.34 404.5 21.23 427.97 24.55 411.06 41.17" fill="#dcdad9"/></g></g></svg>