<svg width="48" height="48" viewBox="0 0 48 48" fill="none" xmlns="http://www.w3.org/2000/svg">
<g id="icon-desktop-diamond-private-prestigious">
<path id="Icon" d="M15 14H20.5M15 22H20.5M15 30H20.5M27.5 14H33M27.5 22H33M27.5 30H33M40 42V12.4C40 10.1598 40 9.03969 39.564 8.18404C39.1805 7.43139 38.5686 6.81947 37.816 6.43597C36.9603 6 35.8402 6 33.6 6H14.4C12.1598 6 11.0397 6 10.184 6.43597C9.43139 6.81947 8.81947 7.43139 8.43597 8.18404C8 9.03969 8 10.1598 8 12.4V42M44 42H4" stroke="#6E6D6B" stroke-width="4" stroke-linecap="round" stroke-linejoin="round"/>
</g>
</svg>
