<svg width="64" height="65" fill="none" xmlns="http://www.w3.org/2000/svg"><path d="M32 61.859c16.2 0 29.333-13.133 29.333-29.333S48.2 3.192 32 3.192 2.666 16.325 2.666 32.526c0 16.2 13.133 29.333 29.334 29.333z" fill="url(#paint0_linear)"/><mask id="a" maskUnits="userSpaceOnUse" x="2" y="3" width="60" height="59"><path d="M32 61.859c16.2 0 29.333-13.133 29.333-29.333S48.2 3.192 32 3.192 2.666 16.325 2.666 32.526c0 16.2 13.133 29.333 29.334 29.333z" fill="url(#paint1_linear)"/></mask><g mask="url(#a)"><path opacity=".2" d="M99.98 83.688l-1.413 1.415.037.037.039.035 1.338-1.487zm2.761 69l-1.918-.568-.007.024-.007.024 1.932.52zm-6.21 9.43l-1.2-1.6-.02.015-.02.016 1.24 1.569zm-13.34 5.98l.496 1.938.024-.006.023-.007-.543-1.925zm-20.01 3.45l-.208-1.989-.023.003-.023.002.254 1.984zm-66.24-8.51l-.928 1.772.012.007.013.006.903-1.785zm-29.67-28.75l-1.754.963.005.009 1.749-.972zm0-88.55l1.748.972.005-.01-1.753-.962zm29.44-28.98l.936 1.768-.936-1.768zm73.37-6.21l-.59 1.911.02.007.02.005.55-1.923zM94 22.048l-1.156 1.632.002.002 1.154-1.634zm5.52 5.98l-1.79.895.026.05.027.048 1.737-.993zm-2.07 20.47l1.554 1.259.014-.018.014-.018-1.582-1.223zm-15.87 3.91l-.828 1.821.096.044.1.033.632-1.898zm-6.67-3.68l1.043-1.706-.046-.028-.046-.025-.951 1.76zm-16.1-6.67l-.542 1.926.008.002.007.002.527-1.93zm-48.76 10.12l-1.497-1.327-.007.008-.007.008 1.51 1.311zm.46 76.13l-1.507 1.315.013.015.013.014 1.48-1.344zm56.12 10.12l.416 1.957 1.584-.337v-1.62h-2zm0-30.13h2v-2h-2v2zm-28.29-3.68l-1.374 1.454.022.021.023.02 1.329-1.495zm0-21.39l1.328 1.495.023-.02.022-.02-1.373-1.455zm49.68-1.91c4.658 0 8.09 1.328 10.546 3.785l2.828-2.829c-3.37-3.37-7.912-4.956-13.374-4.956v4zm10.622 3.857c2.579 2.321 3.938 5.502 3.938 9.783h4c0-5.225-1.708-9.558-5.262-12.756l-2.676 2.973zm3.938 9.783v40.02h4v-40.02h-4zm0 40.02c0 7.599-.613 13.277-1.758 17.142l3.835 1.137c1.308-4.415 1.923-10.544 1.923-18.279h-4zm-1.772 17.19c-.966 3.591-2.798 6.34-5.478 8.35l2.4 3.2c3.452-2.589 5.761-6.127 6.941-10.51l-3.863-1.04zm-5.518 8.381c-2.613 2.063-6.769 3.968-12.643 5.624l1.086 3.85c6.085-1.716 10.823-3.798 14.036-6.335l-2.479-3.139zm-12.597 5.612c-5.868 1.505-12.44 2.64-19.72 3.398l.414 3.979c7.439-.775 14.208-1.94 20.3-3.502l-.994-3.875zm-19.767 3.403c-7.135.911-13.796 1.364-19.986 1.364v4c6.383 0 13.215-.467 20.493-1.396l-.507-3.968zm-19.986 1.364c-17.384 0-32.396-3.249-45.098-9.674l-1.805 3.569c13.365 6.761 29.02 10.105 46.903 10.105v-4zm-45.072-9.661c-12.543-6.57-22.144-15.879-28.85-27.95l-3.497 1.943c7.095 12.769 17.274 22.627 30.49 29.55l1.857-3.543zm-28.845-27.941c-6.71-12.225-10.103-26.754-10.103-43.658h-4c0 17.444 3.505 32.661 10.596 45.583l3.507-1.925zm-10.103-43.658c0-16.59 3.391-30.887 10.098-42.958l-3.497-1.943c-7.093 12.768-10.601 27.758-10.601 44.901h4zm10.103-42.967c6.711-12.23 16.24-21.61 28.623-28.175l-1.873-3.535c-13.07 6.929-23.168 16.868-30.257 29.785l3.507 1.925zm28.623-28.175c12.39-6.569 26.931-9.888 43.684-9.888v-4c-17.288 0-32.494 3.428-45.557 10.353l1.873 3.535zm43.684-9.888c10.574 0 19.953 1.285 28.16 3.821l1.18-3.821c-8.66-2.677-18.448-4-29.34-4v4zm28.2 3.833c8.367 2.391 16.136 6.125 23.314 11.21l2.312-3.265c-7.543-5.342-15.72-9.275-24.527-11.79l-1.099 3.845zm23.316 11.211c2.423 1.71 4 3.47 4.885 5.24l3.578-1.788c-1.262-2.523-3.365-4.75-6.156-6.72l-2.307 3.268zm4.937 5.339c1.002 1.754 1.577 4.14 1.577 7.287h4c0-3.6-.653-6.733-2.104-9.272l-3.473 1.985zm1.577 7.287c0 4.365-1.188 7.985-3.493 10.968l3.165 2.445c2.909-3.763 4.328-8.27 4.328-13.413h-4zM95.896 47.24c-2.28 2.818-4.88 4.088-7.875 4.088v4c4.364 0 8.052-1.949 10.984-5.571l-3.109-2.517zm-7.875 4.088c-2.293 0-4.218-.287-5.808-.817l-1.265 3.795c2.09.696 4.459 1.022 7.073 1.022v-4zm-5.613-.74c-1.578-.718-3.72-1.896-6.454-3.566l-2.086 3.413c2.786 1.703 5.09 2.978 6.885 3.794l1.655-3.641zm-6.546-3.619c-5.779-3.123-11.288-5.412-16.525-6.84l-1.053 3.859c4.884 1.332 10.107 3.49 15.676 6.5l1.902-3.519zm-16.51-6.836c-5.106-1.436-10.657-2.145-16.641-2.145v4c5.669 0 10.85.672 15.558 1.996l1.083-3.85zm-16.641-2.145c-14.934 0-26.453 4.176-34.157 12.863l2.993 2.654c6.71-7.566 16.964-11.517 31.164-11.517v-4zM8.54 50.868C1.034 59.514-2.53 72.58-2.53 89.667h4c0-16.645 3.489-28.573 10.09-36.179l-3.02-2.622zm-11.07 38.8c0 17.557 3.72 31.004 11.533 39.955l3.014-2.63C5.11 119.078 1.47 106.765 1.47 89.668h-4zM9.03 129.652c8.017 8.836 20.07 13.076 35.75 13.076v-4c-14.986 0-25.779-4.039-32.788-11.764l-2.962 2.688zm35.75 13.076c7.5 0 14.923-.781 22.267-2.343l-.833-3.913a102.723 102.723 0 01-21.433 2.256v4zm23.85-4.3v-30.13h-4v30.13h4zm-2-32.13H50.07v4h16.56v-4zm-16.56 0c-4.752 0-8.123-1.15-10.4-3.174l-2.658 2.989c3.243 2.883 7.691 4.185 13.059 4.185v-4zm-10.356-3.134c-2.277-2.15-3.513-5.18-3.513-9.356h-4c0 5.025 1.523 9.202 4.766 12.264l2.747-2.908zM36.2 93.808c0-4.18 1.237-7.101 3.468-9.085l-2.657-2.99c-3.288 2.923-4.811 7.055-4.811 12.075h4zm3.513-9.126c2.279-2.152 5.633-3.364 10.357-3.364v-4c-5.397 0-9.863 1.395-13.104 4.456l2.747 2.908zm10.357-3.364h37.95v-4H50.07v4zm-51.437 271.7l-.512 1.934.017.004.017.004.478-1.942zm-25.76-11.27l-1.215 1.589.031.024.032.022 1.152-1.635zm-5.75-6.21l-1.789.895.025.049.028.049 1.736-.993zm2.53-20.24l-1.548-1.266 1.548 1.266zm15.41-4.14l.633-1.897-.633 1.897zm6.9 3.45l-1.043 1.707.032.019.033.019.978-1.745zm18.63 7.59l-.485 1.941.011.002.474-1.943zm41.63-1.61l.986 1.74.01-.005.008-.005-1.004-1.73zm.46-20.93l-1.038 1.71.036.021.036.021.966-1.752zm-24.84-7.59l-.415 1.957.012.002.011.003.392-1.962zm-35.65-11.5l.92-1.776-.92 1.776zm-18.17-15.64l-1.752.964.014.027.015.025 1.723-1.016zm3.68-48.76l-1.615-1.18 1.615 1.18zm23.92-18.63l.805 1.831.013-.005-.818-1.826zm64.4-3.22l-.54 1.926.54-1.926zm23.92 11.5l-1.172 1.621.001.001 1.171-1.622zm5.75 6.44l-1.812.846.035.075.04.072 1.737-.993zm-2.3 20.01l-1.548-1.266-.017.021-.017.022 1.582 1.223zm-14.95 4.37l-.683 1.88.077.028.08.022.526-1.93zm-7.13-3.68l-1.029 1.715 1.03-1.715zm-6.67-3.45l-.984 1.742.044.025.046.022.894-1.789zm-12.65-4.6l-.5 1.937.037.009.036.008.427-1.954zm-34.5 2.76l1.045 1.706.02-.012.02-.013-1.085-1.681zm4.83 24.38l-.743 1.857.027.011.028.01.688-1.878zm20.47 5.29l.428-1.953-.015-.004-.014-.002-.399 1.959zm34.73 11.73l-.957 1.756.012.007.012.007.933-1.77zm14.72 63.71l1.608 1.19.005-.007.006-.008-1.619-1.175zm-23.92 17.94l.758 1.851.006-.002.007-.003-.77-1.846zm-35.42 4.21c-12.125 0-23.386-1.288-33.791-3.852l-.957 3.884c10.755 2.65 22.34 3.968 34.748 3.968v-4zm-33.758-3.843c-10.264-2.717-18.617-6.39-25.12-10.972l-2.304 3.27c6.99 4.925 15.811 8.766 26.4 11.569l1.024-3.867zm-25.057-10.925c-2.46-1.882-4.17-3.761-5.228-5.614l-3.473 1.985c1.394 2.44 3.518 4.701 6.271 6.806l2.43-3.177zm-5.176-5.516c-.89-1.78-1.399-4.205-1.399-7.386h-4c0 3.566.564 6.661 1.821 9.175l3.578-1.789zm-1.399-7.386c0-4.166 1.237-7.698 3.688-10.693l-3.096-2.533c-3.07 3.751-4.592 8.192-4.592 13.226h4zm3.688-10.693c2.458-3.004 5.145-4.327 8.112-4.327v-4c-4.393 0-8.146 2.051-11.208 5.794l3.096 2.533zm8.112-4.327c1.785 0 3.487.274 5.118.818l1.265-3.795a20.068 20.068 0 00-6.383-1.023v4zm5.118.818c1.633.544 3.785 1.606 6.49 3.259l2.085-3.413c-2.816-1.721-5.263-2.959-7.31-3.641l-1.265 3.795zm6.554 3.297c6.42 3.601 12.795 6.204 19.123 7.786l.97-3.881c-5.938-1.485-11.983-3.942-18.136-7.394l-1.957 3.489zm19.134 7.788c6.47 1.578 13.686 2.357 21.634 2.357v-4c-7.692 0-14.582-.754-20.686-2.243l-.948 3.886zm21.634 2.357c9.177 0 16.412-1.311 21.456-4.17l-1.972-3.48c-4.155 2.355-10.568 3.65-19.484 3.65v4zm21.474-4.18c5.33-3.094 8.126-7.717 8.126-13.69h-4c0 4.455-1.956 7.805-6.134 10.231l2.008 3.459zm8.126-13.69c0-4.553-2.932-8.088-7.704-10.721l-1.932 3.503c4.122 2.274 5.636 4.719 5.636 7.218h4zm-7.632-10.679c-4.629-2.81-13.232-5.391-25.486-7.842l-.784 3.923c12.28 2.456 20.236 4.935 24.194 7.338l2.076-3.419zm-25.463-7.837c-15.096-3.202-26.784-6.99-35.145-11.32l-1.84 3.552c8.813 4.564 20.892 8.443 36.155 11.681l.83-3.913zm-35.145-11.32c-8.379-4.339-14.092-9.327-17.367-14.88l-3.445 2.032c3.778 6.408 10.178 11.846 18.973 16.4l1.839-3.552zm-17.337-14.827c-3.178-5.779-4.813-12.791-4.813-21.117h-4c0 8.848 1.74 16.556 5.308 23.044l3.505-1.927zm-4.813-21.117c0-9.386 2.777-17.866 8.355-25.5l-3.23-2.36c-6.075 8.314-9.125 17.62-9.125 27.86h4zm8.355-25.5c5.595-7.655 13.273-13.656 23.11-17.979l-1.61-3.662c-10.403 4.572-18.67 10.991-24.73 19.281l3.23 2.36zm23.123-17.984c9.984-4.471 21.2-6.726 33.682-6.726v-4c-12.971 0-24.755 2.346-35.317 7.075l1.635 3.651zm33.682-6.726c11.051 0 20.83 1.212 29.36 3.606l1.08-3.851c-8.95-2.513-19.104-3.755-30.44-3.755v4zm29.36 3.606c8.518 2.391 16.276 6.123 23.288 11.195l2.344-3.241c-7.401-5.354-15.59-9.289-24.551-11.805l-1.081 3.851zm23.29 11.196c2.574 1.859 4.22 3.761 5.108 5.664l3.625-1.691c-1.259-2.697-3.446-5.089-6.392-7.216l-2.342 3.243zm5.184 5.811c1.01 1.766 1.576 4.083 1.576 7.057h4c0-3.465-.66-6.515-2.103-9.042l-3.473 1.985zm1.576 7.057c0 4.166-1.237 7.699-3.688 10.694l3.096 2.533c3.07-3.752 4.592-8.193 4.592-13.227h-4zm-3.722 10.737c-2.296 2.971-4.89 4.283-7.848 4.283v4c4.403 0 8.095-2.061 11.013-5.837l-3.165-2.446zm-7.848 4.283c-1.84 0-3.5-.212-4.994-.619l-1.052 3.859c1.88.513 3.9.76 6.046.76v-4zm-4.836-.569c-1.5-.545-3.742-1.69-6.785-3.516l-2.058 3.43c3.091 1.855 5.602 3.164 7.476 3.845l1.367-3.759zm-6.785-3.516c-.849-.509-3.156-1.7-6.804-3.523l-1.79 3.577c3.713 1.856 5.852 2.966 6.536 3.376l2.058-3.43zm-6.715-3.476c-3.736-2.112-8.15-3.706-13.206-4.812l-.855 3.907c4.756 1.041 8.776 2.513 12.093 4.388l1.968-3.483zm-13.134-4.795c-4.94-1.275-10.323-1.904-16.14-1.904v4c5.53 0 10.573.598 15.14 1.777l1-3.873zm-16.14-1.904c-8.063 0-14.766 1.579-19.944 4.92l2.168 3.361c4.33-2.793 10.199-4.281 17.776-4.281v-4zm-19.905 4.895c-5.25 3.218-8.085 7.727-8.085 13.435h4c0-4.105 1.92-7.416 6.175-10.024l-2.09-3.411zm-8.085 13.435c0 3.325.975 6.212 3.056 8.482l2.948-2.703c-1.292-1.41-2.004-3.277-2.004-5.779h-4zm3.056 8.482c2.005 2.187 5.505 4.163 10.161 6.025l1.486-3.714c-4.543-1.817-7.33-3.522-8.699-5.014l-2.948 2.703zm10.216 6.046c4.743 1.739 11.684 3.526 20.76 5.372l.797-3.919c-9.018-1.835-15.724-3.574-20.18-5.208l-1.377 3.755zm20.73 5.366c14.628 3.2 26 7.059 34.2 11.532l1.916-3.511c-8.666-4.727-20.448-8.688-35.26-11.928l-.855 3.907zm34.225 11.546c8.224 4.335 13.87 9.324 17.15 14.886l3.446-2.032c-3.773-6.397-10.086-11.835-18.73-16.393l-1.866 3.539zm17.15 14.886c3.317 5.624 5.013 12.313 5.013 20.144h4c0-8.422-1.83-15.839-5.567-22.176l-3.445 2.032zm5.013 20.144c0 9.72-2.715 18.274-8.129 25.736l3.238 2.349c5.933-8.179 8.891-17.564 8.891-28.085h-4zm-8.118 25.721c-5.424 7.331-13.086 13.106-23.083 17.284l1.542 3.691c10.55-4.409 18.835-10.594 24.757-18.596l-3.216-2.379zm-23.07 17.278c-9.83 4.022-21.37 6.061-34.662 6.061v4c13.694 0 25.768-2.1 36.178-6.359l-1.515-3.702zm-51.27 185.621l-1.414 1.415.028.028.03.027 1.356-1.47zm-5.75-123.51h2v-2h-2v2zm-47.61-4.14l-1.342 1.483.037.034.038.031 1.267-1.548zm0-25.99l-1.267-1.548-.017.015-.018.015 1.302 1.518zm137.77 0l-1.302 1.519.017.015.018.014 1.267-1.548zm0 25.99l1.301 1.519.006-.005-1.307-1.514zm-47.38 4.14v-2h-2v2h2zm-5.98 123.51l1.385 1.443v-.001l-1.385-1.442zm-15.41 3.52c-6.037 0-10.734-1.712-14.284-4.989l-2.713 2.939c4.424 4.083 10.154 6.05 16.997 6.05v-4zm-14.226-4.934c-3.398-3.398-5.164-7.918-5.164-13.766h-4c0 6.726 2.067 12.326 6.336 16.595l2.828-2.829zm-5.164-13.766v-108.33h-4v108.33h4zm-2-110.33h-32.43v4h32.43v-4zm-32.43 0c-6.525 0-11.047-1.342-13.914-3.688l-2.533 3.096c3.88 3.175 9.478 4.592 16.447 4.592v-4zm-13.838-3.623c-2.672-2.417-4.172-6.163-4.172-11.627h-4c0 6.19 1.72 11.184 5.488 14.593l2.684-2.966zm-4.172-11.627c0-5.471 1.503-9.108 4.131-11.361l-2.603-3.037c-3.812 3.267-5.528 8.217-5.528 14.398h4zm4.096-11.332c2.867-2.345 7.389-3.688 13.914-3.688v-4c-6.969 0-12.566 1.418-16.447 4.592l2.533 3.096zm13.914-3.688h107.64v-4h-107.64v4zm107.64 0c6.535 0 10.951 1.347 13.648 3.659l2.603-3.037c-3.743-3.209-9.293-4.622-16.251-4.622v4zm13.683 3.688c2.765 2.262 4.327 5.89 4.327 11.332h4c0-6.211-1.812-11.169-5.794-14.428l-2.533 3.096zm4.327 11.332c0 5.436-1.56 9.172-4.368 11.597l2.615 3.027c3.939-3.402 5.753-8.406 5.753-14.624h-4zm-4.362 11.592c-2.697 2.311-7.113 3.658-13.648 3.658v4c6.958 0 12.508-1.413 16.251-4.621l-2.603-3.037zm-13.648 3.658h-32.43v4h32.43v-4zm-34.43 2v108.33h4v-108.33h-4zm0 108.33c0 5.824-1.827 10.335-5.367 13.739l2.773 2.883c4.434-4.263 6.594-9.872 6.594-16.622h-4zm-5.365 13.738c-3.385 3.249-7.986 4.962-14.025 4.962v4c6.84 0 12.513-1.966 16.795-6.077l-2.77-2.885zm55.757 162.902l1.664-1.109-.011-.017-.012-.017-1.641 1.143zm-2.07 24.15l1.257 1.556.007-.005-1.264-1.551zm-24.38 2.3l.928-1.771-.928 1.771zm-8.28-7.59l1.653-1.126-.002-.003-1.65 1.129zm-29.9-43.7l1.65-1.129-.005-.009-.006-.009-1.639 1.147zm-6.9-6.67l-1.11 1.664.064.042.066.038.98-1.744zm-23.23-2.3v-2h-2v2h2zm-5.52 56.58l1.414 1.415.015-.015.014-.015-1.443-1.385zm-30.59 0l-1.442 1.385.028.03.03.028 1.384-1.443zm115.92-145.13l-1.317 1.506.013.01.012.011 1.292-1.527zm4.83 68.08l1.562 1.25.005-.007.006-.007-1.573-1.236zm-28.52 17.02l-.462-1.946-10.022 2.381 10.185 1.543.3-1.978zm13.11 5.06l-1.156 1.632.016.011.016.011 1.124-1.654zm11.27 11.73l1.641-1.143-.007-.01-1.634 1.153zm-31.51-49.45l-1.15-1.635-.015.01-.015.011 1.18 1.614zm0-28.75l-1.22 1.586.035.026.034.024 1.151-1.636zm-49.45-4.6v-2h-2v2h2zm0 37.72h-2v2h2v-2zm93.556 66.66c2.616 3.924 3.804 7.452 3.804 10.62h4c0-4.191-1.572-8.483-4.476-12.839l-3.328 2.219zm3.804 10.62c0 4.248-1.752 7.838-5.473 10.87l2.527 3.101c4.559-3.715 6.946-8.405 6.946-13.971h-4zm-5.466 10.865c-3.614 2.918-7.841 4.385-12.774 4.385v4c5.8 0 10.927-1.752 15.287-5.274l-2.513-3.111zm-12.774 4.385c-3.36 0-6.492-.767-9.422-2.301l-1.856 3.543c3.51 1.839 7.28 2.758 11.278 2.758v-4zm-9.422-2.301c-2.895-1.517-5.417-3.809-7.555-6.945l-3.305 2.253c2.462 3.611 5.46 6.378 9.004 8.235l1.856-3.543zm-7.557-6.948l-29.9-43.7-3.301 2.259 29.9 43.7 3.3-2.259zm-29.912-43.718c-2.265-3.234-4.772-5.699-7.558-7.266l-1.961 3.487c2.12 1.192 4.213 3.175 6.242 6.073l3.277-2.294zm-7.43-7.187c-2.68-1.786-5.84-2.636-9.389-2.636v4c2.892 0 5.25.684 7.17 1.964l2.22-3.328zm-9.389-2.636H6.958v4h14.95v-4zm-16.95 2v41.17h4v-41.17h-4zm0 41.17c0 6.04-1.713 10.64-4.963 14.025l2.886 2.77c4.11-4.281 6.077-9.954 6.077-16.795h-4zM.024 717.304c-3.22 3.22-7.723 4.934-13.766 4.934v4c6.837 0 12.455-1.965 16.594-6.105l-2.828-2.829zm-13.766 4.934c-6.04 0-10.64-1.713-14.025-4.962l-2.77 2.885c4.282 4.111 9.955 6.077 16.795 6.077v-4zm-13.967-4.905c-3.25-3.385-4.963-7.985-4.963-14.025h-4c0 6.841 1.967 12.514 6.077 16.795l2.886-2.77zm-4.963-14.025v-123.05h-4v123.05h4zm0-123.05c0-5.931 1.584-10.185 4.474-13.075l-2.828-2.829c-3.856 3.856-5.646 9.262-5.646 15.904h4zm4.474-13.075c2.89-2.891 7.145-4.475 13.076-4.475v-4c-6.642 0-12.048 1.79-15.904 5.646l2.828 2.829zm13.076-4.475h57.73v-4h-57.73v4zm57.73 0c19.38 0 33.54 4.245 42.843 12.386l2.634-3.011c-10.323-9.033-25.602-13.375-45.477-13.375v4zm42.868 12.407c9.415 7.966 14.242 19.612 14.242 35.273h4c0-16.538-5.14-29.426-15.658-38.326l-2.584 3.053zm14.242 35.273c0 11.877-3.257 21.854-9.692 30.045l3.145 2.471c7.057-8.982 10.547-19.859 10.547-32.516h-4zm-9.681 30.031c-6.424 8.029-15.513 13.495-27.42 16.323l.923 3.892c12.625-2.998 22.55-8.878 29.62-17.716l-3.123-2.499zm-27.258 20.247c4.793.726 8.86 2.311 12.253 4.714l2.312-3.264c-3.967-2.81-8.64-4.598-13.966-5.405l-.6 3.955zm12.285 4.736c3.575 2.432 7.17 6.144 10.76 11.23l3.268-2.307c-3.77-5.341-7.688-9.449-11.78-12.23l-2.248 3.307zm10.753 11.22l14.26 20.47 3.282-2.287-14.26-20.47-3.282 2.287zm-49.879-44.224c9.453 0 16.669-1.451 21.19-4.755l-2.36-3.229c-3.452 2.522-9.576 3.984-18.83 3.984v4zm21.161-4.734c4.829-3.398 7.06-8.869 7.06-15.896h-4c0 6.161-1.91 10.196-5.362 12.625l2.302 3.271zm7.06-15.896c0-7.159-2.219-12.719-7.06-16.125l-2.302 3.271c3.44 2.42 5.361 6.521 5.361 12.854h4zm-6.991-16.075c-4.53-3.484-11.765-5.015-21.23-5.015v4c9.242 0 15.347 1.536 18.79 4.186l2.44-3.171zm-21.23-5.015H6.498v4h29.44v-4zm-31.44 2v37.72h4v-37.72h-4zm2 39.72h29.44v-4H6.498v4z" fill="#fff"/><g opacity=".4" fill="#fff"><path d="M1.343 46.834c.742 0 1.343-.617 1.343-1.377s-.601-1.377-1.343-1.377S0 44.697 0 45.457s.601 1.377 1.343 1.377zM1.343 35.118c.742 0 1.343-.617 1.343-1.377s-.601-1.377-1.343-1.377S0 32.981 0 33.741s.601 1.377 1.343 1.377zM12.846 35.118c.742 0 1.343-.617 1.343-1.377s-.601-1.377-1.343-1.377-1.343.617-1.343 1.377.601 1.377 1.343 1.377zM7.094 41.093c.742 0 1.343-.617 1.343-1.377s-.601-1.377-1.343-1.377c-.741 0-1.343.616-1.343 1.377 0 .76.602 1.377 1.343 1.377zM24.324 35.118c.741 0 1.343-.617 1.343-1.377s-.602-1.377-1.343-1.377c-.742 0-1.343.617-1.343 1.377s.601 1.377 1.343 1.377zM18.572 41.093c.742 0 1.343-.617 1.343-1.377s-.601-1.377-1.343-1.377c-.741 0-1.342.616-1.342 1.377 0 .76.6 1.377 1.342 1.377zM12.846 46.834c.742 0 1.343-.617 1.343-1.377s-.601-1.377-1.343-1.377-1.343.617-1.343 1.377.601 1.377 1.343 1.377zM7.094 52.783c.742 0 1.343-.617 1.343-1.377s-.601-1.377-1.343-1.377c-.741 0-1.343.617-1.343 1.377s.602 1.377 1.343 1.377zM1.343 58.55c.742 0 1.343-.616 1.343-1.376 0-.76-.601-1.377-1.343-1.377S0 56.413 0 57.174c0 .76.601 1.377 1.343 1.377zM12.846 58.55c.742 0 1.343-.616 1.343-1.376 0-.76-.601-1.377-1.343-1.377s-1.343.616-1.343 1.377c0 .76.601 1.377 1.343 1.377zM7.094 64.525c.742 0 1.343-.616 1.343-1.377 0-.76-.601-1.377-1.343-1.377-.741 0-1.343.617-1.343 1.377s.602 1.377 1.343 1.377zM24.324 46.834c.741 0 1.343-.617 1.343-1.377s-.602-1.377-1.343-1.377c-.742 0-1.343.617-1.343 1.377s.601 1.377 1.343 1.377zM18.572 52.783c.742 0 1.343-.617 1.343-1.377s-.601-1.377-1.343-1.377c-.741 0-1.342.617-1.342 1.377s.6 1.377 1.342 1.377zM24.324 58.55c.741 0 1.343-.616 1.343-1.376 0-.76-.602-1.377-1.343-1.377-.742 0-1.343.616-1.343 1.377 0 .76.601 1.377 1.343 1.377zM18.572 64.525c.742 0 1.343-.616 1.343-1.377 0-.76-.601-1.377-1.343-1.377-.741 0-1.342.617-1.342 1.377s.6 1.377 1.342 1.377z"/></g><g filter="url(#filter0_d)"><path d="M39.639 41.102c1.08 0 1.872.216 2.376.648.504.432.756 1.08.756 1.944 0 1.776-1.044 2.664-3.132 2.664H27.147c-2.088 0-3.132-.888-3.132-2.664 0-.864.252-1.512.756-1.944.504-.432 1.296-.648 2.376-.648h2.916V28.106l-2.88 1.692c-.408.24-.828.36-1.26.36-.672 0-1.248-.288-1.728-.864-.48-.6-.72-1.26-.72-1.98 0-.984.42-1.728 1.26-2.232l5.76-3.348c1.056-.6 2.052-.9 2.988-.9.96 0 1.728.288 2.304.864.6.576.9 1.356.9 2.34v17.064h2.952z" fill="#fff"/></g></g><defs><linearGradient id="paint0_linear" x1="2.667" y1="61.859" x2="73.479" y2="31.941" gradientUnits="userSpaceOnUse"><stop stop-color="#FE8B58"/><stop offset="1" stop-color="#FE8B58"/></linearGradient><linearGradient id="paint1_linear" x1="2.667" y1="61.859" x2="73.479" y2="31.941" gradientUnits="userSpaceOnUse"><stop stop-color="#FE8B58"/><stop offset="1" stop-color="#FF685F"/></linearGradient><filter id="filter0_d" x="10.475" y="15.834" width="45.296" height="51.524" filterUnits="userSpaceOnUse" color-interpolation-filters="sRGB"><feFlood flood-opacity="0" result="BackgroundImageFix"/><feColorMatrix in="SourceAlpha" values="0 0 0 0 0 0 0 0 0 0 0 0 0 0 0 0 0 0 127 0"/><feOffset dy="8"/><feGaussianBlur stdDeviation="6.5"/><feColorMatrix values="0 0 0 0 0.188235 0 0 0 0 0.211765 0 0 0 0 0.270588 0 0 0 0.2 0"/><feBlend in2="BackgroundImageFix" result="effect1_dropShadow"/><feBlend in="SourceGraphic" in2="effect1_dropShadow" result="shape"/></filter></defs></svg>