<svg width="21" height="14" viewBox="0 0 21 14" fill="none" xmlns="http://www.w3.org/2000/svg">
<path d="M0.00146484 9.27539H21.0009V13.0779C21.0009 13.5872 20.588 14.0001 20.0787 14.0001H0.923663C0.414346 14.0001 0.00146484 13.5872 0.00146484 13.0779V9.27539Z" fill="#11892E"/>
<path d="M0.0012207 0.922199C0.0012207 0.412882 0.414104 0 0.923421 0H20.0784C20.5878 0 21.0006 0.412883 21.0006 0.9222V4.72505H0.0012207V0.922199Z" fill="#F2963B"/>
<path d="M0.00012207 4.7262H21.0009V9.27587H0.00012207V4.7262Z" fill="white"/>
<path d="M12.409 6.75004C12.2703 5.69627 11.3033 4.95413 10.2495 5.09284C9.19455 5.2321 8.4531 6.19848 8.59174 7.25225C8.73045 8.30602 9.69738 9.04755 10.7523 8.90945C11.8061 8.77012 12.5477 7.80388 12.409 6.75004ZM12.1811 7.12568C12.1292 7.12023 12.081 7.15634 12.075 7.20822C12.0677 7.26009 12.1026 7.30766 12.1546 7.3155C12.1472 7.35469 12.1376 7.39396 12.128 7.43247L11.2478 7.14428L10.8307 7.06282C10.8329 7.05075 10.8355 7.03876 10.8367 7.02662L11.2585 7.05613L12.1846 7.0061C12.1848 7.04606 12.1823 7.0858 12.1811 7.12568ZM8.82091 6.87661C8.8727 6.88207 8.91974 6.84526 8.92696 6.79407C8.93426 6.7422 8.89807 6.69517 8.84619 6.68618C8.85342 6.6476 8.8631 6.6084 8.8727 6.56983L9.75287 6.85801L10.1712 6.9394C10.1689 6.95085 10.1664 6.96291 10.1652 6.97559L9.74196 6.94608L8.81722 6.99611C8.81722 6.95623 8.81837 6.91642 8.82091 6.87661ZM8.84619 7.3155C8.89807 7.30766 8.93426 7.26001 8.92696 7.20822C8.91974 7.15634 8.8727 7.12015 8.82091 7.12568C8.81845 7.0858 8.81722 7.04553 8.81722 7.00633L9.74196 7.05636L10.1664 7.02685C10.1676 7.03292 10.1664 7.03892 10.1676 7.04553C10.1676 7.0516 10.17 7.0569 10.1712 7.06305L9.75287 7.14451L8.8727 7.4327C8.8631 7.39396 8.85457 7.35531 8.84619 7.3155ZM11.2587 6.94608L10.8355 6.97559C10.8343 6.9696 10.8355 6.96353 10.8343 6.95692C10.8343 6.95092 10.8319 6.94485 10.8307 6.9394L11.2478 6.85801L12.128 6.56983C12.1376 6.6084 12.1472 6.6476 12.1546 6.68679C12.1026 6.69524 12.0677 6.74228 12.075 6.79407C12.081 6.84533 12.128 6.88207 12.1799 6.87661C12.1822 6.91642 12.1847 6.95676 12.1847 6.99603L11.2587 6.94608ZM12.0907 6.44633C12.1028 6.48368 12.116 6.52164 12.127 6.56022L11.2191 6.75134L10.8188 6.88937C10.8139 6.87792 10.8079 6.86708 10.8033 6.85563L11.1855 6.66935L11.9609 6.16352C11.9814 6.19787 11.9995 6.23284 12.0174 6.26903C11.9705 6.29071 11.9475 6.34558 11.9678 6.39384C11.9869 6.44148 12.0425 6.46492 12.0907 6.44633ZM11.7603 6.0351C11.7916 6.07614 11.8508 6.0839 11.8918 6.05439C11.9158 6.08698 11.9363 6.12071 11.9557 6.15507L11.1298 6.57405L10.7777 6.81159C10.7704 6.80191 10.7644 6.79108 10.7561 6.78201L11.0755 6.5035L11.694 5.81385C11.7217 5.84221 11.7497 5.8711 11.776 5.90192C11.7351 5.93497 11.729 5.99353 11.7603 6.0351ZM11.4673 5.74146C11.5083 5.77343 11.5675 5.76559 11.6 5.72578C11.6303 5.75168 11.6593 5.77881 11.6881 5.80717L10.9985 6.42573L10.7186 6.74643C10.709 6.73859 10.7007 6.73075 10.6896 6.72414L10.9283 6.37147L11.3467 5.54557C11.3803 5.56547 11.4141 5.58722 11.4477 5.60951C11.418 5.6517 11.4251 5.71018 11.4673 5.74146ZM11.108 5.53412C11.1562 5.55402 11.2105 5.53173 11.2322 5.4847C11.2683 5.50215 11.3044 5.52082 11.3383 5.54073L10.8319 6.3166L10.6462 6.69763C10.6353 6.69217 10.6233 6.68856 10.6113 6.68441L10.751 6.28233L10.9404 5.37627C10.979 5.38649 11.0176 5.39855 11.0562 5.41185C11.037 5.46003 11.0599 5.51421 11.108 5.53412ZM10.6245 5.32193C10.6197 5.37319 10.6559 5.42015 10.7077 5.42683C10.7596 5.43352 10.8066 5.39848 10.815 5.34668C10.855 5.35452 10.8935 5.36359 10.9319 5.37381L10.6438 6.25397L10.5629 6.67173C10.5496 6.66935 10.5389 6.66635 10.5256 6.66512L10.5558 6.24191L10.5053 5.31709C10.545 5.31709 10.5859 5.31901 10.6245 5.32193ZM10.293 5.42683C10.3448 5.42023 10.3822 5.37319 10.3774 5.32193C10.416 5.31894 10.457 5.31771 10.4956 5.31709L10.4461 6.24191L10.475 6.66627C10.469 6.66689 10.463 6.66627 10.457 6.66689C10.451 6.6675 10.4437 6.6705 10.4377 6.67173L10.3569 6.25397L10.0687 5.37319C10.1073 5.36359 10.1459 5.35452 10.1857 5.34668C10.1941 5.39848 10.2412 5.43344 10.293 5.42683ZM9.89274 5.53412C9.94215 5.51421 9.9639 5.45934 9.94576 5.41054C9.98311 5.39786 10.0217 5.38649 10.0603 5.37619L10.2508 6.28225L10.3883 6.68318C10.3774 6.68802 10.3665 6.6934 10.3557 6.69886L10.1688 6.31668L9.66357 5.54019C9.6973 5.5209 9.73235 5.50215 9.76847 5.4847C9.79022 5.53173 9.84447 5.55402 9.89274 5.53412ZM9.53461 5.74146C9.57565 5.7101 9.58411 5.65108 9.55267 5.60882C9.58641 5.58645 9.619 5.56539 9.65519 5.54549L10.0723 6.3714L10.311 6.72406C10.3014 6.73067 10.2905 6.73797 10.2809 6.74573L10.0024 6.42565L9.31267 5.80709C9.34287 5.77873 9.37054 5.7516 9.40189 5.7257C9.43333 5.76559 9.49242 5.77343 9.53461 5.74146ZM9.24158 6.0351C9.27294 5.99353 9.26572 5.93504 9.22591 5.90192C9.25004 5.8718 9.27893 5.84282 9.30675 5.81385L9.92524 6.5035L10.246 6.78262C10.2388 6.79169 10.2303 6.80191 10.2231 6.81159L9.87106 6.57405L9.04516 6.15507C9.06445 6.12071 9.08612 6.08636 9.10902 6.05378C9.14998 6.0839 9.21031 6.07606 9.24158 6.0351ZM9.03301 6.39376C9.05353 6.34558 9.03178 6.29071 8.98352 6.26896C9.00158 6.23337 9.01972 6.19779 9.04016 6.16344L9.81542 6.66927L10.1977 6.85555C10.1928 6.86639 10.1881 6.87845 10.1845 6.8899L9.78176 6.75127L8.87509 6.56076C8.88592 6.52156 8.89799 6.48421 8.90998 6.44625C8.95832 6.46492 9.01372 6.44149 9.03301 6.39376ZM8.91005 7.55604C8.89806 7.51869 8.886 7.48011 8.87516 7.44154L9.78184 7.25049L10.1833 7.113C10.187 7.12437 10.193 7.13536 10.1978 7.1462L9.8155 7.33318L9.04024 7.83885C9.01972 7.80457 9.00166 7.76961 8.9836 7.73333C9.03186 7.71228 9.05353 7.65679 9.03309 7.60861C9.01372 7.56027 8.95832 7.53675 8.91005 7.55604ZM9.24158 7.96727C9.21031 7.92623 9.14998 7.91839 9.10894 7.94859C9.08604 7.91532 9.06437 7.88166 9.04508 7.8473L9.87099 7.42832L10.223 7.19016C10.2303 7.20046 10.2375 7.21068 10.2459 7.22036L9.92517 7.49886L9.30668 8.1879C9.27893 8.15962 9.25119 8.13073 9.22583 8.10045C9.26579 8.06725 9.27302 8.00884 9.24158 7.96727ZM9.53461 8.26076C9.49242 8.22879 9.4334 8.2367 9.40197 8.27643C9.37177 8.25054 9.34287 8.22348 9.31275 8.19505L10.0025 7.57656L10.2822 7.25517C10.2918 7.26355 10.3015 7.27139 10.3111 7.27746L10.0724 7.63012L9.65527 8.45657C9.6203 8.43667 9.58649 8.41499 9.55275 8.39263C9.58403 8.35113 9.57565 8.29211 9.53461 8.26076ZM9.89274 8.46748C9.84447 8.44819 9.79022 8.46987 9.76854 8.51744C9.73235 8.49991 9.69738 8.48062 9.66365 8.46141L10.1689 7.68553L10.3558 7.3039C10.3666 7.30935 10.3787 7.3135 10.3895 7.31719L10.2508 7.71981L10.0603 8.62587C10.0217 8.61565 9.98434 8.6042 9.94576 8.5909C9.9639 8.54226 9.94092 8.488 9.89274 8.46748ZM10.3774 8.68036C10.3823 8.6291 10.3448 8.58222 10.293 8.57546C10.2412 8.56823 10.1941 8.60443 10.1857 8.65507C10.1458 8.64785 10.1072 8.63878 10.0687 8.62856L10.3569 7.7484L10.4377 7.33064C10.451 7.33295 10.463 7.33594 10.475 7.33725L10.4461 7.75985L10.4956 8.68528C10.4557 8.6852 10.416 8.68397 10.3774 8.68036ZM10.7077 8.57546C10.6559 8.58214 10.6197 8.62848 10.6245 8.68036C10.5847 8.68274 10.545 8.68466 10.5052 8.68466L10.5557 7.75985L10.5254 7.33548C10.5314 7.33487 10.5389 7.3361 10.5435 7.33487C10.5493 7.33425 10.5568 7.33187 10.5628 7.33064L10.6436 7.7484L10.9317 8.62856C10.8932 8.63878 10.8546 8.64785 10.8149 8.65507C10.8066 8.60443 10.7596 8.56823 10.7077 8.57546ZM11.108 8.46748C11.0598 8.488 11.0369 8.54226 11.0562 8.59098C11.0176 8.6042 10.979 8.61565 10.9404 8.62595L10.751 7.71989L10.6124 7.31904C10.6233 7.31419 10.634 7.30881 10.6461 7.30282L10.8318 7.68553L11.3381 8.46141C11.3045 8.48132 11.2682 8.49999 11.232 8.51744C11.2105 8.47002 11.1562 8.44819 11.108 8.46748ZM11.4673 8.26076C11.4251 8.29211 11.4179 8.35113 11.448 8.39348C11.4144 8.41515 11.3818 8.43682 11.3468 8.45672L10.9286 7.63028L10.6901 7.27761C10.701 7.27154 10.7116 7.2644 10.7203 7.25663L10.9988 7.57671L11.6884 8.1952C11.6595 8.22356 11.6305 8.25069 11.6003 8.27659C11.5674 8.23663 11.5083 8.22879 11.4673 8.26076ZM11.7603 7.96727C11.729 8.00884 11.7363 8.06733 11.776 8.09991C11.7507 8.13065 11.7217 8.15962 11.694 8.18798L11.0755 7.49894L10.7548 7.21982C10.7621 7.21022 10.7704 7.20053 10.7777 7.19024L11.1298 7.42839L11.9557 7.84677C11.9363 7.88173 11.9147 7.91547 11.8918 7.94867C11.8496 7.91831 11.7916 7.92615 11.7603 7.96727ZM11.9677 7.60861C11.947 7.65679 11.9701 7.71166 12.0172 7.73341C11.9991 7.76892 11.9809 7.80388 11.9605 7.83885L11.1853 7.33318L10.8043 7.14681C10.8091 7.13598 10.8127 7.12391 10.8175 7.11254L11.2191 7.25056L12.1259 7.44161C12.1162 7.48019 12.1029 7.51885 12.091 7.5555C12.0425 7.53737 11.9869 7.56088 11.9677 7.60861Z" fill="#21296F"/>
</svg>
