<svg width="48" height="49" viewBox="0 0 48 49" fill="none" xmlns="http://www.w3.org/2000/svg">
<g id="icon-desktop-shuffle-flexible">
<path id="Icon" d="M28 4.87207V13.1332C28 14.2533 28 14.8133 28.218 15.2411C28.4097 15.6175 28.7157 15.9234 29.092 16.1152C29.5198 16.3331 30.0799 16.3331 31.2 16.3331H39.4611M28 34.333H16M32 26.333H16M40 20.3095V34.733C40 38.0933 40 39.7735 39.346 41.0569C38.7708 42.1859 37.8529 43.1038 36.7239 43.679C35.4405 44.333 33.7603 44.333 30.4 44.333H17.6C14.2397 44.333 12.5595 44.333 11.2761 43.679C10.1471 43.1038 9.2292 42.1859 8.65396 41.0569C8 39.7735 8 38.0933 8 34.733V13.933C8 10.5727 8 8.89254 8.65396 7.60906C9.2292 6.48009 10.1471 5.56221 11.2761 4.98697C12.5595 4.33301 14.2397 4.33301 17.6 4.33301H24.0236C25.4911 4.33301 26.2249 4.33301 26.9154 4.49879C27.5276 4.64577 28.1129 4.88819 28.6497 5.21717C29.2552 5.58822 29.7741 6.10707 30.8118 7.14478L37.1882 13.5212C38.2259 14.5589 38.7448 15.0778 39.1158 15.6833C39.4448 16.2201 39.6872 16.8054 39.8342 17.4176C40 18.1081 40 18.8419 40 20.3095Z" stroke="#6E6D6B" stroke-width="4" stroke-linecap="round" stroke-linejoin="round"/>
</g>
</svg>
