<?xml version="1.0" encoding="utf-8"?>
<!-- Generator: Adobe Illustrator 22.0.1, SVG Export Plug-In . SVG Version: 6.00 Build 0)  -->
<svg version="1.1" id="Capa_1" xmlns="http://www.w3.org/2000/svg" xmlns:xlink="http://www.w3.org/1999/xlink" x="0px" y="0px"
	 viewBox="0 0 567 559" style="enable-background:new 0 0 567 559;" xml:space="preserve">
<style type="text/css">
	.st0{stroke:#000000;stroke-width:10;stroke-miterlimit:10;}
	.st1{fill:#FFFFFF;}
	.st2{fill:#FFFFFF;stroke:#000000;stroke-width:25;stroke-miterlimit:10;}
	.st3{fill:#2EA51D;}
</style>
<path class="st0" d="M508,260.5c0,68.6,0,137.2,0,205.7c0,33.1-11.6,44.6-44.7,44.6c-136.6,0-273.2,0-409.8-0.1
	c-35,0-45.3-10.3-45.3-45.3C8.1,327.1,8.1,188.8,8,50.5c0-27.3,12.5-40.2,40.2-40.2c140.1-0.2,280.1-0.2,420.2,0
	c26.3,0,39.3,12.9,39.4,39.3c0.3,70.3,0.1,140.6,0.1,210.9C507.9,260.5,507.9,260.5,508,260.5z M26.5,260.2c78.2,0,154.4,0,230.4,0
	c0-77.2,0-153,0-230c-72.4,0-143.7-0.1-215,0.1c-11.6,0-15.4,8.3-15.4,18.9C26.5,118.9,26.5,188.6,26.5,260.2z M279.1,259.9
	c70.9,0,140.1,0,210.2,0c0-71.9,0.1-142.1-0.1-212.3c-0.1-14.1-9.4-17.8-22.2-17.7c-58.7,0.3-117.4,0.1-176.2,0.2
	c-3.8,0-7.6,1-11.7,1.6C279.1,108,279.1,183.3,279.1,259.9z M26.6,281.6c0,63.3-0.1,124.8,0,186.3c0,19.5,3.5,23,23.3,23
	c65.6,0.2,131.2,0.1,196.8,0.1c3.3,0,6.5-0.5,10.4-0.8c0-70,0-138.7,0-208.6C180.6,281.6,104.9,281.6,26.6,281.6z M388,365.6
	c15.6,0,31.2,1,46.6-0.5c5.9-0.6,11.2-6.7,16.8-10.3c-5.4-3.7-10.7-10.5-16.2-10.7c-31.1-1.1-62.2-1.2-93.3-0.1
	c-5.4,0.2-10.5,7.3-15.8,11.2c5.6,3.5,11,9.5,16.9,10.1C357.9,366.6,373,365.6,388,365.6z M389.3,428c15.5,0,31.2,1,46.6-0.5
	c5.5-0.6,10.5-7.2,15.7-11.1c-5.2-3.3-10.3-9.2-15.5-9.4c-31.6-0.9-63.3-0.9-94.9,0c-5,0.1-9.8,6.6-14.7,10.1
	c4.9,3.6,9.5,9.9,14.6,10.4C357,428.8,373.2,427.9,389.3,428z"/>
<path class="st1" d="M26.5,260.2c0-71.6,0-141.3,0-211c0-10.5,3.8-18.8,15.4-18.9c71.3-0.3,142.6-0.1,215-0.1c0,77,0,152.8,0,230
	C180.9,260.2,104.7,260.2,26.5,260.2z M133.3,155.4c0,16.3-0.8,30.6,0.4,44.8c0.5,6.1,5.4,11.8,8.3,17.7
	c3.8-5.8,10.2-11.3,10.9-17.5c1.6-14.4,0.5-29.2,0.5-44.9c17.3,0,31.7,1,45.9-0.5c5.8-0.6,11.1-6.3,16.6-9.7
	c-5.3-3.1-10.4-8.5-15.9-9c-15.1-1.3-30.4-0.4-46.8-0.4c0-17.9,0.9-32.8-0.5-47.6c-0.5-5.3-6.4-10.2-9.8-15.3
	c-3.3,5.1-8.9,10-9.3,15.3c-1.3,15.2-0.4,30.6-0.4,47.3c-17.3,0-32.3-0.9-47.1,0.5c-5.3,0.5-10.2,6.1-15.3,9.4
	c4.9,3.3,9.6,9,14.7,9.4C100.3,156.2,115.3,155.4,133.3,155.4z"/>
<path class="st1" d="M279.1,259.9c0-76.5,0-151.9,0-228.2c4.1-0.6,7.9-1.6,11.7-1.6c58.7-0.1,117.4,0.1,176.2-0.2
	c12.8-0.1,22.1,3.6,22.2,17.7c0.3,70.2,0.1,140.4,0.1,212.3C419.2,259.9,350,259.9,279.1,259.9z M383.7,155.4
	c15.5,0,31,0.8,46.4-0.5c5.1-0.4,9.8-6.2,14.7-9.6c-4.6-3.1-9.1-8.9-13.7-9c-32.1-0.8-64.2-0.8-96.3,0c-4.5,0.1-8.9,6.3-13.3,9.6
	c4.7,3.1,9.2,8.6,14.1,9C351.5,156.1,367.6,155.4,383.7,155.4z"/>
<path class="st1" d="M388,365.6c-15,0-30,1-44.9-0.5c-5.9-0.6-11.3-6.6-16.9-10.1c5.3-3.9,10.4-11,15.8-11.2c31.1-1,62.2-1,93.3,0.1
	c5.5,0.2,10.8,7,16.2,10.7c-5.6,3.6-10.9,9.8-16.8,10.3C419.2,366.6,403.5,365.6,388,365.6z"/>
<g>
	<path d="M204.6,152.6h-51.9v53.2h-27.2v-53.2H73.6v-24.7h51.9V74.7h27.2v53.2h51.9V152.6z"/>
</g>
<g>
	<path d="M179.3,429.2l-38.4-34.9l-35.8,39.3L85,415.3l35.8-39.3l-38.4-34.9L99,322.8l38.4,34.9l35.8-39.3l20.1,18.3l-35.8,39.3
		l38.4,34.9L179.3,429.2z"/>
</g>
<g>
	<path d="M436.5,132.6v24.7H330.9v-24.7H436.5z"/>
</g>
<path class="st2" d="M393,543L393,543c-88.4,0-160.1-71.7-160.1-160.1v0c0-88.4,71.7-160.1,160.1-160.1h0
	c88.4,0,160.1,71.7,160.1,160.1v0C553,471.3,481.4,543,393,543z"/>
<g>
	<path class="st3" d="M465.8,345.1v24.7H329.2v-24.7H465.8z M465.8,403.4V428H329.2v-24.7H465.8z"/>
</g>
<path d="M-66.1,432.3c2.4,5.7,0,18.4,0,18.4"/>
</svg>
