<?xml version="1.0" encoding="utf-8"?>
<!-- Generator: Adobe Illustrator 16.0.0, SVG Export Plug-In . SVG Version: 6.00 Build 0)  -->
<!DOCTYPE svg PUBLIC "-//W3C//DTD SVG 1.0//EN" "http://www.w3.org/TR/2001/REC-SVG-20010904/DTD/svg10.dtd">
<svg version="1.0" id="Layer_1" xmlns="http://www.w3.org/2000/svg" xmlns:xlink="http://www.w3.org/1999/xlink" x="0px" y="0px"
	 width="45px" height="45px" viewBox="0 0 62.203 62.204" enable-background="new 0 0 62.203 62.204" xml:space="preserve">
<g>
	<g>
		<path fill="#004CD2" d="M43.263,20.364H17.351c-1.172,0-2.119,0.951-2.119,2.125v17.873c0,1.166,0.947,2.119,2.119,2.119h25.912
			c1.173,0,2.123-0.953,2.123-2.119V22.49C45.386,21.315,44.436,20.364,43.263,20.364L43.263,20.364z M44.378,40.362
			c0,0.61-0.498,1.112-1.115,1.112H17.351c-0.617,0-1.115-0.502-1.115-1.112V22.49c0-0.621,0.498-1.119,1.115-1.119h25.912
			c0.617,0,1.115,0.498,1.115,1.119V40.362z M44.378,40.362"/>
		<path fill="#004CD2" d="M26.606,34.563l-1.828-0.937v-0.194c0.82-0.449,1.393-1.183,1.717-2.19
			c0.486-0.261,0.797-0.764,0.797-1.328v-0.505c0-0.461-0.217-0.896-0.581-1.181c-0.31-1.897-1.639-2.857-3.942-2.857
			c-0.107,0-0.215,0.002-0.317,0.009c-0.436,0.036-1.073-0.005-1.624-0.372c-0.205-0.141-0.357-0.275-0.459-0.397
			c-0.168-0.218-0.449-0.294-0.703-0.189c-0.255,0.103-0.403,0.354-0.367,0.626c0.018,0.186,0.051,0.408,0.099,0.645
			c0.099,0.492,0.099,0.492-0.04,0.784c-0.051,0.11-0.113,0.251-0.188,0.431c-0.169,0.405-0.285,0.853-0.353,1.328
			c-0.36,0.284-0.569,0.716-0.569,1.172v0.505c0,0.564,0.31,1.067,0.796,1.328c0.321,1.007,0.897,1.741,1.717,2.19v0.188
			l-1.894,0.937c-0.692,0.374-1.124,1.099-1.124,1.89v0.667c0,0.4,0,1.344,5.026,1.344c5.025,0,5.025-0.944,5.025-1.344v-0.632
			C27.794,35.665,27.339,34.931,26.606,34.563L26.606,34.563z M26.789,36.998c-0.313,0.189-1.587,0.456-4.021,0.456
			c-2.433,0-3.709-0.267-4.02-0.456v-0.551c0-0.424,0.229-0.808,0.58-0.999l1.934-0.956c0.308-0.149,0.5-0.462,0.5-0.8V32.79
			l-0.307-0.131c-0.758-0.331-1.254-0.958-1.514-1.915l-0.069-0.272l-0.263-0.083c-0.214-0.061-0.359-0.262-0.359-0.475v-0.505
			c0-0.18,0.104-0.351,0.27-0.437l0.238-0.127l0.027-0.267c0.05-0.467,0.156-0.902,0.312-1.289c0.064-0.164,0.121-0.285,0.17-0.388
			c0.17-0.362,0.232-0.554,0.188-0.938c0.594,0.335,1.303,0.479,2.076,0.416c0.074-0.005,0.155-0.008,0.236-0.008
			c1.882,0,2.799,0.681,2.979,2.213l0.031,0.26l0.236,0.121c0.168,0.092,0.272,0.263,0.272,0.443v0.505
			c0,0.213-0.146,0.414-0.359,0.475l-0.265,0.083l-0.07,0.272c-0.26,0.956-0.753,1.583-1.516,1.915l-0.304,0.131v0.909
			c0,0.335,0.187,0.636,0.483,0.791l1.897,0.969c0.392,0.192,0.635,0.589,0.635,1.024V36.998z M26.789,36.998"/>
		<path fill="#004CD2" d="M30.308,27.902h5.025c0.275,0,0.503-0.223,0.503-0.501c0-0.278-0.228-0.502-0.503-0.502h-5.025
			c-0.277,0-0.503,0.225-0.503,0.502C29.805,27.679,30.03,27.902,30.308,27.902L30.308,27.902z M30.308,27.902"/>
		<path fill="#004CD2" d="M37.343,27.902h0.504c0.275,0,0.5-0.223,0.5-0.501c0-0.278-0.225-0.502-0.5-0.502h-0.504
			c-0.277,0-0.506,0.225-0.506,0.502C36.837,27.679,37.065,27.902,37.343,27.902L37.343,27.902z M37.343,27.902"/>
		<path fill="#004CD2" d="M30.812,35.443h-0.505c-0.277,0-0.503,0.226-0.503,0.502s0.226,0.502,0.503,0.502h0.505
			c0.273,0,0.501-0.226,0.501-0.502S31.086,35.443,30.812,35.443L30.812,35.443z M30.812,35.443"/>
		<path fill="#004CD2" d="M33.825,35.443H32.82c-0.281,0-0.505,0.226-0.505,0.502s0.224,0.502,0.505,0.502h1.005
			c0.278,0,0.502-0.226,0.502-0.502S34.104,35.443,33.825,35.443L33.825,35.443z M33.825,35.443"/>
		<path fill="#004CD2" d="M36.339,35.443h-0.503c-0.278,0-0.503,0.226-0.503,0.502s0.225,0.502,0.503,0.502h0.503
			c0.277,0,0.498-0.226,0.498-0.502S36.616,35.443,36.339,35.443L36.339,35.443z M36.339,35.443"/>
		<path fill="#004CD2" d="M39.354,35.443h-1.008c-0.275,0-0.5,0.226-0.5,0.502s0.225,0.502,0.5,0.502h1.008
			c0.277,0,0.5-0.226,0.5-0.502S39.632,35.443,39.354,35.443L39.354,35.443z M39.354,35.443"/>
		<path fill="#004CD2" d="M41.006,35.585c-0.091,0.1-0.144,0.23-0.144,0.36c0,0.132,0.053,0.256,0.144,0.356
			c0.095,0.092,0.228,0.146,0.358,0.146s0.26-0.054,0.357-0.146c0.088-0.1,0.146-0.224,0.146-0.356c0-0.13-0.058-0.26-0.146-0.36
			C41.53,35.403,41.192,35.403,41.006,35.585L41.006,35.585z M41.006,35.585"/>
		<path fill="#004CD2" d="M41.364,29.914H30.308c-0.277,0-0.503,0.227-0.503,0.503c0,0.278,0.226,0.507,0.503,0.507h11.057
			c0.277,0,0.503-0.229,0.503-0.507C41.867,30.141,41.642,29.914,41.364,29.914L41.364,29.914z M41.364,29.914"/>
		<path fill="#004CD2" d="M41.364,32.929H30.308c-0.277,0-0.503,0.224-0.503,0.502c0,0.279,0.226,0.508,0.503,0.508h11.057
			c0.277,0,0.503-0.229,0.503-0.508C41.867,33.153,41.642,32.929,41.364,32.929L41.364,32.929z M41.364,32.929"/>
		<path fill="#FFD712" d="M26.789,36.998c-0.313,0.189-1.587,0.456-4.021,0.456c-2.433,0-3.709-0.267-4.02-0.456v-0.551
			c0-0.424,0.229-0.808,0.58-0.999l1.934-0.956c0.308-0.149,0.5-0.462,0.5-0.8V32.79l-0.307-0.131
			c-0.758-0.331-1.254-0.958-1.514-1.915l-0.069-0.272l-0.263-0.083c-0.214-0.061-0.359-0.262-0.359-0.475v-0.505
			c0-0.18,0.104-0.351,0.27-0.437l0.238-0.127l0.027-0.267c0.05-0.467,0.156-0.902,0.312-1.289c0.064-0.164,0.121-0.285,0.17-0.388
			c0.17-0.362,0.232-0.554,0.188-0.938c0.594,0.335,1.303,0.479,2.076,0.416c0.074-0.005,0.155-0.008,0.236-0.008
			c1.882,0,2.799,0.681,2.979,2.213l0.031,0.26l0.236,0.121c0.168,0.092,0.272,0.263,0.272,0.443v0.505
			c0,0.213-0.146,0.414-0.359,0.475l-0.265,0.083l-0.07,0.272c-0.26,0.956-0.753,1.583-1.516,1.915l-0.304,0.131v0.909
			c0,0.335,0.187,0.636,0.483,0.791l1.897,0.969c0.392,0.192,0.635,0.589,0.635,1.024V36.998z"/>
	</g>
</g>
</svg>
