<svg xmlns="http://www.w3.org/2000/svg" width="25" height="25" fill="none"><path fill="#252424" d="M4.802 16.373c.148-.383.221-.575.347-.662a.5.5 0 0 1 .38-.08c.15.028.295.173.586.463l2.259 2.26c.29.29.435.434.464.585a.5.5 0 0 1-.08.38c-.088.126-.28.2-.663.347l-5.35 2.058 2.057-5.351Z" opacity=".12"/><path stroke="#252424" stroke-linecap="round" stroke-linejoin="round" stroke-width="2" d="m2.744 21.724 5.55-2.135c.354-.136.532-.204.698-.293.147-.08.288-.171.42-.274.15-.115.284-.25.552-.519l11.28-11.28a2.829 2.829 0 0 0-4-4l-11.28 11.28c-.268.27-.403.404-.518.553a2.996 2.996 0 0 0-.274.42c-.089.166-.157.343-.294.698l-2.134 5.55Zm0 0 2.058-5.351c.148-.383.221-.575.347-.662a.5.5 0 0 1 .38-.08c.15.028.296.173.586.463l2.259 2.26c.29.29.435.434.464.585a.5.5 0 0 1-.08.38c-.088.126-.28.2-.663.347l-5.35 2.058Z"/></svg>