<?xml version="1.0" encoding="UTF-8"?>
<!DOCTYPE svg PUBLIC "-//W3C//DTD SVG 1.1//EN" "http://www.w3.org/Graphics/SVG/1.1/DTD/svg11.dtd">
<!-- Creator: CorelDRAW -->
<svg xmlns="http://www.w3.org/2000/svg" xml:space="preserve" width="45px" height="45px" style="shape-rendering:geometricPrecision; text-rendering:geometricPrecision; image-rendering:optimizeQuality; fill-rule:evenodd; clip-rule:evenodd"
viewBox="0 0 0.870843 0.87082"
 xmlns:xlink="http://www.w3.org/1999/xlink">
 <defs>
  <style type="text/css">
   <![CDATA[
    .str0 {stroke:#EFF2F7;stroke-width:0.40316}
    .fil7 {fill:none;fill-rule:nonzero}
    .fil10 {fill:#004CD2}
    .fil9 {fill:#FFD712}
    .fil1 {fill:white}
    .fil8 {fill:#FEFEFE;fill-rule:nonzero}
    .fil0 {fill:black;fill-rule:nonzero}
    .fil6 {fill:#4C4C4C;fill-rule:nonzero}
    .fil3 {fill:#BAC4D6;fill-rule:nonzero}
    .fil4 {fill:#D69F87;fill-rule:nonzero}
    .fil5 {fill:#E5E5E5;fill-rule:nonzero}
    .fil2 {fill:white;fill-rule:nonzero}
   ]]>
  </style>
  <clipPath id="id0" style="clip-rule:nonzero">
   <path d="M-9.80861 -63.9643l2.5931 0 0 -4.85726 -2.5931 0 0 4.85726z"/>
  </clipPath>
  <clipPath id="id1" style="clip-rule:nonzero">
   <rect x="17.1614" y="-11.7925" width="3.63808" height="6.92786"/>
  </clipPath>
 </defs>
<symbol id="Symbol1" viewBox="2.94742 -6.85824 0.0162736 0.0471523">
 <path class="fil0" d="M2.96159 -6.81559c-0.00991958,-0.0119309 -0.0149936,-0.027176 -0.0140337,-0.0426496l0 0.0044341c-0.000959959,0.0155422 0.00411411,0.0307873 0.0140337,0.0427182l0.00210277 -0.00207991 -0.00210277 -0.00242275z"/>
</symbol>
<symbol id="Fm13-41-0" viewBox="-7.9859 -68.2414 0.0965673 0.0748768">
 <path class="fil1" d="M-7.9859 -68.2244l0.0482951 0.0578261 0.0482722 -0.0578032 0 -4.57123e-005c-0.000891391,-0.000754254 -0.0195649,-0.0162736 -0.0464437,-0.0170278l-0.00367984 0c-0.0139194,0.000342843 -0.0298044,0.00473123 -0.0464437,0.0170507z"/>
</symbol>
<symbol id="Fm14-42-0" viewBox="-7.78744 -68.2442 0.0479294 0.0800652">
 <path class="fil2" d="M-7.77149 -68.1743l0.00532549 -0.0218505 -0.00959959 0 0.00694827 -0.0266731 0.0181249 0 -0.00749682 0.016045 0.0107195 0 -0.0240218 0.0324786zm0.0319758 0.010171l0 -0.0693456 -0.013348 0 0 -0.0107195 -0.0212791 0 0 0.0107195 -0.0133023 0 0 0.0693456 0.0479294 0z"/>
</symbol>
<symbol id="Fm0-148-0" viewBox="-9.80861 -68.8215 2.5931 4.85726">
 <g style="clip-path:url(#id0)">
  <image transform="matrix(32.158 0 0 60.2362 713.746 48.5329)" x="-22.5" y="-1.94824" width="0.0806366" height="0.0806366" xlink:href="pf+esic+Professional-taxregistration-svg_Images\pf+esic+Professional-taxregistration-svg_ImgID1.png"/>
 </g>
</symbol>
<symbol id="Symbol8" viewBox="20.0301 -11.0295 0.0698256 0.116429">
 <path class="fil2" d="M20.0533 -10.9279l0.00781681 -0.0317701 -0.0140108 0 0.0101481 -0.0387869 0.026376 0 -0.0109024 0.0232904 0.0155651 0 -0.0349928 0.0472666zm-0.0232219 0.0147879l0.0698256 0 0 -0.100841 -0.0194277 0 0 -0.0155879 -0.0310387 0 0 0.0155879 -0.0193592 0 0 0.100841z"/>
</symbol>
<symbol id="Fm15-43-0" viewBox="-9.51971 -65.1537 2.00522 0.262846">
 <path class="fil3" d="M-9.51971 -65.1537l0 0.218574c0,0.0244332 0.0198392,0.0442724 0.044181,0.0442724l1.91676 0c0.0244332,0 0.0442724,-0.0198392 0.0442724,-0.0442724l0 -0.218574 -2.00522 0z"/>
</symbol>
<symbol id="Fm0-36-0" viewBox="2.94742 -6.85824 0.0162736 0.0471523">
 <path class="fil0" d="M2.96159 -6.81559c-0.00991958,-0.0119309 -0.0149936,-0.027176 -0.0140337,-0.0426496l0 0.0044341c-0.000959959,0.0155422 0.00411411,0.0307873 0.0140337,0.0427182l0.00210277 -0.00207991 -0.00210277 -0.00242275z"/>
</symbol>
<symbol id="Symbol4" viewBox="2.88923 -7.58276 0.701661 0.391755">
 <path class="fil2" d="M2.96664 -7.56829l0.593849 0.337608c0.0157936,0.00781681 0.027016,0.0224219 0.0303987,0.0396783 -0.00146279,-0.0191078 -0.0130737,-0.0358156 -0.0303987,-0.043861l-0.593849 -0.3377c-0.0426725,-0.0240904 -0.0774138,-0.00393126 -0.0774138,0.0448438l0 0.00459409c0.000891391,-0.0491865 0.0350842,-0.0691856 0.0774138,-0.0451638z"/>
</symbol>
<symbol id="Fm7-49-0" viewBox="20.0301 -11.0295 0.0698256 0.116429">
 <path class="fil2" d="M20.0533 -10.9279l0.00781681 -0.0317701 -0.0140108 0 0.0101481 -0.0387869 0.026376 0 -0.0109024 0.0232904 0.0155651 0 -0.0349928 0.0472666zm-0.0232219 0.0147879l0.0698256 0 0 -0.100841 -0.0194277 0 0 -0.0155879 -0.0310387 0 0 0.0155879 -0.0193592 0 0 0.100841z"/>
</symbol>
<symbol id="Fm0-155-0" viewBox="17.1614 -11.7925 3.63808 6.92786">
 <g style="clip-path:url(#id1)">
  <image transform="matrix(45.1172 0 0 85.9146 1032.3 155.589)" x="-22.5" y="-1.94824" width="0.0806366" height="0.0806366" xlink:href="pf+esic+Professional-taxregistration-svg_Images\pf+esic+Professional-taxregistration-svg_ImgID2.png"/>
 </g>
</symbol>
<symbol id="Fm8-50-0" viewBox="17.5098 -6.53307 2.91741 0.382429">
 <path class="fil3" d="M17.5098 -6.53307l0 0.318089c0,0.0355642 0.0287759,0.0643401 0.0643401,0.0643401l2.78873 0c0.0355413,0 0.0643401,-0.0287759 0.0643401,-0.0643401l0 -0.318089 -2.91741 0z"/>
</symbol>
<symbol id="Fm2-44-0" viewBox="3.40811 -7.19103 0.182804 0.128612">
 <path class="fil0" d="M3.56051 -7.15142l-0.152405 0.0861906 0.00283416 0.00281131 0.149571 -0.0847278c0.017325,-0.00806823 0.0288673,-0.0249361 0.0303987,-0.0438838 -0.00338271,0.0171878 -0.0146737,0.0317701 -0.0303987,0.0396097z"/>
</symbol>
<symbol id="Symbol7" viewBox="19.7415 -11.0255 0.14052 0.108955">
 <path class="fil1" d="M19.7415 -11.0006l0.0702141 0.0840878 0.0703056 -0.0841107c0,0 -0.0293702,-0.0252104 -0.0715398,-0.0248218 -0.0205934,0.000182849 -0.0442267,0.00649115 -0.0689799,0.0247989l0 4.57123e-005z"/>
</symbol>
<symbol id="Fm4-46-0" viewBox="14.6846 -7.71908 3.23243 4.43005">
 <path class="fil4" d="M17.4039 -7.11789c0,0 -0.0581461,0.163444 -0.0581461,0.205866l0 1.48279c0,0 0.0179878,0.0957902 0.108133,0.134577 0,0 0.163284,0.0774824 0.463226,0.0754025 0,0 -0.362362,0.440393 -0.996209,0.392098 -0.059266,-0.00450267 -0.677868,0.464849 -1.98515,1.53813 0,0 -0.547634,-0.12692 -0.0253018,-0.57289 0.17165,-0.146577 1.72276,-1.12036 1.76027,-1.13819 0.455478,-0.217934 0.656726,-0.571747 0.487819,-0.927983 0,0 0.243418,-0.586924 -0.0476551,-1.3596 0,0 0.198986,-0.391069 0.220196,-0.431387 0,0 0.0461237,0.105961 0.0334614,0.186666 0,0 0.0141023,0.2652 0.0393583,0.414519z"/>
</symbol>
<symbol id="Symbol9" viewBox="17.5098 -6.53307 2.91741 0.382429">
 <path class="fil3" d="M17.5098 -6.53307l0 0.318089c0,0.0355642 0.0287759,0.0643401 0.0643401,0.0643401l2.78873 0c0.0355413,0 0.0643401,-0.0287759 0.0643401,-0.0643401l0 -0.318089 -2.91741 0z"/>
</symbol>
<symbol id="Symbol5" viewBox="14.6846 -7.71908 3.23243 4.43005">
 <path class="fil4" d="M17.4039 -7.11789c0,0 -0.0581461,0.163444 -0.0581461,0.205866l0 1.48279c0,0 0.0179878,0.0957902 0.108133,0.134577 0,0 0.163284,0.0774824 0.463226,0.0754025 0,0 -0.362362,0.440393 -0.996209,0.392098 -0.059266,-0.00450267 -0.677868,0.464849 -1.98515,1.53813 0,0 -0.547634,-0.12692 -0.0253018,-0.57289 0.17165,-0.146577 1.72276,-1.12036 1.76027,-1.13819 0.455478,-0.217934 0.656726,-0.571747 0.487819,-0.927983 0,0 0.243418,-0.586924 -0.0476551,-1.3596 0,0 0.198986,-0.391069 0.220196,-0.431387 0,0 0.0461237,0.105961 0.0334614,0.186666 0,0 0.0141023,0.2652 0.0393583,0.414519z"/>
</symbol>
<symbol id="Fm9-51-0" viewBox="-6.88352 -65.2313 1.1328 1.17529">
 <path class="fil5" d="M-5.9448 -64.5615c-0.00162279,-0.000891391 -0.00322272,-0.00162279 -0.00475408,-0.00251418 0.00975958,-0.00249132 0.0195877,-0.00546262 0.0294159,-0.00934817 0.0436324,-0.0169364 0.0857106,-0.0357928 0.117412,-0.0698256 0.0475637,-0.0510378 0.0586946,-0.104498 0.0485465,-0.17021 -0.0105824,-0.0675628 -0.0871734,-0.123126 -0.144017,-0.158439 -0.00338271,-0.00765682 -0.00733683,-0.0150851 -0.0117709,-0.0220105 -0.0323415,-0.0503293 -0.0946702,-0.0844993 -0.154416,-0.0989443 -0.00838821,-0.00201134 -0.016685,-0.00354271 -0.0249132,-0.00459409 -0.0167764,-0.0468323 -0.0536891,-0.0892533 -0.0991729,-0.111515 -0.0870134,-0.0425582 -0.174484,-0.016845 -0.258915,0.0141937 -0.0683628,0.0250732 -0.115378,0.0827393 -0.0942588,0.153936 0.00918818,0.0311072 0.0349242,0.060066 0.0670143,0.0773224 -0.000731397,0.0037027 -0.00121138,0.00724541 -0.00153136,0.0108795 -0.00580547,0.00233133 -0.0113824,0.00484551 -0.0170278,0.00774824 -0.0466723,0.0243418 -0.0790823,0.0675628 -0.0953788,0.115447 -0.0029713,-0.000228562 -0.00612545,-0.00047998 -0.00838821,-0.000708541 -0.00226276,-0.000319986 -0.0044341,-0.000731397 -0.00660543,-0.00114281 -0.0607974,-0.0100796 -0.119903,-0.0119995 -0.174164,0.0202506 -0.0778024,0.0461923 -0.114418,0.135948 -0.104087,0.219465 0.00692542,0.0560433 0.0258732,0.105481 0.0607974,0.143857 0.00233133,0.0729797 0.0423982,0.13908 0.107721,0.181249 -0.000502836,0.00411411 -0.000891391,0.00831965 -0.00114281,0.0125023 -0.00274274,0.054192 0.0347642,0.0942588 0.0832879,0.113298 0.000571404,0.000731397 0.00121138,0.00137137 0.00178278,0.00201134 0.0156336,0.0169364 0.0357928,0.0292788 0.0551519,0.0422611 0.0436324,0.0290959 0.102076,0.0353813 0.153685,0.0399069 0.0303073,0.00258275 0.0586261,-0.00749682 0.081368,-0.0246847 0.0526378,0.00338271 0.0996529,-0.00756539 0.150211,-0.0278845 0.027816,-0.0112224 0.0506264,-0.0325015 0.0715169,-0.053872 0.0420096,0.0131423 0.0850707,0.0133937 0.133046,0.00532549 0.0976415,-0.016365 0.206734,-0.111515 0.19318,-0.209797 -0.0122509,-0.0891848 -0.0717455,-0.149822 -0.153593,-0.194163z"/>
</symbol>
<symbol id="Fm5-47-0" viewBox="17.3321 -11.6217 3.28695 6.57881">
 <path class="fil6" d="M20.5867 -10.8123l0 4.95988 0 0.439364c0,0.199557 -0.122235,0.234641 -0.270617,0.256652 -0.0507864,0.00749682 -0.152314,0.0232219 -0.271326,0.0350842 -0.101344,0.0102396 -0.203511,0.017165 -0.302844,0.0240218 -0.409445,0.0282959 -0.766162,0.0212105 -0.766162,0.0212105l-0.000159993 0c0,0 -0.356785,0.00708541 -0.76623,-0.0212105 -0.0993558,-0.00685685 -0.2015,-0.0137823 -0.302936,-0.0240218 -0.119012,-0.0118624 -0.220448,-0.0275874 -0.271257,-0.0350842 -0.148428,-0.0220105 -0.270663,-0.0570947 -0.270663,-0.256652l0 -0.439364 0 -4.95988 0 -0.439273c0,-0.19958 0.122235,-0.234641 0.270663,-0.256743 0.0508093,-0.00756539 0.152245,-0.0231304 0.271257,-0.0350614 0.101436,-0.010171 0.20358,-0.0170964 0.302936,-0.0239533 0.409445,-0.0283874 0.76623,-0.0212105 0.76623,-0.0212105l0.000159993 0c0,0 0.356716,-0.00717684 0.766162,0.0212105 0.0993329,0.00685685 0.2015,0.0137823 0.302844,0.0239533 0.119012,0.0119309 0.220539,0.027496 0.271326,0.0350614 0.148382,0.0221019 0.270617,0.0571633 0.270617,0.256743l0 0.439273zm-0.26584 -0.727946l-0.0127537 -0.00201134c-0.0558833,-0.00829679 -0.149571,-0.0222619 -0.260103,-0.03337 -0.0979844,-0.00985101 -0.196906,-0.0167079 -0.292628,-0.0232219l-0.0111995 -0.000822822c-0.277382,-0.0192677 -0.532092,-0.0220105 -0.65924,-0.0220105 -0.0642715,0 -0.104178,0.000731397 -0.109252,0.000731397 -0.00525692,0 -0.0451638,-0.000731397 -0.109344,-0.000731397 -0.127149,0 -0.381949,0.00274274 -0.65924,0.0220105l-0.0113824 0.000822822c-0.0956073,0.00651401 -0.194483,0.0133709 -0.292445,0.0232219 -0.110532,0.0111081 -0.204243,0.0250732 -0.260195,0.03337l-0.0127309 0.00201134c-0.150874,0.0223305 -0.298182,0.0629687 -0.298182,0.288673l0 5.83852c0,0.225613 0.147308,0.26632 0.298182,0.288673l0.0130509 0.00191992c0.0557919,0.00838821 0.149502,0.0224219 0.259875,0.0333929 0.0979615,0.00982815 0.196837,0.016685 0.292536,0.0233819l0.0112909 0.000639973c0.277291,0.0192677 0.532,0.0221705 0.659149,0.0221705 0.0642715,0 0.104178,-0.000799966 0.109435,-0.000891391 0.00507407,9.14247e-005 0.0450724,0.000891391 0.109252,0.000891391l0.000159993 0c0.12708,0 0.381789,-0.00290273 0.65908,-0.0221705l0.0112909 -0.000639973c0.0956988,-0.00669686 0.194552,-0.0135537 0.292536,-0.0233819 0.110372,-0.010971 0.2039,-0.0250046 0.259875,-0.0333929l0.0129823 -0.00191992c0.150942,-0.0223533 0.29825,-0.0630602 0.29825,-0.288673l0 -5.83852c0,-0.225705 -0.147308,-0.266343 -0.29825,-0.288673z"/>
</symbol>
<symbol id="Fm10-38-0" viewBox="-11.5107 -64.6954 0.550239 1.11184">
 <path class="fil7 str0" d="M-11.2371 -64.5919c0,0 -0.217774,0.363962 0.103218,0.905561"/>
</symbol>
<symbol id="Symbol3" viewBox="3.40811 -7.19103 0.182804 0.128612">
 <path class="fil0" d="M3.56051 -7.15142l-0.152405 0.0861906 0.00283416 0.00281131 0.149571 -0.0847278c0.017325,-0.00806823 0.0288673,-0.0249361 0.0303987,-0.0438838 -0.00338271,0.0171878 -0.0146737,0.0317701 -0.0303987,0.0396097z"/>
</symbol>
<symbol id="Fm12-40-0" viewBox="-9.6419 -68.6512 2.2592 4.52175">
 <path class="fil6" d="M-7.40494 -68.0949l0 3.40893 0 0.301976c0,0.13716 -0.0840193,0.16125 -0.186026,0.176427 -0.0349014,0.00514264 -0.104567,0.0159536 -0.186415,0.0240904 -0.0696656,0.00701684 -0.139903,0.0117938 -0.208197,0.0164564 -0.281405,0.0195192 -0.526606,0.0146051 -0.526606,0.0146051l-0.000159993 0c0,0 -0.245201,0.00491408 -0.526606,-0.0146051 -0.0682942,-0.00466266 -0.138508,-0.0094396 -0.208174,-0.0164564 -0.0818479,-0.0081368 -0.151514,-0.0189478 -0.186506,-0.0240904 -0.102007,-0.0151765 -0.185935,-0.0392669 -0.185935,-0.176427l0 -0.301976 0 -3.40893 0 -0.302044c0,-0.137068 0.0839278,-0.161273 0.185935,-0.176335 0.0349928,-0.00525692 0.104727,-0.0159765 0.186506,-0.0241133 0.0696656,-0.00701684 0.13988,-0.0117709 0.208174,-0.016525 0.281405,-0.0194506 0.526606,-0.0145137 0.526606,-0.0145137l0.000159993 0c0,0 0.245201,-0.00493693 0.526606,0.0145137 0.0682942,0.00475408 0.138531,0.00950817 0.208197,0.016525 0.0818479,0.0081368 0.151514,0.0188563 0.186415,0.0241133 0.102007,0.0150622 0.186026,0.0392669 0.186026,0.176335l0 0.302044zm-0.182712 -0.50039l-0.00879962 -0.0013028c-0.0384669,-0.00571404 -0.102716,-0.0154051 -0.178758,-0.0229704 -0.0674028,-0.00678828 -0.135377,-0.0114509 -0.201089,-0.016045l-0.00774824 -0.00047998c-0.190598,-0.0132337 -0.365744,-0.0151765 -0.453146,-0.0151765 -0.0441124,0 -0.0715169,0.00047998 -0.0750597,0.00047998 -0.00356556,0 -0.0310387,-0.00047998 -0.0751511,-0.00047998 -0.087402,0 -0.262457,0.00194277 -0.453078,0.0151765l-0.00781681 0.00047998c-0.0657115,0.00459409 -0.133686,0.00925675 -0.201089,0.016045 -0.075951,0.00756539 -0.140314,0.0172564 -0.17869,0.0229704l-0.00877677 0.0013028c-0.10379,0.0153822 -0.205043,0.043381 -0.205043,0.198346l0 4.01295c0,0.155056 0.101253,0.183032 0.205043,0.198437l0.00893676 0.00137137c0.0383755,0.00571404 0.102738,0.0153136 0.17853,0.0229019 0.0674028,0.00676543 0.135377,0.0114509 0.201089,0.0159536l0.00781681 0.000571404c0.19062,0.0132109 0.365676,0.0152451 0.453078,0.0152451 0.0441124,0 0.0715855,-0.000571404 0.0751511,-0.000662829 0.00354271,9.14247e-005 0.0310387,0.000662829 0.0751511,0.000662829l6.85685e-005 0c0.087402,0 0.262457,-0.0020342 0.452986,-0.0152451l0.00781681 -0.000571404c0.0657343,-0.00450267 0.133686,-0.00918818 0.20102,-0.0159536 0.0758825,-0.00758825 0.140131,-0.0171878 0.178598,-0.0229019l0.00895962 -0.00137137c0.103767,-0.0154051 0.204951,-0.043381 0.204951,-0.198437l0 -4.01295c0,-0.154965 -0.101184,-0.182964 -0.204951,-0.198346z"/>
</symbol>
<symbol id="Fm6-48-0" viewBox="19.7415 -11.0255 0.14052 0.108955">
 <path class="fil1" d="M19.7415 -11.0006l0.0702141 0.0840878 0.0703056 -0.0841107c0,0 -0.0293702,-0.0252104 -0.0715398,-0.0248218 -0.0205934,0.000182849 -0.0442267,0.00649115 -0.0689799,0.0247989l0 4.57123e-005z"/>
</symbol>
<symbol id="Fm1-37-0" viewBox="2.90353 -7.06521 0.50823 0.265909">
 <path class="fil0" d="M3.40813 -7.06521l-0.441535 0.251395c-0.0180564,0.0134851 -0.042901,0.0134851 -0.060866,0l-0.00219419 0.00210277 0.00219419 0.00217134c0.0179649,0.0136451 0.042901,0.0136451 0.060866,0l0.44517 -0.252926 -0.00363413 -0.00274274z"/>
</symbol>
<symbol id="Symbol6" viewBox="17.3321 -11.6217 3.28695 6.57881">
 <path class="fil6" d="M20.5867 -10.8123l0 4.95988 0 0.439364c0,0.199557 -0.122235,0.234641 -0.270617,0.256652 -0.0507864,0.00749682 -0.152314,0.0232219 -0.271326,0.0350842 -0.101344,0.0102396 -0.203511,0.017165 -0.302844,0.0240218 -0.409445,0.0282959 -0.766162,0.0212105 -0.766162,0.0212105l-0.000159993 0c0,0 -0.356785,0.00708541 -0.76623,-0.0212105 -0.0993558,-0.00685685 -0.2015,-0.0137823 -0.302936,-0.0240218 -0.119012,-0.0118624 -0.220448,-0.0275874 -0.271257,-0.0350842 -0.148428,-0.0220105 -0.270663,-0.0570947 -0.270663,-0.256652l0 -0.439364 0 -4.95988 0 -0.439273c0,-0.19958 0.122235,-0.234641 0.270663,-0.256743 0.0508093,-0.00756539 0.152245,-0.0231304 0.271257,-0.0350614 0.101436,-0.010171 0.20358,-0.0170964 0.302936,-0.0239533 0.409445,-0.0283874 0.76623,-0.0212105 0.76623,-0.0212105l0.000159993 0c0,0 0.356716,-0.00717684 0.766162,0.0212105 0.0993329,0.00685685 0.2015,0.0137823 0.302844,0.0239533 0.119012,0.0119309 0.220539,0.027496 0.271326,0.0350614 0.148382,0.0221019 0.270617,0.0571633 0.270617,0.256743l0 0.439273zm-0.26584 -0.727946l-0.0127537 -0.00201134c-0.0558833,-0.00829679 -0.149571,-0.0222619 -0.260103,-0.03337 -0.0979844,-0.00985101 -0.196906,-0.0167079 -0.292628,-0.0232219l-0.0111995 -0.000822822c-0.277382,-0.0192677 -0.532092,-0.0220105 -0.65924,-0.0220105 -0.0642715,0 -0.104178,0.000731397 -0.109252,0.000731397 -0.00525692,0 -0.0451638,-0.000731397 -0.109344,-0.000731397 -0.127149,0 -0.381949,0.00274274 -0.65924,0.0220105l-0.0113824 0.000822822c-0.0956073,0.00651401 -0.194483,0.0133709 -0.292445,0.0232219 -0.110532,0.0111081 -0.204243,0.0250732 -0.260195,0.03337l-0.0127309 0.00201134c-0.150874,0.0223305 -0.298182,0.0629687 -0.298182,0.288673l0 5.83852c0,0.225613 0.147308,0.26632 0.298182,0.288673l0.0130509 0.00191992c0.0557919,0.00838821 0.149502,0.0224219 0.259875,0.0333929 0.0979615,0.00982815 0.196837,0.016685 0.292536,0.0233819l0.0112909 0.000639973c0.277291,0.0192677 0.532,0.0221705 0.659149,0.0221705 0.0642715,0 0.104178,-0.000799966 0.109435,-0.000891391 0.00507407,9.14247e-005 0.0450724,0.000891391 0.109252,0.000891391l0.000159993 0c0.12708,0 0.381789,-0.00290273 0.65908,-0.0221705l0.0112909 -0.000639973c0.0956988,-0.00669686 0.194552,-0.0135537 0.292536,-0.0233819 0.110372,-0.010971 0.2039,-0.0250046 0.259875,-0.0333929l0.0129823 -0.00191992c0.150942,-0.0223533 0.29825,-0.0630602 0.29825,-0.288673l0 -5.83852c0,-0.225705 -0.147308,-0.266343 -0.29825,-0.288673z"/>
</symbol>
<symbol id="Fm3-45-0" viewBox="2.88923 -7.58276 0.701661 0.391755">
 <path class="fil2" d="M2.96664 -7.56829l0.593849 0.337608c0.0157936,0.00781681 0.027016,0.0224219 0.0303987,0.0396783 -0.00146279,-0.0191078 -0.0130737,-0.0358156 -0.0303987,-0.043861l-0.593849 -0.3377c-0.0426725,-0.0240904 -0.0774138,-0.00393126 -0.0774138,0.0448438l0 0.00459409c0.000891391,-0.0491865 0.0350842,-0.0691856 0.0774138,-0.0451638z"/>
</symbol>
<symbol id="Fm11-39-0" viewBox="-11.4615 -65.969 2.22171 3.03409">
 <path class="fil4" d="M-9.59255 -65.5557c0,0 -0.0399983,0.112407 -0.0399983,0.141503l0 1.0192c0,0 0.0123423,0.0657801 0.0743511,0.0924761 0,0 0.112155,0.0532092 0.318409,0.0517692 0,0 -0.249064,0.291965 -0.684725,0.258732 -0.0407068,-0.00313129 -0.465969,0.319461 -1.36444,1.05717 0,0 -0.376373,-0.087242 -0.017325,-0.393812 0.117961,-0.100773 1.18406,-0.759145 1.2098,-0.771464 0.313084,-0.149731 0.451364,-0.39292 0.335346,-0.637801 0,0 0.167216,-0.403411 -0.0328215,-0.93452 0,0 0.13684,-0.268674 0.151354,-0.29649 0,0 0.0316786,0.0728883 0.023039,0.128383 0,0 0.00969102,0.182301 0.027016,0.284856z"/>
</symbol>
<symbol id="Symbol2" viewBox="2.90353 -7.06521 0.50823 0.265909">
 <path class="fil0" d="M3.40813 -7.06521l-0.441535 0.251395c-0.0180564,0.0134851 -0.042901,0.0134851 -0.060866,0l-0.00219419 0.00210277 0.00219419 0.00217134c0.0179649,0.0136451 0.042901,0.0136451 0.060866,0l0.44517 -0.252926 -0.00363413 -0.00274274z"/>
</symbol>
 <g id="Layer_x0020_1">
  <metadata id="CorelCorpID_0Corel-Layer"/>
  <g id="_895561312">
   <path id="_895569952" class="fil8" d="M0.870843 0.435433c0,0.240538 -0.194986,0.435387 -0.435387,0.435387 -0.240493,0 -0.435456,-0.194849 -0.435456,-0.435387 0,-0.24047 0.194963,-0.435433 0.435456,-0.435433 0.240401,0 0.435387,0.194963 0.435387,0.435433z"/>
   <path id="_895569736" class="fil9" d="M0.268537 0.392303l0.192563 0c0.0262389,0 0.0477008,0.0214619 0.0477008,0.0477008l0 0.0469466c0,0.0177592 -0.0145137,0.0322729 -0.0322729,0.0322729l-0.193135 0c-0.00818251,0 -0.0148565,-0.006674 -0.0148565,-0.0148565l0 -0.112064z"/>
   <path id="_895568776" class="fil10" d="M0.577347 0.37811c0,-0.0214619 -0.00836536,-0.0416439 -0.0235419,-0.0568433l-0.0502379 -0.050215c-0.0151765,-0.0151994 -0.0353585,-0.0235419 -0.0568433,-0.0235419l0 0 -0.0902819 0c-0.00271988,0 -0.00493693,0.00219419 -0.00493693,0.00493693 0,0.00271988 0.00221705,0.00493693 0.00493693,0.00493693l0.0794938 0c0.0206391,0 0.0374155,0.0167764 0.0374155,0.0374155l0 0.0258046c0,0.0172107 0.0140108,0.0311987 0.0312215,0.0311987l0.0257818 0c0.0205934,0 0.037347,0.0167307 0.0374155,0.0373013l0 0.164473c0,0.0117709 -0.00955388,0.0213248 -0.0213248,0.0213248l-0.215808 0c-0.00973673,0 -0.0181249,-0.0064683 -0.0205934,-0.0158165l-0.000228562 -0.0304901 0.160245 0c0.0217591,0 0.0394497,-0.0176907 0.0394497,-0.0394497l0 -0.0106738c0,-0.00271988 -0.00221705,-0.00493693 -0.00493693,-0.00493693 -0.00274274,0 -0.00493693,0.00221705 -0.00493693,0.00493693l0 0.0106738c0,0.0162964 -0.0132794,0.0295759 -0.0295759,0.0295759l-0.177112 0c-0.00959959,0 -0.0173935,-0.00781681 -0.0173935,-0.0174164l0 -0.106921c0.00473123,0.0039084 0.0107881,0.00628545 0.0173935,0.00628545l0.177112 0c0.0162964,0 0.0295759,0.0132566 0.0295759,0.029553l0 0.0284788c0,0.00274274 0.00219419,0.00493693 0.00493693,0.00493693 0.00271988,0 0.00493693,-0.00219419 0.00493693,-0.00493693l0 -0.0284788c0,-0.0217362 -0.0176907,-0.0394497 -0.0394497,-0.0394497l-0.160747 0 0 -0.112064c0,-0.0117481 0.00957673,-0.0213248 0.0213248,-0.0213248l0.00605688 0c0.00271988,0 0.00493693,-0.00221705 0.00493693,-0.00493693 0,-0.00274274 -0.00221705,-0.00493693 -0.00493693,-0.00493693l-0.00605688 0c-0.0172107,0 -0.0311987,0.013988 -0.0311987,0.0311987l0 0.06738 -0.00649115 0c-0.0150394,0 -0.0272903,0.0122509 -0.0272903,0.0272903l0 0.127926c0,0.0150622 0.0122509,0.0272903 0.0272903,0.0272903l0.00699399 0 0.000205706 0.031153c2.28562e-005,0.000365699 4.57123e-005,0.000731397 0.000137137,0.0010971 0.00338271,0.0141023 0.0158622,0.0239533 0.030353,0.0239533l0.215808 0c0.0172107,0 0.0312215,-0.0140108 0.0312215,-0.0312215l-0.000319986 -0.175467zm-0.0473123 -0.0361813l-0.0257818 0c-0.0117709,0 -0.0213248,-0.00957673 -0.0213248,-0.0213248l0 -0.0258046c0,-0.013348 -0.00555405,-0.0254161 -0.0144908,-0.0340328 0.010491,0.00338271 0.0201134,0.00923389 0.0281588,0.0172564l0.050215 0.0502379c0.00802251,0.00802251 0.0138737,0.017645 0.0172564,0.0281359 -0.00859392,-0.00891391 -0.0206848,-0.014468 -0.0340328,-0.014468z"/>
   <path id="_895569112" class="fil10" d="M0.423502 0.433124c0.00274274,0 0.00493693,-0.00221705 0.00493693,-0.00493693 0,-0.00274274 -0.00219419,-0.00493693 -0.00493693,-0.00493693l-0.0254618 0c-0.00274274,0 -0.00493693,0.00219419 -0.00493693,0.00493693l0 0.0628545c0,0.00271988 0.00219419,0.00493693 0.00493693,0.00493693 0.00271988,0 0.00493693,-0.00221705 0.00493693,-0.00493693l0 -0.0270846 0.0185135 0c0.00271988,0 0.00493693,-0.00221705 0.00493693,-0.00493693 0,-0.00274274 -0.00221705,-0.00495979 -0.00493693,-0.00495979l-0.0185135 0 0 -0.0209362 0.0205248 0z"/>
   <path id="_895569376" class="fil10" d="M0.343962 0.422771c-0.0013028,0 -0.00258275,0.000525692 -0.00349699,0.00146279 -0.000914247,0.000914247 -0.00143994,0.00217134 -0.00143994,0.00347414 0,0 0,0 0,0l0 0.0633344c0,0.00271988 0.00221705,0.00493693 0.00493693,0.00493693 0.00271988,0 0.00493693,-0.00221705 0.00493693,-0.00493693l0 -0.0226047c0.00411411,-2.28562e-005 0.00978244,-4.57123e-005 0.0126852,-4.57123e-005 0.0127766,0 0.0231533,-0.0102396 0.0231533,-0.0228105 0,-0.0125709 -0.0103767,-0.0228105 -0.0231533,-0.0228105l-0.0176221 0 0 0zm0.0309015 0.0228105c0,0.00701684 -0.00607974,0.0129366 -0.0132794,0.0129366 -0.00287988,0 -0.00847964,2.28562e-005 -0.0125937,4.57123e-005 -2.28562e-005,-0.00420553 -4.57123e-005,-0.0100339 -4.57123e-005,-0.0129823 0,-0.00246847 -2.28562e-005,-0.00854821 -2.28562e-005,-0.0129137l0.0126623 0c0.00719969,0 0.0132794,0.00591975 0.0132794,0.0129137z"/>
  </g>
 </g>
</svg>
