<?xml version="1.0" encoding="UTF-8"?>
<svg xmlns="http://www.w3.org/2000/svg" version="1.1" viewBox="0 0 94.5 23.2">
  <defs>
    <style>
      .cls-1 {
        fill: #fff;
      }

      .cls-2 {
        fill: #5f259f;
      }
    </style>
  </defs>
  <!-- Generator: Adobe Illustrator 28.7.1, SVG Export Plug-In . SVG Version: 1.2.0 Build 142)  -->
  <g>
    <g id="Layer_1">
      <g id="Layer_1-2" data-name="Layer_1">
        <g id="Layer_1-2">
          <path class="cls-2" d="M57.7,17v-3.1c0-.8-.3-1.1-1-1.1h-.8v4.5c0,.1,0,.3-.3.3h-1.1s-.3-.1-.3-.3v-5.3c0-.2,0-.3.3-.4.7-.2,1.4-.4,2.2-.4,1.7,0,2.6.9,2.6,2.6v3.5c0,.1,0,.3-.3.3h-.7c-.6,0-.6-.6-.6-.6ZM61.9,15.1v.4c0,.6.3.9.9.9s.8-.3,1.4-.4.6,0,.6.7,0,.5-.3.6c-.5.3-1.1.4-1.8.4s-1.4-.2-1.8-.6c-.5-.4-.8-1-.8-1.7v-1.8c0-1.5.9-2.4,2.6-2.4s2.5.9,2.5,2.4v1.1c0,.1,0,.3-.3.3h-3,0ZM61.9,14.1h1.8v-.5c0-.6-.3-.9-.9-.9s-.9.3-.9.9c0,0,0,.5,0,.5ZM73.9,15.1v.4c0,.6.3.9.9.9s.8-.2,1.4-.4.5,0,.6.7,0,.5-.3.6c-.5.3-1.1.4-1.8.4s-1.4-.2-1.8-.6c-.5-.4-.8-1-.8-1.7v-1.8c0-1.5.9-2.4,2.6-2.4s2.5.9,2.5,2.4v1.1c0,.1,0,.3-.3.3h-3,0ZM73.9,14.1h1.8v-.5c0-.6-.3-.9-.9-.9s-.9.3-.9.9v.5ZM46.1,17.7h.7s.3-.1.3-.3v-3.5c0-1.6-.9-2.6-2.3-2.6s-1.1,0-1.2.2v-1.8c0-.4-.3-.7-.7-.7h-.7s-.3.1-.3.3v8c0,.1,0,.3.3.3h1.1s.3-.1.3-.3v-4.4c.2,0,.6-.1.8-.1.7,0,1,.3,1,1.1v3.1c0,.3.3.7.7.7h0ZM53.2,13.7v1.8c0,1.5-1,2.4-2.6,2.4s-2.6-.9-2.6-2.4v-1.8c0-1.5,1-2.4,2.6-2.4s2.6.9,2.6,2.4ZM51.6,13.7c0-.6-.3-.9-.9-.9s-.9.3-.9.9v1.8c0,.6.3.9.9.9s.9-.3.9-.9v-1.8ZM38.4,15.5c-.9,0-.9-.1-1-.2v2.1c0,.1,0,.3-.3.3h-1.1s-.3-.1-.3-.3v-7.5c0-.2,0-.3.3-.4.7-.2,1.4-.4,2.2-.4,1.7,0,2.9,1,2.9,2.6v1.1h0s0,2.6-2.7,2.7ZM38.1,10.6c-.7,0-.7.1-.7.1v3.1c.3.1.4.2.8.2.7,0,1.2-.4,1.2-1.1v-1.2h0s0-1.2-1.3-1.1ZM71.7,12.9c0,1.5-1.2,2.6-2.7,2.6s-.9,0-1-.2v2.1c0,.1,0,.3-.3.3h-1.1s-.3-.1-.3-.3v-7.5c0-.2,0-.3.3-.4.7-.2,1.4-.4,2.2-.4,1.7,0,2.9,1,2.9,2.6,0,0,0,1.2,0,1.2ZM68.7,10.6c-.7,0-.7.1-.7.1v3.1c.3.1.4.2.8.2.7,0,1.2-.4,1.2-1.1v-1.2h0s0-1.1-1.3-1.1Z"/>
          <circle class="cls-2" cx="23.3" cy="12.1" r="8.5"/>
          <path class="cls-1" d="M26.5,9.3h-1.1l-2.6-3c-.2-.3-.6-.4-1-.3l-.9.3c-.1,0-.2.2,0,.3l2.8,2.7h-4.3c-.1,0-.2,0-.2.2v.5c0,.3.3.6.6.6h.7v2.3c0,1.7.9,2.7,2.4,2.7s1.3,0,1.3-.2v1.5c0,.4.3.8.8.8h.7c.1,0,.3-.1.3-.3v-6.8h1.1c.1,0,.2,0,.2-.2v-.5s.1-.6-.8-.6ZM24.1,14c-.3.1-.7.2-.9.2-.8,0-1.1-.4-1.1-1.2v-2.3h2.1v3.3h-.1Z"/>
        </g>
      </g>
    </g>
  </g>
</svg>