<svg width="98" height="24" viewBox="0 0 98 24" fill="none" xmlns="http://www.w3.org/2000/svg">
<g clip-path="url(#clip0_1507_8555)">
<path d="M25.5994 8.50586H35.4627V10.352H31.5845V20.7302H29.4519V10.352H25.5908V8.50586H25.5994ZM35.0413 11.879H36.8644V13.5871H36.8988C36.959 13.3455 37.0708 13.1126 37.2341 12.8883C37.3975 12.664 37.5953 12.4483 37.8275 12.2672C38.0597 12.0774 38.3176 11.9307 38.6014 11.81C38.8852 11.6978 39.1776 11.6374 39.4699 11.6374C39.6935 11.6374 39.8569 11.646 39.9429 11.6547C40.0289 11.6633 40.1149 11.6806 40.2095 11.6892V13.5698C40.0719 13.544 39.9343 13.5267 39.7881 13.5095C39.6419 13.4922 39.5043 13.4836 39.3667 13.4836C39.04 13.4836 38.7304 13.5526 38.438 13.682C38.1457 13.8114 37.8963 14.0098 37.6813 14.26C37.4663 14.5188 37.2943 14.8294 37.1653 15.209C37.0364 15.5885 36.9762 16.0199 36.9762 16.5116V20.7215H35.0327V11.879H35.0413ZM49.144 20.7302H47.235V19.4965H47.2006C46.9598 19.9451 46.6073 20.2988 46.1343 20.5662C45.6614 20.8337 45.1798 20.9717 44.6896 20.9717C43.5288 20.9717 42.686 20.687 42.1701 20.109C41.6541 19.531 41.3962 18.6597 41.3962 17.4951V11.879H43.3396V17.3053C43.3396 18.0817 43.4858 18.6338 43.7867 18.953C44.0791 19.2722 44.5005 19.4361 45.0336 19.4361C45.4464 19.4361 45.7817 19.3757 46.0569 19.2463C46.3321 19.1169 46.5557 18.953 46.7191 18.7373C46.891 18.5303 47.0114 18.2715 47.0888 17.9782C47.1662 17.6849 47.2006 17.3657 47.2006 17.0206V11.8876H49.144V20.7302ZM52.4547 17.8919C52.5149 18.4613 52.7299 18.8581 53.0997 19.0911C53.478 19.3154 53.9252 19.4361 54.4497 19.4361C54.6303 19.4361 54.8367 19.4189 55.0689 19.393C55.3011 19.3671 55.5246 19.3067 55.7224 19.2291C55.9288 19.1514 56.0922 19.0307 56.2298 18.8754C56.3588 18.7201 56.419 18.5217 56.4104 18.2715C56.4018 18.0213 56.3072 17.8143 56.1352 17.659C55.9632 17.4951 55.7482 17.3743 55.4816 17.2708C55.2151 17.1759 54.9141 17.0896 54.5701 17.0206C54.2262 16.9516 53.8822 16.8739 53.5296 16.7963C53.1685 16.7187 52.8159 16.6151 52.4805 16.503C52.1452 16.3908 51.8442 16.2356 51.5776 16.0371C51.311 15.8473 51.0961 15.5972 50.9413 15.2952C50.7779 14.9933 50.7005 14.6223 50.7005 14.1737C50.7005 13.6906 50.8209 13.2938 51.0531 12.966C51.2852 12.6381 51.5862 12.3793 51.9388 12.1809C52.2999 11.9825 52.6955 11.8445 53.1341 11.7582C53.5726 11.6806 53.994 11.6374 54.3895 11.6374C54.8453 11.6374 55.2839 11.6892 55.6966 11.7841C56.1094 11.879 56.4877 12.0343 56.8231 12.2586C57.1585 12.4742 57.4337 12.7589 57.6572 13.104C57.8808 13.4491 58.0184 13.8718 58.0786 14.3635H56.0492C55.9546 13.8977 55.7482 13.5785 55.4129 13.4232C55.0775 13.2593 54.6905 13.1816 54.2606 13.1816C54.123 13.1816 53.9596 13.1903 53.7704 13.2161C53.5812 13.242 53.4092 13.2852 53.2373 13.3455C53.0739 13.4059 52.9363 13.5008 52.8159 13.6216C52.7041 13.7424 52.6439 13.8977 52.6439 14.0961C52.6439 14.3376 52.7299 14.5274 52.8933 14.6741C53.0567 14.8207 53.2716 14.9415 53.5382 15.045C53.8048 15.1399 54.1058 15.2262 54.4497 15.2952C54.7937 15.3642 55.1463 15.4419 55.5074 15.5195C55.86 15.5972 56.204 15.7007 56.5479 15.8128C56.8919 15.925 57.1929 16.0803 57.4595 16.2787C57.726 16.4771 57.941 16.7187 58.1044 17.012C58.2678 17.3053 58.3538 17.6762 58.3538 18.1076C58.3538 18.6338 58.2334 19.0738 57.9926 19.4448C57.7518 19.8071 57.4423 20.109 57.0639 20.3333C56.6855 20.5576 56.2556 20.7302 55.7912 20.8337C55.3269 20.9372 54.8625 20.989 54.4067 20.989C53.8478 20.989 53.3318 20.9286 52.8589 20.7992C52.3859 20.6698 51.9732 20.48 51.6292 20.2298C51.2852 19.971 51.0101 19.6518 50.8123 19.2722C50.6145 18.8926 50.5113 18.4354 50.4941 17.9092H52.4547V17.8919ZM58.8697 11.879H60.3402V9.22189H62.2836V11.879H64.0378V13.3369H62.2836V18.0645C62.2836 18.2715 62.2922 18.444 62.3094 18.5993C62.3266 18.746 62.3696 18.8754 62.4298 18.9789C62.49 19.0824 62.5846 19.1601 62.7136 19.2118C62.8426 19.2636 63.0059 19.2895 63.2295 19.2895C63.3671 19.2895 63.5047 19.2895 63.6423 19.2808C63.7799 19.2722 63.9175 19.255 64.055 19.2205V20.7302C63.8401 20.756 63.6251 20.7733 63.4273 20.7992C63.2209 20.8251 63.0145 20.8337 62.7996 20.8337C62.2836 20.8337 61.8709 20.7819 61.5613 20.687C61.2517 20.5921 61.0023 20.4455 60.8303 20.2557C60.6498 20.0659 60.538 19.833 60.4692 19.5483C60.409 19.2636 60.366 18.9358 60.3574 18.5734V13.3542H58.8869V11.879H58.8697ZM65.4137 11.879H67.2539V13.0781H67.2883C67.5635 12.5605 67.9419 12.1982 68.432 11.9739C68.9222 11.7496 69.4467 11.6374 70.0229 11.6374C70.7194 11.6374 71.3214 11.7582 71.8373 12.0084C72.3533 12.2499 72.7832 12.5864 73.1272 13.0177C73.4712 13.4491 73.7205 13.9494 73.8925 14.5188C74.0645 15.0882 74.1505 15.7007 74.1505 16.3477C74.1505 16.943 74.0731 17.521 73.9183 18.0731C73.7635 18.6338 73.5314 19.1256 73.2218 19.5569C72.9122 19.9882 72.5167 20.3247 72.0351 20.5835C71.5536 20.8423 70.9946 20.9717 70.3411 20.9717C70.0573 20.9717 69.7735 20.9458 69.4897 20.8941C69.206 20.8423 68.9308 20.756 68.6728 20.6439C68.4148 20.5317 68.1655 20.3851 67.9505 20.2039C67.7269 20.0228 67.5463 19.8157 67.3915 19.5828H67.3571V23.9998H65.4137V11.879ZM72.2071 16.3132C72.2071 15.9164 72.1555 15.5281 72.0523 15.1486C71.9491 14.769 71.7943 14.4412 71.588 14.1478C71.3816 13.8545 71.1236 13.6216 70.8226 13.4491C70.5131 13.2765 70.1605 13.1816 69.7649 13.1816C68.948 13.1816 68.3288 13.4663 67.9161 14.0357C67.5033 14.6051 67.2969 15.3642 67.2969 16.3132C67.2969 16.7618 67.3485 17.1759 67.4603 17.5555C67.5721 17.935 67.7269 18.2629 67.9505 18.5389C68.1655 18.815 68.4234 19.0307 68.7244 19.1859C69.0254 19.3499 69.378 19.4275 69.7735 19.4275C70.2207 19.4275 70.5904 19.3326 70.9 19.1514C71.2096 18.9703 71.459 18.7287 71.6567 18.444C71.8545 18.1507 72.0007 17.8229 72.0867 17.4519C72.1641 17.081 72.2071 16.7014 72.2071 16.3132ZM75.6382 8.50586H77.5816V10.352H75.6382V8.50586ZM75.6382 11.879H77.5816V20.7302H75.6382V11.879ZM79.3186 8.50586H81.2621V20.7302H79.3186V8.50586ZM87.2213 20.9717C86.5162 20.9717 85.8884 20.8509 85.3381 20.618C84.7877 20.3851 84.3234 20.0573 83.9364 19.6518C83.558 19.2377 83.2657 18.746 83.0679 18.1766C82.8701 17.6072 82.7669 16.9775 82.7669 16.2959C82.7669 15.623 82.8701 15.0019 83.0679 14.4325C83.2657 13.8632 83.558 13.3714 83.9364 12.9573C84.3148 12.5432 84.7877 12.224 85.3381 11.9911C85.8884 11.7582 86.5162 11.6374 87.2213 11.6374C87.9264 11.6374 88.5542 11.7582 89.1045 11.9911C89.6549 12.224 90.1192 12.5519 90.5062 12.9573C90.8846 13.3714 91.1769 13.8632 91.3747 14.4325C91.5725 15.0019 91.6757 15.623 91.6757 16.2959C91.6757 16.9775 91.5725 17.6072 91.3747 18.1766C91.1769 18.746 90.8846 19.2377 90.5062 19.6518C90.1278 20.0659 89.6549 20.3851 89.1045 20.618C88.5542 20.8509 87.9264 20.9717 87.2213 20.9717ZM87.2213 19.4275C87.6513 19.4275 88.0296 19.3326 88.3478 19.1514C88.666 18.9703 88.9239 18.7287 89.1303 18.4354C89.3367 18.1421 89.4829 17.8056 89.5861 17.4347C89.6807 17.0637 89.7323 16.6841 89.7323 16.2959C89.7323 15.9164 89.6807 15.5454 89.5861 15.1658C89.4915 14.7862 89.3367 14.4584 89.1303 14.1651C88.9239 13.8718 88.666 13.6389 88.3478 13.4577C88.0296 13.2765 87.6513 13.1816 87.2213 13.1816C86.7913 13.1816 86.413 13.2765 86.0948 13.4577C85.7766 13.6389 85.5187 13.8804 85.3123 14.1651C85.1059 14.4584 84.9597 14.7862 84.8565 15.1658C84.7619 15.5454 84.7103 15.9164 84.7103 16.2959C84.7103 16.6841 84.7619 17.0637 84.8565 17.4347C84.9511 17.8056 85.1059 18.1421 85.3123 18.4354C85.5187 18.7287 85.7766 18.9703 86.0948 19.1514C86.413 19.3412 86.7913 19.4275 87.2213 19.4275ZM92.2432 11.879H93.7137V9.22189H95.6571V11.879H97.4114V13.3369H95.6571V18.0645C95.6571 18.2715 95.6657 18.444 95.6829 18.5993C95.7001 18.746 95.7431 18.8754 95.8033 18.9789C95.8635 19.0824 95.9581 19.1601 96.0871 19.2118C96.2161 19.2636 96.3795 19.2895 96.603 19.2895C96.7406 19.2895 96.8782 19.2895 97.0158 19.2808C97.1534 19.2722 97.291 19.255 97.4286 19.2205V20.7302C97.2136 20.756 96.9986 20.7733 96.8008 20.7992C96.5944 20.8251 96.3881 20.8337 96.1731 20.8337C95.6571 20.8337 95.2444 20.7819 94.9348 20.687C94.6252 20.5921 94.3758 20.4455 94.2038 20.2557C94.0233 20.0659 93.9115 19.833 93.8427 19.5483C93.7825 19.2636 93.7395 18.9358 93.7309 18.5734V13.3542H92.2604V11.879H92.2432Z" fill="#191919"/>
<path d="M23.3296 8.50611H14.4209L11.6691 0L8.90877 8.50611L0 8.49748L7.21473 13.7599L4.45439 22.2574L11.6691 17.0036L18.8752 22.2574L16.1235 13.7599L23.3296 8.50611Z" fill="#00B67A"/>
<path d="M16.7425 15.6836L16.1233 13.7598L11.6689 17.0035L16.7425 15.6836Z" fill="#005128"/>
</g>
<defs>
<clipPath id="clip0_1507_8555">
<rect width="97.4118" height="24" fill="white"/>
</clipPath>
</defs>
</svg>
