<svg xmlns="http://www.w3.org/2000/svg" viewBox="0 0 100 100" id="podcast"><path fill="#f26c6d" d="M45.985 81.987h8.85v9.919h-8.85z"></path><path fill="#ef425e" d="M51.511 81.992h3.323v9.913h-3.323z"></path><path fill="#f79094" d="M45.985 81.992h2.203v9.913h-2.203z"></path><path fill="#72dbd4" d="M32.723 57.548v7.335c0 9.754 7.92 17.7 17.673 17.7s17.7-7.946 17.7-17.7v-7.335H32.724z"></path><path fill="#6cc6c6" d="M68.1 57.551v7.33c0 9.752-7.948 17.699-17.7 17.699-.75 0-1.49-.047-2.212-.142 8.716-1.092 15.486-8.555 15.486-17.557v-7.33H68.1z"></path><path fill="#c7f1ed" d="M51.74 82.523c-.438.038-.884.057-1.34.057-9.76 0-17.68-7.947-17.68-17.698v-7.33h2.669v7.33c0 9.304 7.216 16.967 16.35 17.641z"></path><path fill="#fff" d="M61.452 43.477v21.42c0 6.087-4.943 11.03-11.056 11.03-6.086 0-11.029-4.943-11.029-11.03v-21.42c0-6.113 4.943-11.056 11.03-11.056 3.056 0 5.82 1.25 7.813 3.242 2.02 1.994 3.242 4.758 3.242 7.814z"></path><path fill="#d8eaf8" d="M60.73 43.48V64.9c0 6.087-4.946 11.024-11.051 11.024-4.102 0-7.682-2.24-9.59-5.564.769.18 1.566.266 2.383.266 6.115 0 11.062-4.947 11.062-11.034v-21.42c0-1.994-.523-3.874-1.453-5.488a11.008 11.008 0 0 1 5.402 2.981 10.913 10.913 0 0 1 3.248 7.815z"></path><path fill="#f7c737" d="M61.612 93.802v3.196H39.208v-3.196c0-1.048.85-1.899 1.899-1.899h18.606c1.049 0 1.899.85 1.899 1.9z"></path><path fill="#e5ac20" d="M61.61 93.803v3.19h-4.477v-2.63c0-1.357-.954-2.459-2.131-2.459h4.709c1.049 0 1.899.85 1.899 1.9z"></path><path fill="#ffe268" d="M43.374 91.904c-1.177 0-2.132 1.102-2.132 2.46v2.63H39.21v-3.19c0-1.05.85-1.9 1.899-1.9h2.265z"></path><path fill="#72dbd4" d="M14.275 48.387v17.466h1.868a2.663 2.663 0 0 0 2.668-2.668v-12.13a2.67 2.67 0 0 0-2.668-2.668h-1.868z"></path><path fill="#c7f1ed" d="M16.294 48.4v17.443c-.047.01-.104.01-.152.01h-1.87V48.39h1.87c.048 0 .105 0 .152.01z"></path><path fill="#f7c737" d="M8.97 50.898V63.33a3.973 3.973 0 0 0 2.888 3.822l2.417.685V46.401l-2.417.686a3.96 3.96 0 0 0-2.889 3.81z"></path><path fill="#ffe268" d="M11.234 50.898v12.429a3.985 3.985 0 0 0 2.895 3.826l.143.038v.646l-2.412-.684a3.977 3.977 0 0 1-2.886-3.826V50.898a3.954 3.954 0 0 1 2.886-3.807l2.412-.694v.655l-.143.039a3.963 3.963 0 0 0-2.895 3.807z"></path><path fill="#fff" d="M4.89 54.332v5.565c0 1.167.936 2.104 2.104 2.104H8.97v-9.774H6.994a2.107 2.107 0 0 0-2.104 2.105zm90.222 0v5.565A2.098 2.098 0 0 1 93.008 62h-1.975v-9.774h1.975c1.168 0 2.104.952 2.104 2.105z"></path><path fill="#72dbd4" d="M85.727 47.951V66.29h-1.96a2.796 2.796 0 0 1-2.802-2.802V50.752c0-1.54 1.25-2.8 2.801-2.8h1.961z"></path><path fill="#c7f1ed" d="M85.731 47.954V66.29h-1.965a2.01 2.01 0 0 1-.418-.038V47.992a2.01 2.01 0 0 1 .418-.038h1.965z"></path><path fill="#f7c737" d="M91.033 50.898V63.33a3.973 3.973 0 0 1-2.889 3.822l-2.417.685V46.401l2.417.686a3.96 3.96 0 0 1 2.889 3.81z"></path><path fill="#ffe268" d="M91.03 50.898v12.429a3.977 3.977 0 0 1-2.887 3.826l-2.412.684v-.76a3.988 3.988 0 0 0 2.65-3.75V50.898c0-1.69-1.073-3.18-2.65-3.732v-.769l2.412.694a3.954 3.954 0 0 1 2.887 3.807z"></path><path fill="#fff" d="M75.933 15.387a3.8 3.8 0 0 1-3.22 1.786c-.683 0-1.386-.19-2.012-.58-12.752-8.004-29.235-8.004-41.978 0a3.79 3.79 0 0 1-5.231-1.206 3.788 3.788 0 0 1 1.196-5.231c15.192-9.543 34.837-9.543 50.048 0a3.788 3.788 0 0 1 1.197 5.231z"></path><path fill="#d8eaf8" d="M76.008 15.254a3.698 3.698 0 0 0-1.272-1.33c-15.21-9.542-34.856-9.542-50.048 0-.55.342-.978.807-1.272 1.33a3.788 3.788 0 0 1 1.272-5.1c15.192-9.542 34.837-9.542 50.048 0a3.788 3.788 0 0 1 1.272 5.1z"></path><g fill="#215"><path d="M94.27 96.001H62.61v-2.2c0-1.6-1.3-2.9-2.9-2.9h-3.88v-8.13c7.67-2.34 13.27-9.47 13.27-17.89v-7.33c0-.56-.45-1-1-1h-5.65v-13.07c0-6.83-5.55-12.06-12.05-12.06-6.64 0-12.03 5.41-12.03 12.06v13.07h-5.65c-.55 0-1 .44-1 1v7.33c0 8.43 5.6 15.57 13.26 17.9v8.12h-3.87c-1.6 0-2.9 1.3-2.9 2.9v2.2H6.44c-.55 0-1 .44-1 1 0 .55.45 1 1 1h87.83c.55 0 1-.45 1-1 0-.56-.45-1-1-1zm-53.9-52.52c0-5.55 4.5-10.06 10.03-10.06 5.39 0 10.05 4.34 10.05 10.06v21.42c0 5.53-4.51 10.03-10.05 10.03-5.53 0-10.03-4.5-10.03-10.03v-21.42zm-6.65 21.4v-6.33h4.65v6.35c0 6.63 5.39 12.03 12.03 12.03s12.05-5.4 12.05-12.03v-6.35h4.65v6.33c0 9.51-7.88 16.7-16.7 16.7-9.07 0-16.68-7.41-16.68-16.7zm20.11 18.37v7.65h-6.85v-7.65c1.11.21 2.25.33 3.42.33s2.32-.12 3.43-.33zm6.78 12.75h-20.4v-2.2c0-.49.4-.9.9-.9h18.6c.5 0 .9.41.9.9v2.2z"></path><circle cx="47.161" cy="45.258" r="1.236"></circle><circle cx="53.748" cy="45.258" r="1.236"></circle><path d="M56.907 44.021c.687 0 1.237-.555 1.237-1.236 0-.687-.55-1.236-1.237-1.236-.681 0-1.236.55-1.236 1.236 0 .681.555 1.236 1.236 1.236z"></path><circle cx="47.161" cy="38.73" r="1.236"></circle><circle cx="53.748" cy="38.73" r="1.236"></circle><path d="M50.306 50.93c.687 0 1.236-.555 1.236-1.236 0-.687-.55-1.236-1.236-1.236-.682 0-1.236.549-1.236 1.236 0 .681.554 1.236 1.236 1.236zm0-7.636c.687 0 1.236-.554 1.236-1.236 0-.687-.55-1.236-1.236-1.236-.682 0-1.236.55-1.236 1.236 0 .681.554 1.236 1.236 1.236zm6.884 5.164c-.682 0-1.237.549-1.237 1.236 0 .681.555 1.236 1.237 1.236.687 0 1.236-.555 1.236-1.236 0-.687-.55-1.236-1.236-1.236zm-14.797 1.236c0 .681.555 1.236 1.237 1.236.687 0 1.236-.555 1.236-1.236 0-.687-.55-1.236-1.236-1.236-.682 0-1.237.549-1.237 1.236z"></path><circle cx="43.096" cy="42.785" r="1.236"></circle><circle cx="47.161" cy="54.174" r="1.236"></circle><circle cx="53.748" cy="54.174" r="1.236"></circle><path d="M57.19 57.403c-.682 0-1.237.549-1.237 1.236 0 .681.555 1.236 1.237 1.236.687 0 1.236-.555 1.236-1.236 0-.687-.55-1.236-1.236-1.236zm-6.884 2.472c.687 0 1.236-.555 1.236-1.236 0-.687-.55-1.236-1.236-1.236-.682 0-1.236.549-1.236 1.236 0 .681.554 1.236 1.236 1.236zm-6.38-2.472c-.681 0-1.236.549-1.236 1.236 0 .681.555 1.236 1.236 1.236.687 0 1.237-.555 1.237-1.236 0-.687-.55-1.236-1.237-1.236z"></path><circle cx="45.163" cy="64.709" r="1.236"></circle><circle cx="50.41" cy="64.327" r="1.236"></circle><circle cx="54.835" cy="69.075" r="1.236"></circle><path d="M56.537 65.563c.687 0 1.236-.554 1.236-1.236 0-.687-.55-1.236-1.236-1.236-.681 0-1.236.55-1.236 1.236 0 .682.555 1.236 1.236 1.236z"></path><circle cx="48.397" cy="69.935" r="1.236"></circle><path d="M94.36 51.551v-1.43c-.17-14.12-6.92-26.7-17.27-34.82.42-.94.54-1.98.31-3a4.794 4.794 0 0 0-2.13-2.99c-15.53-9.75-35.6-9.75-51.11 0a4.721 4.721 0 0 0-2.13 2.99 4.79 4.79 0 0 0 .3 2.99C12 23.411 5.35 36.001 5.35 50.131v1.58c-.87.55-1.46 1.51-1.46 2.62v5.56c0 1.72 1.39 3.11 3.1 3.11h.98v.33a4.99 4.99 0 0 0 3.62 4.78l2.41.69c.09.02.18.04.28.04.21 0 .42-.07.6-.2.25-.19.4-.49.4-.8v-.99h.86c2.02 0 3.67-1.64 3.67-3.67v-12.13a3.67 3.67 0 0 0-3.67-3.66h-.86v-.99c0-.31-.15-.61-.4-.8a.99.99 0 0 0-.88-.16l-2.41.68c-2.13.61-3.62 2.57-3.62 4.78v.33h-.62v-1.1c0-13.46 6.32-25.46 16.14-33.22.6.54 1.32.95 2.13 1.14.37.08.73.12 1.1.12.89 0 1.76-.25 2.54-.73 12.42-7.8 28.48-7.8 40.91 0 .77.48 1.65.73 2.54.73 1.22 0 2.35-.45 3.22-1.24 9.85 7.76 16.26 19.76 16.43 33.2v1.1h-.33v-.33c0-2.21-1.48-4.17-3.61-4.78l-2.42-.68a.99.99 0 0 0-.88.16c-.25.19-.39.49-.39.8v.55h-.96c-2.1 0-3.81 1.7-3.81 3.8v12.74c0 2.09 1.71 3.8 3.81 3.8h.96v.55c0 .31.14.61.39.8.18.13.39.2.61.2.09 0 .18-.02.27-.04l2.42-.69a4.98 4.98 0 0 0 3.61-4.78v-.33h.98c1.71 0 3.1-1.39 3.1-3.11v-5.56a3.1 3.1 0 0 0-1.75-2.78zm-79.08-2.16h.86c.92 0 1.67.74 1.67 1.66v12.13c0 .92-.75 1.67-1.67 1.67h-.86v-15.46zm-5.31 1.51c0-1.32.89-2.49 2.16-2.85l1.15-.33v18.79l-1.15-.32a2.988 2.988 0 0 1-2.16-2.86v-12.43zm-2 2.33v7.77h-.98c-.62 0-1.1-.49-1.1-1.11v-5.56c0-.61.49-1.1 1.1-1.1h.98zm67.12-38.38c-.52.83-1.41 1.32-2.38 1.32-.52 0-1.03-.15-1.48-.42-13.07-8.21-29.97-8.21-43.04-.01-.63.4-1.38.53-2.11.36-.73-.17-1.35-.61-1.74-1.25-.4-.63-.53-1.38-.36-2.1.16-.73.6-1.35 1.24-1.75 7.44-4.67 15.96-7 24.48-7 8.53 0 17.06 2.33 24.51 7 .63.4 1.07 1.02 1.24 1.75.16.72.03 1.47-.36 2.1zm9.64 50.44h-.96c-1 0-1.81-.81-1.81-1.8v-12.74c0-.99.81-1.8 1.81-1.8h.96v16.34zm5.3-1.96c0 1.32-.89 2.5-2.16 2.86l-1.14.32v-18.79l1.14.33c1.27.36 2.16 1.53 2.16 2.85v12.43zm4.08-3.44c0 .62-.48 1.11-1.1 1.11h-.98v-7.77h.98c.61 0 1.1.49 1.1 1.1v5.56z"></path><path d="M50.401 21.454h.005a.75.75 0 0 0 .75-.745l.034-5.045a.75.75 0 0 0-.745-.755.757.757 0 0 0-.755.745l-.034 5.045a.75.75 0 0 0 .745.755zm-.784 4.87a.75.75 0 0 0 .745.755h.005a.75.75 0 0 0 .75-.745l.013-1.795a.75.75 0 0 0-.745-.755h-.005a.75.75 0 0 0-.75.745l-.013 1.795zm-5.429.727a.751.751 0 0 0 .547-1.264l-5.846-6.224a.751.751 0 0 0-1.094 1.028l5.846 6.223a.748.748 0 0 0 .547.237zm12.899-.174 5.931-6.171a.75.75 0 1 0-1.082-1.04l-5.931 6.172a.75.75 0 1 0 1.082 1.039z"></path></g></svg>