<svg width="72" height="72" viewBox="0 0 72 72" fill="none" xmlns="http://www.w3.org/2000/svg">
<path d="M60 63C60 58.8133 60 56.72 59.4833 55.0166C58.3199 51.1814 55.3186 48.1801 51.4834 47.0167C49.78 46.5 47.6867 46.5 43.5 46.5H28.5C24.3133 46.5 22.22 46.5 20.5166 47.0167C16.6814 48.1801 13.6801 51.1814 12.5167 55.0166C12 56.72 12 58.8133 12 63M49.5 22.5C49.5 29.9558 43.4558 36 36 36C28.5442 36 22.5 29.9558 22.5 22.5C22.5 15.0442 28.5442 9 36 9C43.4558 9 49.5 15.0442 49.5 22.5Z" stroke="currentColor" stroke-width="6" stroke-linecap="round" stroke-linejoin="round"/>
</svg>
