<svg width="55" height="42" viewBox="0 0 55 42" fill="none" xmlns="http://www.w3.org/2000/svg">
<path d="M17.838 3.18519L14.9758 0.000366211C6.58002 5.77287 0.283203 15.9245 0.283203 26.4743C0.283203 34.8345 4.29027 42.0004 12.4952 42.0004C18.792 42.0004 23.944 37.6212 23.944 30.6544C23.944 24.0857 19.5553 19.5075 13.4493 19.5075C11.5412 19.5075 10.3963 18.3132 10.3963 16.1236C10.3963 12.9388 13.4493 7.16624 17.838 3.18519ZM30.6224 26.4743C30.6224 34.8345 34.6295 42.0004 42.8344 42.0004C49.1313 42.0004 54.2832 37.6212 54.2832 30.6544C54.2832 24.0857 49.8945 19.5075 43.7885 19.5075C41.8804 19.5075 40.7355 18.3132 40.7355 16.1236C40.7355 12.9388 43.7885 7.16624 48.1772 3.18519L45.315 0.000366211C36.9192 5.77287 30.6224 15.9245 30.6224 26.4743Z" fill="black"/>
</svg>
