<svg width="14" height="14" viewBox="0 0 14 14" fill="none" xmlns="http://www.w3.org/2000/svg">
<path d="M10.3683 7.02494C9.81592 7.46708 9.29529 7.8838 8.77467 8.30052C8.46842 8.54552 8.16053 8.78833 7.85619 9.0358C7.41869 9.39154 7.34213 9.95044 7.66998 10.368C7.99592 10.7833 8.56932 10.844 9.00764 10.4946C10.5413 9.27232 12.0729 8.04759 13.6011 6.81904C14.113 6.40751 14.1094 5.73212 13.5948 5.31869C12.0718 4.09505 10.5457 2.87525 9.0183 1.65708C8.57615 1.30435 8.00959 1.35466 7.67873 1.76427C7.3394 2.18454 7.41404 2.75138 7.86248 3.11204C8.60377 3.70841 9.34834 4.30095 10.0913 4.8954C10.1741 4.96185 10.2562 5.02939 10.3242 5.14478C10.2485 5.14478 10.1728 5.14478 10.097 5.14478C8.31721 5.14478 6.53713 5.14122 4.75733 5.1456C2.45526 5.15134 0.59342 6.63775 0.13049 8.86271C0.0410767 9.29173 0.0427179 9.74236 0.0268583 10.1837C0.0101786 10.648 0.0200224 11.1136 0.0241241 11.5785C0.0293188 12.1749 0.419241 12.5834 0.970218 12.5779C1.50834 12.5724 1.88569 12.1606 1.88705 11.5747C1.88842 10.9933 1.88541 10.4123 1.88787 9.83095C1.89389 8.274 3.05791 7.03478 4.61295 7.00771C6.49393 6.9749 8.376 6.99923 10.2578 6.99951C10.2772 6.99978 10.2969 7.00826 10.3683 7.02494Z" fill="white"/>
</svg>
