<?xml version="1.0" encoding="UTF-8"?>
<svg version="1.1" xmlns="http://www.w3.org/2000/svg" width="512" height="512">
<path d="M0 0 C3.48577829 1.28485895 6.39328148 2.78297842 9.4453125 4.89453125 C10.33653809 5.50635254 11.22776367 6.11817383 12.14599609 6.74853516 C13.62060303 7.77019775 13.62060303 7.77019775 15.125 8.8125 C17.34825582 10.33827719 19.57221613 11.86299124 21.796875 13.38671875 C22.41287567 13.80928955 23.02887634 14.23186035 23.6635437 14.66723633 C32.24299516 20.5476224 40.86753927 26.36152413 49.49017334 32.17831421 C52.33055663 34.09500954 55.16947381 36.01386196 58.00830078 37.93286133 C59.80493036 39.14546753 61.60163935 40.35795609 63.3984375 41.5703125 C64.20299377 42.11464432 65.00755005 42.65897614 65.83648682 43.21980286 C67.40949691 44.27982323 68.98889555 45.3304259 70.57458496 46.37138367 C72.26183027 47.5043342 73.91737864 48.68534493 75.54553223 49.90168762 C82.96184355 55.18919737 89.18068145 56.19075777 98.171875 56.55859375 C99.5071774 56.63557054 100.8423235 56.71530226 102.17730713 56.79762268 C105.65865956 57.00476105 109.14082297 57.17391368 112.62457275 57.3348999 C116.16384905 57.5057503 119.70084374 57.71502101 123.23828125 57.91992188 C130.49016464 58.33109615 137.74221032 58.70924534 145 59 C146.28495361 59.05808838 147.56990723 59.11617676 148.89379883 59.17602539 C152.6651248 58.96230803 155.76149339 58.01756586 159.33984375 56.8125 C160.74780497 56.35602402 162.15601688 55.90032068 163.56445312 55.4453125 C165.73916124 54.73053979 167.91094022 54.0090259 170.07836914 53.27246094 C181.06228739 49.56534124 193.15624326 46.08690017 204.51757812 50.30639648 C208.09483316 51.38743839 208.09483316 51.38743839 211.42553711 49.30102539 C212.66321611 48.40099258 213.88371973 47.47705497 215.08984375 46.53515625 C216.50367078 45.49828554 217.9189511 44.46339444 219.33544922 43.43017578 C220.08783875 42.87179016 220.84022827 42.31340454 221.61541748 41.73809814 C225.80814541 38.68206105 230.13074181 35.81960184 234.44140625 32.93359375 C236.28093237 31.69385394 238.12012141 30.45361385 239.95898438 29.21289062 C240.88155029 28.5913208 241.80411621 27.96975098 242.75463867 27.3293457 C245.56291695 25.43721908 248.3703826 23.54389155 251.17773438 21.65039062 C254.78450345 19.21802728 258.39354996 16.78910146 262.00439453 14.36279297 C265.19008421 12.22176697 268.36800946 10.0700908 271.53857422 7.90673828 C272.88897633 6.99117986 274.2393981 6.07565044 275.58984375 5.16015625 C276.1893837 4.74704697 276.78892365 4.33393768 277.40663147 3.90830994 C280.26263025 1.98052442 282.64257613 0.71836283 286 0 C286.44837471 0.68362358 286.44837471 0.68362358 286.9058075 1.38105774 C304.18506291 27.71971157 321.63925654 53.93128163 339.28790283 80.02372742 C345.58579719 89.33831247 351.82280464 98.69292058 358.04443359 108.05859375 C361.60998386 113.42160869 365.18436453 118.77874031 368.75747681 124.13671875 C370.71360629 127.07012024 372.66928628 130.0038213 374.625 132.9375 C375.27726562 133.91589844 375.92953125 134.89429688 376.6015625 135.90234375 C377.29378906 136.94068359 377.29378906 136.94068359 378 138 C376.62803826 141.22417499 375.23080266 142.8673217 372.38671875 144.890625 C371.27296875 145.695 371.27296875 145.695 370.13671875 146.515625 C369.32847656 147.08796875 368.52023437 147.6603125 367.6875 148.25 C365.95061278 149.50353328 364.21498032 150.7588066 362.48046875 152.015625 C361.57731934 152.66853516 360.67416992 153.32144531 359.74365234 153.99414062 C355.27616669 157.26027892 350.8899099 160.63072372 346.5 164 C339.10175939 169.66287601 331.64872563 175.24126615 324.13549805 180.75048828 C315.03572111 187.42730447 306.01792147 194.21324287 297 201 C292.94071107 197.24471068 290.41009764 192.97666943 287.5859375 188.265625 C287.06257813 187.51796875 286.53921875 186.7703125 286 186 C285.34 186 284.68 186 284 186 C281.91262183 188.36431082 281.91262183 188.36431082 279.8125 191.3125 C279.07644531 192.29863281 278.34039062 193.28476562 277.58203125 194.30078125 C277.05996094 195.19152344 276.53789062 196.08226562 276 197 C276.67222732 200.02547164 276.67222732 200.02547164 278.68516541 201.1502533 C286.25649349 204.44576318 293.56991059 204.55903713 301.67190742 204.51642036 C304.11612048 204.50364643 306.55922782 204.51520883 309.00340271 204.53245544 C313.31206951 204.55900974 317.62045945 204.56475669 321.92919922 204.56335449 C328.82690425 204.56111622 335.72426727 204.57548541 342.62183952 204.61894035 C345.01537915 204.62869823 347.40836774 204.62010575 349.80189514 204.61024475 C359.88458325 204.62513783 368.83821133 205.07653657 376.5625 212.3359375 C380.57733059 216.9835403 382 222.95801413 382 229 C381.18784765 236.46164975 378.59168638 241.40831362 373.25 246.75 C366.69780953 251.28613186 359.65047127 251.2905479 351.94726562 251.25537109 C350.48712288 251.26080177 350.48712288 251.26080177 348.9974823 251.26634216 C346.8962955 251.27320429 344.795091 251.27574761 342.69389343 251.27439499 C339.36404475 251.27342521 336.03451484 251.28642468 332.70471191 251.30337524 C323.24180531 251.34951723 313.77893332 251.37425731 304.31591797 251.38085938 C298.51642626 251.38587997 292.71727034 251.410153 286.91789246 251.44618607 C284.71398435 251.45596627 282.51002997 251.45832577 280.30610657 251.45301437 C277.2212848 251.44592637 274.13746182 251.46326092 271.05273438 251.48583984 C270.14964035 251.47766739 269.24654633 251.46949493 268.31608582 251.46107483 C261.8054611 251.54557526 256.40820094 252.9272054 251.47335052 257.37640953 C247.1277693 262.2061971 245.48895267 267.31995865 245.6875 273.78515625 C246.49532491 279.51061526 248.51625819 285.12712927 252.9375 289 C258.2293693 292.45591465 262.09445617 293.24880897 268.42578125 293.30859375 C269.87695702 293.3337608 271.3281288 293.35915872 272.77929688 293.38476562 C275.04352718 293.41341437 277.30768814 293.43745997 279.57202148 293.45629883 C298.03926032 293.63958149 298.03926032 293.63958149 304.2421875 298.90234375 C304.78101563 299.57394531 305.31984375 300.24554688 305.875 300.9375 C306.42929687 301.60652344 306.98359375 302.27554687 307.5546875 302.96484375 C311.39432123 308.37146313 312.43603068 313.79195789 311.75390625 320.375 C310.36211557 327.66650516 307.20380209 332.76325711 301 337 C297.18001677 338.83105222 294.14583566 339.2522947 289.92541027 339.26006222 C288.69771677 339.26712781 287.47002327 339.2741934 286.20512694 339.2814731 C284.84583198 339.27922183 283.48653734 339.27677534 282.12724304 339.27415466 C280.68082156 339.2786075 279.23440252 339.2839217 277.78798705 339.29002339 C273.8127575 339.30420823 269.83760611 339.30586659 265.86235487 339.30542648 C261.575253 339.30707424 257.28818337 339.32013993 253.00109863 339.33161926 C243.62719004 339.35447071 234.25330408 339.36238989 224.8793714 339.36744571 C219.02665669 339.37070227 213.17394856 339.37722446 207.32123756 339.3844471 C191.11739024 339.40401247 174.91354904 339.42041729 158.70968914 339.42332363 C157.67274569 339.4235112 156.63580224 339.42369877 155.56743627 339.42389202 C153.46529694 339.42425828 151.36315762 339.42462197 149.2610183 339.42498314 C147.69575833 339.42525735 147.69575833 339.42525735 146.09887695 339.42553711 C144.53170726 339.42580793 144.53170726 339.42580793 142.93287758 339.42608423 C125.99947686 339.42962672 109.06620324 339.45665409 92.13284662 339.494035 C74.7485321 339.53210444 57.36428068 339.551481 39.97992355 339.55178314 C30.21881317 339.55236799 20.45785444 339.56087746 10.69678307 339.58978081 C2.38607793 339.61427635 -5.92442022 339.62158989 -14.23515169 339.60653328 C-18.47521192 339.59935711 -22.71486329 339.60025204 -26.95487785 339.62294388 C-30.8381448 339.64352736 -34.72068837 339.64094008 -38.60394742 339.62006903 C-40.00703199 339.61657289 -41.41016868 339.62148963 -42.81318489 339.63577347 C-52.53129425 339.72831764 -58.31804292 338.5554177 -65.3125 331.75 C-69.8951448 324.28198625 -70.73478879 317.58053223 -69 309 C-66.58387562 302.47646417 -62.15155212 298.15464211 -56 295 C-52.10004492 293.66219792 -48.08891453 293.8470878 -44.015625 293.82421875 C-42.42446605 293.80101288 -40.83332018 293.77689524 -39.2421875 293.75195312 C-36.74958618 293.71693918 -34.25746508 293.68754033 -31.76464844 293.67407227 C-29.34772363 293.65848075 -26.93217919 293.6182013 -24.515625 293.57421875 C-23.78200745 293.57612717 -23.04838989 293.57803558 -22.2925415 293.58000183 C-16.25704627 293.43926872 -11.02271525 291.71410603 -6.46734619 287.62382507 C-1.80742342 282.4206896 -0.55993816 277.08966423 -0.75390625 270.30078125 C-1.42339808 264.04156401 -3.79908705 259.64685388 -8.20703125 255.2265625 C-12.94897082 251.98262127 -18.11247398 251.70821246 -23.68261719 251.72875977 C-24.42820892 251.72353302 -25.17380066 251.71830627 -25.94198608 251.71292114 C-27.55263936 251.70272242 -29.16332522 251.69690798 -30.7740097 251.69503975 C-33.3313664 251.69135657 -35.88834201 251.6745754 -38.44561768 251.65428162 C-45.71367268 251.5990669 -52.98178361 251.56826797 -60.25 251.54370117 C-64.70502441 251.52774005 -69.15977858 251.49743091 -73.61466217 251.45893669 C-75.30334839 251.44736025 -76.99208312 251.44135699 -78.68080902 251.44125557 C-99.50987433 251.43955139 -99.50987433 251.43955139 -106.4375 246.1328125 C-111.60927695 239.48707912 -114.68055512 233.37345269 -113.75390625 224.6953125 C-112.25837657 216.8338556 -108.62973405 211.58981588 -102 207 C-96.64069797 205.37646436 -91.7560814 204.71056579 -86.15039062 204.74462891 C-85.41104782 204.74100845 -84.67170502 204.737388 -83.90995789 204.73365784 C-82.31951624 204.72681401 -80.72905137 204.72424889 -79.13859558 204.72560501 C-76.6152281 204.72657832 -74.09227724 204.7135348 -71.56896973 204.69662476 C-64.40001581 204.65058765 -57.23110864 204.62574779 -50.06201172 204.61914062 C-45.66298577 204.61411093 -41.26440062 204.5897947 -36.86552429 204.55381393 C-35.19751132 204.54405668 -33.52943743 204.54166161 -31.86140442 204.54698563 C-19.82225578 204.75428488 -19.82225578 204.75428488 -9 200 C-5.93733773 196.85880793 -5.07806879 195.31227515 -4 191 C-6.31 194.3 -8.62 197.6 -11 201 C-17.01921132 197.07391324 -22.74888064 192.96590385 -28.375 188.5 C-34.61102621 183.59900855 -40.90987653 178.80620757 -47.3125 174.125 C-54.1858866 169.09831162 -60.98794961 163.98801288 -67.75 158.8125 C-76.08822366 152.43123776 -84.49949752 146.16319074 -93 140 C-91.33480642 134.96518694 -88.41416995 130.9173544 -85.4453125 126.58203125 C-84.88101532 125.7495134 -84.31671814 124.91699554 -83.73532104 124.05924988 C-82.51176453 122.25500716 -81.28610642 120.45218825 -80.05859375 118.65063477 C-76.74036784 113.78013272 -73.43772894 108.89906967 -70.1328125 104.01953125 C-69.45228821 103.0156839 -68.77176392 102.01183655 -68.07061768 100.97756958 C-61.902082 91.87240696 -55.79621417 82.72636577 -49.70724487 73.56787109 C-39.21122097 57.78077645 -28.66064095 42.03122627 -18.0625 26.3125 C-17.12458618 24.92043335 -17.12458618 24.92043335 -16.16772461 23.50024414 C-14.39551734 20.87047933 -12.62187345 18.24169033 -10.84765625 15.61328125 C-10.32808853 14.84228592 -9.80852081 14.07129059 -9.27320862 13.27693176 C-6.24845904 8.80124544 -3.15847833 4.38242029 0 0 Z " fill="#031C53" transform="translate(122,173)"/>
<path d="M0 0 C4.10810616 3.20632676 7.49395199 6.57939515 10.86328125 10.546875 C12.5576666 12.49216568 14.27864495 14.3849781 16.04296875 16.265625 C16.58099121 16.83990234 17.11901367 17.41417969 17.67333984 18.00585938 C18.74961485 19.15106471 19.82926967 20.29310489 20.91259766 21.43164062 C23.43249478 24.12148241 25.61909245 26.5519157 27 30 C25.94039062 30.53109375 24.88078125 31.0621875 23.7890625 31.609375 C22.40072692 32.32230408 21.0127232 33.03587967 19.625 33.75 C18.92632812 34.09804688 18.22765625 34.44609375 17.5078125 34.8046875 C13.53083428 36.8353496 13.53083428 36.8353496 10.54296875 40.0546875 C9.36346172 44.28054722 9.51787499 47.83497167 11.19067383 51.87719727 C13.15881942 55.27411405 15.47490199 57.87406117 18.26171875 60.58984375 C19.02594902 61.35126427 19.02594902 61.35126427 19.80561829 62.12806702 C20.88049755 63.1962572 21.95895215 64.2608605 23.04077148 65.32202148 C24.67227863 66.92256749 26.29306034 68.53334697 27.91210938 70.14648438 C32.86173834 75.05880661 37.86508212 79.86830396 43.16479492 84.40551758 C46.48117262 87.28688817 49.63022607 90.34740359 52.8125 93.375 C69.12884207 110.41830729 69.12884207 110.41830729 89.7265625 118.33984375 C95.92658034 117.41303696 100.63177697 113.33858006 105.125 109.25 C110.12393744 105.23530931 114.5969178 105.364096 120.8359375 105.2265625 C128.38066342 104.97087012 135.71468135 102.84140059 143 101 C144.12535156 100.72414063 145.25070312 100.44828125 146.41015625 100.1640625 C172.46125492 93.26352847 212.053379 81.33242441 228 58 C231.55576235 51.84001734 231.66332303 44.96573037 232 38 C232.99257813 37.79246094 233.98515625 37.58492188 235.0078125 37.37109375 C248.27975424 34.42962896 260.26901816 29.94252493 270 20 C272.00256859 21.00115247 274.0015273 22.0008127 275.97813416 23.05259705 C283.39490103 26.55346949 290.65097602 26.55861072 298.67190742 26.51642036 C301.11612048 26.50364643 303.55922782 26.51520883 306.00340271 26.53245544 C310.31206951 26.55900974 314.62045945 26.56475669 318.92919922 26.56335449 C325.82690425 26.56111622 332.72426727 26.57548541 339.62183952 26.61894035 C342.01537915 26.62869823 344.40836774 26.62010575 346.80189514 26.61024475 C356.88458325 26.62513783 365.83821133 27.07653657 373.5625 34.3359375 C377.57733059 38.9835403 379 44.95801413 379 51 C378.18784765 58.46164975 375.59168638 63.40831362 370.25 68.75 C363.69780953 73.28613186 356.65047127 73.2905479 348.94726562 73.25537109 C347.97383713 73.25899155 347.00040863 73.262612 345.9974823 73.26634216 C343.8962955 73.27320429 341.795091 73.27574761 339.69389343 73.27439499 C336.36404475 73.27342521 333.03451484 73.28642468 329.70471191 73.30337524 C320.24180531 73.34951723 310.77893332 73.37425731 301.31591797 73.38085938 C295.51642626 73.38587997 289.71727034 73.410153 283.91789246 73.44618607 C281.71398435 73.45596627 279.51002997 73.45832577 277.30610657 73.45301437 C274.2212848 73.44592637 271.13746182 73.46326092 268.05273438 73.48583984 C267.14964035 73.47766739 266.24654633 73.46949493 265.31608582 73.46107483 C258.8054611 73.54557526 253.40820094 74.9272054 248.47335052 79.37640953 C244.1277693 84.2061971 242.48895267 89.31995865 242.6875 95.78515625 C243.49532491 101.51061526 245.51625819 107.12712927 249.9375 111 C255.2293693 114.45591465 259.09445617 115.24880897 265.42578125 115.30859375 C266.87695702 115.3337608 268.3281288 115.35915872 269.77929688 115.38476562 C272.04352718 115.41341437 274.30768814 115.43745997 276.57202148 115.45629883 C295.03926032 115.63958149 295.03926032 115.63958149 301.2421875 120.90234375 C301.78101563 121.57394531 302.31984375 122.24554688 302.875 122.9375 C303.42929687 123.60652344 303.98359375 124.27554688 304.5546875 124.96484375 C308.39432123 130.37146313 309.43603068 135.79195789 308.75390625 142.375 C307.36211557 149.66650516 304.20380209 154.76325711 298 159 C294.18001677 160.83105222 291.14583566 161.2522947 286.92541027 161.26006222 C285.69771677 161.26712781 284.47002327 161.2741934 283.20512694 161.2814731 C281.84583198 161.27922183 280.48653734 161.27677534 279.12724304 161.27415466 C277.68082156 161.2786075 276.23440252 161.2839217 274.78798705 161.29002339 C270.8127575 161.30420823 266.83760611 161.30586659 262.86235487 161.30542648 C258.575253 161.30707424 254.28818337 161.32013993 250.00109863 161.33161926 C240.62719004 161.35447071 231.25330408 161.36238989 221.8793714 161.36744571 C216.02665669 161.37070227 210.17394856 161.37722446 204.32123756 161.3844471 C188.11739024 161.40401247 171.91354904 161.42041729 155.70968914 161.42332363 C154.67274569 161.4235112 153.63580224 161.42369877 152.56743627 161.42389202 C150.46529694 161.42425828 148.36315762 161.42462197 146.2610183 161.42498314 C144.69575833 161.42525735 144.69575833 161.42525735 143.09887695 161.42553711 C141.53170726 161.42580793 141.53170726 161.42580793 139.93287758 161.42608423 C122.99947686 161.42962672 106.06620324 161.45665409 89.13284662 161.494035 C71.7485321 161.53210444 54.36428068 161.551481 36.97992355 161.55178314 C27.21881317 161.55236799 17.45785444 161.56087746 7.69678307 161.58978081 C-0.61392207 161.61427635 -8.92442022 161.62158989 -17.23515169 161.60653328 C-21.47521192 161.59935711 -25.71486329 161.60025204 -29.95487785 161.62294388 C-33.8381448 161.64352736 -37.72068837 161.64094008 -41.60394742 161.62006903 C-43.00703199 161.61657289 -44.41016868 161.62148963 -45.81318489 161.63577347 C-55.53129425 161.72831764 -61.31804292 160.5554177 -68.3125 153.75 C-72.8951448 146.28198625 -73.73478879 139.58053223 -72 131 C-69.58387562 124.47646417 -65.15155212 120.15464211 -59 117 C-55.10004492 115.66219792 -51.08891453 115.8470878 -47.015625 115.82421875 C-45.42446605 115.80101288 -43.83332018 115.77689524 -42.2421875 115.75195312 C-39.74958618 115.71693918 -37.25746508 115.68754033 -34.76464844 115.67407227 C-32.34772363 115.65848075 -29.93217919 115.6182013 -27.515625 115.57421875 C-26.78200745 115.57612717 -26.04838989 115.57803558 -25.2925415 115.58000183 C-19.25704627 115.43926872 -14.02271525 113.71410603 -9.46734619 109.62382507 C-4.80742342 104.4206896 -3.55993816 99.08966423 -3.75390625 92.30078125 C-4.42339808 86.04156401 -6.79908705 81.64685388 -11.20703125 77.2265625 C-15.94897082 73.98262127 -21.11247398 73.70821246 -26.68261719 73.72875977 C-27.42820892 73.72353302 -28.17380066 73.71830627 -28.94198608 73.71292114 C-30.55263936 73.70272242 -32.16332522 73.69690798 -33.7740097 73.69503975 C-36.3313664 73.69135657 -38.88834201 73.6745754 -41.44561768 73.65428162 C-48.71367268 73.5990669 -55.98178361 73.56826797 -63.25 73.54370117 C-67.70502441 73.52774005 -72.15977858 73.49743091 -76.61466217 73.45893669 C-78.30334839 73.44736025 -79.99208312 73.44135699 -81.68080902 73.44125557 C-102.50987433 73.43955139 -102.50987433 73.43955139 -109.4375 68.1328125 C-114.60927695 61.48707912 -117.68055512 55.37345269 -116.75390625 46.6953125 C-115.25837657 38.8338556 -111.62973405 33.58981588 -105 29 C-99.64069797 27.37646436 -94.7560814 26.71056579 -89.15039062 26.74462891 C-88.41104782 26.74100845 -87.67170502 26.737388 -86.90995789 26.73365784 C-85.31951624 26.72681401 -83.72905137 26.72424889 -82.13859558 26.72560501 C-79.6152281 26.72657832 -77.09227724 26.7135348 -74.56896973 26.69662476 C-67.40001581 26.65058765 -60.23110864 26.62574779 -53.06201172 26.61914062 C-48.66298577 26.61411093 -44.26440062 26.5897947 -39.86552429 26.55381393 C-38.19751132 26.54405668 -36.52943743 26.54166161 -34.86140442 26.54698563 C-22.82461272 26.75048562 -22.82461272 26.75048562 -12 22 C-8.53817705 18.53817705 -7.04720809 15.02224615 -5.4375 10.4375 C-4.03165971 6.45044475 -2.73731628 3.24510829 0 0 Z " fill="#CAEDFE" transform="translate(125,351)"/>
<path d="M0 0 C1.98925781 -0.26464844 1.98925781 -0.26464844 4.453125 -0.109375 C5.83226074 -0.03505249 5.83226074 -0.03505249 7.23925781 0.04077148 C8.23280273 0.10981689 9.22634766 0.1788623 10.25 0.25 C12.33330014 0.37166341 14.41663455 0.49274138 16.5 0.61328125 C17.57121094 0.6798291 18.64242187 0.74637695 19.74609375 0.81494141 C22.93475428 0.9962893 26.12052759 1.12410296 29.3125 1.23046875 C30.30991211 1.2655957 31.30732422 1.30072266 32.33496094 1.33691406 C34.24949211 1.40297661 36.1642167 1.46369261 38.07910156 1.51855469 C38.9450293 1.55239258 39.81095703 1.58623047 40.703125 1.62109375 C41.46270508 1.6461499 42.22228516 1.67120605 43.00488281 1.69702148 C45 2 45 2 48 4 C46.23462891 4.48146484 46.23462891 4.48146484 44.43359375 4.97265625 C38.98077051 7.02781273 36.3800925 10.82350752 33.0625 15.4375 C32.45913818 16.24501709 31.85577637 17.05253418 31.23413086 17.88452148 C29.47383946 20.24529162 27.73645528 22.62167643 26 25 C25.11727005 26.18169924 24.23216757 27.36163331 23.34375 28.5390625 C21.94197218 30.39689817 20.54606852 32.25920531 19.16015625 34.12890625 C17 37 17 37 15.30517578 38.74609375 C8.86547205 45.82112737 8.03741719 53.77544812 6.75 62.875 C6.50749355 64.44910955 6.26252637 66.02284192 6.01513672 67.59619141 C5.53525687 70.67285686 5.06965441 73.75107386 4.61816406 76.83203125 C4.10234344 80.34239435 3.54538147 83.84405767 2.9609375 87.34375 C1.3878682 96.11824046 1.3878682 96.11824046 1 105 C3.39460588 105.81627446 5.79056526 106.62811645 8.1875 107.4375 C8.86103516 107.66759766 9.53457031 107.89769531 10.22851562 108.13476562 C20.37448042 111.5497489 31.04756001 112.90678437 41 108 C48.21474067 103.58048257 50.35877092 97.19402328 53.4375 89.625 C57.02958589 81.4247192 59.95277588 75.27089383 68.4375 71.625 C70.93804953 70.66207774 73.45023633 69.83223392 76 69 C77.67813249 68.01936291 79.34859635 67.02500916 81 66 C81.66 66 82.32 66 83 66 C84.58433756 67.86159663 86.04855356 69.72571878 87.5 71.6875 C88.41131919 72.89593828 89.32278122 74.10426885 90.234375 75.3125 C90.69779297 75.93125 91.16121094 76.55 91.63867188 77.1875 C93.65411469 79.87090162 95.70186885 82.52899864 97.75 85.1875 C98.35231445 85.97096802 98.35231445 85.97096802 98.96679688 86.77026367 C103.23098376 92.31321384 107.53049381 97.82864458 111.82714844 103.34643555 C116.02815806 108.74374028 120.20434486 114.15912944 124.3671875 119.5859375 C126.98538346 122.99020637 129.63091548 126.37288924 132.27685547 129.75561523 C134.09368155 132.08484868 135.89914297 134.42253044 137.703125 136.76171875 C139.64988834 139.28325672 141.62322479 141.76774859 143.671875 144.20703125 C147.99999646 149.57113923 150.11422732 153.41996985 149.515625 160.43359375 C147.8728061 168.61035144 143.45887461 172.98339836 137 178 C132.78134756 173.94724962 129.07262561 169.59119637 125.375 165.0625 C124.76543457 164.32265869 124.15586914 163.58281738 123.52783203 162.82055664 C120.54604214 159.18569797 117.61438646 155.52557259 114.78125 151.7734375 C114.28834473 151.1249585 113.79543945 150.47647949 113.28759766 149.80834961 C112.36452803 148.58583275 111.45219748 147.35511254 110.55224609 146.11547852 C109.20109597 144.26805464 109.20109597 144.26805464 107 142 C105.68 142 104.36 142 103 142 C102.34 143.32 101.68 144.64 101 146 C101.54974487 146.66249756 101.54974487 146.66249756 102.1105957 147.33837891 C110.21611523 157.11658637 118.23254519 166.95042572 126 177 C126.59425781 177.74636719 127.18851563 178.49273437 127.80078125 179.26171875 C129 181 129 181 129 183 C126.41909233 184.31746333 123.83549542 185.62909617 121.25 186.9375 C120.52039063 187.31068359 119.79078125 187.68386719 119.0390625 188.06835938 C118.33007812 188.42607422 117.62109375 188.78378906 116.890625 189.15234375 C116.24125977 189.48226318 115.59189453 189.81218262 114.92285156 190.15209961 C112.96706921 191.01452116 111.08459306 191.54374179 109 192 C100.89607223 182.07945249 92.87653295 172.10216651 85 162 C82.525 162.99 82.525 162.99 80 164 C80 167.43429824 80.40308388 167.85070806 82.52734375 170.37109375 C83.0685083 171.02271484 83.60967285 171.67433594 84.16723633 172.34570312 C85.04351685 173.38114258 85.04351685 173.38114258 85.9375 174.4375 C87.12942298 175.87218881 88.31951312 177.30840221 89.5078125 178.74609375 C90.09852539 179.46007324 90.68923828 180.17405273 91.29785156 180.90966797 C95.02391065 185.48547375 98.51218205 190.24142667 102 195 C99.811636 197.188364 98.4227652 197.71634548 95.53515625 198.7265625 C94.65279297 199.0359375 93.77042969 199.3453125 92.86132812 199.6640625 C91.93771484 199.98117187 91.01410156 200.29828125 90.0625 200.625 C89.14275391 200.94984375 88.22300781 201.2746875 87.27539062 201.609375 C80.38978795 204 80.38978795 204 77 204 C75.14135771 201.91615872 73.47503305 199.85717615 71.8125 197.625 C70.83375361 196.34342892 69.85458344 195.06218138 68.875 193.78125 C68.39160156 193.14316406 67.90820312 192.50507813 67.41015625 191.84765625 C65.41911252 189.23889258 63.36976048 186.68188088 61.3125 184.125 C60.66925781 183.32320312 60.02601563 182.52140625 59.36328125 181.6953125 C58.91339844 181.13585937 58.46351563 180.57640625 58 180 C56.35 180.66 54.7 181.32 53 182 C53 186.32930322 55.56648869 188.59932183 58.1875 191.8125 C58.67025391 192.41642578 59.15300781 193.02035156 59.65039062 193.64257812 C61.56303904 196.02761218 63.48313153 198.4002005 65.47900391 200.71630859 C69 204.80612875 69 204.80612875 69 207 C60.9178184 209.99340059 52.67470086 212.20282574 44 212 C44.433125 211.43152344 44.86625 210.86304688 45.3125 210.27734375 C47.85119609 206.75725357 49.80112312 203.89494595 50.75 199.625 C46.51857502 179.17311259 22.36808619 158.90021834 7 146 C5.63101563 144.83210938 5.63101563 144.83210938 4.234375 143.640625 C3.27015625 142.83109375 2.3059375 142.0215625 1.3125 141.1875 C0.42175781 140.43855469 -0.46898437 139.68960938 -1.38671875 138.91796875 C-7.58321392 134.37016737 -13.53437351 134.1686924 -21 135 C-25.54737802 136.04844889 -29.97460398 137.46587573 -34.41015625 138.90625 C-38 140 -38 140 -41 140 C-42.40234375 138.70703125 -42.40234375 138.70703125 -43.9375 136.8125 C-47.18446633 132.9313067 -50.55223258 129.20155473 -54 125.5 C-57.97017334 121.22243853 -61.88733566 116.91197573 -65.6953125 112.48828125 C-66.75115971 111.28385674 -67.86742512 110.13257488 -69 109 C-68.77998304 104.26117325 -66.19415486 100.81078857 -63.625 97 C-62.61717698 95.47396528 -61.60936537 93.94792303 -60.6015625 92.421875 C-60.0334082 91.56787109 -59.46525391 90.71386719 -58.87988281 89.83398438 C-56.81105903 86.71516535 -54.758952 83.58562335 -52.7109375 80.453125 C-51.93978327 79.27384138 -51.16862432 78.09456084 -50.39746094 76.9152832 C-49.80862122 76.01478745 -49.80862122 76.01478745 -49.20788574 75.09609985 C-47.15401603 71.95702101 -45.09650674 68.82033044 -43.0390625 65.68359375 C-38.54457197 58.83076686 -34.05185537 51.97678 -29.56051636 45.12188721 C-28.77272051 43.91951854 -27.98489923 42.71716654 -27.197052 41.51483154 C-20.5421584 31.3586286 -13.89527688 21.19720247 -7.25341797 11.0324707 C-6.59100098 10.01886475 -5.92858398 9.00525879 -5.24609375 7.9609375 C-4.66529053 7.07196777 -4.0844873 6.18299805 -3.48608398 5.26708984 C-2.33185319 3.50625739 -1.16787508 1.75181262 0 0 Z " fill="#98E9FD" transform="translate(200,237)"/>
<path d="M0 0 C4.10810616 3.20632676 7.49395199 6.57939515 10.86328125 10.546875 C12.5576666 12.49216568 14.27864495 14.3849781 16.04296875 16.265625 C16.58099121 16.83990234 17.11901367 17.41417969 17.67333984 18.00585938 C18.74961485 19.15106471 19.82926967 20.29310489 20.91259766 21.43164062 C23.43249478 24.12148241 25.61909245 26.5519157 27 30 C25.94039062 30.53109375 24.88078125 31.0621875 23.7890625 31.609375 C22.40072692 32.32230408 21.0127232 33.03587967 19.625 33.75 C18.92632812 34.09804688 18.22765625 34.44609375 17.5078125 34.8046875 C13.53083428 36.8353496 13.53083428 36.8353496 10.54296875 40.0546875 C9.36346172 44.28054722 9.51787499 47.83497167 11.19067383 51.87719727 C13.15881942 55.27411405 15.47490199 57.87406117 18.26171875 60.58984375 C19.02594902 61.35126427 19.02594902 61.35126427 19.80561829 62.12806702 C20.88049755 63.1962572 21.95895215 64.2608605 23.04077148 65.32202148 C24.67227863 66.92256749 26.29306034 68.53334697 27.91210938 70.14648438 C32.86173834 75.05880661 37.86508212 79.86830396 43.16479492 84.40551758 C46.48114909 87.28686773 49.63059714 90.34704752 52.8125 93.375 C58.9971685 99.21951894 65.31402406 104.73122238 72 110 C74.05748862 111.62433312 76.0423576 113.25399462 78 115 C78 115.66 78 116.32 78 117 C77.01 117.01417969 76.02 117.02835937 75 117.04296875 C66.12490042 117.3047943 59.82306661 118.08189759 53.4140625 124.6171875 C48.72168082 130.65765674 49.20889328 137.6974764 50 145 C51.15408405 150.14492429 53.86491109 153.76384346 58 157 C60.94436754 158.2321807 63.91879069 159.17431646 67 160 C67 160.33 67 160.66 67 161 C50.84025075 161.11695161 34.6806394 161.20504574 18.52056885 161.25906086 C11.01666085 161.28481093 3.51301625 161.31989966 -3.99072266 161.37719727 C-10.53320784 161.42713092 -17.0755022 161.45931426 -23.61817265 161.47044247 C-27.08057855 161.47694459 -30.54243871 161.49215793 -34.00466919 161.52865028 C-37.8756104 161.5691172 -41.74602425 161.56994304 -45.6171875 161.56762695 C-47.32730766 161.59459152 -47.32730766 161.59459152 -49.07197571 161.62210083 C-57.44395928 161.56795598 -62.33979132 159.56128412 -68.3125 153.75 C-72.8951448 146.28198625 -73.73478879 139.58053223 -72 131 C-69.58387562 124.47646417 -65.15155212 120.15464211 -59 117 C-55.10004492 115.66219792 -51.08891453 115.8470878 -47.015625 115.82421875 C-45.42446605 115.80101288 -43.83332018 115.77689524 -42.2421875 115.75195312 C-39.74958618 115.71693918 -37.25746508 115.68754033 -34.76464844 115.67407227 C-32.34772363 115.65848075 -29.93217919 115.6182013 -27.515625 115.57421875 C-26.78200745 115.57612717 -26.04838989 115.57803558 -25.2925415 115.58000183 C-19.25704627 115.43926872 -14.02271525 113.71410603 -9.46734619 109.62382507 C-4.80742342 104.4206896 -3.55993816 99.08966423 -3.75390625 92.30078125 C-4.42339808 86.04156401 -6.79908705 81.64685388 -11.20703125 77.2265625 C-15.94897082 73.98262127 -21.11247398 73.70821246 -26.68261719 73.72875977 C-27.42820892 73.72353302 -28.17380066 73.71830627 -28.94198608 73.71292114 C-30.55263936 73.70272242 -32.16332522 73.69690798 -33.7740097 73.69503975 C-36.3313664 73.69135657 -38.88834201 73.6745754 -41.44561768 73.65428162 C-48.71367268 73.5990669 -55.98178361 73.56826797 -63.25 73.54370117 C-67.70502441 73.52774005 -72.15977858 73.49743091 -76.61466217 73.45893669 C-78.30334839 73.44736025 -79.99208312 73.44135699 -81.68080902 73.44125557 C-102.50987433 73.43955139 -102.50987433 73.43955139 -109.4375 68.1328125 C-114.60927695 61.48707912 -117.68055512 55.37345269 -116.75390625 46.6953125 C-115.25837657 38.8338556 -111.62973405 33.58981588 -105 29 C-99.64069797 27.37646436 -94.7560814 26.71056579 -89.15039062 26.74462891 C-88.41104782 26.74100845 -87.67170502 26.737388 -86.90995789 26.73365784 C-85.31951624 26.72681401 -83.72905137 26.72424889 -82.13859558 26.72560501 C-79.6152281 26.72657832 -77.09227724 26.7135348 -74.56896973 26.69662476 C-67.40001581 26.65058765 -60.23110864 26.62574779 -53.06201172 26.61914062 C-48.66298577 26.61411093 -44.26440062 26.5897947 -39.86552429 26.55381393 C-38.19751132 26.54405668 -36.52943743 26.54166161 -34.86140442 26.54698563 C-22.82461272 26.75048562 -22.82461272 26.75048562 -12 22 C-8.53817705 18.53817705 -7.04720809 15.02224615 -5.4375 10.4375 C-4.03165971 6.45044475 -2.73731628 3.24510829 0 0 Z " fill="#E3FEFE" transform="translate(125,351)"/>
<path d="M0 0 C2.1470779 2.08205913 3.66618182 4.41812698 5.2421875 6.94921875 C5.69546417 7.63949661 6.14874084 8.32977448 6.61575317 9.04096985 C8.05559787 11.24416967 9.46528368 13.46493283 10.875 15.6875 C11.81189864 17.12949371 12.75068798 18.57026083 13.69140625 20.00976562 C18.76859974 27.81033212 23.71658996 35.69331946 28.62045288 43.60380554 C31.93556467 48.94276594 35.40862665 54.16568329 38.91796875 59.37890625 C41.42385585 63.12097368 43.89722082 66.88396149 46.36328125 70.65234375 C46.75670212 71.25344971 47.15012299 71.85455566 47.5554657 72.47387695 C49.61394868 75.62043922 51.669859 78.76866008 53.72338867 81.91845703 C57.55283723 87.78533795 61.40691386 93.62768628 65.375 99.40234375 C66.36258301 100.84746338 66.36258301 100.84746338 67.37011719 102.32177734 C68.59448219 104.10680611 69.82904088 105.88489915 71.07519531 107.65478516 C71.61241211 108.44030762 72.14962891 109.22583008 72.703125 110.03515625 C73.40937012 111.04654663 73.40937012 111.04654663 74.12988281 112.07836914 C75 114 75 114 74.75073242 116.06542969 C70.16141969 127.89167816 59.64913899 137.99378895 48.5 143.4375 C43.11553547 145.7270073 37.83719493 147.42907706 32 148 C31.01386719 148.11988281 30.02773438 148.23976563 29.01171875 148.36328125 C26 148 26 148 23.578125 145.83203125 C22.80984375 144.83558594 22.0415625 143.83914063 21.25 142.8125 C20.61384766 142.00317017 20.61384766 142.00317017 19.96484375 141.17749023 C18.62527573 139.46474978 17.31239701 137.7336121 16 136 C15.16306627 134.9206263 14.32455418 133.84247438 13.484375 132.765625 C11.3831374 130.06308985 9.30443921 127.34411818 7.23242188 124.61914062 C5.24676156 122.01040464 3.24828277 119.41157367 1.25 116.8125 C0.8478125 116.28922119 0.445625 115.76594238 0.03125 115.22680664 C-4.23286014 109.68527307 -8.53121132 104.170434 -12.82714844 98.65356445 C-17.01727884 93.27023694 -21.18196379 87.86831138 -25.3359375 82.45703125 C-30.85742906 75.27909223 -36.43479738 68.14406049 -42 61 C-61.87177484 67.16545248 -61.87177484 67.16545248 -76.23144531 80.95556641 C-77.39812863 83.62491233 -78.43308778 86.30504502 -79.34375 89.07226562 C-80.36786641 92.08060758 -81.73326609 94.89694548 -83.125 97.75 C-83.54007813 98.67296875 -83.95515625 99.5959375 -84.3828125 100.546875 C-86.54883479 103.832532 -88.47897229 105.22726036 -92 107 C-94.98085908 107.52234514 -97.85613159 107.51561763 -100.875 107.4375 C-101.63941406 107.44458984 -102.40382812 107.45167969 -103.19140625 107.45898438 C-108.72571599 107.39790965 -112.91972242 106.18139482 -118 104 C-116.90649412 93.92995328 -115.42066087 83.92307314 -113.83383179 73.92068481 C-113.61195872 72.51953178 -113.39207695 71.11806192 -113.17422485 69.71627808 C-112.86185176 67.71223253 -112.54043487 65.70960319 -112.21875 63.70703125 C-112.03248047 62.5363208 -111.84621094 61.36561035 -111.65429688 60.15942383 C-110.59711904 55.0545961 -108.85187769 51.507901 -105.65625 47.41015625 C-104.99286621 46.54986816 -104.32948242 45.68958008 -103.64599609 44.80322266 C-102.19202391 42.94630665 -100.73657427 41.09054673 -99.27978516 39.23583984 C-94.56765543 33.21145694 -94.56765543 33.21145694 -90.4921875 26.75390625 C-85.28795638 17.65124584 -79.61876336 14.91633762 -69.54443359 12.12548828 C-67.6989071 11.65274421 -65.85025899 11.19205627 -63.99902344 10.7421875 C-55.78379521 8.70911246 -47.68884249 6.25059868 -39.640625 3.640625 C-38.42246094 3.24746094 -37.20429688 2.85429687 -35.94921875 2.44921875 C-33.46433184 1.64366407 -30.98257183 0.82840502 -28.50390625 0.00390625 C-18.61010234 -3.16084931 -9.51896558 -5.28169387 0 0 Z " fill="#00A2DF" transform="translate(327,233)"/>
<path d="M0 0 C4.25959505 1.49520479 7.80378157 3.70965493 11.50390625 6.2421875 C12.14574356 6.67578583 12.78758087 7.10938416 13.4488678 7.55612183 C14.86738978 8.51492919 16.28453514 9.4757755 17.70050049 10.43835449 C20.11919423 12.08094767 22.54308138 13.71563323 24.96826172 15.34863281 C30.29471703 18.93576472 35.61632671 22.53003924 40.9375 26.125 C42.79619654 27.38024893 44.65492033 28.63545751 46.51367188 29.890625 C51.0094279 32.92661963 55.50485074 35.96310706 60 39 C58.49732543 43.25351847 56.2985502 46.84542557 53.80859375 50.57421875 C53.39160721 51.20659958 52.97462067 51.83898041 52.54499817 52.49052429 C51.17990275 54.55890554 49.80867153 56.62314289 48.4375 58.6875 C47.48160235 60.133951 46.5262042 61.58073221 45.57128906 63.02783203 C43.63564171 65.96059399 41.69812647 68.89210778 39.75927734 71.82275391 C35.90077322 77.65910607 32.07441827 83.5162685 28.25 89.375 C26.86986507 91.48702713 25.48965703 93.5990065 24.109375 95.7109375 C23.43326172 96.74573242 22.75714844 97.78052734 22.06054688 98.84667969 C17.84275905 105.30129433 13.62241783 111.75423986 9.40258789 118.20751953 C6.09420696 123.26712498 2.78614289 128.32693657 -0.5206604 133.38757324 C-2.07662323 135.76872669 -3.63278647 138.14974913 -5.18896484 140.53076172 C-6.2824217 142.20397406 -7.37558994 143.87737499 -8.46875 145.55078125 C-11.62571518 150.38087691 -14.78586675 155.20771906 -18 160 C-21.47929139 159.38485225 -23.54719357 158.05602284 -26.31640625 155.89453125 C-27.15349121 155.24766357 -27.99057617 154.6007959 -28.85302734 153.93432617 C-30.19421631 152.88402222 -30.19421631 152.88402222 -31.5625 151.8125 C-33.46126542 150.34509277 -35.36102566 148.878972 -37.26171875 147.4140625 C-38.22126465 146.67317383 -39.18081055 145.93228516 -40.16943359 145.16894531 C-44.36495069 141.95409505 -48.61324419 138.81375398 -52.875 135.6875 C-53.64634277 135.12119873 -54.41768555 134.55489746 -55.21240234 133.97143555 C-57.47390909 132.3128852 -59.73693316 130.65642068 -62 129 C-63.50667749 127.89475897 -65.01319089 126.78929421 -66.51953125 125.68359375 C-70.01168938 123.12057488 -73.50534479 120.55961294 -77 118 C-76.56269137 112.63104269 -73.55228876 108.94419723 -70.578125 104.65234375 C-70.01460327 103.82447861 -69.45108154 102.99661346 -68.8704834 102.1436615 C-67.64639253 100.34673676 -66.41870615 98.55225729 -65.18786621 96.75994873 C-61.86872661 91.92571338 -58.57634707 87.07329673 -55.28125 82.22265625 C-54.2561734 80.71572205 -54.2561734 80.71572205 -53.21038818 79.17834473 C-45.94618484 68.48322553 -38.84258565 57.68435072 -31.75 46.875 C-2.80349755 2.80349755 -2.80349755 2.80349755 0 0 Z " fill="#011950" transform="translate(126,193)"/>
<path d="M0 0 C1.14631653 1.38105774 1.14631653 1.38105774 2.42895508 3.35668945 C2.91692062 4.10046844 3.40488617 4.84424744 3.90763855 5.61056519 C4.70552544 6.84940964 4.70552544 6.84940964 5.51953125 8.11328125 C6.36255547 9.40288254 6.36255547 9.40288254 7.22261047 10.71853638 C8.44699754 12.59259076 9.66833186 14.46864223 10.88702393 16.34640503 C14.16386789 21.3942114 17.46349886 26.42708243 20.76171875 31.4609375 C21.44242432 32.50090378 22.12312988 33.54087006 22.82446289 34.61235046 C29.82351227 45.28935493 36.96451286 55.8683823 44.125 66.4375 C55.24093884 82.85745502 66.21063225 99.36357043 77 116 C72.94507949 120.26959277 68.53774668 123.850694 63.875 127.4375 C62.69671631 128.34894775 62.69671631 128.34894775 61.49462891 129.27880859 C54.29680761 134.82163035 46.98985009 140.21164682 39.66015625 145.578125 C32.72717442 150.65678507 25.86495495 155.82997876 19 161 C15.28744385 157.65191854 12.92808182 153.92300639 10.375 149.6875 C7.112049 144.37203786 3.79669426 139.11080395 0.3125 133.9375 C-3.86557676 127.72160106 -7.97599384 121.4639829 -12.0625 115.1875 C-12.69647705 114.21393555 -13.3304541 113.24037109 -13.98364258 112.23730469 C-15.30863498 110.20250081 -16.63358525 108.16766949 -17.95849609 106.1328125 C-21.42465503 100.8137798 -24.89980103 95.50062914 -28.375 90.1875 C-29.79557429 88.0156259 -31.21614719 85.84375089 -32.63671875 83.671875 C-33.34876465 82.58326172 -34.06081055 81.49464844 -34.79443359 80.37304688 C-36.6898903 77.47467335 -38.58421242 74.57555999 -40.47814941 71.67619324 C-42.01227017 69.32766791 -43.54668926 66.97933756 -45.08111572 64.63101196 C-46.15185168 62.9920659 -47.22217322 61.35284911 -48.29248047 59.71362305 C-49.28272217 58.19828979 -49.28272217 58.19828979 -50.29296875 56.65234375 C-50.91606934 55.69312012 -51.53916992 54.73389648 -52.18115234 53.74560547 C-53.37527957 51.94303435 -54.59898962 50.15964769 -55.85400391 48.39892578 C-56.41394043 47.60856934 -56.97387695 46.81821289 -57.55078125 46.00390625 C-58.04876221 45.32271729 -58.54674316 44.64152832 -59.05981445 43.93969727 C-60 42 -60 42 -59.77175903 40.04441833 C-58.81290568 37.50438019 -57.84752603 36.8270289 -55.59204102 35.34960938 C-54.508088 34.62735168 -54.508088 34.62735168 -53.40223694 33.89050293 C-52.21506325 33.12486023 -52.21506325 33.12486023 -51.00390625 32.34375 C-50.18236557 31.80077271 -49.36082489 31.25779541 -48.51438904 30.69836426 C-45.87077985 28.95461987 -43.2170149 27.22708607 -40.5625 25.5 C-38.83978891 24.36826125 -37.11777596 23.23545904 -35.39648438 22.1015625 C-31.97460064 19.84868811 -28.54766097 17.60379761 -25.11767578 15.36328125 C-21.65104357 13.09368849 -18.20348031 10.79848652 -14.76904297 8.48046875 C-13.52428444 7.64183289 -13.52428444 7.64183289 -12.25437927 6.78625488 C-10.67694133 5.72135792 -9.10200299 4.65274629 -7.52992249 3.57995605 C-6.83031906 3.10819946 -6.13071564 2.63644287 -5.40991211 2.15039062 C-4.49078285 1.52517517 -4.49078285 1.52517517 -3.55308533 0.8873291 C-2 0 -2 0 0 0 Z " fill="#011950" transform="translate(404,193)"/>
<path d="M0 0 C4.19616878 3.99635122 7.55848764 8.29758673 10.80834961 13.08544922 C13.21379434 16.59749666 15.69879676 19.8381195 18.5625 22.9921875 C27.15685781 32.87929323 27.15685781 32.87929323 26.86962891 38.59375 C25.66081977 44.00732647 23.43432912 48.87252935 21.03515625 53.84765625 C19.52880744 56.97972491 18.41509222 59.52462006 18 63 C19.66929492 65.69848427 21.08388803 67.52100091 23.25 69.75 C23.79688477 70.3476416 24.34376953 70.9452832 24.90722656 71.56103516 C26.03411687 72.78873875 27.17062154 74.00768448 28.31640625 75.21777344 C30.39031078 77.41317702 32.40702696 79.65647462 34.42480469 81.90332031 C36.26765782 83.94987866 38.13272215 85.97573861 40 88 C41.33804688 87.36771484 41.33804688 87.36771484 42.703125 86.72265625 C43.87359375 86.17480469 45.0440625 85.62695312 46.25 85.0625 C47.41015625 84.51722656 48.5703125 83.97195312 49.765625 83.41015625 C59.91121934 78.98677514 73.901536 79.34541585 84.1875 83.0625 C96.65978979 88.74769227 105.88435844 98.29711478 111 111 C115.02581191 122.80904828 114.45196751 136.76055929 109 148 C106.01035056 153.35679653 102.57398497 157.88341352 98 162 C97.071875 162.845625 96.14375 163.69125 95.1875 164.5625 C85.68195111 172.23913316 73.03895108 175.20220187 61 174 C49.03337784 172.23129819 37.56087948 166.65466149 30 157 C21.6531254 144.93461254 18.27932188 132.54895821 20.4609375 117.90625 C21.83889314 111.61628777 24.03468704 106.61195918 27.59765625 101.25390625 C29.05640586 98.90934212 30.0466798 96.58628015 31 94 C25.72140295 87.37894494 20.30232892 81.00873952 14.45581055 74.88574219 C11 71.21189748 11 71.21189748 11 69 C10.22100342 69.28125732 9.44200684 69.56251465 8.6394043 69.85229492 C-13.17719994 77.27659186 -13.17719994 77.27659186 -21.109375 73.53222656 C-26.65767898 69.28283697 -30.8665932 64.00608157 -35.03759766 58.44213867 C-37.48618038 55.39496611 -40.2233262 52.96787508 -43.24487305 50.50439453 C-45.86079899 48.26217229 -47.88404358 45.71106916 -50 43 C-42.02032771 41.04579454 -34.00338048 39.366866 -25.9375 37.8125 C-25.02137939 37.63364258 -24.10525879 37.45478516 -23.16137695 37.27050781 C-22.292146 37.10518555 -21.42291504 36.93986328 -20.52734375 36.76953125 C-19.75124756 36.62104736 -18.97515137 36.47256348 -18.17553711 36.31958008 C-16 36 -16 36 -12 36 C-11.76410156 34.7934375 -11.52820313 33.586875 -11.28515625 32.34375 C-9.85062289 25.89277355 -7.62712379 19.72641835 -5.4375 13.5 C-5.02564453 12.30890625 -4.61378906 11.1178125 -4.18945312 9.890625 C-1.13650307 1.13650307 -1.13650307 1.13650307 0 0 Z M2 20 C-2.06226433 29.20362005 -2.06226433 29.20362005 -4 39 C-1.95832203 43.61691445 1.08929757 45.94513518 5 49 C5.72445312 49.91007812 6.44890625 50.82015625 7.1953125 51.7578125 C7.79085937 52.49773438 8.38640625 53.23765625 9 54 C9.66 54 10.32 54 11 54 C11.84378975 51.94175571 12.67463622 49.87820214 13.5 47.8125 C13.9640625 46.66394531 14.428125 45.51539062 14.90625 44.33203125 C15.95010916 41.15198888 16.29479884 39.28508174 16 36 C14.97219244 33.90689791 14.97219244 33.90689791 13.4453125 32.01171875 C12.91292969 31.30595703 12.38054687 30.60019531 11.83203125 29.87304688 C10.98705078 28.79120117 10.98705078 28.79120117 10.125 27.6875 C9.56941406 26.94693359 9.01382813 26.20636719 8.44140625 25.44335938 C6.31953133 22.63731221 6.31953133 22.63731221 4 20 C3.34 20 2.68 20 2 20 Z M-23.3125 46.5 C-24.42334961 46.71462891 -24.42334961 46.71462891 -25.55664062 46.93359375 C-27.37189772 47.28493383 -29.18606392 47.64190216 -31 48 C-29.6705747 49.60930431 -28.32748446 51.2083276 -26.9375 52.765625 C-25 55 -25 55 -22.9375 57.796875 C-20.42634512 60.86794955 -18.438788 62.99622786 -15 65 C-9.51445264 65.49917672 -4.11060928 63.83886409 1 62 C1.66 61.34 2.32 60.68 3 60 C2.31292969 59.25234375 1.62585938 58.5046875 0.91796875 57.734375 C0.0077189 56.73966898 -0.90243213 55.74487252 -1.8125 54.75 C-2.26431641 54.25886719 -2.71613281 53.76773438 -3.18164062 53.26171875 C-5.1320641 51.1262186 -6.94855543 49.08029075 -8.51171875 46.640625 C-9.8811759 44.786851 -9.8811759 44.786851 -12.16796875 44.65625 C-15.91967826 45.11162991 -19.60639826 45.76474121 -23.3125 46.5 Z " fill="#002984" transform="translate(196,11)"/>
<path d="M0 0 C3.22981173 1.66121141 4.45125492 4.07285579 6.3671875 7.12109375 C9.02610692 10.93360955 11.23923999 14.00271244 15.9921875 14.99609375 C21.58371543 14.97862023 25.2086188 11.38557344 28.98168945 7.64404297 C32.56202259 4.15925841 32.56202259 4.15925841 35.58203125 3.97265625 C39.3116746 5.6215512 42.27205051 7.94115925 45.4296875 10.49609375 C46.06648438 10.99109375 46.70328125 11.48609375 47.359375 11.99609375 C52.04845861 15.72740709 52.04845861 15.72740709 53.1796875 19.12109375 C52.47944506 20.8489109 51.76820357 22.57388374 50.97851562 24.26269531 C47.49037169 31.52840241 47.49037169 31.52840241 47.6796875 39.37109375 C48.92213289 42.0038947 49.76839197 42.91544599 52.3828125 44.22265625 C54.89842096 45.0325379 54.89842096 45.0325379 57.4140625 45.48828125 C60.91468306 46.2892707 63.9069149 47.64592778 67.1796875 49.12109375 C66.87193204 52.20491989 66.5576516 55.2880474 66.2421875 58.37109375 C66.15517578 59.24378906 66.06816406 60.11648437 65.97851562 61.015625 C65.89150391 61.85996094 65.80449219 62.70429687 65.71484375 63.57421875 C65.6362915 64.34926758 65.55773926 65.12431641 65.47680664 65.92285156 C65.1863192 68.07202899 64.864736 70.06170734 64.1796875 72.12109375 C60.55757701 73.932149 55.96890737 73.4101337 51.9453125 73.46289062 C49.54610647 73.51499439 49.54610647 73.51499439 46.1796875 74.12109375 C44.73329233 75.82002401 44.73329233 75.82002401 44.1796875 78.12109375 C43.35017578 79.29671875 43.35017578 79.29671875 42.50390625 80.49609375 C40.81229402 83.84937817 41.20083074 85.49288497 41.9921875 89.12109375 C42.78429452 92.88480225 43.31420699 96.26958831 43.1796875 100.12109375 C25.84362193 109.12109375 25.84362193 109.12109375 21.1796875 109.12109375 C20.10468597 107.47177634 19.03608751 105.81776286 18.0078125 104.13891602 C14.20962719 97.9470722 14.20962719 97.9470722 8.42578125 93.875 C3.79501067 93.55222936 1.14048972 94.42984993 -2.6328125 97.14453125 C-5.33232516 99.51126636 -5.33232516 99.51126636 -7.7265625 102.0546875 C-9.8203125 104.12109375 -9.8203125 104.12109375 -12.8203125 105.12109375 C-14.70556641 104.07299805 -14.70556641 104.07299805 -16.796875 102.4453125 C-17.92609375 101.57422852 -17.92609375 101.57422852 -19.078125 100.68554688 C-19.85929687 100.06615234 -20.64046875 99.44675781 -21.4453125 98.80859375 C-22.23421875 98.20080078 -23.023125 97.59300781 -23.8359375 96.96679688 C-29.67072044 92.42027786 -29.67072044 92.42027786 -30.8203125 90.12109375 C-29.62148855 87.16524346 -28.30488495 84.30802444 -26.9140625 81.43945312 C-25.12341973 77.5390021 -24.41383396 75.21205296 -25.8203125 71.12109375 C-26.00335938 70.26128906 -26.18640625 69.40148437 -26.375 68.515625 C-28.6252312 64.78753925 -31.9353532 64.12100703 -35.9453125 62.80859375 C-36.69941406 62.54498047 -37.45351563 62.28136719 -38.23046875 62.00976562 C-40.0879121 61.36318724 -41.95341621 60.73984867 -43.8203125 60.12109375 C-44.10576678 51.98564689 -43.00428133 44.14459679 -41.8203125 36.12109375 C-40.57894531 35.97414062 -39.33757812 35.8271875 -38.05859375 35.67578125 C-36.41647981 35.45057705 -34.77456211 35.22393872 -33.1328125 34.99609375 C-32.31619141 34.90328125 -31.49957031 34.81046875 -30.65820312 34.71484375 C-26.68808814 34.13620351 -23.6067061 33.50766427 -20.6953125 30.62109375 C-18.12245199 25.81842079 -18.66586009 22.49544963 -19.5078125 17.24609375 C-19.62576172 16.36695312 -19.74371094 15.4878125 -19.86523438 14.58203125 C-20.15833606 12.42480283 -20.48591586 10.27230781 -20.8203125 8.12109375 C-17.93453316 6.7447163 -15.03540217 5.39911126 -12.1328125 4.05859375 C-10.90788086 3.47368164 -10.90788086 3.47368164 -9.65820312 2.87695312 C-6.34784509 1.36249783 -3.65982829 0.15713944 0 0 Z M-10.8203125 14.12109375 C-10.59472656 15.18328125 -10.36914062 16.24546875 -10.13671875 17.33984375 C-8.0436278 28.61135833 -8.0436278 28.61135833 -10.2109375 32.82421875 C-12.1328125 34.87109375 -12.1328125 34.87109375 -14.12109375 36.54296875 C-16.23009487 38.21377121 -16.23009487 38.21377121 -16.8203125 42.12109375 C-22.4303125 42.78109375 -28.0403125 43.44109375 -33.8203125 44.12109375 C-34.1503125 47.09109375 -34.4803125 50.06109375 -34.8203125 53.12109375 C-32.88563308 53.96095459 -30.94746121 54.79277402 -29.0078125 55.62109375 C-27.92886719 56.08515625 -26.84992188 56.54921875 -25.73828125 57.02734375 C-22.87149226 58.29658678 -22.87149226 58.29658678 -19.8203125 58.12109375 C-19.71074219 58.71277344 -19.60117187 59.30445313 -19.48828125 59.9140625 C-18.45478403 65.09899929 -18.45478403 65.09899929 -16.1328125 69.80859375 C-14.8203125 72.12109375 -14.8203125 72.12109375 -14.8828125 74.80859375 C-16.18054361 79.39391034 -17.95830214 83.73887401 -19.8203125 88.12109375 C-17.5103125 89.77109375 -15.2003125 91.42109375 -12.8203125 93.12109375 C-11.9746875 92.56421875 -11.1290625 92.00734375 -10.2578125 91.43359375 C-9.41669922 90.89798828 -9.41669922 90.89798828 -8.55859375 90.3515625 C-6.79283658 89.18319543 -6.79283658 89.18319543 -5.42578125 87.671875 C-2.41804202 84.77523959 -0.31313756 84.15522434 3.90234375 83.86328125 C9.85796199 84.0705306 14.51399374 84.58246401 18.99609375 88.72265625 C20.96340924 91.44663155 22.65812508 94.12802031 24.1796875 97.12109375 C27.91456527 96.62311005 29.99206385 96.24617619 33.1796875 94.12109375 C33.07540311 91.49014747 32.8387381 89.03228603 32.4921875 86.43359375 C31.73530355 79.04640639 31.73530355 79.04640639 33.3671875 75.6484375 C34.9921875 73.87109375 34.9921875 73.87109375 36.63671875 72.48046875 C38.34278866 71.20638278 38.34278866 71.20638278 38.87109375 69.05859375 C40.1796875 67.12109375 40.1796875 67.12109375 43.875 66.07421875 C45.34861568 65.82197823 46.82549409 65.5882465 48.3046875 65.37109375 C49.05878906 65.24605469 49.81289063 65.12101562 50.58984375 64.9921875 C52.45058852 64.68598899 54.31487454 64.40145287 56.1796875 64.12109375 C56.5096875 61.15109375 56.8396875 58.18109375 57.1796875 55.12109375 C55.0562859 54.28369594 52.9309147 53.45129092 50.8046875 52.62109375 C49.62132812 52.15703125 48.43796875 51.69296875 47.21875 51.21484375 C44.4043631 50.00821581 44.4043631 50.00821581 42.1796875 50.12109375 C42.01533203 49.23357422 42.01533203 49.23357422 41.84765625 48.328125 C41.09954822 44.59974922 40.49950943 41.64228505 38.4921875 38.37109375 C37.1796875 36.12109375 37.1796875 36.12109375 37.2421875 33.87109375 C38.38584919 30.51635281 39.86623844 27.38206324 41.4375 24.20703125 C42.47305337 21.97461277 42.47305337 21.97461277 41.1796875 19.12109375 C39.55020686 17.89664091 39.55020686 17.89664091 37.6171875 16.93359375 C36.4828125 16.33546875 35.3484375 15.73734375 34.1796875 15.12109375 C33.53902344 15.78238281 32.89835937 16.44367188 32.23828125 17.125 C25.0882127 24.10457511 25.0882127 24.10457511 20.7421875 24.18359375 C19.5665625 23.83296875 18.3909375 23.48234375 17.1796875 23.12109375 C15.20164503 23.05121725 13.22130283 23.03334993 11.2421875 23.05859375 C10.28441406 23.06761719 9.32664062 23.07664062 8.33984375 23.0859375 C7.62699219 23.09753906 6.91414063 23.10914063 6.1796875 23.12109375 C5.91027344 22.54875 5.64085937 21.97640625 5.36328125 21.38671875 C4.14583111 19.05628615 2.78877017 16.99616917 1.2421875 14.87109375 C0.73816406 14.1646875 0.23414063 13.45828125 -0.28515625 12.73046875 C-0.79175781 12.199375 -1.29835938 11.66828125 -1.8203125 11.12109375 C-5.51449451 11.12109375 -7.59867428 12.4028867 -10.8203125 14.12109375 Z " fill="#00174F" transform="translate(409.8203125,49.87890625)"/>
<path d="M0 0 C0.78503906 0.6084375 1.57007813 1.216875 2.37890625 1.84375 C3.09175781 2.3903125 3.80460937 2.936875 4.5390625 3.5 C16.45805096 13.23728537 23.4541118 27.81992723 26.06640625 42.78125 C26.19326215 44.13347988 26.29590857 45.4881212 26.37890625 46.84375 C26.45818359 48.05611328 26.45818359 48.05611328 26.5390625 49.29296875 C27.17265578 68.16302955 19.75296696 84.93364027 7.06640625 98.59375 C-6.62127743 111.53821104 -23.77651814 116.52136086 -42.12109375 116.0859375 C-58.33442494 115.39789277 -73.13597708 108.22268686 -84.62109375 96.84375 C-90.73470056 89.87175846 -95.45631458 82.56861178 -98.62109375 73.84375 C-98.93949219 72.96847656 -99.25789062 72.09320313 -99.5859375 71.19140625 C-104.37518096 55.45532059 -102.65123326 37.57356611 -95.62109375 22.84375 C-91.75260761 23.96131266 -89.33186618 24.87248292 -86.62109375 27.84375 C-86.89824219 28.59140625 -87.17539063 29.3390625 -87.4609375 30.109375 C-87.82316406 31.09421875 -88.18539062 32.0790625 -88.55859375 33.09375 C-88.91824219 34.06828125 -89.27789062 35.0428125 -89.6484375 36.046875 C-94.35890261 49.59182689 -91.92236338 63.89706398 -86.37109375 76.734375 C-79.47129732 90.76918819 -67.58920015 99.0321677 -53.1640625 104.08203125 C-39.76410646 108.09584297 -25.38557704 106.48565626 -12.84375 100.5234375 C0.67259951 92.90096613 9.71580752 81.65318917 14.37890625 66.84375 C18.56733617 51.33459235 15.70201767 36.91590372 8.1875 22.90234375 C0.79834295 10.40620991 -11.43918765 3.06023203 -25.21484375 -0.90234375 C-36.45197087 -3.48048209 -46.54394359 -1.87298172 -57.62109375 0.84375 C-58.61109375 -2.12625 -59.60109375 -5.09625 -60.62109375 -8.15625 C-59.08092681 -8.6402155 -57.53887181 -9.11817387 -55.99609375 -9.59375 C-55.13757813 -9.86058594 -54.2790625 -10.12742187 -53.39453125 -10.40234375 C-35.14667343 -15.36267693 -15.08941437 -11.1458585 0 0 Z " fill="#00174F" transform="translate(300.62109375,86.15625)"/>
<path d="M0 0 C10.98930885 8.44300558 18.87283345 20.08225314 21 34 C21.89423105 49.85540437 19.44994061 63.76777216 8.8125 76.1875 C0.11609558 85.3590391 -11.34374004 92.88329838 -24.34375 93.23828125 C-41.08949068 93.59984072 -54.07273552 90.20908376 -67 79 C-79.14171486 64.43898627 -82.54603717 50.66839884 -81 32 C-78.4544379 18.60687212 -70.50848549 7.1271798 -59.515625 -0.7890625 C-41.34500409 -12.24445394 -17.81690056 -12.47183039 0 0 Z M-62.33203125 13.73828125 C-70.79545536 25.2144465 -73.20124878 36.99088612 -72 51 C-70.44239632 58.47649768 -66.998037 64.31216129 -62 70 C-61.49855469 70.60585937 -60.99710938 71.21171875 -60.48046875 71.8359375 C-54.08427932 78.96356465 -44.8224494 83.62731436 -35.27734375 84.23828125 C-21.26229297 84.59739266 -10.44173457 81.67846743 0.16015625 72.03515625 C9.21666123 62.67394643 12.41458143 51.45532574 12.26953125 38.73046875 C11.43043297 27.11686218 5.99091533 17.47556778 -2.54296875 9.67578125 C-20.93650794 -4.6833886 -46.07921345 -3.44106298 -62.33203125 13.73828125 Z " fill="#00174F" transform="translate(106,62)"/>
<path d="M0 0 C4.19616878 3.99635122 7.55848764 8.29758673 10.80834961 13.08544922 C13.21379434 16.59749666 15.69879676 19.8381195 18.5625 22.9921875 C27.15685781 32.87929323 27.15685781 32.87929323 26.86962891 38.59375 C25.66079936 44.00741787 23.43396604 48.87241555 21.03540039 53.84790039 C19.52706221 56.98301029 18.41111232 59.51979171 18 63 C19.69100217 65.71623085 21.12800947 67.56443292 23.3125 69.8125 C23.86486328 70.41707031 24.41722656 71.02164063 24.98632812 71.64453125 C26.63894322 73.44807882 28.31762908 75.22424861 30 77 C31.67189898 78.82856301 33.33929582 80.66126388 35 82.5 C35.680625 83.2321875 36.36125 83.964375 37.0625 84.71875 C39 87 39 87 40.86328125 89.828125 C43.38080001 93.56528265 46.21358557 96.87310082 49.1875 100.25 C49.76121338 100.90677734 50.33492676 101.56355469 50.92602539 102.24023438 C54.23460965 106.01935845 57.57360722 109.76996923 60.9375 113.5 C61.63488281 114.27730469 62.33226562 115.05460937 63.05078125 115.85546875 C64.31975763 117.25159708 65.60812606 118.63041988 66.91796875 119.98828125 C68.625 121.8125 68.625 121.8125 71 125 C70.875 127.9375 70.875 127.9375 70 130 C67.8125 130.8125 67.8125 130.8125 65 131 C63.01562422 129.38116712 61.62593949 127.93844596 60 126 C59.38253906 125.32453125 58.76507813 124.6490625 58.12890625 123.953125 C53 118.29791247 53 118.29791247 53 116 C51.515 115.505 51.515 115.505 50 115 C48.51988931 113.36786243 47.11241282 111.66909811 45.75 109.9375 C41.2500276 104.30522935 36.73893724 98.73441754 31.6328125 93.63671875 C28.88716554 90.88699813 26.24270058 88.05792809 23.625 85.1875 C23.14893311 84.66559082 22.67286621 84.14368164 22.18237305 83.60595703 C20.78635659 82.07234503 19.39310827 80.53625334 18 79 C17.25105469 78.17886719 16.50210938 77.35773438 15.73046875 76.51171875 C14.78107422 75.45404297 14.78107422 75.45404297 13.8125 74.375 C13.26207031 73.76398438 12.71164063 73.15296875 12.14453125 72.5234375 C11 71 11 71 11 69 C10.22100342 69.28125732 9.44200684 69.56251465 8.6394043 69.85229492 C-13.17719994 77.27659186 -13.17719994 77.27659186 -21.109375 73.53222656 C-26.65767898 69.28283697 -30.8665932 64.00608157 -35.03759766 58.44213867 C-37.48618038 55.39496611 -40.2233262 52.96787508 -43.24487305 50.50439453 C-45.86079899 48.26217229 -47.88404358 45.71106916 -50 43 C-42.02032771 41.04579454 -34.00338048 39.366866 -25.9375 37.8125 C-25.02137939 37.63364258 -24.10525879 37.45478516 -23.16137695 37.27050781 C-22.292146 37.10518555 -21.42291504 36.93986328 -20.52734375 36.76953125 C-19.75124756 36.62104736 -18.97515137 36.47256348 -18.17553711 36.31958008 C-16 36 -16 36 -12 36 C-11.76410156 34.7934375 -11.52820313 33.586875 -11.28515625 32.34375 C-9.85062289 25.89277355 -7.62712379 19.72641835 -5.4375 13.5 C-5.02564453 12.30890625 -4.61378906 11.1178125 -4.18945312 9.890625 C-1.13650307 1.13650307 -1.13650307 1.13650307 0 0 Z M2 20 C-2.06226433 29.20362005 -2.06226433 29.20362005 -4 39 C-1.95832203 43.61691445 1.08929757 45.94513518 5 49 C5.72445312 49.91007812 6.44890625 50.82015625 7.1953125 51.7578125 C7.79085937 52.49773438 8.38640625 53.23765625 9 54 C9.66 54 10.32 54 11 54 C11.84378975 51.94175571 12.67463622 49.87820214 13.5 47.8125 C13.9640625 46.66394531 14.428125 45.51539062 14.90625 44.33203125 C15.95010916 41.15198888 16.29479884 39.28508174 16 36 C14.97219244 33.90689791 14.97219244 33.90689791 13.4453125 32.01171875 C12.91292969 31.30595703 12.38054687 30.60019531 11.83203125 29.87304688 C10.98705078 28.79120117 10.98705078 28.79120117 10.125 27.6875 C9.56941406 26.94693359 9.01382813 26.20636719 8.44140625 25.44335938 C6.31953133 22.63731221 6.31953133 22.63731221 4 20 C3.34 20 2.68 20 2 20 Z M-23.3125 46.5 C-24.42334961 46.71462891 -24.42334961 46.71462891 -25.55664062 46.93359375 C-27.37189772 47.28493383 -29.18606392 47.64190216 -31 48 C-29.6705747 49.60930431 -28.32748446 51.2083276 -26.9375 52.765625 C-25 55 -25 55 -22.9375 57.796875 C-20.42634512 60.86794955 -18.438788 62.99622786 -15 65 C-9.51445264 65.49917672 -4.11060928 63.83886409 1 62 C1.66 61.34 2.32 60.68 3 60 C2.31292969 59.25234375 1.62585938 58.5046875 0.91796875 57.734375 C0.0077189 56.73966898 -0.90243213 55.74487252 -1.8125 54.75 C-2.26431641 54.25886719 -2.71613281 53.76773438 -3.18164062 53.26171875 C-5.1320641 51.1262186 -6.94855543 49.08029075 -8.51171875 46.640625 C-9.8811759 44.786851 -9.8811759 44.786851 -12.16796875 44.65625 C-15.91967826 45.11162991 -19.60639826 45.76474121 -23.3125 46.5 Z " fill="#001850" transform="translate(196,11)"/>
<path d="M0 0 C3.21622595 1.36087462 4.76610974 2.66192997 6.65600586 5.58374023 C7.38768982 6.6991217 7.38768982 6.6991217 8.13415527 7.83703613 C8.65578247 8.65265015 9.17740967 9.46826416 9.71484375 10.30859375 C10.27425659 11.1658606 10.83366943 12.02312744 11.41003418 12.90637207 C12.62378713 14.76813649 13.83336954 16.63262494 15.03927612 18.4994812 C18.27789351 23.51212428 21.54725771 28.50467718 24.8125 33.5 C25.48598984 34.5321312 26.15947968 35.56426239 26.8533783 36.62767029 C33.93873104 47.47159841 41.17526571 58.21153257 48.4375 68.9375 C50.72808421 72.32146601 53.01844173 75.70558523 55.30859375 79.08984375 C56.12667007 80.29785645 56.12667007 80.29785645 56.96127319 81.53027344 C61.75919851 88.6234055 66.50763409 95.74915584 71.23460388 102.88975525 C75.21120035 108.8793636 79.33599785 114.73167511 83.62109375 120.50390625 C85 123 85 123 84.79663086 124.97094727 C83.81836294 127.46263733 82.75705649 128.34908493 80.6328125 129.9609375 C79.92213623 130.50733887 79.21145996 131.05374023 78.47924805 131.61669922 C77.70234619 132.19693848 76.92544434 132.77717773 76.125 133.375 C74.91420776 134.29756592 74.91420776 134.29756592 73.67895508 135.23876953 C67.28645028 140.09013031 60.82381984 144.84891915 54.34716797 149.5871582 C47.19696259 154.82414507 40.1474672 160.18848633 33.1159668 165.58349609 C31.48985385 166.8293327 29.86086557 168.07142868 28.22851562 169.30908203 C26.79232798 170.39880986 25.36330565 171.49807879 23.94335938 172.60888672 C22.35280216 173.81845968 20.68239585 174.92181484 19 176 C15.24414132 174.74804711 14.76354225 173.52746161 12.65625 170.234375 C11.6674585 168.7042981 11.6674585 168.7042981 10.65869141 167.14331055 C9.93909413 166.01222833 9.21953137 164.88112415 8.5 163.75 C7.74358541 162.57469077 6.98624285 161.39997831 6.22802734 160.22583008 C4.62770072 157.74648165 3.03103073 155.26483271 1.43652344 152.78173828 C-2.07166965 147.32690237 -5.6334819 141.90731061 -9.19384766 136.4864502 C-11.19131079 133.44422054 -13.1852595 130.39968864 -15.1796875 127.35546875 C-15.98403228 126.12808117 -16.78839425 124.90070487 -17.59277344 123.67333984 C-20.77281317 118.82084073 -23.95221977 113.96792685 -27.1315918 109.11499023 C-28.70585176 106.71207854 -30.28024027 104.30925115 -31.85473633 101.90649414 C-35.50237621 96.3398438 -39.14922296 90.77267906 -42.79319763 85.20362854 C-55.31916585 66.05063781 -55.31916585 66.05063781 -68 47 C-65.42394857 44.30398894 -62.88375406 42.09845588 -59.765625 40.05859375 C-58.90001953 39.48753906 -58.03441406 38.91648438 -57.14257812 38.328125 C-56.18802734 37.70421875 -55.23347656 37.0803125 -54.25 36.4375 C-52.11887412 35.03131188 -49.98858841 33.62392003 -47.859375 32.21484375 C-47.2705957 31.82569794 -46.68181641 31.43655212 -46.07519531 31.03561401 C-36.84006547 24.92196402 -27.67620115 18.70154435 -18.5 12.5 C-16.66962338 11.26355048 -14.83922025 10.02714022 -13.00878906 8.79077148 C-8.67203018 5.86124754 -4.33584477 2.93087668 0 0 Z M-5.04394531 10.50341797 C-5.87951965 11.05174286 -6.71509399 11.60006775 -7.57598877 12.16500854 C-8.9382962 13.06946213 -8.9382962 13.06946213 -10.328125 13.9921875 C-11.26871765 14.61215607 -12.2093103 15.23212463 -13.17840576 15.87088013 C-15.18060269 17.19200746 -17.18131146 18.5153924 -19.18066406 19.84082031 C-22.19240453 21.83682903 -25.2090253 23.8252688 -28.2265625 25.8125 C-38.63019417 32.67946618 -48.93940699 39.63800801 -59 47 C-58.37442001 50.10966651 -57.33179506 52.35214645 -55.62890625 55.01953125 C-55.14268799 55.78595947 -54.65646973 56.5523877 -54.15551758 57.34204102 C-53.62982178 58.15729248 -53.10412598 58.97254395 -52.5625 59.8125 C-52.01682373 60.66706787 -51.47114746 61.52163574 -50.90893555 62.40209961 C-47.37516681 67.91733424 -43.78054266 73.38941797 -40.12744141 78.82617188 C-36.01257389 84.95463012 -31.97394861 91.13218507 -27.9375 97.3125 C-27.57492096 97.86761261 -27.21234192 98.42272522 -26.83877563 98.99465942 C-24.97139364 101.8537712 -23.10446729 104.71318006 -21.23779297 107.57275391 C-17.66164653 113.05054051 -14.08051371 118.52506752 -10.5 124 C-6.49236038 130.12869923 -2.48492927 136.25753398 1.5206604 142.38757324 C3.07662323 144.76872669 4.63278647 147.14974913 6.18896484 149.53076172 C7.2824217 151.20397406 8.37558994 152.87737499 9.46875 154.55078125 C12.62571518 159.38087691 15.78586675 164.20771906 19 169 C25.52349894 164.78064567 31.72864869 160.24826421 37.875 155.5 C44.92346802 150.087862 52.01518225 144.74691634 59.1875 139.5 C65.58876424 134.81358312 71.86906877 130.03710951 78 125 C74.70770849 118.84949021 71.12693132 113.01625284 67.1875 107.26171875 C66.62950211 106.43933212 66.07150421 105.6169455 65.49659729 104.76963806 C64.2942985 102.99778963 63.09048206 101.22697022 61.88528442 99.45709229 C58.63146716 94.67704579 55.39118456 89.88785885 52.15234375 85.09765625 C51.48194565 84.1062262 50.81154755 83.11479614 50.12083435 82.09332275 C41.08695243 68.7121428 32.23095354 55.21366193 23.36947632 41.71800232 C21.16144284 38.35748435 18.94900128 34.99987735 16.7366333 31.64221191 C14.85589454 28.78074982 12.98467134 25.91316325 11.11279297 23.04589844 C9.83463422 21.10069831 8.55615966 19.15570566 7.27734375 17.2109375 C6.6787001 16.28890533 6.08005646 15.36687317 5.46327209 14.41690063 C4.63055031 13.15551773 4.63055031 13.15551773 3.78100586 11.86865234 C3.29127792 11.12014008 2.80154999 10.37162781 2.29698181 9.60043335 C1.65497581 8.80821884 1.65497581 8.80821884 1 8 C-1.6887966 8 -2.80168096 9.02374225 -5.04394531 10.50341797 Z " fill="#F3F4F7" transform="translate(403,185)"/>
<path d="M0 0 C3.40835942 1.26651665 6.31854373 2.71688931 9.33203125 4.74609375 C10.62548462 5.61210205 10.62548462 5.61210205 11.94506836 6.49560547 C12.8913208 7.13643066 13.83757324 7.77725586 14.8125 8.4375 C15.81482666 9.11184082 16.81715332 9.78618164 17.84985352 10.48095703 C20.17994208 12.0487347 22.50785217 13.61969783 24.83496094 15.19189453 C28.78527363 17.85839786 32.74520007 20.51042244 36.70582581 23.16157532 C40.36844152 25.61427423 44.02815822 28.07127599 47.68734741 30.52908325 C49.52270898 31.7609875 51.3589953 32.99151509 53.19619751 34.22067261 C55.79913289 35.96305346 58.39805823 37.71126186 60.99609375 39.4609375 C61.78980377 39.99049545 62.58351379 40.52005341 63.40127563 41.06565857 C64.48739639 41.7995858 64.48739639 41.7995858 65.59545898 42.54833984 C66.23144516 42.97529144 66.86743134 43.40224304 67.52268982 43.84213257 C69 45 69 45 70 47 C68.67089844 49.42895508 68.67089844 49.42895508 66.609375 52.51953125 C66.23818542 53.08109421 65.86699585 53.64265717 65.48455811 54.22123718 C64.24701478 56.08995818 62.99843553 57.95104185 61.75 59.8125 C60.87870957 61.1244374 60.00827915 62.43694633 59.13867188 63.75 C57.32821177 66.48221894 55.51404329 69.21191961 53.69726562 71.93994141 C49.99051885 77.51181272 46.32878936 83.112986 42.6673584 88.71469116 C40.69711058 91.72790531 38.72336405 94.73882618 36.75 97.75 C35.95831689 98.95832256 35.16665022 100.16665589 34.375 101.375 C29.625 108.625 29.625 108.625 28.43766785 110.4372406 C27.64543776 111.64643603 26.85321161 112.85563403 26.06098938 114.06483459 C24.09047507 117.07249897 22.11989405 120.08011959 20.14916992 123.08764648 C16.48364298 128.68176782 12.81874868 134.27630033 9.15615845 139.87234497 C7.45152822 142.47674956 5.74652881 145.08091237 4.04150391 147.68505859 C3.23940026 148.91036194 2.43747162 150.13577989 1.63574219 151.36132812 C1.25836914 151.93818359 0.88099609 152.51503906 0.4921875 153.109375 C0.12193451 153.67550507 -0.24831848 154.24163513 -0.62979126 154.82492065 C-1.70948608 156.47189905 -2.79487448 158.11514046 -3.88037109 159.75830078 C-5.34252764 161.99448077 -6.77596647 164.23532055 -8.18603516 166.50341797 C-8.88390137 167.60443848 -9.58176758 168.70545898 -10.30078125 169.83984375 C-10.91735596 170.83234131 -11.53393066 171.82483887 -12.16918945 172.84741211 C-12.77335693 173.55776611 -13.37752441 174.26812012 -14 175 C-18.42607069 175 -19.00443941 174.60082696 -22.31640625 171.9921875 C-23.15300781 171.3425 -23.98960938 170.6928125 -24.8515625 170.0234375 C-25.74617188 169.31445312 -26.64078125 168.60546875 -27.5625 167.875 C-29.46899938 166.39187497 -31.37657261 164.91012941 -33.28515625 163.4296875 C-34.24566895 162.68170898 -35.20618164 161.93373047 -36.19580078 161.16308594 C-40.24648909 158.03849091 -44.36742879 155.01496037 -48.5 152 C-58.0723337 144.99201095 -67.50359361 137.80317463 -76.91967773 130.5871582 C-78.93833327 129.04704793 -80.96651159 127.52045366 -83 126 C-81.74585332 122.64194582 -80.32419721 119.73065775 -78.34887695 116.74243164 C-77.81623734 115.93202423 -77.28359772 115.12161682 -76.7348175 114.28665161 C-76.15846054 113.41990814 -75.58210358 112.55316467 -74.98828125 111.66015625 C-74.08851814 110.29599075 -74.08851814 110.29599075 -73.170578 108.90426636 C-71.22255871 105.95389045 -69.26780273 103.008053 -67.3125 100.0625 C-65.96335176 98.02364453 -64.61439384 95.98466312 -63.265625 93.94555664 C-55.83067056 82.71874345 -48.34387748 71.53122004 -40.72241211 60.42993164 C-37.10246121 55.15707864 -33.51667699 49.86181463 -29.94140625 44.55859375 C-29.30408066 43.61384186 -28.66675507 42.66908997 -28.01011658 41.69570923 C-26.02712436 38.75577826 -24.0447907 35.815404 -22.0625 32.875 C-20.79166766 30.99080337 -19.52083435 29.10660739 -18.25 27.22241211 C-12.14248005 18.16430077 -6.0429126 9.10138071 0 0 Z M2 8 C-5.39209935 16.49683392 -11.18912811 26.77420047 -17.34185791 36.17953491 C-29.46753987 54.70970543 -41.76131106 73.12057805 -54.19213867 91.44726562 C-59.61827974 99.45169116 -65.02363325 107.47023585 -70.3359375 115.55078125 C-70.80923492 116.2603447 -71.28253235 116.96990814 -71.77017212 117.70097351 C-74.3495444 121.52624256 -74.3495444 121.52624256 -75 126 C-73.56291619 127.46802816 -73.56291619 127.46802816 -71.58203125 128.79296875 C-70.83284424 129.33260254 -70.08365723 129.87223633 -69.31176758 130.42822266 C-68.48700928 131.00878418 -67.66225098 131.5893457 -66.8125 132.1875 C-65.06126909 133.44750973 -63.31131477 134.70929522 -61.5625 135.97265625 C-60.64726563 136.63152832 -59.73203125 137.29040039 -58.7890625 137.96923828 C-54.24065731 141.281006 -49.77824103 144.70304876 -45.3125 148.125 C-44.43964355 148.78967285 -43.56678711 149.4543457 -42.66748047 150.13916016 C-38.51004398 153.30521392 -34.36882729 156.4887072 -30.2578125 159.71484375 C-28.81772047 160.83074482 -27.37761699 161.94663113 -25.9375 163.0625 C-24.96453979 163.84101318 -24.96453979 163.84101318 -23.97192383 164.63525391 C-20.81929888 167.26434723 -20.81929888 167.26434723 -16.94213867 167.81469727 C-13.53873127 166.38702027 -12.15984083 162.94658654 -10.375 159.875 C-9.4798168 158.38944686 -8.58263705 156.90509523 -7.68359375 155.421875 C-7.23226074 154.67228516 -6.78092773 153.92269531 -6.31591797 153.15039062 C-4.439625 150.08427032 -2.45081631 147.10226002 -0.4375 144.125 C4.11918937 137.34930502 8.59765478 130.52402667 13.0625 123.6875 C13.42489777 123.1326593 13.78729553 122.5778186 14.16067505 122.00616455 C16.028239 119.14677737 17.89535302 116.28709682 19.76220703 113.42724609 C23.33835346 107.9494595 26.91947524 102.47492524 30.5 97 C34.4907906 90.89731161 38.48136794 84.79448564 42.46908569 78.68978882 C44.00554636 76.33773221 45.54231303 73.9858756 47.07910156 71.6340332 C48.1506873 69.99384613 49.22183582 68.35337344 50.29296875 66.71289062 C50.95296875 65.70291016 51.61296875 64.69292969 52.29296875 63.65234375 C52.91606934 62.69440918 53.53916992 61.73647461 54.18115234 60.74951172 C55.38002801 58.93719792 56.60398156 57.14119135 57.85400391 55.36376953 C58.41394043 54.56438965 58.97387695 53.76500977 59.55078125 52.94140625 C60.04876221 52.24861572 60.54674316 51.5558252 61.05981445 50.84204102 C61.37007568 50.23416748 61.68033691 49.62629395 62 49 C60.88505639 45.65516917 60.40596375 45.31616999 57.59204102 43.46313477 C56.86940567 42.98155411 56.14677032 42.49997345 55.40223694 42.00379944 C54.61078781 41.48820969 53.81933868 40.97261993 53.00390625 40.44140625 C52.18236557 39.89701401 51.36082489 39.35262177 50.51438904 38.79173279 C47.86871071 37.04102067 45.21583076 35.30158711 42.5625 33.5625 C40.83999988 32.42587987 39.11798927 31.28851754 37.39648438 30.15039062 C33.97359516 27.88820742 30.54672593 25.63222515 27.11767578 23.37939453 C23.65361662 21.09931198 20.20575867 18.79716041 16.76904297 16.47607422 C15.93920395 15.91693832 15.10936493 15.35780243 14.25437927 14.78172302 C12.67696484 13.71725064 11.10202757 12.64909564 9.52992249 11.57679749 C8.48051735 10.86963844 8.48051735 10.86963844 7.40991211 10.14819336 C6.79715927 9.73178085 6.18440643 9.31536835 5.55308533 8.88633728 C4.00852785 7.83478058 4.00852785 7.83478058 2 8 Z " fill="#F4F5F7" transform="translate(124,185)"/>
<path d="M0 0 C5.10029487 4.1359534 7.90839517 9.5658292 9 16 C9.23595323 22.41989403 8.10913543 27.96815451 4 33 C-1.51944432 38.55795207 -5.75518591 41.28772037 -13.75 41.375 C-19.71006616 41.26371246 -24.33063163 40.88752064 -29 37 C-34.11544102 31.60928862 -36.96095745 26.16614363 -37.375 18.6875 C-37.1891116 12.54285579 -35.27660473 7.54301592 -31.1640625 2.94921875 C-21.84831569 -5.67052399 -10.94212824 -6.28986283 0 0 Z " fill="#CBEEFF" transform="translate(479,471)"/>
<path d="M0 0 C8.6728966 0.36905943 14.50668432 5.15056552 20.3125 11.3125 C27.44219302 19.72042483 29.45570633 28.37202763 29.33203125 39.19921875 C28.36844812 50.22941156 23.24166988 58.78853886 15 66 C4.9976008 73.24571388 -3.74703935 74.80242882 -16 74 C-25.8968359 72.40416874 -34.07704491 67.01740265 -40.42578125 59.3515625 C-44.12531278 53.82521515 -47 47.68484356 -47 41 C-44.36 40.67 -41.72 40.34 -39 40 C-38.76925781 40.71285156 -38.53851563 41.42570312 -38.30078125 42.16015625 C-34.51537585 53.27697924 -30.6230519 58.63445853 -20 64 C-12.00790164 66.66403279 -2.98884014 65.99552493 4.5625 62.4375 C12.16487595 58.059756 16.32113247 52.91317448 19.30859375 44.67578125 C21.5520441 35.99350167 20.2170721 27.54218341 15.74609375 19.83984375 C11.3803439 13.4756035 5.78358712 10.34656965 -1 7 C-0.67 4.69 -0.34 2.38 0 0 Z " fill="#001851" transform="translate(272,102)"/>
<path d="M0 0 C2.97 0 5.94 0 9 0 C9 2.31 9 4.62 9 7 C9.9075 7.226875 10.815 7.45375 11.75 7.6875 C15.49773815 9.20100964 16.80218768 10.66258129 19 14 C19.33 14.99 19.66 15.98 20 17 C14.375 20 14.375 20 11 20 C10.566875 19.505 10.13375 19.01 9.6875 18.5 C7.99088479 16.69733636 7.99088479 16.69733636 4.9375 16.6875 C1.87938172 16.70172688 1.87938172 16.70172688 0 19 C-0.16677282 22.58343976 -0.16677282 22.58343976 0 26 C0.99580078 26.48919922 0.99580078 26.48919922 2.01171875 26.98828125 C16.60523763 34.21047527 16.60523763 34.21047527 20 41 C20.59106487 46.68331608 20.27243416 51.14777003 17 56 C14.73847644 58.04088712 12.71850977 59.64074512 10 61 C9.53476937 62.89533342 9.53476937 62.89533342 9.375 65.0625 C9.25125 66.361875 9.1275 67.66125 9 69 C6.03 69 3.06 69 0 69 C0 66.36 0 63.72 0 61 C-0.721875 60.79375 -1.44375 60.5875 -2.1875 60.375 C-5.97218384 58.52471012 -7.52258653 56.39759562 -10 53 C-10 52.34 -10 51.68 -10 51 C-7.25 49.375 -7.25 49.375 -4 48 C-1.80281116 48.71260179 -0.61450567 49.38549433 1 51 C4.45812169 51.33338596 4.45812169 51.33338596 8 51 C10.14762184 47.77856724 10.561068 46.7404533 10 43 C7.00847397 40.31329771 3.63724629 38.8379005 0 37.1875 C-8.05232558 33.16133721 -8.05232558 33.16133721 -10 28 C-10.74263184 22.59977497 -10.71021298 18.42042596 -8.25 13.5 C-6.26314276 11.29238084 -4.54236842 9.52542105 -2 8 C-1.34 8 -0.68 8 0 8 C0 5.36 0 2.72 0 0 Z " fill="#00174F" transform="translate(71,70)"/>
<path d="M0 0 C2.22810494 1.72250993 4.32686343 3.49408777 6.37109375 5.4296875 C3.60541575 8.75637722 -0.10457437 10.3967961 -3.89453125 12.30078125 C-4.60615417 12.66438248 -5.3177771 13.0279837 -6.05096436 13.40260315 C-8.32420443 14.562941 -10.60132679 15.71539404 -12.87890625 16.8671875 C-15.14145738 18.0168146 -17.40314463 19.16810472 -19.66400146 20.32106018 C-21.06865814 21.03680396 -22.47439613 21.7504312 -23.88140869 22.46153259 C-27.13292337 24.11293859 -30.31298272 25.8189068 -33.44921875 27.68115234 C-36.62890625 29.4296875 -36.62890625 29.4296875 -39.30078125 29.41015625 C-43.70793872 27.55412181 -46.72551421 24.15389832 -49.62890625 20.4296875 C-50.62890625 16.9296875 -50.62890625 16.9296875 -50.62890625 14.4296875 C-44.9287035 10.57466002 -39.16042402 7.78684523 -32.75390625 5.3046875 C-31.91988281 4.97082031 -31.08585937 4.63695312 -30.2265625 4.29296875 C-7.68582505 -4.59093859 -7.68582505 -4.59093859 0 0 Z " fill="#00A0DC" transform="translate(192.62890625,380.5703125)"/>
<path d="M0 0 C4.74169978 3.53303121 8.07188969 7.47015349 9.1875 13.375 C9.93584309 19.90153315 9.02125454 24.97235514 5.1875 30.375 C0.62380004 35.3012953 -3.997364 37.43632562 -10.625 37.75 C-17.03881498 37.60662113 -21.60335868 35.58414132 -26.125 31.0625 C-29.60559319 25.51933307 -31.50748657 20.97737241 -30.8125 14.375 C-29.14176891 7.60141582 -26.06259064 3.59457409 -20.25 -0.375 C-13.90054754 -3.63112947 -6.3524945 -3.24590179 0 0 Z M-19.5625 10.625 C-21.59514469 13.47070256 -21.695551 15.92500441 -21.8125 19.375 C-20.56594487 22.97615926 -19.45898516 24.85082284 -16.5 27.25 C-13.24314391 28.61333511 -11.31579831 28.87547119 -7.8125 28.375 C-4.74778698 26.72476991 -2.50471093 25.318924 -0.4375 22.5 C0.87543627 18.03601668 0.65611427 15.27751637 -1.5 11.125 C-3.92596019 8.24007437 -5.20515936 7.27683516 -8.8125 6.375 C-13.70548976 6.375 -15.69975809 7.86589864 -19.5625 10.625 Z " fill="#00174F" transform="translate(431.8125,86.625)"/>
<path d="M0 0 C2.39668295 1.08043668 4.06448597 2.26676587 5.99609375 4.046875 C6.60066406 4.59472656 7.20523438 5.14257812 7.828125 5.70703125 C8.49908203 6.33931641 8.49908203 6.33931641 9.18359375 6.984375 C7.64516253 11.50417983 3.95528397 13.68866909 0.24609375 16.359375 C-0.45032227 16.86960205 -1.14673828 17.3798291 -1.86425781 17.90551758 C-3.37278065 19.01062534 -4.88345203 20.1128048 -6.39599609 21.21240234 C-8.93362883 23.07019319 -11.44876087 24.95560676 -13.9609375 26.84765625 C-15.66265651 28.12253453 -17.36447748 29.39727674 -19.06640625 30.671875 C-19.87585693 31.28401855 -20.68530762 31.89616211 -21.51928711 32.52685547 C-22.28249268 33.0942041 -23.04569824 33.66155273 -23.83203125 34.24609375 C-24.50524414 34.75100342 -25.17845703 35.25591309 -25.87207031 35.77612305 C-27.9268948 37.05303495 -29.4057779 37.74702271 -31.81640625 37.984375 C-33.88117537 36.26723029 -35.58568208 34.63933958 -37.37890625 32.671875 C-41.29594501 28.49535206 -41.29594501 28.49535206 -45.81640625 24.984375 C-45.81640625 24.324375 -45.81640625 23.664375 -45.81640625 22.984375 C-45.2244043 22.67846436 -44.63240234 22.37255371 -44.02246094 22.05737305 C-41.20240567 20.59817104 -38.38430827 19.13523083 -35.56640625 17.671875 C-34.53402832 17.13731689 -33.50165039 16.60275879 -32.43798828 16.05200195 C-27.24677473 13.34998205 -22.09453854 10.60458986 -17.01171875 7.703125 C-16.11356445 7.19305908 -15.21541016 6.68299316 -14.29003906 6.1574707 C-12.58701448 5.18387952 -10.8907105 4.19841534 -9.20214844 3.19995117 C-3.55426923 -0.01971855 -3.55426923 -0.01971855 0 0 Z " fill="#00A0DD" transform="translate(205.81640625,393.015625)"/>
<path d="M0 0 C0.76570313 0.77214844 1.53140625 1.54429687 2.3203125 2.33984375 C4.1239497 4.13033491 5.97777419 5.87149439 7.875 7.5625 C10 10 10 10 9.91015625 11.890625 C8.67197424 14.76023138 6.932337 16.15779561 4.5625 18.1875 C3.65628906 18.97511719 2.75007813 19.76273437 1.81640625 20.57421875 C0.88699219 21.37472656 -0.04242188 22.17523438 -1 23 C-2.67062874 24.49558597 -4.33740092 25.99549275 -6 27.5 C-6.81855469 28.23347656 -7.63710937 28.96695312 -8.48046875 29.72265625 C-10.22515174 31.29963328 -11.95609732 32.89189225 -13.67578125 34.49609375 C-14.54589844 35.30175781 -15.41601562 36.10742188 -16.3125 36.9375 C-17.09238281 37.66839844 -17.87226563 38.39929688 -18.67578125 39.15234375 C-21 41 -21 41 -26 43 C-30.29 39.04 -34.58 35.08 -39 31 C-37.87406985 27.62220955 -37.20984612 27.14730213 -34.4140625 25.13671875 C-33.65649658 24.58580566 -32.89893066 24.03489258 -32.1184082 23.46728516 C-31.2955835 22.87995605 -30.47275879 22.29262695 -29.625 21.6875 C-27.90218278 20.43902418 -26.17953165 19.19031914 -24.45703125 17.94140625 C-23.11632568 16.97485107 -23.11632568 16.97485107 -21.74853516 15.98876953 C-17.24713589 12.73167249 -12.78135385 9.42652678 -8.3125 6.125 C-6.70459552 4.9398756 -5.09653824 3.75495848 -3.48828125 2.5703125 C-2.47568237 1.82418701 -2.47568237 1.82418701 -1.44262695 1.06298828 C-0.96656006 0.71220215 -0.49049316 0.36141602 0 0 Z " fill="#00A0DD" transform="translate(221,407)"/>
<path d="M0 0 C11.68266667 -0.624 11.68266667 -0.624 16.5625 1.6875 C23.77440639 8.52956503 23.77440639 8.52956503 24.23828125 13.609375 C24.48756822 24.15815008 24.48756822 24.15815008 20 29 C15.10619837 33.67658328 11.14250158 35.44540653 4.41015625 35.3359375 C-0.66311156 34.62880455 -4.21394695 31.95512118 -7.609375 28.23828125 C-10.86697309 23.72705693 -11.64721269 19.79815736 -11.375 14.27734375 C-10.89274335 11.34863931 -9.84776428 9.30970535 -8 7 C-3.74418856 10.12927312 -0.0800315 13.70277393 3 18 C3 18.66 3 19.32 3 20 C4.98 20 6.96 20 9 20 C9.99798215 17.82297793 9.99798215 17.82297793 10 15 C8.24987311 12.63984581 6.62120097 10.73624353 4.5625 8.6875 C4.03333984 8.13771484 3.50417969 7.58792969 2.95898438 7.02148438 C1.65261199 5.66803551 0.32799243 4.332242 -1 3 C-0.67 2.01 -0.34 1.02 0 0 Z " fill="#F9FAFC" transform="translate(256,121)"/>
<path d="M0 0 C3.33161397 2.98696425 5.34826557 5.82719722 7 10 C6.2136233 17.42521075 -2.5354683 23.82579098 -7.9296875 28.36328125 C-19.46658046 37.483957 -19.46658046 37.483957 -26 37 C-28.64360073 35.28088047 -30.82794201 33.27768999 -33 31 C-29.38277662 26.56890136 -25.6930937 22.72104704 -21.33984375 19.01953125 C-18.48222896 16.55310914 -15.71024336 13.99817968 -12.9375 11.4375 C-8.69951642 7.53220677 -4.4109983 3.70924857 0 0 Z " fill="#00A0DD" transform="translate(236,425)"/>
<path d="M0 0 C3.11366977 1.58995903 4.49203686 2.78978366 5.84765625 6.01953125 C6.96364523 9.9421991 7.36428821 13.02085304 5.875 16.875 C3.07352941 21.54411765 3.07352941 21.54411765 0 23 C-4.50426166 24.10027766 -7.94093641 24.3530212 -12.375 22.875 C-15.37849231 20.72964835 -16.62821625 19.42945937 -18 16 C-18.57577311 12.0575536 -18.38848382 8.94962712 -16.875 5.25 C-11.8487981 -0.78144227 -7.37834336 -2.0692033 0 0 Z M-7 8 C-7.66 8.66 -8.32 9.32 -9 10 C-8.91428339 12.09291157 -8.91428339 12.09291157 -8 14 C-7.01 14.33 -6.02 14.66 -5 15 C-4.01 14.01 -3.02 13.02 -2 12 C-2.33 11.01 -2.66 10.02 -3 9 C-4.90708843 8.08571661 -4.90708843 8.08571661 -7 8 Z " fill="#00174F" transform="translate(30,473)"/>
<path d="M0 0 C3.66931783 1.63080792 6.0834248 3.45433589 8 7 C9.16029224 11.71852179 9.60238288 14.55779157 7.25 18.875 C5 22 5 22 2 24 C-3.08746258 24.6772783 -7.55682364 24.82467221 -12.0625 22.25 C-14.97373005 18.86921671 -15.89561187 17.1273918 -16.3125 12.625 C-15.88089656 7.61840015 -14.66512016 4.42724585 -10.8125 1.125 C-7.08821435 -0.36471426 -3.95916073 -0.59427565 0 0 Z M-5 9 C-5.66 9.66 -6.32 10.32 -7 11 C-6.91428339 13.09291157 -6.91428339 13.09291157 -6 15 C-5.01 15.33 -4.02 15.66 -3 16 C-2.01 15.01 -1.02 14.02 0 13 C-0.66 11.68 -1.32 10.36 -2 9 C-2.99 9 -3.98 9 -5 9 Z " fill="#001750" transform="translate(486,172)"/>
<path d="M0 0 C3.12578143 1.6720747 5.39281175 3.7856235 7 7 C7.43281664 11.23660902 7.44858706 14.91394711 5.8125 18.875 C3.25457509 21.87394645 1.06894964 23.69364437 -2.92578125 24.28515625 C-7.43602005 24.48051499 -10.37823317 23.89741346 -14 21 C-17.37117592 17.21050298 -17.56088501 14.41495284 -17.4296875 9.48046875 C-16.73257257 5.45621441 -14.96066221 3.74918634 -12 1 C-8.27533151 -0.86233425 -4.05504687 -0.57130829 0 0 Z M-7 9 C-7.33 10.65 -7.66 12.3 -8 14 C-5.525 14.495 -5.525 14.495 -3 15 C-2.67 13.35 -2.34 11.7 -2 10 C-3.65 9.67 -5.3 9.34 -7 9 Z " fill="#00174F" transform="translate(38,196)"/>
<path d="M0 0 C3.12578143 1.6720747 5.39281175 3.7856235 7 7 C7.43281664 11.23660902 7.44858706 14.91394711 5.8125 18.875 C3.25457509 21.87394645 1.06894964 23.69364437 -2.92578125 24.28515625 C-7.43602005 24.48051499 -10.37823317 23.89741346 -14 21 C-17.37117592 17.21050298 -17.56088501 14.41495284 -17.4296875 9.48046875 C-16.73257257 5.45621441 -14.96066221 3.74918634 -12 1 C-8.27533151 -0.86233425 -4.05504687 -0.57130829 0 0 Z M-7 9 C-7.33 10.65 -7.66 12.3 -8 14 C-5.525 14.495 -5.525 14.495 -3 15 C-2.67 13.35 -2.34 11.7 -2 10 C-3.65 9.67 -5.3 9.34 -7 9 Z " fill="#001750" transform="translate(337,32)"/>
<path d="M0 0 C4.38339642 1.64112668 7.04886084 4.94072216 10.125 8.3125 C10.66253906 8.88162109 11.20007813 9.45074219 11.75390625 10.03710938 C14.64956453 13.18189536 16.7313072 15.82584405 18 20 C16.35 21.65 14.7 23.3 13 25 C9.27086332 23.47790339 7.19368821 21.25967803 4.5625 18.25 C3.78132812 17.36054687 3.00015625 16.47109375 2.1953125 15.5546875 C-0.2346581 12.72692811 -2.6431894 9.88899364 -5 7 C-3.70700306 4.11562221 -2.34058637 2.12780579 0 0 Z " fill="#00174F" transform="translate(141,18)"/>
<path d="M0 0 C3.88397689 1.55002747 6.02979619 4.00476621 8.75 7.125 C9.94882813 8.49011719 9.94882813 8.49011719 11.171875 9.8828125 C11.77515625 10.58148438 12.3784375 11.28015625 13 12 C11.35 13.98 9.7 15.96 8 18 C3.70772058 17.53730015 1.97077935 15.09840542 -0.75 11.9375 C-1.54921875 11.01839844 -2.3484375 10.09929688 -3.171875 9.15234375 C-3.77515625 8.44207031 -4.3784375 7.73179688 -5 7 C-3.64062915 4.1394109 -2.35479531 2.14072301 0 0 Z " fill="#00174F" transform="translate(163,10)"/>
<path d="M0 0 C1.09689027 2.19378053 2.14117537 4.3487862 3.0625 6.625 C5.74199942 11.29251511 9.33649462 14.65516423 13.1875 18.375 C13.93708984 19.11105469 14.68667969 19.84710938 15.45898438 20.60546875 C17.29934824 22.41066643 19.14635923 24.20845508 21 26 C16.66723754 27.44425415 14.01109699 25.88757505 10 24 C4.65916554 20.72266976 2.18563383 15.88581927 0.39453125 10.015625 C-0.26082956 6.66744501 -0.05674765 3.40485927 0 0 Z " fill="#C4E6F8" transform="translate(133,396)"/>
<path d="M0 0 C1.98 1.65 3.96 3.3 6 5 C4.70700306 7.88437779 3.34058637 9.87219421 1 12 C-1.46800047 10.84826645 -3.04783565 9.95216435 -5 8 C-4.74739753 4.21096292 -2.72150557 2.45813407 0 0 Z " fill="#001549" transform="translate(22,348)"/>
<path d="M0 0 C1.98 1.65 3.96 3.3 6 5 C5.43628586 8.26954202 4.50037734 9.82575883 2 12 C-0.88437779 10.70700306 -2.87219421 9.34058637 -5 7 C-3.70700306 4.11562221 -2.34058637 2.12780579 0 0 Z " fill="#00164B" transform="translate(481,22)"/>
<path d="M0 0 C1.98 1.65 3.96 3.3 6 5 C4.70700306 7.88437779 3.34058637 9.87219421 1 12 C-1.46800047 10.84826645 -3.04783565 9.95216435 -5 8 C-4.74739753 4.21096292 -2.72150557 2.45813407 0 0 Z " fill="#00194E" transform="translate(30,22)"/>
<path d="M0 0 C2.31 1.98 4.62 3.96 7 6 C4.75 10.5 4.75 10.5 1 12 C-1.5625 9.75 -1.5625 9.75 -4 7 C-4 4.875 -4 4.875 -3 3 C-2.01 2.01 -1.02 1.02 0 0 Z " fill="#00164B" transform="translate(16,22)"/>
<path d="M0 0 C2.45849212 0.23791859 3.81202615 0.863881 5.8125 2.3125 C7 4 7 4 6.875 6 C5.90943569 8.20700414 4.80627247 9.42932829 3 11 C0.11562221 9.70700306 -1.87219421 8.34058637 -4 6 C-2.84826645 3.53199953 -1.95216435 1.95216435 0 0 Z " fill="#00154F" transform="translate(493,10)"/>
<path d="M0 0 C2.20700414 0.96556431 3.42932829 2.06872753 5 3.875 C3.70700306 6.75937779 2.34058637 8.74719421 0 10.875 C-2.46800047 9.72326645 -4.04783565 8.82716435 -6 6.875 C-5.76208141 4.41650788 -5.136119 3.06297385 -3.6875 1.0625 C-2 -0.125 -2 -0.125 0 0 Z " fill="#001650" transform="translate(18,10.125)"/>
<path d="M0 0 C3.78903708 0.25260247 5.54186593 2.27849443 8 5 C6.95125002 7.62187494 6.35068687 8.79371361 3.875 10.25 C3.25625 10.4975 2.6375 10.745 2 11 C-0.5625 8.75 -0.5625 8.75 -3 6 C-2.91236229 2.93268023 -2.18647619 2.18647619 0 0 Z " fill="#00174B" transform="translate(28,10)"/>
<path d="M0 0 C2.04119788 1.61594832 4.04072937 3.2856382 6 5 C6 5.66 6 6.32 6 7 C4.46875 8.2890625 4.46875 8.2890625 2.5 9.625 C1.8503125 10.07101562 1.200625 10.51703125 0.53125 10.9765625 C-0.22671875 11.48316406 -0.22671875 11.48316406 -1 12 C-3.0625 10.25 -3.0625 10.25 -5 8 C-5 4.96177684 -3.99700998 3.99673816 -1.9375 1.75 C-1.298125 1.1725 -0.65875 0.595 0 0 Z " fill="#00174E" transform="translate(487,349)"/>
<path d="M0 0 C1.98 1.65 3.96 3.3 6 5 C4.02 7.31 2.04 9.62 0 12 C-1.98 10.35 -3.96 8.7 -6 7 C-4.02 4.69 -2.04 2.38 0 0 Z " fill="#00174F" transform="translate(175,145)"/>
<path d="M0 0 C2.31 1.98 4.62 3.96 7 6 C5.35 7.98 3.7 9.96 2 12 C-0.31 10.02 -2.62 8.04 -5 6 C-3.35 4.02 -1.7 2.04 0 0 Z " fill="#00174F" transform="translate(161,145)"/>
<path d="M0 0 C1.98 1.65 3.96 3.3 6 5 C4.02 7.31 2.04 9.62 0 12 C-1.65 10.68 -3.3 9.36 -5 8 C-4.45773019 4.20411134 -2.79872437 2.52788007 0 0 Z " fill="#00184F" transform="translate(500,362)"/>
<path d="M0 0 C2.31 1.98 4.62 3.96 7 6 C5.35 7.98 3.7 9.96 2 12 C0.02 10.35 -1.96 8.7 -4 7 C-3.37611108 3.38144425 -2.8290723 2.8290723 0 0 Z " fill="#00184F" transform="translate(486,362)"/>
<path d="M0 0 C1.98 1.65 3.96 3.3 6 5 C4.02 7.31 2.04 9.62 0 12 C-1.65 10.68 -3.3 9.36 -5 8 C-4.45773019 4.20411134 -2.79872437 2.52788007 0 0 Z " fill="#001850" transform="translate(35,361)"/>
<path d="M0 0 C2.31 1.98 4.62 3.96 7 6 C5.35 7.98 3.7 9.96 2 12 C0.02 10.35 -1.96 8.7 -4 7 C-3.37611108 3.38144425 -2.8290723 2.8290723 0 0 Z " fill="#001850" transform="translate(21,361)"/>
<path d="M0 0 C2.31 1.98 4.62 3.96 7 6 C5.35 7.98 3.7 9.96 2 12 C0.02 10.35 -1.96 8.7 -4 7 C-3.37611108 3.38144425 -2.8290723 2.8290723 0 0 Z " fill="#00184F" transform="translate(499,349)"/>
<path d="M0 0 C2.31 1.98 4.62 3.96 7 6 C5.35 7.98 3.7 9.96 2 12 C0.02 10.35 -1.96 8.7 -4 7 C-3.37611108 3.38144425 -2.8290723 2.8290723 0 0 Z " fill="#00184F" transform="translate(34,348)"/>
<path d="M0 0 C2.7697841 1.4714478 4.19083529 3.54259201 6 6.0625 C4.02 7.7125 2.04 9.3625 0 11.0625 C-1.98 8.7525 -3.96 6.4425 -6 4.0625 C-2.62256809 0.08195525 -2.62256809 0.08195525 0 0 Z " fill="#00174F" transform="translate(175,132.9375)"/>
<path d="M0 0 C2.32070777 1.31506774 3.44012796 2.83844834 4.875 5.0625 C2.565 7.0425 0.255 9.0225 -2.125 11.0625 C-3.775 9.0825 -5.425 7.1025 -7.125 5.0625 C-2.75092047 0.08090943 -2.75092047 0.08090943 0 0 Z " fill="#001751" transform="translate(163.125,132.9375)"/>
<path d="M0 0 C1.65 1.32 3.3 2.64 5 4 C4.65120368 7.25543229 3.97866739 8.01873107 1.4375 10.25 C0.633125 10.8275 -0.17125 11.405 -1 12 C-2.65 10.02 -4.3 8.04 -6 6 C-4.02 4.02 -2.04 2.04 0 0 Z " fill="#00174F" transform="translate(495,22)"/>
<path d="M0 0 C1.8125 0.9375 1.8125 0.9375 3.8125 2.9375 C3.61938882 5.8341677 2.78485629 6.96960237 0.875 9.1875 C-1.1875 10.9375 -1.1875 10.9375 -3.1875 10.9375 C-4.57688077 8.97602126 -5.9135411 6.97583424 -7.1875 4.9375 C-2.78233345 -0.07949524 -2.78233345 -0.07949524 0 0 Z " fill="#00174F" transform="translate(483.1875,10.0625)"/>
<path d="M0 0 C-2.40768703 2.79163712 -4.76146616 3.89717557 -8.1875 5.1875 C-9.08855469 5.53167969 -9.98960937 5.87585938 -10.91796875 6.23046875 C-11.60503906 6.48441406 -12.29210937 6.73835938 -13 7 C-10.2593642 0.97060124 -6.52243375 -0.45505352 0 0 Z " fill="#C4E6F8" transform="translate(152,380)"/>
</svg>
