<svg width="94" height="14" viewBox="0 0 94 14" fill="none" xmlns="http://www.w3.org/2000/svg">
<g clip-path="url(#clip0_1857_48600)">
<path d="M7.76638 0.000366211L9.97842 4.45434L14.9302 5.16856L11.3483 8.63555L12.1941 13.531L7.76638 11.2196L3.33868 13.531L4.18446 8.63555L0.602539 5.16856L5.55072 4.45434L7.76638 0.000366211Z" fill="black"/>
<path d="M27.5261 0.000366211L29.7382 4.45434L34.6864 5.16856L31.1044 8.63555L31.9502 13.531L27.5261 11.2196L23.0984 13.531L23.9442 8.63555L20.3623 5.16856L25.3105 4.45434L27.5261 0.000366211Z" fill="black"/>
<path d="M47.283 0.000366211L49.4986 4.45434L54.4468 5.16856L50.8649 8.63555L51.7107 13.531L47.283 11.2196L42.8553 13.531L43.7011 8.63555L40.1191 5.16856L45.0709 4.45434L47.283 0.000366211Z" fill="black"/>
<path d="M67.0437 0.000366211L69.2558 4.45434L74.2076 5.16856L70.6256 8.63555L71.4714 13.531L67.0437 11.2196L62.616 13.531L63.4618 8.63555L59.8799 5.16856L64.8281 4.45434L67.0437 0.000366211Z" fill="black"/>
<path d="M86.7999 0.000366211L89.0155 4.45434L93.9637 5.16856L90.3818 8.63555L91.2276 13.531L86.7999 11.2196L82.3758 13.531L83.2216 8.63555L79.6396 5.16856L84.5878 4.45434L86.7999 0.000366211Z" fill="black"/>
</g>
<defs>
<clipPath id="clip0_1857_48600">
<rect width="93.3612" height="13.5306" fill="white" transform="translate(0.602539 0.000366211)"/>
</clipPath>
</defs>
</svg>
