<svg xmlns="http://www.w3.org/2000/svg" width="49" height="48" fill="none"><circle cx="24.107" cy="24" r="24" fill="#F5F5F5"/><path fill="#9F7EDC" d="M33.288 20.245V32.77a3.186 3.186 0 0 1-3.19 3.19H18.715a3.186 3.186 0 0 1-3.19-3.19V15.914a3.186 3.186 0 0 1 3.19-3.19h7.052l7.521 7.521Z"/><path fill="#CCB0FF" d="M25.766 20.276v-7.552l7.552 7.552h-7.552ZM26.857 23.211h-1.19c-.07-.289-.21-.506-.42-.723h1.61c.35 0 .56-.289.56-.578 0-.29-.28-.579-.56-.579h-4.973c-.35 0-.56.29-.56.579 0 .29.28.578.56.578h.56c.841 0 1.541.29 1.962.723h-2.451c-.35 0-.56.29-.56.579s.28.578.56.578h2.73c-.07.217-.14.361-.28.506-.35.361-.98.506-1.75.506-.21 0-.42 0-.63-.072h-.21c-.07 0-.14.072-.21.144 0 0-.07 0-.07.072 0 .073-.07.073-.07.145s0 .072-.07.145v.289c0 .072.07.144.14.217l3.36 3.759c.141.145.281.217.421.217.14 0 .28-.072.42-.145.21-.217.28-.578 0-.867l-2.45-2.747c.84-.073 1.47-.362 1.96-.868.35-.361.56-.795.63-1.373h1.05c.351 0 .561-.29.561-.579s-.35-.506-.63-.506Z"/><path fill="#89D5FE" d="M33.262 25.814c2.99 0 5.422 2.423 5.422 5.402s-2.432 5.402-5.422 5.402c-2.99 0-5.421-2.423-5.421-5.402 0-2.98 2.432-5.402 5.421-5.402Z"/><path stroke="#fff" stroke-width="1.003" d="M35.471 32.4a2.457 2.457 0 1 0-4.256-2.457A2.457 2.457 0 0 0 35.47 32.4ZM32.065 33.388l2.507-4.344"/></svg>