<svg xmlns="http://www.w3.org/2000/svg" width="49" height="48" fill="none"><circle cx="24.52" cy="24" r="24" fill="#F5F5F5"/><path fill="#2F77F1" d="M34.698 18.245V30.77a3.186 3.186 0 0 1-3.19 3.19H20.125a3.186 3.186 0 0 1-3.19-3.19V13.914a3.186 3.186 0 0 1 3.19-3.19h7.052l7.521 7.521Z"/><path fill="#C0E9FF" d="M27.176 18.276v-7.552l7.552 7.552h-7.552ZM28.267 21.211h-1.19c-.07-.289-.21-.506-.42-.723h1.61c.35 0 .56-.289.56-.578 0-.29-.28-.579-.56-.579h-4.972c-.35 0-.56.29-.56.579 0 .29.28.578.56.578h.56c.84 0 1.54.29 1.96.723h-2.45c-.35 0-.56.29-.56.579s.28.578.56.578h2.731c-.07.217-.14.361-.28.506-.35.361-.98.506-1.751.506-.21 0-.42 0-.63-.072h-.21c-.07 0-.14.072-.21.144 0 0-.07 0-.07.072 0 .073-.07.073-.07.145s0 .072-.07.145v.289c0 .072.07.144.14.217l3.361 3.759c.14.145.28.217.42.217.14 0 .28-.072.42-.145.21-.217.28-.578 0-.867l-2.45-2.747c.84-.073 1.47-.362 1.96-.868.35-.361.56-.795.63-1.373h1.051c.35 0 .56-.29.56-.579s-.35-.506-.63-.506Z"/></svg>