<svg xmlns="http://www.w3.org/2000/svg" width="25" height="25" fill="none"><path fill="#252424" d="M15.744 4.824c0-.56 0-.84-.109-1.054a1 1 0 0 0-.437-.437c-.214-.11-.494-.11-1.054-.11h-2.8c-.56 0-.84 0-1.054.11a1 1 0 0 0-.437.437c-.109.214-.109.494-.109 1.054v16.4h6v-16.4Z" opacity=".12"/><path stroke="#252424" stroke-linecap="round" stroke-linejoin="round" stroke-width="2" d="M9.744 7.224h-4.4c-.56 0-.84 0-1.054.109a1 1 0 0 0-.437.437c-.109.214-.109.494-.109 1.054v10.8c0 .56 0 .84.11 1.054a1 1 0 0 0 .436.437c.214.109.494.109 1.054.109h4.4m0 0h6m-6 0v-16.4c0-.56 0-.84.11-1.054a1 1 0 0 1 .436-.437c.214-.11.494-.11 1.054-.11h2.8c.56 0 .84 0 1.054.11a1 1 0 0 1 .437.437c.11.214.11.494.11 1.054v16.4m0-10h4.4c.56 0 .84 0 1.053.109a1 1 0 0 1 .437.437c.11.214.11.494.11 1.054v6.8c0 .56 0 .84-.11 1.054a.999.999 0 0 1-.437.437c-.214.109-.494.109-1.054.109h-4.4"/></svg>