<svg width="48" height="49" viewBox="0 0 48 49" fill="none" xmlns="http://www.w3.org/2000/svg">
<path d="M18 23.3332L22 27.3332L31 18.3332M40 24.3332C40 34.1501 29.2921 41.29 25.396 43.563C24.9532 43.8213 24.7318 43.9505 24.4194 44.0175C24.1769 44.0695 23.8231 44.0695 23.5806 44.0175C23.2682 43.9505 23.0468 43.8213 22.604 43.563C18.7079 41.29 8 34.1501 8 24.3332V14.7684C8 13.1694 8 12.3699 8.26152 11.6826C8.49255 11.0755 8.86797 10.5338 9.35532 10.1043C9.90699 9.61812 10.6556 9.33739 12.1528 8.77593L22.8764 4.75459C23.2922 4.59866 23.5001 4.5207 23.714 4.4898C23.9037 4.46239 24.0963 4.46239 24.286 4.4898C24.4999 4.5207 24.7078 4.59866 25.1236 4.75459L35.8472 8.77593C37.3444 9.33739 38.093 9.61812 38.6447 10.1043C39.132 10.5338 39.5075 11.0755 39.7385 11.6826C40 12.3699 40 13.1694 40 14.7684V24.3332Z" stroke="#6E6D6B" stroke-width="4" stroke-linecap="round" stroke-linejoin="round"/>
</svg>
