<svg xmlns="http://www.w3.org/2000/svg" xmlns:xlink="http://www.w3.org/1999/xlink" x="0px" y="0px" viewBox="0 0 110 22" style="enable-background:new 0 0 110 22;" xml:space="preserve"><style type="text/css">	.st0{fill:#FFD400;}	.st1{fill:#FFFFFF;}	.st2{fill:#D6E3E5;}</style><g id="Layer_1">	<path class="st0" d="M15.21,19.92l-5.02-2.64c-0.15-0.08-0.33-0.08-0.48,0l-5.16,2.65c-0.39,0.2-0.84-0.14-0.75-0.57l1.14-5.56  c0.04-0.17-0.02-0.35-0.14-0.47L0.81,9.39C0.51,9.09,0.68,8.56,1.11,8.5l5.74-0.84C7.01,7.64,7.16,7.54,7.23,7.4l2.72-5.13  c0.2-0.38,0.75-0.37,0.93,0.02l2.37,5.07c0.07,0.16,0.22,0.27,0.4,0.3l5.62,0.8c0.43,0.06,0.6,0.6,0.28,0.9l-4.23,3.97  c-0.12,0.12-0.18,0.29-0.16,0.45l0.8,5.62C16.03,19.81,15.58,20.12,15.21,19.92z"></path>	<path class="st0" d="M37.44,19.92l-5.02-2.64c-0.15-0.08-0.33-0.08-0.48,0l-5.16,2.65c-0.39,0.2-0.84-0.14-0.75-0.57l1.14-5.56  c0.04-0.17-0.02-0.35-0.14-0.47l-3.97-3.94c-0.31-0.3-0.13-0.82,0.29-0.89l5.74-0.84c0.16-0.02,0.31-0.12,0.39-0.27l2.72-5.13  c0.2-0.38,0.75-0.37,0.93,0.02l2.37,5.07c0.07,0.16,0.22,0.27,0.4,0.3l5.62,0.8c0.43,0.06,0.6,0.6,0.28,0.9l-4.23,3.97  c-0.12,0.12-0.18,0.29-0.16,0.45l0.8,5.62C38.26,19.81,37.82,20.12,37.44,19.92z"></path>	<path class="st0" d="M59.68,19.92l-5.02-2.64c-0.15-0.08-0.33-0.08-0.48,0l-5.16,2.65c-0.39,0.2-0.84-0.14-0.75-0.57l1.14-5.56  c0.04-0.17-0.02-0.35-0.14-0.47l-3.97-3.94c-0.31-0.3-0.13-0.82,0.29-0.89l5.74-0.84c0.16-0.02,0.31-0.12,0.39-0.27l2.72-5.13  c0.2-0.38,0.75-0.37,0.93,0.02l2.37,5.07c0.07,0.16,0.22,0.27,0.4,0.3l5.62,0.8c0.43,0.06,0.6,0.6,0.28,0.9l-4.23,3.97  c-0.12,0.12-0.18,0.29-0.16,0.45l0.8,5.62C60.5,19.81,60.06,20.12,59.68,19.92z"></path>	<path class="st0" d="M81.92,19.92l-5.02-2.64c-0.15-0.08-0.33-0.08-0.48,0l-5.16,2.65c-0.39,0.2-0.84-0.14-0.75-0.57l1.14-5.56  c0.04-0.17-0.02-0.35-0.14-0.47l-3.97-3.94c-0.31-0.3-0.13-0.82,0.29-0.89l5.74-0.84c0.16-0.02,0.31-0.12,0.39-0.27l2.72-5.13  c0.2-0.38,0.75-0.37,0.93,0.02l2.37,5.07c0.07,0.16,0.22,0.27,0.4,0.3l5.62,0.8c0.43,0.06,0.6,0.6,0.28,0.9l-4.23,3.97  c-0.12,0.12-0.18,0.29-0.16,0.45l0.8,5.62C82.74,19.81,82.29,20.12,81.92,19.92z"></path></g><g id="Layer_2">	<g>		<path class="st0" d="M102.61,7.65c-0.17-0.02-0.32-0.14-0.4-0.3l-2.37-5.07c-0.18-0.39-0.73-0.4-0.93-0.02L96.18,7.4   c-0.08,0.15-0.22,0.25-0.39,0.27L90.05,8.5c-0.43,0.06-0.6,0.58-0.29,0.89l3.97,3.94c0.12,0.12,0.18,0.3,0.14,0.47l-1.14,5.56   c-0.09,0.43,0.36,0.77,0.75,0.57l5.16-2.65c0.15-0.08,0.33-0.08,0.48,0l5.02,2.64c0.38,0.2,0.82-0.11,0.76-0.53l-0.8-5.62   c-0.02-0.17,0.04-0.34,0.16-0.45l1.11-1.04c0.04-1.41,0.08-2.82,0.12-4.21L102.61,7.65z"></path>		<line class="st1" x1="105.38" y1="12.28" x2="105.38" y2="12.28"></line>		<path class="st2" d="M108.23,8.45l-2.72-0.39c-0.04,1.39-0.08,2.8-0.12,4.21l3.12-2.93C108.83,9.05,108.66,8.51,108.23,8.45z"></path>	</g></g></svg>