
<svg version="1.1" id="Capa_1" xmlns="http://www.w3.org/2000/svg" xmlns:xlink="http://www.w3.org/1999/xlink" x="0px" y="0px"
	 viewBox="0 0 792 864" enable-background="new 0 0 792 864" xml:space="preserve">
<g>
	<rect x="60" y="395" fill="#71E8D0" width="122" height="215"/>
	<rect x="610" y="395" fill="#71E8D0" width="122" height="215"/>
	<circle fill="#B94439" cx="422" cy="731" r="71"/>
	<g>
		<g>
			<path fill="#374860" d="M682.2,363.4h-2v-48C680.3,161.1,555.2,36,400.9,36S121.6,161.1,121.6,315.4v48h-11.8
				c-43.1,0-76.5,38.2-76.5,82.3v122.5c-1.1,42.8,32.7,78.3,75.4,79.4c0.3,0,0.7,0,1,0h72.5c10.3-0.5,18.2-9.2,17.7-19.5
				c0-0.4,0-0.7-0.1-1.1V386.9c0-11.8-6.9-23.5-17.6-23.5h-21.6v-48c0-132.6,107.5-240.1,240.1-240.1s240.1,107.5,240.1,240.1v48
				h-21.6c-10.8,0-17.6,11.8-17.6,23.5v240.1c-1.1,10.2,6.3,19.4,16.5,20.5c0.4,0,0.7,0.1,1.1,0.1H642l-2,2.9
				c-29.4,39.1-75.6,62-124.5,61.8c-10.7-52.5-62-86.4-114.5-75.7c-44.9,9.2-77.3,48.5-77.6,94.3c0.5,53.8,44.3,97,98,97
				c26.6-0.4,52-11.4,70.6-30.4c12.5-12.9,20.8-29.3,23.5-47.1c61.3,0.2,119-28.5,155.9-77.4l18.6-27.4
				c42.1-2.9,68.6-29.4,68.6-67.6V455.5C758.7,413.4,727.3,363.4,682.2,363.4z M160.8,608.4h-51c-21.1-0.5-37.8-18-37.3-39.1
				c0-0.3,0-0.7,0-1V445.7c0-22.5,15.7-43.1,37.2-43.1h51V608.4z M463.6,770.2c-10.9,11.8-26.1,18.5-42.1,18.6
				c-31.9-0.5-57.8-26-58.8-57.8c0-31.9,25.9-57.8,57.8-57.9s57.8,25.9,57.9,57.8c0,0,0,0,0,0C479.2,745.5,473.8,759.7,463.6,770.2z
				 M719.5,578c0,26.5-25.5,30.4-37.2,30.4h-41.2V402.6h41.2c21.6,0,37.2,30.4,37.2,52.9V578z"/>
		</g>
	</g>
</g>
</svg>
