<svg xmlns="http://www.w3.org/2000/svg" xmlns:xlink="http://www.w3.org/1999/xlink" id="Layer_1" x="0px" y="0px" viewBox="0 0 200 200" style="enable-background:new 0 0 200 200;" xml:space="preserve"><style type="text/css">	.st0{fill:#6EA3F0;}	.st1{fill:#FFFFFF;}	.st2{fill:#091C38;}	.st3{fill:#D6E3F2;}</style><g>	<path class="st0" d="M4.22,100c0,24.55,9.24,46.93,24.42,63.88L14.13,57.53C7.79,70.33,4.22,84.75,4.22,100z"></path>	<path class="st0" d="M181.39,149.78c0,0.25-0.01,0.5-0.02,0.76c9.13-14.67,14.41-31.99,14.41-50.54  c0-40.38-24.99-74.92-60.34-89.01l14.03,102.29C167.48,115.69,181.39,131.11,181.39,149.78z"></path>	<path class="st0" d="M114.42,170.96l-66.74,9.28c15.04,9.83,33.01,15.54,52.31,15.54c14.77,0,28.76-3.35,41.25-9.32  C130.16,185.48,120.49,179.58,114.42,170.96z"></path>	<path class="st0" d="M124.01,7.25c-7.67-1.98-15.72-3.04-24.01-3.04c-14.97,0-29.13,3.44-41.75,9.56l2.71,2.24L124.01,7.25z"></path>	<path class="st0" d="M131.61,8.25l-76.8,10.44l2.14,1.78l69.51-9.66c2.39-0.33,4.59,1.34,4.93,3.72l13.68,98.43  c0.33,0,0.67,0.01,1,0.03L131.61,8.25z"></path>	<path class="st1" d="M143.56,112.97L129.9,14.73c-0.22-1.56-1.67-2.66-3.23-2.44l-70.16,9.75l-5.99-4.97  c-0.91-0.75-2.05-1.16-3.22-1.16c-0.23,0-0.46,0.02-0.69,0.05l-33.11,4.6c-1.56,0.22-2.66,1.67-2.45,3.23L31.7,175.18  c0.21,1.51,0.99,2.85,2.2,3.77c1.22,0.92,2.72,1.31,4.23,1.1l75.36-10.48c-3.65-5.72-5.78-12.5-5.78-19.79  C107.72,129.77,123.68,113.5,143.56,112.97z M56.69,52.8l41.01-5.21c2.86-0.36,5.47,1.66,5.83,4.52l1.36,10.68  c0.36,2.86-1.66,5.47-4.52,5.83l-41.01,5.21c-2.86,0.36-5.47-1.66-5.83-4.52l-1.36-10.68C51.81,55.77,53.83,53.16,56.69,52.8z"></path>	<path class="st2" d="M181.39,149.78c0-18.68-13.9-34.1-31.92-36.5L135.44,10.99l-0.14-1.04c-0.16-1.12-0.74-2.11-1.64-2.79  c-0.9-0.68-2-0.97-3.13-0.81l-6.51,0.91l-63.06,8.77l-2.71-2.24l-2.82-2.34c-1.39-1.15-3.2-1.66-4.99-1.41L12.5,15.41  c-1.14,0.16-2.14,0.76-2.82,1.69C9,18.02,8.73,19.16,8.92,20.29l0.73,4.37l4.48,32.87l14.51,106.35l1.57,11.5  c0.26,1.91,1.25,3.6,2.78,4.76c1.26,0.96,2.77,1.46,4.33,1.46c0.33,0,0.67-0.02,1.01-0.07l9.35-1.3l66.74-9.28  c6.07,8.62,15.74,14.52,26.83,15.5c1.09,0.1,2.19,0.15,3.3,0.15c20.09,0,36.41-16.09,36.82-36.08  C181.37,150.29,181.39,150.04,181.39,149.78z M113.49,169.58l-75.36,10.48c-1.51,0.21-3.01-0.18-4.23-1.1  c-1.21-0.92-2-2.26-2.2-3.77L11.04,23.79c-0.21-1.56,0.88-3.01,2.45-3.23l33.11-4.6c0.23-0.03,0.46-0.05,0.69-0.05  c1.17,0,2.31,0.41,3.22,1.16l5.99,4.97l70.16-9.75c1.56-0.21,3.02,0.88,3.23,2.44l13.66,98.24c-19.88,0.53-35.84,16.8-35.84,36.81  C107.72,157.07,109.84,163.86,113.49,169.58z M131.39,14.53c-0.33-2.38-2.54-4.06-4.93-3.72l-69.51,9.66l-2.14-1.78l76.8-10.44  l14.46,104.74c-0.33-0.01-0.66-0.02-1-0.03L131.39,14.53z M140.84,173.05c-0.6,0-1.17-0.24-1.59-0.67l-14.46-14.99  c-0.85-0.88-0.82-2.28,0.06-3.12c0.88-0.85,2.28-0.82,3.12,0.06l12.75,13.22l26.17-31.13c0.79-0.93,2.18-1.05,3.11-0.27  c0.93,0.79,1.05,2.18,0.27,3.11l-27.75,33.01c-0.4,0.48-0.99,0.76-1.62,0.79C140.89,173.05,140.87,173.05,140.84,173.05z"></path>	<path class="st0" d="M170.28,139.26c0.79-0.93,0.66-2.33-0.27-3.11c-0.93-0.78-2.33-0.66-3.11,0.27l-26.17,31.13l-12.75-13.22  c-0.85-0.88-2.25-0.9-3.12-0.06c-0.88,0.85-0.9,2.25-0.06,3.12l14.46,14.99c0.42,0.43,0.99,0.67,1.59,0.67c0.03,0,0.05,0,0.08,0  c0.63-0.02,1.21-0.31,1.62-0.79L170.28,139.26z"></path>	<path class="st3" d="M52.17,58.63l1.36,10.68c0.36,2.86,2.97,4.88,5.83,4.52l41.01-5.21c2.86-0.36,4.88-2.97,4.52-5.83l-1.36-10.68  c-0.36-2.86-2.97-4.88-5.83-4.52L56.69,52.8C53.83,53.16,51.81,55.77,52.17,58.63z"></path></g></svg>