<svg width="48" height="49" viewBox="0 0 48 49" fill="none" xmlns="http://www.w3.org/2000/svg">
<g id="icon-desktop-timer-easy-efficient">
<path id="Icon" d="M14 44.6665V22.6665M4 26.6665V40.6665C4 42.8756 5.79086 44.6665 8 44.6665H34.8525C37.8139 44.6665 40.3324 42.5058 40.7827 39.5788L42.9366 25.5788C43.4957 21.9443 40.6836 18.6665 37.0063 18.6665H30C28.8954 18.6665 28 17.7711 28 16.6665V9.59818C28 6.87449 25.792 4.6665 23.0683 4.6665C22.4187 4.6665 21.83 5.04909 21.5661 5.64275L14.5279 21.4788C14.2069 22.201 13.4906 22.6665 12.7003 22.6665H8C5.79086 22.6665 4 24.4574 4 26.6665Z" stroke="#6E6D6B" stroke-width="4" stroke-linecap="round" stroke-linejoin="round"/>
</g>
</svg>
