<?xml version="1.0" encoding="UTF-8"?>
<svg version="1.1" xmlns="http://www.w3.org/2000/svg" width="512" height="512">
<path d="M0 0 C6.36113024 4.9653871 9.95380355 11.73212355 13.88671875 18.6328125 C15.06017407 20.66595586 16.23475234 22.69845129 17.41015625 24.73046875 C19.37553815 28.1307929 21.33836901 31.53246581 23.29345703 34.9387207 C27.25150675 41.83263161 31.25639576 48.69046776 35.44897461 55.44482422 C37.88671875 59.42191329 37.88671875 59.42191329 37.88671875 61.6328125 C38.56734375 60.9315625 39.24796875 60.2303125 39.94921875 59.5078125 C40.92481361 58.54584327 41.90429579 57.58780741 42.88671875 56.6328125 C43.39460938 56.12878906 43.9025 55.62476563 44.42578125 55.10546875 C51.8151266 48.22392201 59.67566919 45.89623026 69.7109375 46.25 C78.15013734 47.26727132 84.47606065 51.26075264 90.88671875 56.6328125 C91.20382812 56.12492187 91.5209375 55.61703125 91.84765625 55.09375 C97.10962721 47.33161604 103.60680295 43.02172521 112.82421875 41.1328125 C122.58050375 39.93357644 129.76974317 41.95937923 137.890625 47.390625 C139.77788548 48.80893087 139.77788548 48.80893087 141.88671875 48.6328125 C143.09532455 47.27313098 144.25367914 45.86857742 145.38671875 44.4453125 C150.31603948 38.73341712 156.4099629 35.03033696 163.88671875 33.6328125 C174.15170131 32.91824879 182.30672921 33.52115674 190.57421875 39.9453125 C199.17829874 48.3133654 202.35219696 62.35899297 205.88671875 73.5078125 C206.1001593 74.17578857 206.31359985 74.84376465 206.5335083 75.53198242 C214.45037611 100.37423763 221.93837842 126.87712932 222.08984375 153.12890625 C222.09554382 153.92071793 222.1012439 154.7125296 222.1071167 155.52833557 C222.11650746 157.19815767 222.1230769 158.8679978 222.12695312 160.5378418 C222.13657386 163.03273977 222.16761836 165.52678193 222.19921875 168.02148438 C222.39449408 197.57449265 213.99953631 224.19115528 193.26171875 245.6953125 C171.65503281 267.26815338 140.50297675 272.86915048 111.19281006 272.8838501 C62.98554119 272.78135612 4.27813174 256.2152024 -33.11328125 224.6328125 C-33.85578125 224.01277344 -34.59828125 223.39273438 -35.36328125 222.75390625 C-41.45183817 217.21376714 -45.35213401 210.8395985 -46.5546875 202.61328125 C-46.909083 193.70766537 -44.56725811 186.42364326 -39.11328125 179.3828125 C-33.40685071 173.34575186 -24.89889073 168.83497202 -16.48852539 168.56713867 C-6.04296517 168.85595106 4.42632557 172.53630171 14.44921875 175.2578125 C16.77945221 175.88819058 19.11001584 176.51725912 21.44139099 177.1434021 C22.88111513 177.53028133 24.3201624 177.91969047 25.75843811 178.31192017 C29.27276396 179.29661447 29.27276396 179.29661447 32.88671875 179.6328125 C22.99563849 161.83200559 22.99563849 161.83200559 12.77661133 144.21875 C9.03447466 137.90609773 5.36290197 131.55377484 1.69921875 125.1953125 C1.06121338 124.08808838 0.42320801 122.98086426 -0.23413086 121.84008789 C-1.54217602 119.56944182 -2.85003573 117.29868892 -4.15771484 115.02783203 C-7.30660181 109.56111267 -10.46014943 104.09708417 -13.61328125 98.6328125 C-14.85938428 96.47266161 -16.10547802 94.31250534 -17.3515625 92.15234375 C-19.88944118 87.75322175 -22.42864708 83.35486929 -24.96875 78.95703125 C-28.09079946 73.55155005 -31.20757766 68.14304986 -34.32324219 62.73388672 C-36.09368011 59.66676963 -37.87234581 56.60454532 -39.65234375 53.54296875 C-40.74364824 51.65634176 -41.83480203 49.7696276 -42.92578125 47.8828125 C-43.42360107 47.03162842 -43.9214209 46.18044434 -44.43432617 45.3034668 C-49.72138623 36.1291091 -52.10277355 27.39720948 -49.390625 16.8125 C-45.83295883 7.39260657 -40.99316856 1.47498102 -32.11328125 -3.3671875 C-21.44257291 -7.88171795 -9.53515678 -6.16877056 0 0 Z " fill="#82DAF1" transform="translate(290.11328125,218.3671875)"/>
<path d="M0 0 C0.88999416 -0.0060911 1.77998831 -0.01218221 2.69695199 -0.01845789 C5.6615541 -0.03502815 8.62572389 -0.03032061 11.59036255 -0.0255127 C13.72307784 -0.03285647 15.85578915 -0.0414436 17.98849487 -0.05117798 C23.76953524 -0.07336972 29.55043296 -0.07632583 35.33151007 -0.07443047 C40.16245985 -0.07431066 44.99337952 -0.08287887 49.82432091 -0.09120798 C61.22389434 -0.11043352 72.62339454 -0.11332889 84.02297974 -0.10656738 C95.77235565 -0.09992651 107.52141765 -0.12279504 119.2707299 -0.15988111 C129.36864684 -0.19059493 139.46646288 -0.20193632 149.56442559 -0.1980443 C155.59092743 -0.19597863 161.61718493 -0.20142848 167.64364243 -0.22593689 C173.31222662 -0.24822907 178.98030093 -0.24630515 184.64888763 -0.22600937 C186.72489698 -0.22260379 188.80094082 -0.22766881 190.87690353 -0.24199295 C212.45762362 -0.38058297 212.45762362 -0.38058297 220.94013786 7.3077774 C226.44648756 12.8446889 228.86744407 19.1505849 229.20413208 26.89440918 C228.85762178 34.864146 226.25843732 40.86022225 220.79788208 46.66784668 C215.40750412 51.39512259 209.19365604 53.56153453 202.07913208 53.45690918 C201.27991333 53.44788574 200.48069458 53.4388623 199.65725708 53.42956543 C199.05397583 53.41796387 198.45069458 53.4063623 197.82913208 53.39440918 C198.04569458 55.26032715 198.04569458 55.26032715 198.26663208 57.16394043 C200.319064 75.30532044 200.319064 75.30532044 199.82913208 83.39440918 C199.78804321 84.08019043 199.74695435 84.76597168 199.70462036 85.47253418 C197.23497522 123.09319883 181.61228192 152.8321394 157.82913208 181.39440918 C159.2398675 184.78351321 161.36859105 187.36683211 163.71292114 190.16345215 C187.92080758 219.08054088 202.33031527 256.01268477 199.64016724 294.06750488 C199.39392036 296.72131084 199.1195757 299.37009235 198.82913208 302.01940918 C198.68604614 303.38259277 198.68604614 303.38259277 198.54006958 304.77331543 C198.3076944 306.9808796 198.07066719 309.18783179 197.82913208 311.39440918 C198.83037109 311.36613037 198.83037109 311.36613037 199.85183716 311.33728027 C200.73766479 311.32261719 201.62349243 311.3079541 202.53616333 311.29284668 C203.84677734 311.26456787 203.84677734 311.26456787 205.18386841 311.23571777 C211.80139772 311.63270846 217.52717225 315.29731597 222.32522583 319.68347168 C227.42160919 325.48143509 229.18066707 332.412086 229.03225708 339.96862793 C228.39684976 347.55685767 225.30751223 352.61670874 220.45022583 358.35144043 C210.50701538 366.10151355 198.88046643 364.96326514 186.91677856 364.9119873 C184.79199749 364.91741291 182.66722018 364.92453803 180.54244995 364.93322754 C174.79252676 364.95141033 169.04289175 364.94441439 163.29296374 364.9317112 C157.26603613 364.92155875 151.2391326 364.93098299 145.21220398 364.93725586 C135.09366441 364.94452515 124.97524177 364.93496276 114.85671997 364.91589355 C103.16866103 364.89412041 91.48088117 364.90118244 79.79282898 364.92319918 C69.74498722 364.94136654 59.69722933 364.9439051 49.64937645 364.9334445 C43.65372619 364.92721772 37.658207 364.92635173 31.66256523 364.93959045 C26.02600449 364.95116789 20.38980272 364.94308827 14.75328064 364.92001343 C12.68814756 364.91473676 10.62298413 364.9162222 8.55786324 364.92506409 C5.73226827 364.93604416 2.90781356 364.92222631 0.08229065 364.90234375 C-1.13465787 364.91572808 -1.13465787 364.91572808 -2.3761912 364.9293828 C-9.72733333 364.82949385 -15.32615642 362.25441285 -21.42086792 358.26940918 C-27.27480915 352.14937972 -29.48738513 346.37768583 -29.79586792 337.89440918 C-29.49860935 330.1422185 -27.9321827 324.09277309 -22.30368042 318.55847168 C-14.60085141 312.41419173 -7.82959123 311.00447324 1.82913208 311.39440918 C1.68910767 310.83785645 1.54908325 310.28130371 1.40481567 309.70788574 C-3.00926392 290.34213601 -1.04617902 268.49717111 3.82913208 249.39440918 C4.00041626 248.71990723 4.17170044 248.04540527 4.34817505 247.35046387 C9.92516509 226.48898527 22.49765678 199.92335673 39.64553833 185.91003418 C41.08567595 184.39756545 41.08567595 184.39756545 40.76272583 181.98034668 C39.64156482 178.8748714 38.22087804 177.35274872 35.89163208 175.01940918 C11.51764553 148.83280021 -0.49877508 112.93155774 -0.54586792 77.64440918 C-0.54864746 75.75262939 -0.54864746 75.75262939 -0.55148315 73.82263184 C-0.46573606 66.7932447 0.11203729 60.21931759 1.82913208 53.39440918 C1.1640564 53.43565918 0.49898071 53.47690918 -0.18624878 53.51940918 C-8.16148991 53.94189479 -14.25112176 51.83336235 -20.98336792 47.64440918 C-27.47171609 40.97067963 -29.51040413 34.5206783 -29.55587769 25.30285645 C-29.39573448 18.09294977 -27.28104668 12.94242863 -22.56149292 7.55847168 C-16.03294394 1.41923984 -8.66544036 -0.05643401 0 0 Z M16.82913208 53.39440918 C15.34601148 62.2931328 14.47221813 69.75558761 14.51663208 78.58190918 C14.52227173 79.76518799 14.52791138 80.9484668 14.53372192 82.16760254 C15.02390618 117.73508118 31.2432966 147.8934591 55.23660278 173.46081543 C57.90914396 176.31863882 59.58932625 178.13542857 60.32913208 182.01940918 C59.56290094 187.1914694 56.34454932 189.68369099 52.82913208 193.39440918 C29.12763901 219.98632824 14.68821184 250.20702365 14.51663208 286.20690918 C14.51099243 287.32766846 14.50535278 288.44842773 14.49954224 289.60314941 C14.56607621 297.24948157 15.53028498 303.60132655 16.82913208 311.39440918 C71.27913208 311.39440918 125.72913208 311.39440918 181.82913208 311.39440918 C189.96387312 278.85544501 181.66179836 245.75895776 164.82913208 217.39440918 C159.4664268 208.83574823 153.15175607 201.36771371 146.26272583 194.01550293 C138.98042734 186.17212847 138.98042734 186.17212847 138.57913208 181.45690918 C140.42662255 176.93055753 143.48319611 173.90245445 146.82913208 170.39440918 C171.11844144 144.44901055 185.22907234 112.01660815 184.99319458 76.28112793 C184.83719533 64.50149748 184.83719533 64.50149748 181.82913208 53.39440918 C127.37913208 53.39440918 72.92913208 53.39440918 16.82913208 53.39440918 Z " fill="#1764C1" transform="translate(29.170867919921875,20.6055908203125)"/>
<path d="M0 0 C0.98272888 -0.00708481 1.96545776 -0.01416962 2.97796631 -0.02146912 C4.58566643 -0.01775299 4.58566643 -0.01775299 6.22584534 -0.01396179 C7.35956573 -0.01907272 8.49328613 -0.02418365 9.66136169 -0.02944946 C13.41411091 -0.04336515 17.16667688 -0.04238721 20.91944885 -0.04008484 C23.52492339 -0.04397058 26.13039729 -0.048305 28.73587036 -0.05307007 C34.19917937 -0.0612816 39.66243665 -0.06037593 45.12574768 -0.05497742 C51.43671228 -0.04893711 57.74745397 -0.06125084 64.05838054 -0.08254749 C70.13458807 -0.10229653 76.21069146 -0.1053362 82.28692818 -0.10181236 C84.87013841 -0.10232632 87.45335215 -0.10757804 90.03654289 -0.11762428 C93.64669413 -0.12994122 97.25632758 -0.12322503 100.86647034 -0.11161804 C102.47113411 -0.12308365 102.47113411 -0.12308365 104.10821533 -0.13478088 C113.24395149 -0.06976034 113.24395149 -0.06976034 117.1108551 3.26069641 C118.55199561 6.14297743 118.40375316 8.04257285 118.1108551 11.26069641 C116.91789108 13.93766158 115.71452842 16.31707379 114.2358551 18.82319641 C113.83092834 19.52283508 113.42600159 20.22247375 113.00880432 20.9433136 C103.48745888 37.02039938 90.35815024 50.24401183 77.1108551 63.26069641 C78.49417475 66.40256817 80.07601365 68.42519627 82.56788635 70.77241516 C83.26204651 71.43894104 83.95620667 72.10546692 84.67140198 72.79219055 C85.41454651 73.50367249 86.15769104 74.21515442 86.9233551 74.94819641 C109.58295871 97.18400988 128.0197132 126.61736772 129.1108551 159.26069641 C129.14952698 160.29275208 129.14952698 160.29275208 129.1889801 161.34565735 C129.26925323 163.75485446 129.31959417 166.16303019 129.3608551 168.57319641 C129.3824469 169.35106506 129.4040387 170.12893372 129.42628479 170.93037415 C129.45221393 175.53828225 129.09672107 178.51386946 126.1108551 182.26069641 C123.4738248 183.57921156 121.49868754 183.39564245 118.5443573 183.40786743 C117.36099289 183.41502274 116.17762848 183.42217804 114.95840454 183.42955017 C113.00093544 183.43358353 113.00093544 183.43358353 111.00392151 183.43769836 C109.62096994 183.44396218 108.23802005 183.45060891 106.85507202 183.45761108 C103.09265104 183.47502652 99.33024277 183.48557398 95.56779146 183.49381661 C93.21825597 183.49896487 90.86872444 183.50504063 88.51919174 183.51132774 C81.17116674 183.53038003 73.8231518 183.54461194 66.47510684 183.55293971 C57.9869533 183.56271797 49.49906013 183.58905245 41.01099837 183.62944061 C34.45383499 183.65957295 27.89674638 183.67440577 21.33951509 183.67772073 C17.42131594 183.68007423 13.50339495 183.68907329 9.58526993 183.7141819 C5.89981149 183.73741806 2.21481522 183.74171421 -1.4706974 183.73142052 C-3.46905082 183.73068707 -5.46738053 183.74980896 -7.46563721 183.76948547 C-8.65464127 183.76254166 -9.84364532 183.75559784 -11.06867981 183.7484436 C-12.10217749 183.75083196 -13.13567516 183.75322031 -14.20049095 183.75568104 C-17.60277486 183.12931622 -18.78397172 181.95428673 -20.8891449 179.26069641 C-21.40672302 176.61372375 -21.40672302 176.61372375 -21.4203949 173.59663391 C-21.42861267 172.48328674 -21.43683044 171.36993958 -21.44529724 170.22285461 C-21.42676697 169.03909241 -21.40823669 167.8553302 -21.3891449 166.63569641 C-21.37705994 165.42035217 -21.36497498 164.20500793 -21.3525238 162.95283508 C-21.13422195 152.95924097 -19.90768948 143.78036822 -16.8891449 134.26069641 C-16.67483826 133.58007141 -16.46053162 132.89944641 -16.23973083 132.19819641 C-7.53446206 105.43614744 10.17115237 84.56402565 30.1108551 65.26069641 C28.48008825 61.00429236 25.26541763 58.27792582 22.0483551 55.19819641 C16.27709947 49.54553368 11.03406522 43.67778136 6.1108551 37.26069641 C5.43538635 36.39057922 4.7599176 35.52046204 4.0639801 34.62397766 C-9.98281307 15.9765875 -9.98281307 15.9765875 -10.8891449 7.26069641 C-10.14279616 4.34315133 -9.69077631 2.76981621 -7.1126852 1.13245869 C-4.58344585 0.1408439 -2.7129363 0.00653201 0 0 Z " fill="#82DAF1" transform="translate(74.88914489746094,138.7393035888672)"/>
<path d="M0 0 C6.36113024 4.9653871 9.95380355 11.73212355 13.88671875 18.6328125 C15.06017407 20.66595586 16.23475234 22.69845129 17.41015625 24.73046875 C19.37553815 28.1307929 21.33836901 31.53246581 23.29345703 34.9387207 C27.25150675 41.83263161 31.25639576 48.69046776 35.44897461 55.44482422 C37.88671875 59.42191329 37.88671875 59.42191329 37.88671875 61.6328125 C38.56734375 60.9315625 39.24796875 60.2303125 39.94921875 59.5078125 C40.92481361 58.54584327 41.90429579 57.58780741 42.88671875 56.6328125 C43.39460938 56.12878906 43.9025 55.62476563 44.42578125 55.10546875 C51.8151266 48.22392201 59.67566919 45.89623026 69.7109375 46.25 C78.15013734 47.26727132 84.47606065 51.26075264 90.88671875 56.6328125 C91.20382812 56.12492187 91.5209375 55.61703125 91.84765625 55.09375 C97.10962721 47.33161604 103.60680295 43.02172521 112.82421875 41.1328125 C122.58050375 39.93357644 129.76974317 41.95937923 137.890625 47.390625 C139.77788548 48.80893087 139.77788548 48.80893087 141.88671875 48.6328125 C143.09532455 47.27313098 144.25367914 45.86857742 145.38671875 44.4453125 C150.31603948 38.73341712 156.4099629 35.03033696 163.88671875 33.6328125 C174.15170131 32.91824879 182.30672921 33.52115674 190.57421875 39.9453125 C199.17829874 48.3133654 202.35219696 62.35899297 205.88671875 73.5078125 C206.1001593 74.17578857 206.31359985 74.84376465 206.5335083 75.53198242 C214.45037611 100.37423763 221.93837842 126.87712932 222.08984375 153.12890625 C222.09554382 153.92071793 222.1012439 154.7125296 222.1071167 155.52833557 C222.11650746 157.19815767 222.1230769 158.8679978 222.12695312 160.5378418 C222.13657386 163.03273977 222.16761836 165.52678193 222.19921875 168.02148438 C222.39449408 197.57449265 213.99953631 224.19115528 193.26171875 245.6953125 C171.65503281 267.26815338 140.50297675 272.86915048 111.19281006 272.8838501 C62.98554119 272.78135612 4.27813174 256.2152024 -33.11328125 224.6328125 C-33.85578125 224.01277344 -34.59828125 223.39273438 -35.36328125 222.75390625 C-41.45183817 217.21376714 -45.35213401 210.8395985 -46.5546875 202.61328125 C-46.909083 193.70766537 -44.56725811 186.42364326 -39.11328125 179.3828125 C-33.40685071 173.34575186 -24.89889073 168.83497202 -16.48852539 168.56713867 C-6.04296517 168.85595106 4.42632557 172.53630171 14.44921875 175.2578125 C16.77945221 175.88819058 19.11001584 176.51725912 21.44139099 177.1434021 C22.88111513 177.53028133 24.3201624 177.91969047 25.75843811 178.31192017 C29.27276396 179.29661447 29.27276396 179.29661447 32.88671875 179.6328125 C22.99563849 161.83200559 22.99563849 161.83200559 12.77661133 144.21875 C9.03447466 137.90609773 5.36290197 131.55377484 1.69921875 125.1953125 C1.06121338 124.08808838 0.42320801 122.98086426 -0.23413086 121.84008789 C-1.54217602 119.56944182 -2.85003573 117.29868892 -4.15771484 115.02783203 C-7.30660181 109.56111267 -10.46014943 104.09708417 -13.61328125 98.6328125 C-14.85938428 96.47266161 -16.10547802 94.31250534 -17.3515625 92.15234375 C-19.88944118 87.75322175 -22.42864708 83.35486929 -24.96875 78.95703125 C-28.09079946 73.55155005 -31.20757766 68.14304986 -34.32324219 62.73388672 C-36.09368011 59.66676963 -37.87234581 56.60454532 -39.65234375 53.54296875 C-40.74364824 51.65634176 -41.83480203 49.7696276 -42.92578125 47.8828125 C-43.42360107 47.03162842 -43.9214209 46.18044434 -44.43432617 45.3034668 C-49.72138623 36.1291091 -52.10277355 27.39720948 -49.390625 16.8125 C-45.83295883 7.39260657 -40.99316856 1.47498102 -32.11328125 -3.3671875 C-21.44257291 -7.88171795 -9.53515678 -6.16877056 0 0 Z M-32.48828125 15.0703125 C-35.78056971 20.26199815 -36.447837 23.68886061 -35.76733398 29.76293945 C-34.50796944 35.28881859 -31.42915538 39.84914634 -28.48828125 44.6328125 C-27.46154583 46.35552294 -26.43483792 48.07825056 -25.40985107 49.80200195 C-24.34991455 51.57962747 -23.28245553 53.35256456 -22.21386719 55.125 C-18.93398305 60.58130513 -15.78098711 66.11092333 -12.61328125 71.6328125 C-11.36386448 73.79981554 -10.11386281 75.96648145 -8.86328125 78.1328125 C13.63671875 117.1328125 13.63671875 117.1328125 15.51196289 120.38330078 C16.76107393 122.54838321 18.01026004 124.71342232 19.25952148 126.87841797 C22.39874184 132.31896956 25.53662438 137.76028466 28.671875 143.203125 C29.93088008 145.38808393 31.18999405 147.57298013 32.44921875 149.7578125 C33.06112061 150.8195166 33.67302246 151.8812207 34.3034668 152.97509766 C39.33360631 161.69365189 44.40266861 170.38921202 49.49633789 179.07080078 C50.04410889 180.00649902 50.59187988 180.94219727 51.15625 181.90625 C51.87711792 183.13480713 51.87711792 183.13480713 52.61254883 184.38818359 C53.0330249 185.12891113 53.45350098 185.86963867 53.88671875 186.6328125 C54.27819092 187.31424316 54.66966309 187.99567383 55.07299805 188.69775391 C56.38615153 191.82048254 55.61548876 194.41407828 54.88671875 197.6328125 C48.28353469 200.93440453 39.86237012 197.21052212 33.3046875 195.3515625 C30.82101088 194.66779677 28.33728539 193.98420854 25.85351562 193.30078125 C21.96145853 192.22033288 18.0715716 191.13219038 14.18237305 190.04150391 C10.41355633 188.98817469 6.64068891 187.95046225 2.8671875 186.9140625 C1.71582809 186.58595581 0.56446869 186.25784912 -0.6217804 185.9197998 C-12.18322318 182.72441396 -12.18322318 182.72441396 -23.48828125 185.3203125 C-26.08499351 187.60789235 -28.13023203 189.79988504 -30.11328125 192.6328125 C-30.54640625 193.2309375 -30.97953125 193.8290625 -31.42578125 194.4453125 C-32.79385353 198.79826975 -32.10115496 202.71903503 -30.0546875 206.68359375 C-10.9554299 234.54794973 43.55142047 249.07676994 74.55371094 255.15576172 C107.85804332 261.20145263 144.5885672 262.28435012 173.8984375 242.84375 C192.88347229 228.79730596 203.27479687 209.73022648 207.19921875 186.4765625 C212.47519371 148.09115284 202.58570181 109.85395673 190.88671875 73.6328125 C190.56525879 72.62105957 190.24379883 71.60930664 189.91259766 70.56689453 C189.0581494 67.91120168 188.17004027 65.27049406 187.26171875 62.6328125 C187.02138916 61.89216553 186.78105957 61.15151855 186.53344727 60.38842773 C184.61984403 55.09964046 181.67882005 51.63290408 176.88671875 48.6328125 C172.04895212 47.081719 167.53454186 47.00663972 162.76171875 48.8203125 C158.30825864 51.62792866 154.9063702 54.72628014 152.88671875 59.6328125 C151.52652581 68.15196059 153.92118181 73.84104919 158.38671875 80.9453125 C164.81222403 91.4045195 164.81222403 91.4045195 163.88671875 96.6328125 C162.26171875 98.5703125 162.26171875 98.5703125 159.88671875 99.6328125 C156.94873047 99.50488281 156.94873047 99.50488281 153.88671875 98.6328125 C152.04736328 96.52246094 152.04736328 96.52246094 150.51953125 93.7421875 C149.94783203 92.72809814 149.37613281 91.71400879 148.78710938 90.66918945 C148.20123047 89.58468506 147.61535156 88.50018066 147.01171875 87.3828125 C145.77545541 85.18319128 144.53848148 82.98396927 143.30078125 80.78515625 C142.71200195 79.72280762 142.12322266 78.66045898 141.51660156 77.56591797 C134.75116224 64.00715861 134.75116224 64.00715861 122.88671875 55.6328125 C116.32977132 54.85766949 112.23086977 55.75568333 106.88671875 59.6328125 C102.38883144 64.60416163 101.3844513 67.83654788 101.49926758 74.45556641 C101.91313585 77.84944274 102.74458687 79.75809978 104.45703125 82.69140625 C105.00141846 83.64184814 105.54580566 84.59229004 106.10668945 85.5715332 C106.69409912 86.58175537 107.28150879 87.59197754 107.88671875 88.6328125 C109.09455131 90.80018904 110.29889971 92.96951039 111.5 95.140625 C112.73242981 97.34671356 113.96550757 99.55244026 115.19921875 101.7578125 C115.83150391 102.8921875 116.46378906 104.0265625 117.11523438 105.1953125 C117.71658203 106.27039063 118.31792969 107.34546875 118.9375 108.453125 C119.75214722 109.91129639 119.75214722 109.91129639 120.58325195 111.39892578 C121.70070134 113.53158676 121.70070134 113.53158676 122.88671875 114.6328125 C122.63671875 118.0703125 122.63671875 118.0703125 121.88671875 121.6328125 C118.88671875 123.6328125 118.88671875 123.6328125 115.94189453 123.61401367 C111.84658706 122.29876349 111.09106644 120.64549778 109.00390625 116.93359375 C108.66962616 116.3528157 108.33534607 115.77203766 107.99093628 115.17366028 C106.93811618 113.33633251 105.91286464 111.48513833 104.88671875 109.6328125 C103.57720782 107.3552474 102.26731641 105.07790102 100.95703125 102.80078125 C99.97596123 101.06645522 98.99490401 99.33212096 98.01580811 97.59667969 C93.18935229 89.05803947 88.35184484 80.51731977 83.26171875 72.1328125 C82.8970752 71.51172607 82.53243164 70.89063965 82.15673828 70.25073242 C79.08285185 65.28277074 75.41036018 62.47402631 69.88671875 60.6328125 C63.8975182 60.04563598 59.79190759 61.32714176 54.88671875 64.6328125 C50.17551047 69.5856212 49.39919504 73.9156596 49.47558594 80.56494141 C50.22779035 86.17788713 53.10666908 90.54887733 56.01171875 95.3203125 C56.94395264 96.92205322 56.94395264 96.92205322 57.89501953 98.55615234 C60.52897893 103.06688222 63.22664015 107.53811359 65.92382812 112.01123047 C67.246797 114.20750023 68.56512336 116.40657428 69.87841797 118.60864258 C71.10893217 120.66625247 72.35477183 122.71479515 73.61767578 124.75268555 C76.74606358 129.95602444 78.8283011 133.5125272 77.88671875 139.6328125 C76.76171875 141.6328125 76.76171875 141.6328125 74.88671875 142.6328125 C72.07421875 142.8828125 72.07421875 142.8828125 68.88671875 141.6328125 C63.88893504 135.63099375 60.28053291 128.25004836 56.45480347 121.47576904 C55.0616442 119.00908525 53.66092744 116.54671965 52.26069641 114.08404541 C51.53596241 112.80930618 50.81158839 111.53436223 50.08757019 110.25921631 C46.52810424 103.99238911 42.93014379 97.74801183 39.32421875 91.5078125 C38.71006104 90.4444165 38.09590332 89.38102051 37.46313477 88.28540039 C36.22414093 86.14035676 34.98496509 83.99541824 33.74560547 81.85058594 C31.24937095 77.52954956 28.7557021 73.20703581 26.26245117 68.88427734 C25.01704596 66.7254453 23.77111921 64.56691404 22.5246582 62.40869141 C19.31429003 56.84887349 16.11285646 51.2841386 12.92578125 45.7109375 C5.02032349 31.84848434 5.02032349 31.84848434 -3.23828125 18.1953125 C-3.88023437 17.16535156 -4.5221875 16.13539063 -5.18359375 15.07421875 C-8.39159737 11.01550972 -11.83248026 9.29597643 -16.92578125 8.6953125 C-23.53734332 8.21250096 -27.92491633 10.38685903 -32.48828125 15.0703125 Z " fill="#1865C1" transform="translate(290.11328125,218.3671875)"/>
<path d="M0 0 C0.98272888 -0.00708481 1.96545776 -0.01416962 2.97796631 -0.02146912 C4.58566643 -0.01775299 4.58566643 -0.01775299 6.22584534 -0.01396179 C7.35956573 -0.01907272 8.49328613 -0.02418365 9.66136169 -0.02944946 C13.41411091 -0.04336515 17.16667688 -0.04238721 20.91944885 -0.04008484 C23.52492339 -0.04397058 26.13039729 -0.048305 28.73587036 -0.05307007 C34.19917937 -0.0612816 39.66243665 -0.06037593 45.12574768 -0.05497742 C51.43671228 -0.04893711 57.74745397 -0.06125084 64.05838054 -0.08254749 C70.13458807 -0.10229653 76.21069146 -0.1053362 82.28692818 -0.10181236 C84.87013841 -0.10232632 87.45335215 -0.10757804 90.03654289 -0.11762428 C93.64669413 -0.12994122 97.25632758 -0.12322503 100.86647034 -0.11161804 C102.47113411 -0.12308365 102.47113411 -0.12308365 104.10821533 -0.13478088 C113.24395149 -0.06976034 113.24395149 -0.06976034 117.1108551 3.26069641 C118.55199561 6.14297743 118.40375316 8.04257285 118.1108551 11.26069641 C116.91789108 13.93766158 115.71452842 16.31707379 114.2358551 18.82319641 C113.83092834 19.52283508 113.42600159 20.22247375 113.00880432 20.9433136 C103.48745888 37.02039938 90.35815024 50.24401183 77.1108551 63.26069641 C78.49417475 66.40256817 80.07601365 68.42519627 82.56788635 70.77241516 C83.26204651 71.43894104 83.95620667 72.10546692 84.67140198 72.79219055 C85.41454651 73.50367249 86.15769104 74.21515442 86.9233551 74.94819641 C109.58295871 97.18400988 128.0197132 126.61736772 129.1108551 159.26069641 C129.14952698 160.29275208 129.14952698 160.29275208 129.1889801 161.34565735 C129.26925323 163.75485446 129.31959417 166.16303019 129.3608551 168.57319641 C129.3824469 169.35106506 129.4040387 170.12893372 129.42628479 170.93037415 C129.45221393 175.53828225 129.09672107 178.51386946 126.1108551 182.26069641 C123.4738248 183.57921156 121.49868754 183.39564245 118.5443573 183.40786743 C117.36099289 183.41502274 116.17762848 183.42217804 114.95840454 183.42955017 C113.00093544 183.43358353 113.00093544 183.43358353 111.00392151 183.43769836 C109.62096994 183.44396218 108.23802005 183.45060891 106.85507202 183.45761108 C103.09265104 183.47502652 99.33024277 183.48557398 95.56779146 183.49381661 C93.21825597 183.49896487 90.86872444 183.50504063 88.51919174 183.51132774 C81.17116674 183.53038003 73.8231518 183.54461194 66.47510684 183.55293971 C57.9869533 183.56271797 49.49906013 183.58905245 41.01099837 183.62944061 C34.45383499 183.65957295 27.89674638 183.67440577 21.33951509 183.67772073 C17.42131594 183.68007423 13.50339495 183.68907329 9.58526993 183.7141819 C5.89981149 183.73741806 2.21481522 183.74171421 -1.4706974 183.73142052 C-3.46905082 183.73068707 -5.46738053 183.74980896 -7.46563721 183.76948547 C-8.65464127 183.76254166 -9.84364532 183.75559784 -11.06867981 183.7484436 C-12.10217749 183.75083196 -13.13567516 183.75322031 -14.20049095 183.75568104 C-17.60277486 183.12931622 -18.78397172 181.95428673 -20.8891449 179.26069641 C-21.40672302 176.61372375 -21.40672302 176.61372375 -21.4203949 173.59663391 C-21.42861267 172.48328674 -21.43683044 171.36993958 -21.44529724 170.22285461 C-21.42676697 169.03909241 -21.40823669 167.8553302 -21.3891449 166.63569641 C-21.37705994 165.42035217 -21.36497498 164.20500793 -21.3525238 162.95283508 C-21.13422195 152.95924097 -19.90768948 143.78036822 -16.8891449 134.26069641 C-16.67483826 133.58007141 -16.46053162 132.89944641 -16.23973083 132.19819641 C-7.53446206 105.43614744 10.17115237 84.56402565 30.1108551 65.26069641 C28.48008825 61.00429236 25.26541763 58.27792582 22.0483551 55.19819641 C16.27709947 49.54553368 11.03406522 43.67778136 6.1108551 37.26069641 C5.43538635 36.39057922 4.7599176 35.52046204 4.0639801 34.62397766 C-9.98281307 15.9765875 -9.98281307 15.9765875 -10.8891449 7.26069641 C-10.14279616 4.34315133 -9.69077631 2.76981621 -7.1126852 1.13245869 C-4.58344585 0.1408439 -2.7129363 0.00653201 0 0 Z M9.1108551 15.26069641 C14.98127826 25.53393693 21.70580763 34.03585945 30.16944885 42.22554016 C30.70943512 42.7509288 31.24942139 43.27631744 31.80577087 43.81762695 C34.55487447 46.48644753 37.32509872 49.12656661 40.13331604 51.73310852 C41.17206614 52.72859109 42.21017888 53.72473924 43.24757385 54.72163391 C44.65075867 56.03333557 44.65075867 56.03333557 46.08229065 57.37153625 C48.37063545 60.63068565 48.88381339 62.38659202 48.61987305 66.29206848 C47.69690145 69.86166299 45.23034901 72.03733035 42.59132385 74.42085266 C42.01811905 74.97325119 41.44491425 75.52564972 40.8543396 76.0947876 C39.02040543 77.85780222 37.16221794 79.59189643 35.2983551 81.32319641 C15.91882545 99.50822203 0.80889447 120.18059584 -5.3266449 146.44819641 C-5.49051697 147.12302063 -5.65438904 147.79784485 -5.82322693 148.49311829 C-7.33915735 155.64085727 -6.8891449 161.56659632 -6.8891449 169.26069641 C33.0408551 169.26069641 72.9708551 169.26069641 114.1108551 169.26069641 C114.46351928 155.67129668 114.46351928 155.67129668 112.1733551 142.88569641 C111.84500671 141.72034363 111.84500671 141.72034363 111.51002502 140.53144836 C105.64051737 120.91322491 94.96023976 105.10870842 81.1108551 90.26069641 C80.06506273 89.03503803 79.02327106 87.80595278 77.9858551 86.57319641 C75.57868709 83.76387622 73.01722638 81.18910512 70.34132385 78.63960266 C69.65892639 77.98242249 68.97652893 77.32524231 68.27345276 76.64814758 C66.89132389 75.32370114 65.49666525 74.0121875 64.08888245 72.71504211 C59.27880501 68.08931673 59.27880501 68.08931673 58.4624176 64.06147766 C59.22169487 60.78194875 60.09029843 59.48779681 62.4233551 57.07319641 C63.23675354 56.21725891 64.05015198 55.36132141 64.88819885 54.47944641 C67.41593809 51.9309676 69.9844496 49.42496645 72.55226135 46.91694641 C81.99619139 37.66253935 91.11587294 28.5627013 98.1108551 17.26069641 C98.1108551 16.60069641 98.1108551 15.94069641 98.1108551 15.26069641 C68.7408551 15.26069641 39.3708551 15.26069641 9.1108551 15.26069641 Z " fill="#1865C1" transform="translate(74.88914489746094,138.7393035888672)"/>
<path d="M0 0 C1.2927257 -0.00935994 1.2927257 -0.00935994 2.61156708 -0.01890898 C5.49279484 -0.03483467 8.3731761 -0.02223634 11.25440979 -0.00964355 C13.32273349 -0.01506489 15.39105332 -0.02218762 17.45936584 -0.03088379 C23.07303419 -0.04911965 28.68640848 -0.04204809 34.30008197 -0.02936745 C40.17582157 -0.01923987 46.05153602 -0.02863259 51.92727661 -0.03491211 C61.79564432 -0.04218977 71.66389229 -0.03259822 81.53224182 -0.0135498 C92.93851302 0.00821305 104.34449815 0.00117218 115.7507624 -0.02085543 C125.54541643 -0.03901315 135.33998439 -0.04156571 145.13464981 -0.03110075 C150.98386165 -0.02486713 156.83293908 -0.02402656 162.68214226 -0.0372467 C168.18239846 -0.04880968 173.68228629 -0.04077092 179.18250275 -0.01766968 C181.20009563 -0.01238477 183.21771957 -0.01389261 185.23530006 -0.02272034 C187.99175655 -0.03366806 190.74703625 -0.01992144 193.50341797 0 C194.69817919 -0.01338433 194.69817919 -0.01338433 195.917077 -0.02703905 C201.47275923 0.05072349 204.72566022 1.34721919 209.31520081 4.50793457 C211.72743146 7.88906674 211.79151598 11.20001968 211.69801331 15.25402832 C211.02709235 19.20424658 209.26054486 20.82439888 206.31520081 23.50793457 C201.93964636 25.8414771 197.66232095 25.79166442 192.81985474 25.76863098 C191.96635356 25.77245653 191.11285239 25.77628208 190.23348755 25.78022355 C187.37467625 25.79053909 184.51606634 25.78656414 181.65724182 25.78259277 C179.60715041 25.78694003 177.55706063 25.79212322 175.50697327 25.79808044 C169.93884396 25.81147982 164.37078249 25.81204809 158.8026402 25.80951715 C154.15538547 25.80844813 149.5081445 25.813329 144.86089271 25.81812257 C133.89830462 25.82922088 122.93575079 25.82965325 111.97315979 25.8236084 C100.66066487 25.81756658 89.34829426 25.82988422 78.03582054 25.85117847 C68.32529486 25.86878571 58.61480879 25.87479723 48.90426773 25.87154073 C43.10371168 25.86972642 37.30324432 25.87237886 31.50270271 25.88625526 C26.04849668 25.89881476 20.59448468 25.89690722 15.14028168 25.88384438 C13.13838829 25.881475 11.13648133 25.88422616 9.1346035 25.8924675 C6.40201976 25.90290599 3.6700906 25.89485757 0.93753052 25.88215637 C-0.2509503 25.8932178 -0.2509503 25.8932178 -1.46344084 25.90450269 C-6.26048917 25.85758928 -9.52126658 25.13809959 -13.68479919 22.50793457 C-16.51137151 19.23506136 -17.59359545 17.25059367 -18.12229919 12.94543457 C-17.47979003 7.89714831 -16.02597851 5.60863287 -12.11041164 2.39514923 C-7.82273115 0.03301002 -4.80227359 -0.05364729 0 0 Z " fill="#80D8F0" transform="translate(31.684799194335938,34.4920654296875)"/>
<path d="M0 0 C0.86166828 -0.00538554 1.72333655 -0.01077108 2.61111599 -0.01631981 C5.49764903 -0.03062425 8.38372508 -0.02348952 11.27027893 -0.01637268 C13.34007639 -0.02207494 15.4098707 -0.02903864 17.47966003 -0.03717041 C23.10153359 -0.05513272 28.72325133 -0.05392765 34.34514499 -0.04822803 C39.03714153 -0.04514065 43.72910794 -0.05122359 48.4211002 -0.05726677 C59.48917869 -0.07132046 70.55718 -0.06974364 81.6252594 -0.05836487 C93.04685753 -0.04688219 104.4682209 -0.06096003 115.88978809 -0.08776134 C125.69374002 -0.10990621 135.49761819 -0.11655847 145.30159336 -0.11068493 C151.15806356 -0.10731134 157.01438325 -0.10975726 162.87083244 -0.12693596 C168.37762315 -0.14238361 173.8840656 -0.13847357 179.39084244 -0.11963081 C181.41208517 -0.11593893 183.43335357 -0.11907078 185.45457268 -0.1295166 C188.21360791 -0.14268708 190.97148358 -0.13121401 193.73046875 -0.11352539 C194.53057119 -0.1231304 195.33067364 -0.1327354 196.15502161 -0.14263147 C202.2819679 -0.0617941 205.71971563 1.94957054 210.3037262 6.07518005 C212.117141 9.80275494 212.1868372 13.33740182 211.4287262 17.38768005 C209.39342079 21.20791599 206.49681368 23.90886497 202.4287262 25.38768005 C199.57894565 25.58211625 196.82728639 25.66606588 193.97770691 25.65510559 C193.11689306 25.6596367 192.2560792 25.66416782 191.36918008 25.66883624 C188.47963204 25.6815144 185.59027166 25.67985767 182.70069885 25.6782074 C180.63105018 25.6841905 178.56140374 25.69099554 176.49176025 25.69856262 C170.86572872 25.71625165 165.239758 25.72091922 159.61370134 25.72219419 C154.91927457 25.72409196 150.224862 25.73144805 145.53044069 25.73853838 C134.45616397 25.75483084 123.38191977 25.75970654 112.30763245 25.75828552 C100.87868043 25.75708373 89.44991715 25.77819124 78.0210129 25.80977285 C68.21284267 25.83591143 58.40473417 25.84665384 48.59652936 25.8453747 C42.73668053 25.84486438 36.8769994 25.85058671 31.01718521 25.8717308 C25.50631895 25.89107247 19.99578107 25.89126543 14.48490334 25.87669754 C12.46204335 25.87460332 10.43916302 25.8793467 8.41633797 25.89141846 C5.65507526 25.90683002 2.89495056 25.8975899 0.13371277 25.88215637 C-0.66707179 25.8924435 -1.46785636 25.90273062 -2.29290712 25.91332948 C-7.50002843 25.84899836 -10.42089826 24.79689678 -14.5712738 21.38768005 C-16.94429547 18.46095333 -17.53094006 16.70458801 -18.0087738 12.95018005 C-17.38728415 7.88947859 -15.47353169 4.87393105 -11.46244717 1.74003506 C-7.63266932 -0.051355 -4.14255948 -0.03103071 0 0 Z " fill="#80D8F0" transform="translate(31.571273803710938,345.61231994628906)"/>
<path d="M0 0 C1.875 1.0625 1.875 1.0625 3 3 C3.70779977 8.57392317 3.70779977 8.57392317 3 11 C-0.42987697 14.0204783 -4.07804051 16.33341836 -8.03515625 18.6015625 C-9.17404297 19.25640625 -10.31292969 19.91125 -11.48632812 20.5859375 C-12.07357666 20.92077148 -12.6608252 21.25560547 -13.26586914 21.60058594 C-15.06314505 22.6253678 -16.85704147 23.65586456 -18.65039062 24.6875 C-24.88556059 28.26256629 -24.88556059 28.26256629 -28 30 C-29.07785767 30.60400635 -29.07785767 30.60400635 -30.17749023 31.22021484 C-33.02724272 32.43951952 -35.07689326 31.80851888 -38 31 C-39.875 29.9375 -39.875 29.9375 -41 28 C-41.70779977 22.42607683 -41.70779977 22.42607683 -41 20 C-37.57012303 16.9795217 -33.92195949 14.66658164 -29.96484375 12.3984375 C-28.25651367 11.41617188 -28.25651367 11.41617188 -26.51367188 10.4140625 C-25.92642334 10.07922852 -25.3391748 9.74439453 -24.73413086 9.39941406 C-22.93685495 8.3746322 -21.14295853 7.34413544 -19.34960938 6.3125 C-13.11443941 2.73743371 -13.11443941 2.73743371 -10 1 C-9.28142822 0.5973291 -8.56285645 0.1946582 -7.82250977 -0.22021484 C-4.97275728 -1.43951952 -2.92310674 -0.80851888 0 0 Z " fill="#1764C1" transform="translate(330,150)"/>
<path d="M0 0 C1.9375 1.125 1.9375 1.125 3 3 C3.5625 6.375 3.5625 6.375 3 10 C-2.44301325 15.52971611 -9.55332161 18.95630624 -16.25 22.75 C-17.45863441 23.44087981 -18.66697043 24.1322819 -19.875 24.82421875 C-31.48588041 31.4571312 -31.48588041 31.4571312 -38 31 C-40.71983633 29.3680982 -40.96240047 28.13593678 -41.8125 25.0625 C-42.01774771 21.71012066 -41.81536006 20.74349907 -40 18 C-37.71264648 16.34008789 -37.71264648 16.34008789 -34.87109375 14.72265625 C-33.31745117 13.82836914 -33.31745117 13.82836914 -31.73242188 12.91601562 C-30.64509766 12.30435547 -29.55777344 11.69269531 -28.4375 11.0625 C-27.37724609 10.45470703 -26.31699219 9.84691406 -25.22460938 9.22070312 C-23.13593151 8.02625255 -21.04289682 6.83938428 -18.9453125 5.66064453 C-17.07183387 4.60432808 -15.20620223 3.53387797 -13.3515625 2.44482422 C-12.56394531 1.98736816 -11.77632813 1.52991211 -10.96484375 1.05859375 C-9.94765259 0.45809204 -9.94765259 0.45809204 -8.90991211 -0.15454102 C-5.68062265 -1.58404752 -3.26791548 -1.04573295 0 0 Z " fill="#1764C1" transform="translate(459,76)"/>
<path d="M0 0 C1.875 1.125 1.875 1.125 3 3 C3.44143709 8.42219567 2.57863855 11.63161103 -0.0703125 16.34375 C-0.38902313 16.91653687 -0.70773376 17.48932373 -1.03610229 18.07946777 C-1.71004449 19.28335637 -2.3911776 20.48324502 -3.07910156 21.67919922 C-4.11721383 23.48644508 -5.1304344 25.30593558 -6.140625 27.12890625 C-9.57874125 33.26187304 -13.01067781 39.00345737 -18 44 C-21.0625 44.75 -21.0625 44.75 -24 44 C-26.9375 41.9375 -26.9375 41.9375 -29 39 C-28.74572595 33.64182512 -27.19681624 29.94141568 -24.54296875 25.33203125 C-24.19873367 24.72993332 -23.8544986 24.12783539 -23.49983215 23.50749207 C-22.77472673 22.24480478 -22.04414317 20.98524888 -21.30834961 19.72875977 C-20.18859639 17.81437445 -19.0882736 15.8897961 -17.99023438 13.96289062 C-8.7067288 -2.13226011 -8.7067288 -2.13226011 0 0 Z " fill="#1764C1" transform="translate(351,171)"/>
<path d="M0 0 C2.89963937 1.47178168 5.66900725 3.10868881 8.4375 4.8125 C9.17105713 5.25537354 9.90461426 5.69824707 10.66040039 6.15454102 C12.11277667 7.03179486 13.56328867 7.91214425 15.01171875 8.79589844 C18.37955766 10.83545904 21.80111558 12.78451753 25.21484375 14.74609375 C27 16 27 16 29 19 C29.35245721 22.31309774 29.34400223 24.33010093 27.8125 27.3125 C25.44115245 29.52030634 24.24868753 29.92616619 21 30 C14.45094621 27.63406436 8.53554024 24.01317308 2.52832031 20.52978516 C0.74387857 19.49645522 -1.04574037 18.47253811 -2.8359375 17.44921875 C-3.96773438 16.79566406 -5.09953125 16.14210937 -6.265625 15.46875 C-7.29461914 14.87513672 -8.32361328 14.28152344 -9.38378906 13.66992188 C-12.59104072 11.62273997 -14.55212123 10.21567093 -15.875 6.625 C-16.04025496 3.15464588 -15.12346347 1.7092465 -13 -1 C-8.25989155 -4.10563145 -4.83740532 -2.0999972 0 0 Z " fill="#1764C1" transform="translate(433,152)"/>
<path d="M0 0 C3.15625 1.3894043 3.15625 1.3894043 6.5 3.32421875 C7.3981543 3.83913628 7.3981543 3.83913628 8.31445312 4.36445618 C9.57514587 5.09063418 10.83226934 5.82304029 12.0859375 6.5612793 C13.98677227 7.6797169 15.89822575 8.77780431 17.8125 9.87304688 C23.57900319 13.21014189 29.12730461 16.42235933 34 21 C34.70501923 25.01860959 34.64774651 26.98951544 32.4375 30.4375 C29.15928593 32.53891928 26.7308297 32.79116417 23 32 C18.8314198 30.08090148 14.96897922 27.71298232 11.0625 25.3125 C10.01642578 24.68666016 8.97035156 24.06082031 7.89257812 23.41601562 C4.91640353 21.62956262 1.95706082 19.81786102 -1 18 C-1.82516113 17.50419434 -2.65032227 17.00838867 -3.50048828 16.49755859 C-8.88507839 13.22984323 -8.88507839 13.22984323 -10 11 C-10.35872645 7.12575435 -10.56710729 4.85066094 -8.375 1.5625 C-5.27300112 -0.47828873 -3.68140315 -0.34513155 0 0 Z " fill="#1765C1" transform="translate(299,75)"/>
<path d="M0 0 C4.66281259 3.82667011 7.16777502 8.45151461 9.9375 13.6875 C10.80683861 15.30302903 11.67792234 16.91762025 12.55078125 18.53125 C12.9679541 19.30339844 13.38512695 20.07554688 13.81494141 20.87109375 C15.30683347 23.551213 16.95428573 26.1159493 18.625 28.6875 C20.98683999 32.58587794 21.92488488 35.37557561 21 40 C18.857123 43.34288812 17.50372809 43.88806043 13.625 44.75 C8.28344718 43.64485114 6.92729657 40.40015019 4 36 C1.25487036 31.72244293 -1.35816387 27.37916163 -3.9375 23 C-4.2869165 22.42991211 -4.63633301 21.85982422 -4.99633789 21.27246094 C-11.58988395 10.51110857 -11.58988395 10.51110857 -11.12890625 5.3125 C-9.14428277 -0.51089345 -5.63565359 -0.68016509 0 0 Z " fill="#1764C1" transform="translate(333,42)"/>
<path d="M0 0 C7.87323828 3.21356664 12.2918286 14.37650433 16.375 21.375 C17.00728516 22.43332031 17.63957031 23.49164063 18.29101562 24.58203125 C18.89236328 25.60941406 19.49371094 26.63679688 20.11328125 27.6953125 C20.92792847 29.08000732 20.92792847 29.08000732 21.7590332 30.49267578 C23.17368219 33.4851923 23.79042701 35.95612578 24.0625 39.25 C21.93206522 43.81521739 21.93206522 43.81521739 19.0625 45.25 C16.25 45.625 16.25 45.625 13.0625 45.25 C8.41159796 41.39704684 5.89857957 36.80631586 3.125 31.5625 C2.25572768 29.94563401 1.38464457 28.32974019 0.51171875 26.71484375 C0.0945459 25.94253418 -0.32262695 25.17022461 -0.75244141 24.37451172 C-2.23795486 21.71136008 -3.88891629 19.17314051 -5.5625 16.625 C-8.23655687 12.20633053 -8.90816815 9.3680684 -7.9375 4.25 C-5.3889433 1.17674045 -3.97317572 0.33814261 0 0 Z " fill="#1765C1" transform="translate(404.9375,169.75)"/>
<path d="M0 0 C3.39130136 0.0487957 4.00090232 0.22026046 6.75 2.5 C8.55428949 6.10857897 8.13015021 7.50154298 7.1875 11.375 C5.8840332 14.22412109 5.8840332 14.22412109 4.23828125 17.1484375 C3.63693359 18.2209375 3.03558594 19.2934375 2.41601562 20.3984375 C1.78373047 21.50445312 1.15144531 22.61046875 0.5 23.75 C-0.11294922 24.84828125 -0.72589844 25.9465625 -1.35742188 27.078125 C-10.80665993 43.79215371 -10.80665993 43.79215371 -14.84326172 44.96508789 C-17.76857691 45.09721385 -20.18848769 44.68700616 -22.8125 43.375 C-24.47467186 40.05065628 -24.42487453 36.95342857 -23.8125 33.375 C-22.11354147 29.35599793 -19.92804701 25.67580398 -17.6875 21.9375 C-16.83285156 20.45926758 -16.83285156 20.45926758 -15.9609375 18.95117188 C-5.20795941 0.5122583 -5.20795941 0.5122583 0 0 Z " fill="#1764C1" transform="translate(420.8125,41.625)"/>
<path d="M0 0 C1.94771259 -0.01657213 3.89536405 -0.04387872 5.84277344 -0.08203125 C8.64973518 -0.13674322 11.45527251 -0.15866334 14.26269531 -0.17333984 C15.13260101 -0.19600922 16.00250671 -0.21867859 16.89877319 -0.24203491 C22.91272546 -0.22098083 22.91272546 -0.22098083 26.13232422 2.65625 C28.0790849 6.3508763 27.72412198 8.3933686 26.55175781 12.35009766 C24.77180596 14.35080526 23.33734677 15.2348776 20.67285156 15.62567139 C18.29375478 15.74836351 15.93397836 15.76572121 13.55175781 15.74853516 C12.24271484 15.75284042 12.24271484 15.75284042 10.90722656 15.75723267 C9.06477203 15.75927133 7.22229576 15.7537553 5.37988281 15.74121094 C2.5616816 15.7251542 -0.25508551 15.74106604 -3.07324219 15.76025391 C-4.86491202 15.75827144 -6.65658095 15.75442769 -8.44824219 15.74853516 C-9.71087891 15.7576442 -9.71087891 15.7576442 -10.99902344 15.76693726 C-14.5024662 15.72487337 -16.82932938 15.68260639 -19.95214844 14.00488281 C-22.19228059 11.52713873 -22.38221987 9.65121358 -22.44824219 6.35009766 C-18.33568088 -2.46253372 -8.46886985 0.05287685 0 0 Z " fill="#1764C1" transform="translate(298.4482421875,120.64990234375)"/>
<path d="M0 0 C3.83592289 1.20760535 4.54141237 1.57929674 6.375 5.0625 C6.81519438 8.06342647 6.79528716 11.03384062 6.7734375 14.0625 C6.77774277 15.37154297 6.77774277 15.37154297 6.78213501 16.70703125 C6.78417367 18.54948578 6.77865764 20.39196205 6.76611328 22.234375 C6.75005654 25.05257621 6.76596838 27.86934333 6.78515625 30.6875 C6.78317378 32.47916983 6.77933003 34.27083876 6.7734375 36.0625 C6.78254654 37.32513672 6.78254654 37.32513672 6.7918396 38.61328125 C6.74977571 42.11672401 6.70750873 44.44358719 5.02978516 47.56640625 C2.55204108 49.8065384 0.67611592 49.99647768 -2.625 50.0625 C-7.19021739 47.93206522 -7.19021739 47.93206522 -8.625 45.0625 C-8.91044013 39.40970147 -8.93878534 33.75575965 -8.97509766 28.09643555 C-8.99165332 26.20405781 -9.01893835 24.3117425 -9.05712891 22.41967773 C-9.11194472 19.68961186 -9.13377818 16.9610111 -9.1484375 14.23046875 C-9.17110687 13.38759811 -9.19377625 12.54472748 -9.21713257 11.67631531 C-9.20154431 7.33355219 -9.00996967 5.57482836 -6.31884766 1.9934082 C-3.625 0.0625 -3.625 0.0625 0 0 Z " fill="#1765C1" transform="translate(376.625,28.9375)"/>
<path d="M0 0 C2.84762967 2.55318929 3.01016152 4.10837181 3.37231445 7.97070312 C3.38532604 9.57416879 3.38129242 11.1778327 3.36328125 12.78125 C3.36377975 13.63174927 3.36427826 14.48224854 3.36479187 15.35852051 C3.36245487 17.15391378 3.35274837 18.94931055 3.33618164 20.74462891 C3.31258416 23.49020739 3.3156241 26.23481456 3.32226562 28.98046875 C3.31668866 30.72656828 3.30957867 32.47266373 3.30078125 34.21875 C3.30214836 35.44857605 3.30214836 35.44857605 3.30354309 36.70324707 C3.21328659 43.97144629 3.21328659 43.97144629 1 47 C-2.09173752 48.54586876 -4.59429552 48.29359521 -8 48 C-10.19116211 46.55664062 -10.19116211 46.55664062 -12 44 C-12.60404808 40.92885694 -12.58433824 37.90363656 -12.56640625 34.78125 C-12.57260483 33.88635864 -12.57880341 32.99146729 -12.58518982 32.06945801 C-12.59228467 30.1799427 -12.58911979 28.29036483 -12.57641602 26.40087891 C-12.56254592 23.5095731 -12.5966286 20.62150139 -12.63476562 17.73046875 C-12.63571681 15.89322837 -12.63385806 14.05598395 -12.62890625 12.21875 C-12.64216446 11.35511841 -12.65542267 10.49148682 -12.66908264 9.60168457 C-12.57660323 3.64227987 -12.57660323 3.64227987 -9.68725586 0.42382812 C-5.99711948 -1.53137087 -3.95586454 -1.17210801 0 0 Z " fill="#1864C1" transform="translate(380,179)"/>
<path d="M0 0 C0.80771347 -0.01268417 1.61542694 -0.02536835 2.44761658 -0.03843689 C3.75080589 -0.03403343 3.75080589 -0.03403343 5.08032227 -0.02954102 C5.97662857 -0.03478287 6.87293488 -0.04002472 7.79640198 -0.04542542 C9.69189417 -0.05184837 11.5874262 -0.05050508 13.48291016 -0.04199219 C16.38264028 -0.03348858 19.28039655 -0.06222853 22.17993164 -0.09399414 C24.02172793 -0.0956064 25.8635277 -0.09502814 27.70532227 -0.09204102 C29.00547523 -0.10889198 29.00547523 -0.10889198 30.33189392 -0.12608337 C36.30891674 -0.05693485 36.30891674 -0.05693485 39.51025391 2.21240234 C41.61648619 5.39818957 41.43374252 7.67572839 40.95922852 11.40405273 C39.41660039 13.50763654 38.27814534 14.24459432 35.95922852 15.40405273 C30.44888337 15.68915147 24.9374337 15.71782512 19.42041016 15.75415039 C17.57653172 15.77070488 15.73271732 15.79798842 13.88916016 15.83618164 C11.22858446 15.89100938 8.56951215 15.91283252 5.90844727 15.92749023 C4.67695198 15.96149429 4.67695198 15.96149429 3.420578 15.9961853 C-0.87001668 15.98038591 -2.56063306 15.76598614 -6.10009766 13.09790039 C-8.04077148 10.40405273 -8.04077148 10.40405273 -8.04077148 6.77905273 C-6.6305738 2.01963555 -5.05582487 0.03849385 0 0 Z " fill="#1864C1" transform="translate(433.040771484375,120.595947265625)"/>
</svg>
