<svg xmlns="http://www.w3.org/2000/svg" width="93" height="23" fill="none"><g clip-path="url(#a)"><path fill="#fff" d="M24.283 8.087h9.357v1.755h-3.68v9.866h-2.022V9.842h-3.663V8.087h.008Zm8.957 3.207h1.73v1.624h.032c.057-.23.163-.451.318-.665a2.95 2.95 0 0 1 .563-.59c.22-.18.465-.32.734-.435.27-.107.547-.164.824-.164.212 0 .367.008.449.017.081.008.163.024.253.032v1.788a5.856 5.856 0 0 0-.4-.057 3.371 3.371 0 0 0-.4-.025c-.31 0-.604.066-.88.189a2.032 2.032 0 0 0-.719.55 2.795 2.795 0 0 0-.49.902c-.121.36-.179.77-.179 1.238V19.7h-1.843v-8.406h.008Zm13.378 8.414h-1.81v-1.172h-.033a2.522 2.522 0 0 1-1.012 1.017c-.449.254-.905.385-1.37.385-1.102 0-1.901-.27-2.39-.82-.49-.55-.735-1.378-.735-2.485v-5.34h1.844v5.16c0 .738.139 1.262.424 1.566.277.303.677.46 1.183.46.392 0 .71-.058.97-.181.262-.123.474-.28.629-.484.163-.197.277-.443.35-.722.074-.279.107-.582.107-.91v-4.88h1.843v8.406Zm3.14-2.698c.058.541.262.919.612 1.14.36.213.784.328 1.281.328.172 0 .367-.016.588-.04.22-.025.432-.083.62-.157.195-.073.35-.188.48-.336.123-.148.18-.336.172-.574a.794.794 0 0 0-.26-.582 1.835 1.835 0 0 0-.62-.37 6.197 6.197 0 0 0-.865-.237c-.327-.066-.653-.14-.988-.213a9.328 9.328 0 0 1-.995-.28 3.034 3.034 0 0 1-.856-.442 1.945 1.945 0 0 1-.604-.706c-.155-.287-.228-.64-.228-1.066 0-.459.114-.836.334-1.148a2.54 2.54 0 0 1 .84-.746 3.88 3.88 0 0 1 1.134-.402 6.868 6.868 0 0 1 1.191-.115c.432 0 .849.05 1.24.14.392.09.75.237 1.069.45.318.206.579.476.791.804.212.328.343.73.4 1.198h-1.925c-.09-.443-.286-.747-.604-.894a2.46 2.46 0 0 0-1.093-.23c-.13 0-.286.008-.465.033-.18.024-.343.066-.506.123a1.098 1.098 0 0 0-.4.262.636.636 0 0 0-.163.452c0 .23.082.41.237.549.155.14.359.254.612.353.252.09.538.172.864.237.326.066.661.14 1.004.214.334.073.66.172.987.279.326.106.611.254.864.442.253.19.457.419.612.698.155.278.237.631.237 1.041 0 .5-.114.919-.343 1.271a2.719 2.719 0 0 1-.88.845 4.13 4.13 0 0 1-1.208.476c-.44.098-.881.148-1.313.148a5.54 5.54 0 0 1-1.469-.181 3.565 3.565 0 0 1-1.166-.541 2.68 2.68 0 0 1-.775-.91c-.188-.361-.286-.796-.302-1.297h1.86v-.016Zm6.086-5.716h1.395V8.768h1.844v2.526h1.664v1.386h-1.664v4.494c0 .197.008.361.024.509.016.14.057.262.114.36a.524.524 0 0 0 .27.222c.122.05.277.074.489.074.13 0 .261 0 .392-.008.13-.009.26-.025.391-.058v1.435c-.204.025-.408.041-.595.066a4.745 4.745 0 0 1-.596.033c-.49 0-.88-.05-1.175-.14-.293-.09-.53-.23-.693-.41a1.426 1.426 0 0 1-.343-.672 5.077 5.077 0 0 1-.106-.927v-4.962H55.86v-1.402h-.016Zm6.208 0h1.746v1.14h.032c.261-.492.62-.837 1.085-1.05a3.56 3.56 0 0 1 1.51-.32c.66 0 1.231.115 1.72.353.49.23.898.55 1.224.96.326.41.563.885.726 1.426.163.542.245 1.124.245 1.74 0 .565-.074 1.114-.22 1.64-.147.532-.368 1-.661 1.41a3.25 3.25 0 0 1-1.126.976c-.457.246-.987.37-1.607.37-.27 0-.538-.026-.808-.075a3.54 3.54 0 0 1-.774-.238 2.792 2.792 0 0 1-.686-.418 2.593 2.593 0 0 1-.53-.59h-.032v4.199h-1.844V11.294Zm6.444 4.215a4.21 4.21 0 0 0-.147-1.107 2.99 2.99 0 0 0-.44-.951c-.196-.28-.44-.5-.726-.665a2.026 2.026 0 0 0-1.003-.254c-.775 0-1.363.27-1.754.812-.392.541-.588 1.263-.588 2.165 0 .427.05.82.155 1.181.106.361.253.673.465.935.204.263.449.468.734.615.286.156.62.23.996.23.424 0 .775-.09 1.068-.262.294-.173.53-.402.718-.673.188-.279.326-.59.408-.943.073-.353.114-.714.114-1.083Zm3.255-7.422h1.844v1.755H71.75V8.087Zm0 3.207h1.844v8.414H71.75v-8.414Zm3.491-3.207h1.844v11.621h-1.844V8.087Zm7.497 11.851c-.669 0-1.264-.115-1.786-.336a3.944 3.944 0 0 1-1.33-.919 4.002 4.002 0 0 1-.824-1.402 5.44 5.44 0 0 1-.285-1.788c0-.64.098-1.23.285-1.772a4.003 4.003 0 0 1 .824-1.402 3.757 3.757 0 0 1 1.33-.919c.522-.221 1.117-.336 1.786-.336s1.264.115 1.787.336c.522.222.962.533 1.33.919.358.394.636.861.823 1.402.188.542.286 1.132.286 1.772a5.44 5.44 0 0 1-.286 1.788 4.003 4.003 0 0 1-.824 1.402 3.756 3.756 0 0 1-1.33.919c-.522.221-1.117.336-1.786.336Zm0-1.468c.408 0 .767-.09 1.069-.262.301-.173.546-.402.742-.681.196-.279.335-.599.432-.951.09-.353.14-.714.14-1.083 0-.361-.05-.714-.14-1.075a2.811 2.811 0 0 0-.432-.95c-.196-.28-.44-.501-.742-.673a2.128 2.128 0 0 0-1.069-.263c-.408 0-.767.09-1.069.263a2.344 2.344 0 0 0-.742.672c-.196.279-.334.59-.432.951-.09.361-.139.714-.139 1.075 0 .369.05.73.139 1.083.09.352.236.672.432.95.196.28.44.51.743.681.301.181.66.263 1.068.263Zm4.764-7.176h1.395V8.768h1.844v2.526h1.664v1.386H90.74v4.494c0 .197.009.361.025.509.016.14.057.262.114.36a.524.524 0 0 0 .27.222c.122.05.277.074.489.074.13 0 .26 0 .391-.008.13-.009.261-.025.392-.058v1.435c-.204.025-.408.041-.596.066a4.743 4.743 0 0 1-.595.033c-.49 0-.881-.05-1.175-.14-.293-.09-.53-.23-.693-.41a1.426 1.426 0 0 1-.343-.672 5.086 5.086 0 0 1-.106-.927v-4.962H87.52v-1.402h-.016Z"/><path fill="#23AD7A" d="M22.131 8.087h-8.45L11.07 0 8.45 8.087l-8.45-.009 6.843 5.003-2.618 8.079 6.844-4.995 6.836 4.995-2.61-8.079 6.835-4.994Z"/><path fill="#00532C" d="m15.882 14.91-.588-1.829-4.225 3.084 4.813-1.255Z"/></g><defs><clipPath id="a"><path fill="#fff" d="M0 0h92.407v22.817H0z"/></clipPath></defs></svg>