<svg width="13" height="13" viewBox="0 0 13 13" fill="none" xmlns="http://www.w3.org/2000/svg">
<g clip-path="url(#clip0_1780_1257)">
<path fill-rule="evenodd" clip-rule="evenodd" d="M5.06438 11.4075C5.37491 11.6446 5.73062 11.9157 6.18795 11.9157H6.18231C6.63964 11.9157 6.99535 11.6446 7.30588 11.4075C7.32917 11.3904 7.35247 11.3731 7.37567 11.3559C7.52121 11.2478 7.66328 11.1424 7.78016 11.1083C7.92695 11.0631 8.1528 11.0687 8.36735 11.08C8.75693 11.097 9.19168 11.1139 9.55303 10.8598C9.92003 10.6058 10.0555 10.1823 10.1741 9.80967C10.2362 9.60642 10.304 9.39751 10.3943 9.27894C10.4793 9.16735 10.6444 9.05576 10.8094 8.94417C10.8197 8.9372 10.8301 8.93022 10.8403 8.92324C11.1678 8.70869 11.5405 8.46027 11.6873 8.03117C11.825 7.62358 11.6886 7.22138 11.5666 6.86123C11.5635 6.85219 11.5604 6.84318 11.5574 6.8342C11.4784 6.61965 11.4106 6.41639 11.4106 6.2583C11.4106 6.11013 11.4751 5.92228 11.5436 5.72264C11.5482 5.70928 11.5528 5.69586 11.5574 5.6824C11.6873 5.32106 11.8284 4.90325 11.6873 4.48544C11.5405 4.05634 11.1678 3.80791 10.8403 3.59336C10.8301 3.58639 10.8197 3.57941 10.8094 3.57244C10.6444 3.46085 10.4793 3.34925 10.3943 3.23766C10.304 3.11909 10.2362 2.91019 10.1741 2.70693C10.0555 2.33429 9.92003 1.91648 9.55303 1.65677C9.19168 1.40269 8.75129 1.41963 8.36735 1.43657C8.1528 1.44786 7.92695 1.45351 7.78016 1.40834C7.65029 1.36317 7.47527 1.23331 7.31153 1.1091C7.00099 0.871963 6.64529 0.600952 6.18795 0.600952C5.73062 0.600952 5.37491 0.871963 5.06438 1.1091C5.04954 1.12035 5.03467 1.13169 5.01977 1.14305C4.87023 1.25707 4.71898 1.3724 4.59575 1.40834C4.46208 1.44947 4.26287 1.44378 4.06632 1.43817C4.04702 1.43762 4.02774 1.43707 4.00855 1.43657C3.61897 1.41963 3.18422 1.40269 2.82287 1.65677C2.45587 1.91084 2.32036 2.33429 2.2018 2.70693C2.13969 2.91019 2.07194 3.11909 1.9816 3.23766C1.89657 3.34925 1.73153 3.46085 1.56648 3.57244C1.55617 3.57941 1.54585 3.58639 1.53555 3.59336C1.20808 3.80791 0.835436 4.05634 0.688638 4.48544C0.55094 4.89302 0.687269 5.29523 0.809339 5.65537C0.812403 5.66441 0.815457 5.67342 0.818498 5.6824C0.897544 5.89696 0.965297 6.10021 0.965297 6.2583C0.965297 6.40647 0.90082 6.59432 0.832297 6.79396C0.827709 6.80732 0.823104 6.82074 0.818498 6.8342C0.688638 7.19555 0.547485 7.61336 0.688638 8.03117C0.835436 8.46027 1.20808 8.70869 1.53555 8.92324C1.54585 8.93022 1.55617 8.9372 1.56649 8.94417C1.73153 9.05576 1.89657 9.16735 1.9816 9.27894C2.07194 9.39751 2.13969 9.60642 2.2018 9.80967C2.32036 10.1823 2.45587 10.6001 2.82287 10.8598C3.18422 11.1139 3.62462 11.097 4.00855 11.08C4.2231 11.0687 4.44895 11.0631 4.59575 11.1083C4.72561 11.1534 4.90064 11.2833 5.06438 11.4075ZM7.80319 4.1263C7.80319 3.23778 7.0774 2.512 6.18888 2.512C5.30036 2.512 4.57458 3.23778 4.57458 4.1263C4.57458 5.01481 5.30036 5.74059 6.18888 5.74059C7.0774 5.74059 7.80319 5.01481 7.80319 4.1263ZM6.18238 10.3914C7.41426 10.3914 8.51434 9.83002 9.24012 8.94151C9.3638 8.79831 9.40448 8.61279 9.3638 8.42891L9.23361 7.874C9.02043 6.94968 8.17911 6.4029 7.19457 6.4029H5.17018C4.20517 6.4029 3.34269 6.94317 3.13114 7.874L3.00095 8.42891C2.96678 8.60629 3.00095 8.79831 3.12463 8.94151C3.85041 9.82351 4.95049 10.3914 6.18238 10.3914Z" fill="#252424"/>
</g>
<defs>
<clipPath id="clip0_1780_1257">
<rect width="12" height="12" fill="white" transform="translate(0.246094 0.223633)"/>
</clipPath>
</defs>
</svg>
