<svg width="20" height="38" fill="none" xmlns="http://www.w3.org/2000/svg"><path fill="#E1E5EE" d="M9 0h2v38H9z"/><circle cx="10" cy="19" r="9.9" fill="#FAFBFF" stroke="#E1E5EE" stroke-width=".2"/><path d="M5.983 21.861L4 16.139h1.757l.76 2.7c.08.285.155.577.226.877l.237.889h.048l.213-.889c.08-.3.159-.592.238-.877l.772-2.7h1.674L8 21.861H5.983zM12.578 22c-.388 0-.788-.073-1.2-.22a3.729 3.729 0 01-1.056-.576l.784-1.062c.269.2.526.35.771.45.246.1.495.15.748.15.261 0 .451-.042.57-.127a.414.414 0 00.178-.357.328.328 0 00-.106-.243.86.86 0 00-.274-.207 2.14 2.14 0 00-.38-.162 17.955 17.955 0 01-.439-.173 5.675 5.675 0 01-.546-.242 2.437 2.437 0 01-.499-.335 1.792 1.792 0 01-.368-.473 1.367 1.367 0 01-.142-.634c0-.262.051-.504.154-.728a1.62 1.62 0 01.463-.565 2.19 2.19 0 01.712-.357 2.92 2.92 0 01.927-.139c.45 0 .847.077 1.187.23.34.147.637.312.89.497l-.783 1.015a3.112 3.112 0 00-.63-.357 1.613 1.613 0 00-.617-.127c-.443 0-.665.15-.665.45 0 .092.032.173.095.242.063.062.147.12.25.173.11.054.233.108.368.162.142.046.289.096.439.15.19.069.376.15.558.242.19.085.36.192.51.323A1.448 1.448 0 0115 20.154c.001.261-.05.504-.153.727-.103.223-.258.419-.463.588-.206.162-.46.293-.76.392-.301.093-.65.139-1.045.139z" fill="#828999"/></svg>