<?xml version="1.0" encoding="UTF-8"?>
<!DOCTYPE svg PUBLIC "-//W3C//DTD SVG 1.0//EN" "http://www.w3.org/TR/2001/REC-SVG-20010904/DTD/svg10.dtd">
<!-- Creator: CorelDRAW 2017 -->
<svg xmlns="http://www.w3.org/2000/svg" xml:space="preserve" width="45px" height="45px" version="1.0" style="shape-rendering:geometricPrecision; text-rendering:geometricPrecision; image-rendering:optimizeQuality; fill-rule:evenodd; clip-rule:evenodd"
viewBox="0 0 4.56 4.56"
 xmlns:xlink="http://www.w3.org/1999/xlink">
 <defs>
  <style type="text/css">
   <![CDATA[
    .fil2 {fill:#FEFEFE}
    .fil1 {fill:#004CD2}
    .fil0 {fill:#F4F4F4;fill-rule:nonzero}
    .fil3 {fill:#FFD712;fill-rule:nonzero}
   ]]>
  </style>
 </defs>
 <g id="Layer_x0020_1">
  <metadata id="CorelCorpID_0Corel-Layer"/>
  <g id="_1488882972400">
   <path class="fil0" d="M4.56 2.28c0,1.26 -1.02,2.28 -2.28,2.28 -1.26,0 -2.28,-1.02 -2.28,-2.28 0,-1.26 1.02,-2.28 2.28,-2.28 1.26,0 2.28,1.02 2.28,2.28z"/>
   <path class="fil1" d="M2.28 1.18c-0.61,0 -1.1,0.49 -1.1,1.1 0,0.61 0.49,1.11 1.1,1.11 0.61,0 1.11,-0.5 1.11,-1.11 0,-0.61 -0.5,-1.1 -1.11,-1.1zm-0.27 0.11c-0.11,0.1 -0.19,0.23 -0.24,0.37 -0.09,-0.02 -0.17,-0.05 -0.25,-0.08 0.14,-0.14 0.3,-0.24 0.49,-0.29zm-0.54 0.35c0.09,0.04 0.18,0.07 0.27,0.1 -0.05,0.16 -0.08,0.33 -0.08,0.51l0 -0.01 -0.41 0c0.01,-0.22 0.09,-0.43 0.22,-0.6zm0 1.28c-0.13,-0.17 -0.21,-0.38 -0.22,-0.6l0.41 0c0,0.17 0.03,0.34 0.08,0.51 -0.09,0.02 -0.18,0.05 -0.27,0.09zm0.05 0.06l0 0c0.08,-0.03 0.16,-0.06 0.25,-0.08 0.05,0.14 0.13,0.27 0.24,0.38 -0.19,-0.05 -0.35,-0.16 -0.49,-0.3zm0.72 0.33c-0.16,-0.02 -0.31,-0.18 -0.4,-0.42 0.13,-0.03 0.27,-0.04 0.4,-0.05l0 0.47zm0 -0.54c-0.14,0 -0.28,0.01 -0.43,0.04 -0.05,-0.16 -0.07,-0.32 -0.08,-0.49l0 0 0.51 0 0 0.45zm0 -0.53l-0.5 0c0,-0.17 0.02,-0.33 0.07,-0.49 0.15,0.03 0.29,0.04 0.44,0.05l-0.01 0.44zm0 -0.52c-0.13,0 -0.27,-0.02 -0.4,-0.04 0.09,-0.24 0.24,-0.41 0.4,-0.43l0 0.47zm0.85 -0.08c0.14,0.18 0.22,0.39 0.22,0.61l-0.41 0c0,-0.18 -0.03,-0.35 -0.08,-0.52 0.09,-0.02 0.18,-0.05 0.27,-0.09zm-0.05 -0.06c-0.08,0.04 -0.16,0.06 -0.24,0.08 -0.05,-0.14 -0.13,-0.27 -0.24,-0.37 0.18,0.05 0.35,0.15 0.48,0.29zm-0.72 -0.33c0.17,0.02 0.31,0.19 0.41,0.43 -0.14,0.02 -0.27,0.04 -0.41,0.04l0 -0.47zm0 0.55c0.14,-0.01 0.29,-0.02 0.43,-0.05 0.05,0.16 0.08,0.33 0.08,0.5l-0.51 0 0 -0.45zm0 0.52l0.51 0c0,0.17 -0.03,0.34 -0.08,0.5 -0.14,-0.03 -0.29,-0.05 -0.43,-0.05l0 -0.45zm0 0.99l0 -0.47c0.14,0.01 0.27,0.02 0.41,0.05 -0.1,0.24 -0.24,0.4 -0.41,0.42zm0.24 -0.03c0.11,-0.11 0.19,-0.23 0.24,-0.38 0.08,0.02 0.16,0.05 0.24,0.08 -0.13,0.14 -0.3,0.25 -0.48,0.3zm0.53 -0.36c-0.09,-0.03 -0.18,-0.07 -0.27,-0.09 0.05,-0.17 0.08,-0.34 0.08,-0.51l0 0 0.41 0c0,0.22 -0.08,0.43 -0.22,0.6z"/>
   <path class="fil2" d="M2.55 2.04c0.02,-0.01 0.04,-0.02 0.07,-0.02 0.03,0 0.05,0.01 0.07,0.03 0.01,0.01 0.02,0.02 0.02,0.03 0.01,-0.01 0.02,-0.02 0.02,-0.03 0.03,-0.02 0.06,-0.03 0.09,-0.03 0.03,0 0.06,0.01 0.08,0.03 0.01,0.01 0.02,0.02 0.03,0.03 0,-0.01 0.01,-0.02 0.02,-0.03 0.02,-0.02 0.04,-0.03 0.07,-0.03 0.03,0 0.06,0.01 0.08,0.03 0.02,0.02 0.03,0.05 0.03,0.08 0,0.01 0,0.01 0,0.02 0,0.01 0,0.02 0,0.02l-0.08 0.27c-0.01,0.02 -0.02,0.05 -0.04,0.07 -0.02,0.02 -0.05,0.03 -0.08,0.03 -0.03,0 -0.06,-0.01 -0.09,-0.03 -0.01,-0.01 -0.01,-0.02 -0.02,-0.03 -0.01,0.01 -0.01,0.02 -0.03,0.03 -0.02,0.02 -0.05,0.03 -0.08,0.03 -0.03,0 -0.06,-0.01 -0.08,-0.03 -0.03,-0.02 -0.04,-0.05 -0.05,-0.07l-0.03 -0.13 -0.03 0.13c-0.01,0.02 -0.02,0.05 -0.04,0.07 -0.03,0.02 -0.06,0.03 -0.09,0.03 -0.03,0 -0.06,-0.01 -0.08,-0.03 -0.01,-0.01 -0.02,-0.02 -0.03,-0.03 0,0.01 -0.01,0.02 -0.02,0.03 -0.03,0.02 -0.06,0.03 -0.09,0.03 -0.03,0 -0.06,-0.01 -0.08,-0.03 -0.02,-0.02 -0.03,-0.05 -0.04,-0.07l-0.04 -0.13 -0.03 0.13c-0.01,0.02 -0.02,0.05 -0.04,0.07 -0.02,0.02 -0.05,0.03 -0.08,0.03 -0.03,0 -0.06,-0.01 -0.09,-0.03 -0.01,-0.01 -0.02,-0.02 -0.02,-0.03 -0.01,0.01 -0.02,0.02 -0.03,0.03 -0.02,0.02 -0.05,0.03 -0.08,0.03 -0.03,0 -0.06,-0.01 -0.09,-0.03 -0.02,-0.02 -0.03,-0.05 -0.04,-0.07l-0.07 -0.26c0,-0.01 -0.01,-0.02 -0.01,-0.02 0,-0.01 0,-0.02 0,-0.03 0,-0.03 0.01,-0.06 0.03,-0.08 0.03,-0.02 0.05,-0.03 0.08,-0.03 0.03,0 0.06,0.01 0.08,0.03 0.01,0.01 0.01,0.02 0.02,0.03 0.01,-0.01 0.01,-0.02 0.02,-0.03 0.02,-0.02 0.05,-0.03 0.09,-0.03 0.03,0 0.06,0.01 0.08,0.03 0.01,0.01 0.02,0.02 0.02,0.03 0.01,-0.01 0.02,-0.02 0.02,-0.03 0.02,-0.02 0.05,-0.03 0.08,-0.03 0.02,0 0.05,0.01 0.07,0.02 0.01,-0.01 0.04,-0.02 0.06,-0.02 0.03,0 0.06,0.01 0.08,0.03 0,0.01 0.01,0.02 0.02,0.03 0,-0.01 0.01,-0.02 0.02,-0.03 0.02,-0.02 0.05,-0.03 0.08,-0.03 0.03,0 0.06,0.01 0.09,0.03 0.01,0.01 0.01,0.02 0.02,0.03 0.01,-0.01 0.01,-0.02 0.02,-0.03 0.02,-0.02 0.05,-0.03 0.08,-0.03 0.02,0 0.04,0.01 0.06,0.02z"/>
   <path class="fil3" d="M1.7 2.42c-0.01,0.02 -0.01,0.03 -0.02,0.04 -0.01,0.01 -0.02,0.01 -0.04,0.01 -0.02,0 -0.04,0 -0.05,-0.01 0,-0.01 -0.01,-0.02 -0.02,-0.04l-0.07 -0.26c0,-0.01 0,-0.01 0,-0.01 0,-0.01 0,-0.01 0,-0.02 0,-0.01 0,-0.02 0.01,-0.03 0.01,-0.01 0.02,-0.01 0.03,-0.01 0.02,0 0.03,0 0.03,0.01 0.01,0 0.02,0.02 0.02,0.03l0.05 0.22 0.05 -0.21c0,-0.02 0.01,-0.04 0.01,-0.04 0.01,-0.01 0.03,-0.01 0.05,-0.01 0.01,0 0.03,0 0.04,0.01 0,0 0.01,0.02 0.02,0.04l0.04 0.21 0.05 -0.22c0.01,-0.02 0.01,-0.03 0.02,-0.03 0.01,-0.01 0.02,-0.02 0.03,-0.02 0.01,0 0.02,0.01 0.03,0.02 0.01,0 0.02,0.02 0.02,0.03 0,0 -0.01,0.01 -0.01,0.01 0,0 0,0.01 0,0.02l-0.07 0.26c-0.01,0.02 -0.02,0.03 -0.02,0.04 -0.01,0.01 -0.02,0.01 -0.04,0.01 -0.02,0 -0.04,0 -0.05,-0.01 0,-0.01 -0.01,-0.02 -0.01,-0.04l-0.06 -0.22 -0.04 0.22zm0.53 0c0,0.02 -0.01,0.03 -0.01,0.04 -0.01,0.01 -0.03,0.01 -0.05,0.01 -0.02,0 -0.03,0 -0.04,-0.01 -0.01,-0.01 -0.01,-0.02 -0.02,-0.04l-0.07 -0.26c0,-0.01 -0.01,-0.01 -0.01,-0.01 0,-0.01 0,-0.01 0,-0.02 0,-0.01 0.01,-0.02 0.02,-0.03 0.01,-0.01 0.02,-0.01 0.03,-0.01 0.01,0 0.02,0 0.03,0.01 0.01,0 0.02,0.02 0.02,0.03l0.05 0.22 0.04 -0.21c0.01,-0.02 0.01,-0.04 0.02,-0.04 0.01,-0.01 0.02,-0.01 0.04,-0.01 0.02,0 0.04,0 0.04,0.01 0.01,0 0.02,0.02 0.02,0.04l0.05 0.21 0.05 -0.22c0,-0.02 0.01,-0.03 0.02,-0.03 0,-0.01 0.01,-0.02 0.03,-0.02 0.01,0 0.02,0.01 0.03,0.02 0.01,0 0.01,0.02 0.01,0.03 0,0 0,0.01 0,0.01 0,0 0,0.01 0,0.02l-0.08 0.26c0,0.02 -0.01,0.03 -0.02,0.04 0,0.01 -0.02,0.01 -0.04,0.01 -0.02,0 -0.03,0 -0.04,-0.01 -0.01,-0.01 -0.01,-0.02 -0.02,-0.04l-0.05 -0.22 -0.05 0.22zm0.54 0c0,0.02 -0.01,0.03 -0.02,0.04 -0.01,0.01 -0.02,0.01 -0.04,0.01 -0.02,0 -0.03,0 -0.04,-0.01 -0.01,-0.01 -0.02,-0.02 -0.02,-0.04l-0.08 -0.26c0,-0.01 0,-0.01 0,-0.01 0,-0.01 0,-0.01 0,-0.02 0,-0.01 0,-0.02 0.01,-0.03 0.01,-0.01 0.02,-0.01 0.04,-0.01 0.01,0 0.02,0 0.03,0.01 0.01,0 0.01,0.02 0.02,0.03l0.05 0.22 0.04 -0.21c0,-0.02 0.01,-0.04 0.02,-0.04 0.01,-0.01 0.02,-0.01 0.04,-0.01 0.02,0 0.03,0 0.04,0.01 0.01,0 0.01,0.02 0.02,0.04l0.04 0.21 0.06 -0.22c0,-0.02 0,-0.03 0.01,-0.03 0.01,-0.01 0.02,-0.02 0.03,-0.02 0.02,0 0.03,0.01 0.04,0.02 0,0 0.01,0.02 0.01,0.03 0,0 0,0.01 0,0.01 0,0 0,0.01 -0.01,0.02l-0.07 0.26c-0.01,0.02 -0.01,0.03 -0.02,0.04 -0.01,0.01 -0.02,0.01 -0.04,0.01 -0.02,0 -0.03,0 -0.04,-0.01 -0.01,-0.01 -0.02,-0.02 -0.02,-0.04l-0.05 -0.22 -0.05 0.22z"/>
  </g>
 </g>
</svg>
