<svg xmlns="http://www.w3.org/2000/svg" width="25" height="25" fill="none"><g fill="#252424" opacity=".12"><path d="M5.744 17.224c1.618 0 2.98-1.13 3.38-2.664.033-.125.05-.188.051-.439a2.883 2.883 0 0 0-.105-.652 1.815 1.815 0 0 0-.102-.245H2.52c-.038.075-.07.152-.102.245-.049.145-.106.499-.105.652.002.251.018.314.05.439.401 1.534 1.763 2.664 3.381 2.664ZM18.745 17.224c1.618 0 2.98-1.13 3.38-2.664a1.38 1.38 0 0 0 .051-.439 2.884 2.884 0 0 0-.105-.652 1.828 1.828 0 0 0-.102-.245h-6.448c-.038.075-.07.152-.102.245-.049.145-.106.499-.105.652.002.251.018.314.05.439.401 1.534 1.763 2.664 3.381 2.664Z"/></g><path stroke="#252424" stroke-linecap="round" stroke-linejoin="round" stroke-width="2" d="M2.744 13.224h6m7 0h6m-9.5-6v14m0-14a2.5 2.5 0 0 0 2.5-2.5m-2.5 2.5a2.5 2.5 0 0 1-2.5-2.5m-5.5 16.5h16m-16-16.5h5.5m0 0a2.5 2.5 0 1 1 5 0m0 0h5.5M9.124 14.56c-.4 1.534-1.762 2.664-3.38 2.664-1.618 0-2.98-1.13-3.38-2.664-.033-.125-.05-.188-.051-.439a2.883 2.883 0 0 1 .105-.652c.08-.238.167-.372.34-.64l2.986-4.605 2.985 4.605c.174.268.26.402.341.64.05.145.106.499.105.652-.001.251-.018.314-.05.439Zm13 0c-.4 1.534-1.762 2.664-3.38 2.664-1.618 0-2.98-1.13-3.38-2.664a1.38 1.38 0 0 1-.051-.439 2.884 2.884 0 0 1 .105-.652c.08-.238.167-.372.34-.64l2.986-4.605 2.985 4.605c.174.268.26.402.341.64.05.145.106.499.105.652-.001.251-.018.314-.05.439Z"/></svg>