<svg width="33" height="14" viewBox="0 0 33 14" fill="none" xmlns="http://www.w3.org/2000/svg">
<g id="Wix logoW 1" clip-path="url(#clip0_1352_29061)">
<g id="Clip path group">
<mask id="mask0_1352_29061" style="mask-type:luminance" maskUnits="userSpaceOnUse" x="0" y="0" width="33" height="14">
<g id="clip0_14654_9759">
<path id="Vector" d="M32.616 0.831299H0.75V13.1686H32.616V0.831299Z" fill="white"/>
</g>
</mask>
<g mask="url(#mask0_1352_29061)">
<g id="Group">
<path id="Vector_2" d="M32.6151 0.831299H30.8549C30.3666 0.831299 29.9103 1.0731 29.636 1.47747L27.2821 4.95008C27.2193 5.04219 27.0834 5.04219 27.0207 4.95008L24.6666 1.47747C24.3928 1.0731 23.936 0.831299 23.4477 0.831299H21.6875L25.881 7.01721L21.7106 13.1686H23.4708C23.9591 13.1686 24.4156 12.9269 24.6899 12.5225L27.0207 9.08433C27.0834 8.99224 27.2193 8.99224 27.2821 9.08433L29.6129 12.5225C29.8866 12.9269 30.3435 13.1686 30.8318 13.1686H32.592L28.4218 7.01721L32.6151 0.831299Z" fill="black"/>
<path id="Vector_3" d="M18.0664 2.09328V13.1686H18.9077C19.6049 13.1686 20.1699 12.6038 20.1699 11.9067V0.831299H19.3286C18.6314 0.831299 18.0664 1.39618 18.0664 2.09328Z" fill="black"/>
<path id="Vector_4" d="M16.524 0.831299H15.7753C14.9511 0.831299 14.2369 1.40132 14.0542 2.20492L12.3795 9.5674L10.9135 2.69469C10.6424 1.42447 9.33909 0.567894 8.00542 0.936249C7.15592 1.17084 6.52613 1.88852 6.34244 2.75025L4.89147 9.55814L3.21974 2.20543C3.03657 1.40184 2.32241 0.831299 1.49813 0.831299H0.75L3.55574 13.1681H4.61876C5.5835 13.1681 6.41705 12.4937 6.61824 11.5501L8.4119 3.133C8.43401 3.02858 8.52766 2.95294 8.63416 2.95294C8.74067 2.95294 8.83432 3.02858 8.85645 3.133L10.6516 11.5507C10.8528 12.4942 11.6864 13.1681 12.6511 13.1681H13.7177L16.524 0.831299Z" fill="black"/>
</g>
</g>
</g>
</g>
<defs>
<clipPath id="clip0_1352_29061">
<rect width="32" height="12.3373" fill="white" transform="translate(0.75 0.831299)"/>
</clipPath>
</defs>
</svg>
